<svg width="360" height="46" viewBox="0 0 360 46" fill="none" xmlns="http://www.w3.org/2000/svg">
<rect width="360" height="46" fill="white"/>
<path d="M92.4894 23.8442C91.8369 23.4473 91.8369 22.5527 92.4894 22.1558L102.34 16.1641C103.055 15.7291 104 16.2097 104 17.0083L104 28.9917C104 29.7903 103.055 30.2709 102.34 29.8359L92.4894 23.8442Z" fill="#666666"/>
<path d="M180 29C183.314 29 186 26.3137 186 23C186 19.6863 183.314 17 180 17C176.686 17 174 19.6863 174 23C174 26.3137 176.686 29 180 29Z" fill="#666666"/>
<path fill-rule="evenodd" clip-rule="evenodd" d="M189 23C189 27.9706 184.971 32 180 32C175.029 32 171 27.9706 171 23C171 18.0294 175.029 14 180 14C184.971 14 189 18.0294 189 23ZM187.5 23C187.5 27.1421 184.142 30.5 180 30.5C175.858 30.5 172.5 27.1421 172.5 23C172.5 18.8579 175.858 15.5 180 15.5C184.142 15.5 187.5 18.8579 187.5 23Z" fill="#666666"/>
<rect x="256" y="17" width="12" height="12" rx="1" fill="#666666"/>
</svg>
