<svg width="360" height="32" viewBox="0 0 360 32" fill="none" xmlns="http://www.w3.org/2000/svg">
<rect width="360" height="32" fill="white"/>
<path d="M20.875 11.2261V20.5H19.3452V13.0415L17.0791 13.8096V12.5464L20.6909 11.2261H20.875ZM30.2822 19.2812V20.5H24.0869V19.4526L27.0957 16.1709C27.4258 15.7985 27.686 15.4769 27.8765 15.2061C28.0669 14.9352 28.2002 14.6919 28.2764 14.4761C28.3568 14.256 28.397 14.0423 28.397 13.835C28.397 13.543 28.342 13.2869 28.2319 13.0669C28.1261 12.8426 27.9696 12.667 27.7622 12.54C27.5549 12.4089 27.3031 12.3433 27.0068 12.3433C26.6641 12.3433 26.3763 12.4173 26.1436 12.5654C25.9108 12.7135 25.7352 12.9188 25.6167 13.1812C25.4982 13.4393 25.439 13.7355 25.439 14.0698H23.9092C23.9092 13.5324 24.0319 13.0415 24.2773 12.5972C24.5228 12.1486 24.8783 11.7931 25.3438 11.5308C25.8092 11.2642 26.37 11.1309 27.0259 11.1309C27.6437 11.1309 28.1685 11.2345 28.6001 11.4419C29.0317 11.6493 29.3597 11.9434 29.584 12.3242C29.8125 12.7051 29.9268 13.1558 29.9268 13.6763C29.9268 13.964 29.8802 14.2497 29.7871 14.5332C29.694 14.8167 29.5607 15.1003 29.3872 15.3838C29.2179 15.6631 29.0169 15.9445 28.7842 16.228C28.5514 16.5073 28.2954 16.7909 28.0161 17.0786L26.0166 19.2812H30.2822ZM31.5835 19.7383C31.5835 19.5013 31.6639 19.3024 31.8247 19.1416C31.9855 18.9766 32.2035 18.894 32.4785 18.894C32.7578 18.894 32.9757 18.9766 33.1323 19.1416C33.2931 19.3024 33.3735 19.5013 33.3735 19.7383C33.3735 19.9753 33.2931 20.1742 33.1323 20.335C32.9757 20.4958 32.7578 20.5762 32.4785 20.5762C32.2035 20.5762 31.9855 20.4958 31.8247 20.335C31.6639 20.1742 31.5835 19.9753 31.5835 19.7383ZM31.5898 14.3301C31.5898 14.0931 31.6702 13.8942 31.8311 13.7334C31.9919 13.5684 32.2098 13.4858 32.4849 13.4858C32.7642 13.4858 32.9821 13.5684 33.1387 13.7334C33.2995 13.8942 33.3799 14.0931 33.3799 14.3301C33.3799 14.5671 33.2995 14.766 33.1387 14.9268C32.9821 15.0876 32.7642 15.168 32.4849 15.168C32.2098 15.168 31.9919 15.0876 31.8311 14.9268C31.6702 14.766 31.5898 14.5671 31.5898 14.3301ZM36.6997 15.187H37.6138C37.9692 15.187 38.2633 15.1257 38.4961 15.0029C38.7331 14.8802 38.9087 14.7109 39.0229 14.4951C39.1372 14.2793 39.1943 14.0317 39.1943 13.7524C39.1943 13.4604 39.1414 13.2108 39.0356 13.0034C38.9341 12.7918 38.7775 12.6289 38.5659 12.5146C38.3586 12.4004 38.0941 12.3433 37.7725 12.3433C37.5016 12.3433 37.2562 12.3983 37.0361 12.5083C36.8203 12.6141 36.6489 12.7664 36.522 12.9653C36.395 13.16 36.3315 13.3927 36.3315 13.6636H34.7954C34.7954 13.1727 34.9245 12.7368 35.1826 12.356C35.4408 11.9751 35.792 11.6768 36.2363 11.4609C36.6849 11.2409 37.1885 11.1309 37.7471 11.1309C38.3438 11.1309 38.8643 11.2303 39.3086 11.4292C39.7572 11.6239 40.1063 11.9159 40.356 12.3052C40.6056 12.6945 40.7305 13.1769 40.7305 13.7524C40.7305 14.0148 40.6691 14.2814 40.5464 14.5522C40.4237 14.8231 40.2417 15.0706 40.0005 15.2949C39.7593 15.515 39.4588 15.6948 39.0991 15.8345C38.7394 15.9699 38.3226 16.0376 37.8486 16.0376H36.6997V15.187ZM36.6997 16.3804V15.5425H37.8486C38.3903 15.5425 38.8516 15.606 39.2324 15.7329C39.6175 15.8599 39.9307 16.0355 40.1719 16.2598C40.4131 16.4798 40.5887 16.7316 40.6987 17.0151C40.813 17.2987 40.8701 17.5991 40.8701 17.9165C40.8701 18.3481 40.7918 18.7332 40.6353 19.0718C40.4829 19.4061 40.265 19.6896 39.9814 19.9224C39.6979 20.1551 39.3657 20.3307 38.9849 20.4492C38.6082 20.5677 38.1978 20.627 37.7534 20.627C37.3556 20.627 36.9748 20.5719 36.6108 20.4619C36.2469 20.3519 35.9211 20.189 35.6333 19.9731C35.3455 19.7531 35.117 19.4801 34.9478 19.1543C34.7827 18.8242 34.7002 18.4434 34.7002 18.0117H36.23C36.23 18.2868 36.2935 18.5301 36.4204 18.7417C36.5516 18.9491 36.7336 19.112 36.9663 19.2305C37.2033 19.349 37.4741 19.4082 37.7788 19.4082C38.1004 19.4082 38.3776 19.3511 38.6104 19.2368C38.8431 19.1226 39.0208 18.9533 39.1436 18.729C39.2705 18.5047 39.334 18.2339 39.334 17.9165C39.334 17.5568 39.2642 17.2648 39.1245 17.0405C38.9849 16.8162 38.786 16.6512 38.5278 16.5454C38.2697 16.4354 37.965 16.3804 37.6138 16.3804H36.6997ZM48.3159 15.1045V16.6152C48.3159 17.3389 48.244 17.9567 48.1001 18.4688C47.9604 18.9766 47.7573 19.3892 47.4907 19.7065C47.2241 20.0239 46.9046 20.2567 46.5322 20.4048C46.1641 20.5529 45.7515 20.627 45.2944 20.627C44.9305 20.627 44.592 20.5804 44.2788 20.4873C43.9699 20.3942 43.6906 20.2482 43.4409 20.0493C43.1912 19.8504 42.9775 19.5944 42.7998 19.2812C42.6263 18.9639 42.4909 18.5851 42.3936 18.145C42.3005 17.7049 42.2539 17.195 42.2539 16.6152V15.1045C42.2539 14.3766 42.3258 13.763 42.4697 13.2637C42.6136 12.7601 42.8188 12.3517 43.0854 12.0386C43.3521 11.7212 43.6694 11.4906 44.0376 11.3467C44.41 11.2028 44.8247 11.1309 45.2817 11.1309C45.6499 11.1309 45.9884 11.1774 46.2974 11.2705C46.6105 11.3594 46.8898 11.5011 47.1353 11.6958C47.3849 11.8905 47.5965 12.1444 47.77 12.4575C47.9478 12.7664 48.0832 13.141 48.1763 13.5811C48.2694 14.0169 48.3159 14.5247 48.3159 15.1045ZM46.7861 16.8311V14.876C46.7861 14.5078 46.765 14.1841 46.7227 13.9048C46.6803 13.6213 46.6169 13.3822 46.5322 13.1875C46.4518 12.9886 46.3503 12.8278 46.2275 12.7051C46.1048 12.5781 45.9652 12.4871 45.8086 12.4321C45.652 12.3729 45.4764 12.3433 45.2817 12.3433C45.0448 12.3433 44.8332 12.3898 44.647 12.4829C44.4608 12.5718 44.3042 12.7157 44.1772 12.9146C44.0503 13.1134 43.953 13.3758 43.8853 13.7017C43.8218 14.0233 43.79 14.4147 43.79 14.876V16.8311C43.79 17.2035 43.8112 17.5314 43.8535 17.8149C43.8958 18.0985 43.9593 18.3418 44.0439 18.5449C44.1286 18.7438 44.2301 18.9089 44.3486 19.04C44.4714 19.167 44.611 19.2601 44.7676 19.3193C44.9284 19.3786 45.104 19.4082 45.2944 19.4082C45.5356 19.4082 45.7493 19.3617 45.9355 19.2686C46.1217 19.1755 46.2783 19.0273 46.4053 18.8242C46.5322 18.6169 46.6274 18.3481 46.6909 18.0181C46.7544 17.688 46.7861 17.2923 46.7861 16.8311Z" fill="black"/>
<mask id="mask0_77_4764" style="mask-type:luminance" maskUnits="userSpaceOnUse" x="251" y="10" width="16" height="12">
<path fill-rule="evenodd" clip-rule="evenodd" d="M251 10V13L259 22L267 13V10H259H251Z" fill="white"/>
</mask>
<g mask="url(#mask0_77_4764)">
<path fill-rule="evenodd" clip-rule="evenodd" d="M259 10C252.4 10 247 15.4 247 22C247 28.6 252.4 34 259 34C265.6 34 271 28.6 271 22C271 15.4 265.6 10 259 10ZM259 31C254 31 250 27 250 22C250 17 254 13 259 13C264 13 268 17 268 22C268 27 264 31 259 31Z" fill="black" fill-opacity="0.1"/>
<path fill-rule="evenodd" clip-rule="evenodd" d="M259 13C254 13 250 17 250 22C250 27 254 31 259 31C264 31 268 27 268 22C268 17 264 13 259 13ZM259 28C255.7 28 253 25.3 253 22C253 18.7 255.7 16 259 16C262.3 16 265 18.7 265 22C265 25.3 262.3 28 259 28Z" fill="black"/>
<path fill-rule="evenodd" clip-rule="evenodd" d="M259 16C255.7 16 253 18.7 253 22C253 25.3 255.7 28 259 28C262.3 28 265 25.3 265 22C265 18.7 262.3 16 259 16ZM259 25C257.3 25 256 23.7 256 22C256 20.3 257.3 19 259 19C260.7 19 262 20.3 262 22C262 23.7 260.7 25 259 25Z" fill="black"/>
<path fill-rule="evenodd" clip-rule="evenodd" d="M259 25C260.657 25 262 23.6569 262 22C262 20.3431 260.657 19 259 19C257.343 19 256 20.3431 256 22C256 23.6569 257.343 25 259 25Z" fill="black"/>
</g>
<mask id="mask1_77_4764" style="mask-type:luminance" maskUnits="userSpaceOnUse" x="277" y="10" width="12" height="12">
<path fill-rule="evenodd" clip-rule="evenodd" d="M289 22V10L277 22H289Z" fill="white"/>
</mask>
<g mask="url(#mask1_77_4764)">
<path fill-rule="evenodd" clip-rule="evenodd" d="M286 10V22H289V10H286Z" fill="black" fill-opacity="0.1"/>
<path fill-rule="evenodd" clip-rule="evenodd" d="M283 10V22H286V10H283Z" fill="black" fill-opacity="0.1"/>
<path fill-rule="evenodd" clip-rule="evenodd" d="M280 10V22H283V10H280Z" fill="black"/>
<path fill-rule="evenodd" clip-rule="evenodd" d="M277 10V22H280V10H277Z" fill="black"/>
</g>
<path d="M302.107 16.1011L301.167 15.8599L301.631 11.2578H306.373V12.3433H302.627L302.348 14.8569C302.517 14.7596 302.731 14.6686 302.989 14.584C303.252 14.4993 303.552 14.457 303.891 14.457C304.318 14.457 304.701 14.5311 305.04 14.6792C305.378 14.8231 305.666 15.0304 305.903 15.3013C306.144 15.5721 306.328 15.8979 306.455 16.2788C306.582 16.6597 306.646 17.085 306.646 17.5547C306.646 17.999 306.584 18.4074 306.461 18.7798C306.343 19.1522 306.163 19.478 305.922 19.7573C305.681 20.0324 305.376 20.2461 305.008 20.3984C304.644 20.5508 304.214 20.627 303.719 20.627C303.347 20.627 302.993 20.5762 302.659 20.4746C302.329 20.3688 302.033 20.2101 301.771 19.9985C301.512 19.7827 301.301 19.5161 301.136 19.1987C300.975 18.8771 300.873 18.5005 300.831 18.0688H301.948C301.999 18.4159 302.101 18.7078 302.253 18.9448C302.405 19.1818 302.604 19.3617 302.85 19.4844C303.099 19.6029 303.389 19.6621 303.719 19.6621C303.999 19.6621 304.246 19.6134 304.462 19.5161C304.678 19.4188 304.86 19.2791 305.008 19.0972C305.156 18.9152 305.268 18.6951 305.344 18.437C305.425 18.1789 305.465 17.889 305.465 17.5674C305.465 17.2754 305.425 17.0046 305.344 16.7549C305.264 16.5052 305.143 16.2873 304.982 16.1011C304.826 15.9149 304.633 15.771 304.405 15.6694C304.176 15.5636 303.914 15.5107 303.618 15.5107C303.224 15.5107 302.926 15.5636 302.723 15.6694C302.524 15.7752 302.319 15.9191 302.107 16.1011ZM313.736 15.1426V16.5518C313.736 17.3092 313.668 17.9482 313.533 18.4688C313.397 18.9893 313.203 19.4082 312.949 19.7256C312.695 20.043 312.388 20.2736 312.028 20.4175C311.673 20.5571 311.271 20.627 310.822 20.627C310.467 20.627 310.139 20.5825 309.838 20.4937C309.538 20.4048 309.267 20.263 309.026 20.0684C308.789 19.8695 308.586 19.6113 308.417 19.2939C308.247 18.9766 308.118 18.5915 308.029 18.1387C307.94 17.6859 307.896 17.1569 307.896 16.5518V15.1426C307.896 14.3851 307.964 13.7503 308.099 13.2383C308.239 12.7262 308.436 12.3158 308.689 12.0068C308.943 11.6937 309.248 11.4694 309.604 11.334C309.963 11.1986 310.365 11.1309 310.81 11.1309C311.169 11.1309 311.499 11.1753 311.8 11.2642C312.104 11.3488 312.375 11.4863 312.612 11.6768C312.849 11.863 313.05 12.1126 313.215 12.4258C313.385 12.7347 313.514 13.1134 313.603 13.562C313.691 14.0106 313.736 14.5374 313.736 15.1426ZM312.555 16.7422V14.9458C312.555 14.5311 312.53 14.1672 312.479 13.854C312.432 13.5366 312.363 13.2658 312.27 13.0415C312.176 12.8172 312.058 12.6353 311.914 12.4956C311.774 12.356 311.611 12.2544 311.425 12.1909C311.243 12.1232 311.038 12.0894 310.81 12.0894C310.53 12.0894 310.283 12.1423 310.067 12.248C309.851 12.3496 309.669 12.5125 309.521 12.7368C309.377 12.9611 309.267 13.2552 309.191 13.6191C309.115 13.9831 309.077 14.4253 309.077 14.9458V16.7422C309.077 17.1569 309.1 17.5229 309.146 17.8403C309.197 18.1577 309.271 18.4328 309.369 18.6655C309.466 18.894 309.584 19.0824 309.724 19.2305C309.864 19.3786 310.025 19.4886 310.207 19.5605C310.393 19.6283 310.598 19.6621 310.822 19.6621C311.11 19.6621 311.362 19.6071 311.578 19.4971C311.793 19.387 311.973 19.2157 312.117 18.9829C312.265 18.7459 312.375 18.4434 312.447 18.0752C312.519 17.7028 312.555 17.2585 312.555 16.7422ZM315.145 13.5239V13.0352C315.145 12.6839 315.221 12.3644 315.374 12.0767C315.526 11.7889 315.744 11.5583 316.027 11.3848C316.311 11.2113 316.647 11.1245 317.037 11.1245C317.434 11.1245 317.773 11.2113 318.052 11.3848C318.336 11.5583 318.554 11.7889 318.706 12.0767C318.858 12.3644 318.935 12.6839 318.935 13.0352V13.5239C318.935 13.8667 318.858 14.182 318.706 14.4697C318.558 14.7575 318.342 14.9881 318.059 15.1616C317.779 15.3351 317.443 15.4219 317.049 15.4219C316.656 15.4219 316.315 15.3351 316.027 15.1616C315.744 14.9881 315.526 14.7575 315.374 14.4697C315.221 14.182 315.145 13.8667 315.145 13.5239ZM316.027 13.0352V13.5239C316.027 13.7186 316.063 13.9027 316.135 14.0762C316.211 14.2497 316.326 14.3914 316.478 14.5015C316.63 14.6073 316.821 14.6602 317.049 14.6602C317.278 14.6602 317.466 14.6073 317.614 14.5015C317.762 14.3914 317.872 14.2497 317.944 14.0762C318.016 13.9027 318.052 13.7186 318.052 13.5239V13.0352C318.052 12.8363 318.014 12.6501 317.938 12.4766C317.866 12.2988 317.754 12.1571 317.602 12.0513C317.453 11.9412 317.265 11.8862 317.037 11.8862C316.812 11.8862 316.624 11.9412 316.472 12.0513C316.324 12.1571 316.211 12.2988 316.135 12.4766C316.063 12.6501 316.027 12.8363 316.027 13.0352ZM319.646 18.729V18.2339C319.646 17.8869 319.722 17.5695 319.874 17.2817C320.026 16.994 320.244 16.7633 320.528 16.5898C320.811 16.4163 321.148 16.3296 321.537 16.3296C321.935 16.3296 322.273 16.4163 322.553 16.5898C322.836 16.7633 323.054 16.994 323.207 17.2817C323.359 17.5695 323.435 17.8869 323.435 18.2339V18.729C323.435 19.076 323.359 19.3934 323.207 19.6812C323.058 19.9689 322.843 20.1995 322.559 20.373C322.28 20.5465 321.943 20.6333 321.55 20.6333C321.156 20.6333 320.818 20.5465 320.534 20.373C320.251 20.1995 320.031 19.9689 319.874 19.6812C319.722 19.3934 319.646 19.076 319.646 18.729ZM320.528 18.2339V18.729C320.528 18.9237 320.564 19.1099 320.636 19.2876C320.712 19.4611 320.826 19.6029 320.979 19.7129C321.131 19.8187 321.321 19.8716 321.55 19.8716C321.778 19.8716 321.967 19.8187 322.115 19.7129C322.267 19.6029 322.379 19.4611 322.451 19.2876C322.523 19.1141 322.559 18.9279 322.559 18.729V18.2339C322.559 18.035 322.521 17.8488 322.445 17.6753C322.373 17.5018 322.261 17.3621 322.108 17.2563C321.96 17.1463 321.77 17.0913 321.537 17.0913C321.313 17.0913 321.125 17.1463 320.972 17.2563C320.824 17.3621 320.712 17.5018 320.636 17.6753C320.564 17.8488 320.528 18.035 320.528 18.2339ZM321.829 12.5718L317.316 19.7954L316.656 19.3765L321.169 12.1528L321.829 12.5718Z" fill="black"/>
<mask id="mask2_77_4764" style="mask-type:luminance" maskUnits="userSpaceOnUse" x="328" y="8" width="8" height="14">
<path fill-rule="evenodd" clip-rule="evenodd" d="M335 9.5H334V8.5H330V9.5H329C328.4 9.5 328 9.9 328 10.5V20.5C328 21.1 328.4 21.5 329 21.5H335C335.6 21.5 336 21.1 336 20.5V10.5C336 9.9 335.6 9.5 335 9.5Z" fill="white"/>
</mask>
<g mask="url(#mask2_77_4764)">
<path fill-rule="evenodd" clip-rule="evenodd" d="M328 18.5V21.5H336V18.5H328Z" fill="black"/>
<path fill-rule="evenodd" clip-rule="evenodd" d="M328 15.5V18.5H336V15.5H328Z" fill="black"/>
<path fill-rule="evenodd" clip-rule="evenodd" d="M328 12.5V15.5H336V12.5H328Z" fill="black" fill-opacity="0.1"/>
<path fill-rule="evenodd" clip-rule="evenodd" d="M328 9.5V12.5H336V9.5H328Z" fill="black" fill-opacity="0.1"/>
<path fill-rule="evenodd" clip-rule="evenodd" d="M330 8.5V9.5H334V8.5H330Z" fill="black" fill-opacity="0.1"/>
</g>
</svg>
