<svg width="375" height="141" viewBox="0 0 375 141" fill="none" xmlns="http://www.w3.org/2000/svg">
<rect width="375" height="132" transform="translate(0 9)" fill="#F9F9F9" fill-opacity="0.94"/>
<g filter="url(#filter0_d_77_4278)">
<rect x="22" y="17" width="331" height="44" rx="11.5" fill="white" fill-opacity="0.88" shape-rendering="crispEdges"/>
<path d="M47.3906 45.167C47.8389 45.167 48.0674 44.9736 48.2432 44.4814L49.2715 41.6426H54.1318L55.1514 44.4814C55.3271 44.9736 55.5557 45.167 56.0039 45.167C56.4961 45.167 56.8213 44.877 56.8213 44.4199C56.8213 44.2617 56.7861 44.1211 56.7246 43.9277L52.8838 33.6797C52.6729 33.1084 52.2949 32.8359 51.6973 32.8359C51.126 32.8359 50.7393 33.1084 50.5371 33.6709L46.6963 43.9453C46.626 44.1387 46.5996 44.2793 46.5996 44.4287C46.5996 44.8857 46.8984 45.167 47.3906 45.167ZM49.6934 40.2891L51.6709 34.752H51.7236L53.6924 40.2891H49.6934ZM38.8828 45.167C39.252 45.167 39.498 44.9824 39.6475 44.5078L40.2803 42.6797H43.3301L43.9629 44.5078C44.1211 44.9912 44.3672 45.167 44.7363 45.167C45.1846 45.167 45.501 44.877 45.501 44.4551C45.501 44.2969 45.4658 44.1387 45.3867 43.9189L42.9258 37.3711C42.7324 36.8438 42.3721 36.5186 41.792 36.5186C41.2383 36.5186 40.8867 36.8438 40.6934 37.3711L38.2236 43.9189C38.1445 44.1387 38.1182 44.3057 38.1182 44.4551C38.1182 44.877 38.4258 45.167 38.8828 45.167ZM40.667 41.4756L41.748 38.2236H41.8535L42.9434 41.4756H40.667Z" fill="black"/>
<path opacity="0.5" d="M145.102 45.0381C144.145 45.0381 143.639 44.5186 143.639 43.4863V38.9883C143.639 38.0791 144.035 37.5664 144.787 37.457V35.8984C144.787 33.4854 146.373 32.2891 148.089 32.2891C149.805 32.2891 151.391 33.4854 151.391 35.8984V37.4639C152.143 37.5664 152.539 38.0791 152.539 38.9883V43.4863C152.539 44.5186 152.033 45.0381 151.069 45.0381H145.102ZM145.874 35.7754V37.4365H150.304V35.7754C150.304 34.1826 149.278 33.3281 148.089 33.3281C146.893 33.3281 145.874 34.1826 145.874 35.7754Z" fill="black"/>
<path d="M161.828 44.5V37.2031H160.43V36.0781H161.828V35.1406C161.828 33.4609 162.672 32.6562 164.273 32.6562C164.602 32.6562 164.898 32.6797 165.18 32.7344V33.8203C165.016 33.7891 164.789 33.7812 164.547 33.7812C163.578 33.7812 163.188 34.2578 163.188 35.1797V36.0781H165.102V37.2031H163.188V44.5H161.828ZM167.333 34.4531C166.818 34.4531 166.396 34.0312 166.396 33.5156C166.396 33 166.818 32.5781 167.333 32.5781C167.849 32.5781 168.271 33 168.271 33.5156C168.271 34.0312 167.849 34.4531 167.333 34.4531ZM166.646 44.5V36.0781H168.005V44.5H166.646ZM173.588 47.4688C171.557 47.4688 170.26 46.5547 170.049 45.1719L170.065 45.1641H171.471L171.479 45.1719C171.627 45.8125 172.377 46.2656 173.588 46.2656C175.096 46.2656 175.995 45.5547 175.995 44.3125V42.6094H175.87C175.338 43.5391 174.385 44.0625 173.229 44.0625C171.049 44.0625 169.698 42.375 169.698 40.0156V40C169.698 37.6406 171.057 35.9297 173.26 35.9297C174.448 35.9297 175.37 36.5156 175.885 37.4688H175.979V36.0781H177.338V44.3828C177.338 46.2656 175.885 47.4688 173.588 47.4688ZM173.526 42.8594C175.088 42.8594 176.026 41.6875 176.026 40.0156V40C176.026 38.3281 175.081 37.1328 173.526 37.1328C171.963 37.1328 171.088 38.3281 171.088 40V40.0156C171.088 41.6875 171.963 42.8594 173.526 42.8594ZM179.422 44.5V36.0781H180.781V37.3594H180.906C181.281 36.4531 182.078 35.9297 183.179 35.9297C184.32 35.9297 185.117 36.5312 185.508 37.4062H185.633C186.086 36.5156 187.047 35.9297 188.211 35.9297C189.929 35.9297 190.89 36.9141 190.89 38.6797V44.5H189.531V38.9922C189.531 37.75 188.961 37.1328 187.773 37.1328C186.601 37.1328 185.828 38.0156 185.828 39.0859V44.5H184.469V38.7812C184.469 37.7812 183.781 37.1328 182.719 37.1328C181.617 37.1328 180.781 38.0938 180.781 39.2812V44.5H179.422ZM195.208 44.6484C193.606 44.6484 192.396 43.6797 192.396 42.1484V42.1328C192.396 40.6328 193.505 39.7656 195.466 39.6484L197.88 39.5V38.7344C197.88 37.6953 197.247 37.1328 195.989 37.1328C194.981 37.1328 194.317 37.5078 194.099 38.1641L194.091 38.1875H192.731L192.739 38.1406C192.958 36.8203 194.239 35.9297 196.036 35.9297C198.091 35.9297 199.239 36.9844 199.239 38.7344V44.5H197.88V43.2578H197.755C197.224 44.1562 196.341 44.6484 195.208 44.6484ZM193.786 42.1172C193.786 42.9688 194.513 43.4688 195.489 43.4688C196.872 43.4688 197.88 42.5625 197.88 41.3594V40.5938L195.63 40.7344C194.349 40.8125 193.786 41.2656 193.786 42.1016V42.1172ZM202.385 44.5781C201.83 44.5781 201.369 44.1172 201.369 43.5625C201.369 43 201.83 42.5469 202.385 42.5469C202.947 42.5469 203.401 43 203.401 43.5625C203.401 44.1172 202.947 44.5781 202.385 44.5781ZM208.71 44.6484C206.351 44.6484 204.843 42.9375 204.843 40.2656V40.25C204.843 37.6328 206.343 35.9297 208.703 35.9297C210.75 35.9297 211.976 37.1094 212.226 38.6094L212.234 38.6562H210.882L210.875 38.6328C210.664 37.8047 209.914 37.1328 208.703 37.1328C207.187 37.1328 206.234 38.3516 206.234 40.25V40.2656C206.234 42.2031 207.203 43.4453 208.703 43.4453C209.835 43.4453 210.554 42.9453 210.867 42.0078L210.882 41.9609L212.226 41.9531L212.21 42.0391C211.867 43.5625 210.734 44.6484 208.71 44.6484ZM217.231 44.6484C214.833 44.6484 213.348 42.9922 213.348 40.2969V40.2812C213.348 37.5781 214.833 35.9297 217.231 35.9297C219.63 35.9297 221.114 37.5781 221.114 40.2812V40.2969C221.114 42.9922 219.63 44.6484 217.231 44.6484ZM217.231 43.4453C218.825 43.4453 219.723 42.2812 219.723 40.2969V40.2812C219.723 38.2891 218.825 37.1328 217.231 37.1328C215.637 37.1328 214.739 38.2891 214.739 40.2812V40.2969C214.739 42.2812 215.637 43.4453 217.231 43.4453ZM222.775 44.5V36.0781H224.135V37.3594H224.26C224.635 36.4531 225.432 35.9297 226.533 35.9297C227.674 35.9297 228.471 36.5312 228.861 37.4062H228.986C229.439 36.5156 230.4 35.9297 231.564 35.9297C233.283 35.9297 234.244 36.9141 234.244 38.6797V44.5H232.885V38.9922C232.885 37.75 232.314 37.1328 231.127 37.1328C229.955 37.1328 229.182 38.0156 229.182 39.0859V44.5H227.822V38.7812C227.822 37.7812 227.135 37.1328 226.072 37.1328C224.971 37.1328 224.135 38.0938 224.135 39.2812V44.5H222.775Z" fill="black"/>
<path d="M330.578 38.1113C330.798 38.1113 330.965 38.041 331.097 37.9092L334.516 34.4639C334.674 34.3057 334.744 34.1299 334.744 33.9277C334.744 33.7344 334.665 33.541 334.516 33.3916L331.097 29.9199C330.965 29.7793 330.798 29.7002 330.578 29.7002C330.183 29.7002 329.875 30.0254 329.875 30.4385C329.875 30.623 329.945 30.7988 330.068 30.9482L332.213 33.04C331.765 32.9609 331.308 32.9258 330.859 32.9258C326.764 32.9258 323.485 36.1953 323.485 40.291C323.485 44.3867 326.772 47.6826 330.868 47.6826C334.955 47.6826 338.242 44.3867 338.242 40.291C338.242 39.8604 337.935 39.5439 337.495 39.5439C337.073 39.5439 336.792 39.8604 336.792 40.291C336.792 43.5869 334.155 46.2324 330.868 46.2324C327.572 46.2324 324.936 43.5869 324.936 40.291C324.936 36.9863 327.563 34.3584 330.859 34.3584C331.466 34.3584 332.011 34.4023 332.494 34.499L330.077 36.8984C329.945 37.0391 329.875 37.2061 329.875 37.3906C329.875 37.8037 330.183 38.1113 330.578 38.1113Z" fill="black"/>
</g>
<path d="M24.5762 87.2441C24.5762 87.0293 24.6514 86.8467 24.8125 86.6963L33.4062 78.5107C33.5459 78.3711 33.7285 78.2959 33.9326 78.2959C34.3516 78.2959 34.6738 78.6182 34.6738 79.0371C34.6738 79.2412 34.5879 79.4238 34.4697 79.5635L26.3916 87.2441L34.4697 94.9248C34.5879 95.0537 34.6738 95.2363 34.6738 95.4404C34.6738 95.8701 34.3516 96.1816 33.9326 96.1816C33.7285 96.1816 33.5459 96.1064 33.4062 95.9668L24.8125 87.792C24.6514 87.6416 24.5762 87.459 24.5762 87.2441Z" fill="#007AFF"/>
<path d="M115.663 87.2441C115.663 87.459 115.588 87.6416 115.427 87.792L106.844 95.9668C106.693 96.1064 106.521 96.1816 106.307 96.1816C105.898 96.1816 105.565 95.8701 105.565 95.4404C105.565 95.2363 105.651 95.0537 105.78 94.9248L113.848 87.2441L105.78 79.5635C105.651 79.4238 105.565 79.2412 105.565 79.0371C105.565 78.6182 105.898 78.2959 106.307 78.2959C106.521 78.2959 106.693 78.3711 106.844 78.5107L115.427 86.6963C115.588 86.8467 115.663 87.0293 115.663 87.2441Z" fill="#A3A3A3"/>
<path d="M187.489 90.1445C187.135 90.1445 186.834 89.8545 186.834 89.5V77.9307L186.888 76.373L185.921 77.3613L184.095 79.2627C183.977 79.3916 183.794 79.4561 183.633 79.4561C183.289 79.4561 183.042 79.209 183.042 78.876C183.042 78.6934 183.106 78.5645 183.235 78.4355L187.017 74.7402C187.178 74.5791 187.328 74.5254 187.489 74.5254C187.661 74.5254 187.812 74.5791 187.973 74.7402L191.743 78.4355C191.872 78.5645 191.937 78.6934 191.937 78.876C191.937 79.209 191.679 79.4561 191.335 79.4561C191.174 79.4561 191.002 79.3916 190.884 79.2627L189.058 77.3613L188.102 76.373L188.145 77.9307V89.5C188.145 89.8545 187.854 90.1445 187.489 90.1445ZM181.312 98.416C179.218 98.416 178.144 97.3525 178.144 95.2793V84.3008C178.144 82.2168 179.218 81.1533 181.312 81.1533H184.911V82.4854H181.334C180.131 82.4854 179.476 83.1299 179.476 84.3652V95.2041C179.476 96.4502 180.131 97.084 181.334 97.084H193.645C194.837 97.084 195.514 96.4502 195.514 95.2041V84.3652C195.514 83.1299 194.837 82.4854 193.645 82.4854H190.078V81.1533H193.677C195.771 81.1533 196.846 82.2275 196.846 84.3008V95.2793C196.846 97.3418 195.771 98.416 193.677 98.416H181.312Z" fill="#007AFF"/>
<path d="M254.02 95.5371V80.9707C254.02 80.7881 254.041 80.6592 254.148 80.4766C255.115 78.8652 257.5 77.5654 260.293 77.5654C262.699 77.5654 264.676 78.543 265.75 79.9502C266.824 78.543 268.801 77.5654 271.207 77.5654C274 77.5654 276.385 78.8652 277.352 80.4766C277.459 80.6592 277.48 80.7881 277.48 80.9707V95.5371C277.48 96.1816 277.051 96.4502 276.567 96.4502C276.277 96.4502 276.041 96.2998 275.729 96.085C274.58 95.1504 272.958 94.5811 271.239 94.5918C269.553 94.6025 267.898 95.2686 266.663 96.4932C266.33 96.8154 266.051 96.9229 265.75 96.9229C265.449 96.9229 265.181 96.8262 264.837 96.4932C263.612 95.2471 261.937 94.6025 260.261 94.5918C258.542 94.5811 256.92 95.1504 255.771 96.085C255.459 96.2998 255.212 96.4502 254.933 96.4502C254.449 96.4502 254.02 96.1816 254.02 95.5371ZM255.352 94.7529C256.458 93.8721 258.241 93.2598 260.293 93.2598C262.248 93.2598 264.031 94.0762 265.084 94.9678V81.2285C264.235 79.7891 262.431 78.8975 260.293 78.8975C258.22 78.8975 256.232 79.7891 255.352 81.1318V94.7529ZM266.416 94.9678C267.469 94.0762 269.252 93.2598 271.207 93.2598C273.259 93.2598 275.053 93.8721 276.148 94.7529V81.1318C275.257 79.7891 273.28 78.8975 271.207 78.8975C269.069 78.8975 267.254 79.7891 266.416 81.2285V94.9678Z" fill="#007AFF"/>
<path d="M335.997 93.4854C333.892 93.4854 332.828 92.4219 332.828 90.3486V79.499C332.828 77.415 333.892 76.3623 335.997 76.3623H346.782C348.877 76.3623 349.951 77.4365 349.951 79.499V81.0459H351.992C354.087 81.0459 355.161 82.1094 355.161 84.1826V95.0215C355.161 97.0947 354.087 98.1689 351.992 98.1689H341.207C339.102 98.1689 338.038 97.1055 338.038 95.0215V93.4854H335.997ZM336.019 92.1533H338.038V84.1826C338.038 82.0986 339.102 81.0459 341.207 81.0459H348.619V79.5742C348.619 78.3281 347.942 77.6943 346.761 77.6943H336.019C334.815 77.6943 334.16 78.3281 334.16 79.5742V90.2734C334.16 91.5195 334.815 92.1533 336.019 92.1533ZM341.229 96.8369H351.971C353.152 96.8369 353.829 96.1924 353.829 94.957V84.2471C353.829 83.0117 353.152 82.3672 351.971 82.3672H341.229C340.025 82.3672 339.37 83.0117 339.37 84.2471V94.957C339.37 96.1924 340.025 96.8369 341.229 96.8369Z" fill="#007AFF"/>
<rect x="121" y="128" width="133" height="5" rx="2.5" fill="black"/>
<defs>
<filter id="filter0_d_77_4278" x="5" y="0" width="365" height="78" filterUnits="userSpaceOnUse" color-interpolation-filters="sRGB">
<feFlood flood-opacity="0" result="BackgroundImageFix"/>
<feColorMatrix in="SourceAlpha" type="matrix" values="0 0 0 0 0 0 0 0 0 0 0 0 0 0 0 0 0 0 127 0" result="hardAlpha"/>
<feOffset/>
<feGaussianBlur stdDeviation="8.5"/>
<feComposite in2="hardAlpha" operator="out"/>
<feColorMatrix type="matrix" values="0 0 0 0 0 0 0 0 0 0 0 0 0 0 0 0 0 0 0.13 0"/>
<feBlend mode="normal" in2="BackgroundImageFix" result="effect1_dropShadow_77_4278"/>
<feBlend mode="normal" in="SourceGraphic" in2="effect1_dropShadow_77_4278" result="shape"/>
</filter>
</defs>
</svg>
