<svg width="810" height="70" viewBox="0 0 810 70" fill="none" xmlns="http://www.w3.org/2000/svg">
<rect width="812" height="48" transform="translate(0 11)" fill="#F9F9F9" fill-opacity="0.94"/>
<path d="M76.3062 35.2441C76.3062 35.0293 76.3814 34.8467 76.5425 34.6963L85.1363 26.5107C85.2759 26.3711 85.4585 26.2959 85.6626 26.2959C86.0816 26.2959 86.4038 26.6182 86.4038 27.0371C86.4038 27.2412 86.3179 27.4238 86.1997 27.5635L78.1216 35.2441L86.1997 42.9248C86.3179 43.0537 86.4038 43.2363 86.4038 43.4404C86.4038 43.8701 86.0816 44.1816 85.6626 44.1816C85.4585 44.1816 85.2759 44.1064 85.1363 43.9668L76.5425 35.792C76.3814 35.6416 76.3062 35.459 76.3062 35.2441Z" fill="#007AFF"/>
<path d="M122.913 35.2441C122.913 35.459 122.838 35.6416 122.677 35.792L114.094 43.9668C113.943 44.1064 113.771 44.1816 113.557 44.1816C113.148 44.1816 112.815 43.8701 112.815 43.4404C112.815 43.2363 112.901 43.0537 113.03 42.9248L121.098 35.2441L113.03 27.5635C112.901 27.4238 112.815 27.2412 112.815 27.0371C112.815 26.6182 113.148 26.2959 113.557 26.2959C113.771 26.2959 113.943 26.3711 114.094 26.5107L122.677 34.6963C122.838 34.8467 122.913 35.0293 122.913 35.2441Z" fill="#A3A3A3"/>
<path d="M144.77 43.5371V28.9707C144.77 28.7881 144.791 28.6592 144.898 28.4766C145.865 26.8652 148.25 25.5654 151.043 25.5654C153.449 25.5654 155.426 26.543 156.5 27.9502C157.574 26.543 159.551 25.5654 161.957 25.5654C164.75 25.5654 167.135 26.8652 168.102 28.4766C168.209 28.6592 168.23 28.7881 168.23 28.9707V43.5371C168.23 44.1816 167.801 44.4502 167.317 44.4502C167.027 44.4502 166.791 44.2998 166.479 44.085C165.33 43.1504 163.708 42.5811 161.989 42.5918C160.303 42.6025 158.648 43.2686 157.413 44.4932C157.08 44.8154 156.801 44.9229 156.5 44.9229C156.199 44.9229 155.931 44.8262 155.587 44.4932C154.362 43.2471 152.687 42.6025 151.011 42.5918C149.292 42.5811 147.67 43.1504 146.521 44.085C146.209 44.2998 145.962 44.4502 145.683 44.4502C145.199 44.4502 144.77 44.1816 144.77 43.5371ZM146.102 42.7529C147.208 41.8721 148.991 41.2598 151.043 41.2598C152.998 41.2598 154.781 42.0762 155.834 42.9678V29.2285C154.985 27.7891 153.181 26.8975 151.043 26.8975C148.97 26.8975 146.982 27.7891 146.102 29.1318V42.7529ZM157.166 42.9678C158.219 42.0762 160.002 41.2598 161.957 41.2598C164.009 41.2598 165.803 41.8721 166.898 42.7529V29.1318C166.007 27.7891 164.03 26.8975 161.957 26.8975C159.819 26.8975 158.004 27.7891 157.166 29.2285V42.9678Z" fill="#007AFF"/>
<g filter="url(#filter0_d_77_4335)">
<rect x="204" y="17.5" width="404" height="35" rx="11.5" fill="white" fill-opacity="0.88" shape-rendering="crispEdges"/>
<path d="M224.391 41.167C224.839 41.167 225.067 40.9736 225.243 40.4814L226.271 37.6426H231.132L232.151 40.4814C232.327 40.9736 232.556 41.167 233.004 41.167C233.496 41.167 233.821 40.877 233.821 40.4199C233.821 40.2617 233.786 40.1211 233.725 39.9277L229.884 29.6797C229.673 29.1084 229.295 28.8359 228.697 28.8359C228.126 28.8359 227.739 29.1084 227.537 29.6709L223.696 39.9453C223.626 40.1387 223.6 40.2793 223.6 40.4287C223.6 40.8857 223.898 41.167 224.391 41.167ZM226.693 36.2891L228.671 30.752H228.724L230.692 36.2891H226.693ZM215.883 41.167C216.252 41.167 216.498 40.9824 216.647 40.5078L217.28 38.6797H220.33L220.963 40.5078C221.121 40.9912 221.367 41.167 221.736 41.167C222.185 41.167 222.501 40.877 222.501 40.4551C222.501 40.2969 222.466 40.1387 222.387 39.9189L219.926 33.3711C219.732 32.8438 219.372 32.5186 218.792 32.5186C218.238 32.5186 217.887 32.8438 217.693 33.3711L215.224 39.9189C215.145 40.1387 215.118 40.3057 215.118 40.4551C215.118 40.877 215.426 41.167 215.883 41.167ZM217.667 37.4756L218.748 34.2236H218.854L219.943 37.4756H217.667Z" fill="black"/>
<path opacity="0.5" d="M362.602 41.0381C361.645 41.0381 361.139 40.5186 361.139 39.4863V34.9883C361.139 34.0791 361.535 33.5664 362.287 33.457V31.8984C362.287 29.4854 363.873 28.2891 365.589 28.2891C367.305 28.2891 368.891 29.4854 368.891 31.8984V33.4639C369.643 33.5664 370.039 34.0791 370.039 34.9883V39.4863C370.039 40.5186 369.533 41.0381 368.569 41.0381H362.602ZM363.374 31.7754V33.4365H367.804V31.7754C367.804 30.1826 366.778 29.3281 365.589 29.3281C364.393 29.3281 363.374 30.1826 363.374 31.7754Z" fill="black"/>
<path d="M377.328 40.5V33.2031H375.93V32.0781H377.328V31.1406C377.328 29.4609 378.172 28.6562 379.773 28.6562C380.102 28.6562 380.398 28.6797 380.68 28.7344V29.8203C380.516 29.7891 380.289 29.7812 380.047 29.7812C379.078 29.7812 378.688 30.2578 378.688 31.1797V32.0781H380.602V33.2031H378.688V40.5H377.328ZM383.281 30.4531C382.766 30.4531 382.344 30.0312 382.344 29.5156C382.344 29 382.766 28.5781 383.281 28.5781C383.797 28.5781 384.219 29 384.219 29.5156C384.219 30.0312 383.797 30.4531 383.281 30.4531ZM382.594 40.5V32.0781H383.953V40.5H382.594ZM389.984 43.4688C387.953 43.4688 386.656 42.5547 386.445 41.1719L386.461 41.1641H387.867L387.875 41.1719C388.023 41.8125 388.773 42.2656 389.984 42.2656C391.492 42.2656 392.391 41.5547 392.391 40.3125V38.6094H392.266C391.734 39.5391 390.781 40.0625 389.625 40.0625C387.445 40.0625 386.094 38.375 386.094 36.0156V36C386.094 33.6406 387.453 31.9297 389.656 31.9297C390.844 31.9297 391.766 32.5156 392.281 33.4688H392.375V32.0781H393.734V40.3828C393.734 42.2656 392.281 43.4688 389.984 43.4688ZM389.922 38.8594C391.484 38.8594 392.422 37.6875 392.422 36.0156V36C392.422 34.3281 391.477 33.1328 389.922 33.1328C388.359 33.1328 387.484 34.3281 387.484 36V36.0156C387.484 37.6875 388.359 38.8594 389.922 38.8594ZM396.266 40.5V32.0781H397.625V33.3594H397.75C398.125 32.4531 398.922 31.9297 400.023 31.9297C401.164 31.9297 401.961 32.5312 402.352 33.4062H402.477C402.93 32.5156 403.891 31.9297 405.055 31.9297C406.773 31.9297 407.734 32.9141 407.734 34.6797V40.5H406.375V34.9922C406.375 33.75 405.805 33.1328 404.617 33.1328C403.445 33.1328 402.672 34.0156 402.672 35.0859V40.5H401.312V34.7812C401.312 33.7812 400.625 33.1328 399.562 33.1328C398.461 33.1328 397.625 34.0938 397.625 35.2812V40.5H396.266ZM412.5 40.6484C410.898 40.6484 409.688 39.6797 409.688 38.1484V38.1328C409.688 36.6328 410.797 35.7656 412.758 35.6484L415.172 35.5V34.7344C415.172 33.6953 414.539 33.1328 413.281 33.1328C412.273 33.1328 411.609 33.5078 411.391 34.1641L411.383 34.1875H410.023L410.031 34.1406C410.25 32.8203 411.531 31.9297 413.328 31.9297C415.383 31.9297 416.531 32.9844 416.531 34.7344V40.5H415.172V39.2578H415.047C414.516 40.1562 413.633 40.6484 412.5 40.6484ZM411.078 38.1172C411.078 38.9688 411.805 39.4688 412.781 39.4688C414.164 39.4688 415.172 38.5625 415.172 37.3594V36.5938L412.922 36.7344C411.641 36.8125 411.078 37.2656 411.078 38.1016V38.1172ZM420.125 40.5781C419.57 40.5781 419.109 40.1172 419.109 39.5625C419.109 39 419.57 38.5469 420.125 38.5469C420.688 38.5469 421.141 39 421.141 39.5625C421.141 40.1172 420.688 40.5781 420.125 40.5781ZM426.898 40.6484C424.539 40.6484 423.031 38.9375 423.031 36.2656V36.25C423.031 33.6328 424.531 31.9297 426.891 31.9297C428.938 31.9297 430.164 33.1094 430.414 34.6094L430.422 34.6562H429.07L429.062 34.6328C428.852 33.8047 428.102 33.1328 426.891 33.1328C425.375 33.1328 424.422 34.3516 424.422 36.25V36.2656C424.422 38.2031 425.391 39.4453 426.891 39.4453C428.023 39.4453 428.742 38.9453 429.055 38.0078L429.07 37.9609L430.414 37.9531L430.398 38.0391C430.055 39.5625 428.922 40.6484 426.898 40.6484ZM435.867 40.6484C433.469 40.6484 431.984 38.9922 431.984 36.2969V36.2812C431.984 33.5781 433.469 31.9297 435.867 31.9297C438.266 31.9297 439.75 33.5781 439.75 36.2812V36.2969C439.75 38.9922 438.266 40.6484 435.867 40.6484ZM435.867 39.4453C437.461 39.4453 438.359 38.2812 438.359 36.2969V36.2812C438.359 34.2891 437.461 33.1328 435.867 33.1328C434.273 33.1328 433.375 34.2891 433.375 36.2812V36.2969C433.375 38.2812 434.273 39.4453 435.867 39.4453ZM441.859 40.5V32.0781H443.219V33.3594H443.344C443.719 32.4531 444.516 31.9297 445.617 31.9297C446.758 31.9297 447.555 32.5312 447.945 33.4062H448.07C448.523 32.5156 449.484 31.9297 450.648 31.9297C452.367 31.9297 453.328 32.9141 453.328 34.6797V40.5H451.969V34.9922C451.969 33.75 451.398 33.1328 450.211 33.1328C449.039 33.1328 448.266 34.0156 448.266 35.0859V40.5H446.906V34.7812C446.906 33.7812 446.219 33.1328 445.156 33.1328C444.055 33.1328 443.219 34.0938 443.219 35.2812V40.5H441.859Z" fill="black"/>
<path d="M590.578 34.1113C590.798 34.1113 590.965 34.041 591.097 33.9092L594.516 30.4639C594.674 30.3057 594.744 30.1299 594.744 29.9277C594.744 29.7344 594.665 29.541 594.516 29.3916L591.097 25.9199C590.965 25.7793 590.798 25.7002 590.578 25.7002C590.183 25.7002 589.875 26.0254 589.875 26.4385C589.875 26.623 589.945 26.7988 590.068 26.9482L592.213 29.04C591.765 28.9609 591.308 28.9258 590.859 28.9258C586.764 28.9258 583.485 32.1953 583.485 36.291C583.485 40.3867 586.772 43.6826 590.868 43.6826C594.955 43.6826 598.242 40.3867 598.242 36.291C598.242 35.8604 597.935 35.5439 597.495 35.5439C597.073 35.5439 596.792 35.8604 596.792 36.291C596.792 39.5869 594.155 42.2324 590.868 42.2324C587.572 42.2324 584.936 39.5869 584.936 36.291C584.936 32.9863 587.563 30.3584 590.859 30.3584C591.466 30.3584 592.011 30.4023 592.494 30.499L590.077 32.8984C589.945 33.0391 589.875 33.2061 589.875 33.3906C589.875 33.8037 590.183 34.1113 590.578 34.1113Z" fill="black"/>
</g>
<path d="M638.585 38.1445C638.23 38.1445 637.93 37.8545 637.93 37.5V25.9307L637.983 24.373L637.017 25.3613L635.19 27.2627C635.072 27.3916 634.89 27.4561 634.729 27.4561C634.385 27.4561 634.138 27.209 634.138 26.876C634.138 26.6934 634.202 26.5645 634.331 26.4355L638.112 22.7402C638.273 22.5791 638.424 22.5254 638.585 22.5254C638.757 22.5254 638.907 22.5791 639.068 22.7402L642.839 26.4355C642.968 26.5645 643.032 26.6934 643.032 26.876C643.032 27.209 642.774 27.4561 642.431 27.4561C642.27 27.4561 642.098 27.3916 641.979 27.2627L640.153 25.3613L639.197 24.373L639.24 25.9307V37.5C639.24 37.8545 638.95 38.1445 638.585 38.1445ZM632.408 46.416C630.313 46.416 629.239 45.3525 629.239 43.2793V32.3008C629.239 30.2168 630.313 29.1533 632.408 29.1533H635.48V30.4854H632.43C631.227 30.4854 630.571 31.1299 630.571 32.3652V43.2041C630.571 44.4502 631.227 45.084 632.43 45.084H644.74C645.933 45.084 646.609 44.4502 646.609 43.2041V32.3652C646.609 31.1299 645.933 30.4854 644.74 30.4854H641.711V29.1533H644.772C646.867 29.1533 647.941 30.2275 647.941 32.3008V43.2793C647.941 45.3418 646.867 46.416 644.772 46.416H632.408Z" fill="#007AFF"/>
<path d="M670.739 35.2441C670.739 34.8467 671.072 34.5137 671.47 34.5137H678.71V27.2627C678.71 26.876 679.043 26.543 679.44 26.543C679.838 26.543 680.171 26.876 680.171 27.2627V34.5137H687.422C687.809 34.5137 688.142 34.8467 688.142 35.2441C688.142 35.6416 687.809 35.9746 687.422 35.9746H680.171V43.2148C680.171 43.6123 679.838 43.9453 679.44 43.9453C679.043 43.9453 678.71 43.6123 678.71 43.2148V35.9746H671.47C671.072 35.9746 670.739 35.6416 670.739 35.2441Z" fill="#007AFF"/>
<path d="M715.408 41.4854C713.303 41.4854 712.239 40.4219 712.239 38.3486V27.499C712.239 25.415 713.303 24.3623 715.408 24.3623H726.193C728.288 24.3623 729.362 25.4365 729.362 27.499V29.0459H731.403C733.498 29.0459 734.572 30.1094 734.572 32.1826V43.0215C734.572 45.0947 733.498 46.1689 731.403 46.1689H720.618C718.513 46.1689 717.449 45.1055 717.449 43.0215V41.4854H715.408ZM715.43 40.1533H717.449V32.1826C717.449 30.0986 718.513 29.0459 720.618 29.0459H728.03V27.5742C728.03 26.3281 727.354 25.6943 726.172 25.6943H715.43C714.227 25.6943 713.571 26.3281 713.571 27.5742V38.2734C713.571 39.5195 714.227 40.1533 715.43 40.1533ZM720.64 44.8369H731.382C732.563 44.8369 733.24 44.1924 733.24 42.957V32.2471C733.24 31.0117 732.563 30.3672 731.382 30.3672H720.64C719.437 30.3672 718.781 31.0117 718.781 32.2471V42.957C718.781 44.1924 719.437 44.8369 720.64 44.8369Z" fill="#007AFF"/>
<defs>
<filter id="filter0_d_77_4335" x="187" y="0.5" width="438" height="69" filterUnits="userSpaceOnUse" color-interpolation-filters="sRGB">
<feFlood flood-opacity="0" result="BackgroundImageFix"/>
<feColorMatrix in="SourceAlpha" type="matrix" values="0 0 0 0 0 0 0 0 0 0 0 0 0 0 0 0 0 0 127 0" result="hardAlpha"/>
<feOffset/>
<feGaussianBlur stdDeviation="8.5"/>
<feComposite in2="hardAlpha" operator="out"/>
<feColorMatrix type="matrix" values="0 0 0 0 0 0 0 0 0 0 0 0 0 0 0 0 0 0 0.13 0"/>
<feBlend mode="normal" in2="BackgroundImageFix" result="effect1_dropShadow_77_4335"/>
<feBlend mode="normal" in="SourceGraphic" in2="effect1_dropShadow_77_4335" result="shape"/>
</filter>
</defs>
</svg>
