<svg width="375" height="52" viewBox="0 0 375 52" fill="none" xmlns="http://www.w3.org/2000/svg">
<rect width="375" height="52" fill="#3D3D3D" fill-opacity="0.94"/>
<path d="M155.291 24.0283H159.709C160.315 24.0283 160.613 23.7305 160.613 23.0713V19.6582C160.613 19.0674 160.369 18.7646 159.866 18.7158V17.5586C159.866 15.8154 158.713 14.9707 157.502 14.9707C156.287 14.9707 155.134 15.8154 155.134 17.5586V18.7354C154.67 18.8086 154.387 19.1064 154.387 19.6582V23.0713C154.387 23.7305 154.685 24.0283 155.291 24.0283ZM155.925 17.4658C155.925 16.333 156.648 15.7275 157.502 15.7275C158.352 15.7275 159.075 16.333 159.075 17.4658V18.7061L155.925 18.7158V17.4658Z" fill="#9B9BA1"/>
<path d="M164.657 24V18.4613H163.761V17.5711H164.657V16.7798C164.657 15.5435 165.232 14.9563 166.419 14.9563C166.66 14.9563 166.914 14.9748 167.075 14.9995V15.8711C166.945 15.8526 166.778 15.8464 166.611 15.8464C166.017 15.8464 165.721 16.1493 165.721 16.786V17.5711H167.044V18.4613H165.733V24H164.657ZM168.889 16.4831C168.518 16.4831 168.215 16.1802 168.215 15.8093C168.215 15.4322 168.518 15.1355 168.889 15.1355C169.266 15.1355 169.562 15.4322 169.562 15.8093C169.562 16.1802 169.266 16.4831 168.889 16.4831ZM168.351 24V17.5711H169.427V24H168.351ZM173.738 26.2872C172.149 26.2872 171.148 25.5392 170.938 24.5873L170.925 24.5316H172.007L172.032 24.5873C172.236 25.0509 172.848 25.3352 173.726 25.3352C174.857 25.3352 175.5 24.7109 175.5 23.7156V22.8935H175.475C175.092 23.6044 174.35 24.0618 173.429 24.0618C171.809 24.0618 170.703 22.7575 170.703 20.7485V20.7423C170.703 18.7456 171.822 17.4475 173.454 17.4475C174.362 17.4475 175.079 17.942 175.475 18.6591H175.5V17.5711H176.575V23.8207C176.575 25.3105 175.481 26.2872 173.738 26.2872ZM173.664 23.1098C174.758 23.1098 175.5 22.1764 175.5 20.7485V20.7423C175.5 19.3267 174.752 18.3994 173.664 18.3994C172.52 18.3994 171.803 19.3143 171.803 20.7423V20.7485C171.803 22.2073 172.52 23.1098 173.664 23.1098ZM178.093 24V17.5711H179.169V18.5107H179.193C179.484 17.874 180.127 17.4475 180.955 17.4475C181.833 17.4475 182.482 17.8987 182.76 18.6838H182.785C183.143 17.9111 183.897 17.4475 184.8 17.4475C186.073 17.4475 186.896 18.282 186.896 19.5616V24H185.82V19.8088C185.82 18.9249 185.332 18.3994 184.485 18.3994C183.632 18.3994 183.032 19.0361 183.032 19.9139V24H181.956V19.6914C181.956 18.9125 181.437 18.3994 180.64 18.3994C179.787 18.3994 179.169 19.0732 179.169 19.9696V24H178.093ZM190.274 24.1236C188.994 24.1236 188.135 23.3509 188.135 22.1826V22.1702C188.135 21.0761 188.988 20.3899 190.465 20.3034L192.307 20.1983V19.6605C192.307 18.8754 191.794 18.3994 190.898 18.3994C190.07 18.3994 189.55 18.7951 189.427 19.37L189.414 19.4256H188.376L188.382 19.3576C188.475 18.3005 189.396 17.4475 190.91 17.4475C192.431 17.4475 193.383 18.2696 193.383 19.5554V24H192.307V22.9553H192.283C191.906 23.66 191.133 24.1236 190.274 24.1236ZM189.235 22.1826C189.235 22.8008 189.742 23.1902 190.515 23.1902C191.529 23.1902 192.307 22.4917 192.307 21.5583V21.0328L190.589 21.1379C189.73 21.1874 189.235 21.5706 189.235 22.1702V22.1826ZM195.537 24.0865C195.142 24.0865 194.833 23.7775 194.833 23.3818C194.833 22.9862 195.142 22.6771 195.537 22.6771C195.933 22.6771 196.242 22.9862 196.242 23.3818C196.242 23.7775 195.933 24.0865 195.537 24.0865ZM200.016 24.1236C198.192 24.1236 197.036 22.8255 197.036 20.7794V20.7732C197.036 18.7456 198.217 17.4475 200.003 17.4475C201.604 17.4475 202.55 18.5107 202.686 19.611L202.692 19.6605H201.642L201.629 19.611C201.468 18.9681 200.949 18.3994 200.003 18.3994C198.884 18.3994 198.137 19.3267 198.137 20.7855V20.7917C198.137 22.2877 198.903 23.1717 200.016 23.1717C200.894 23.1717 201.456 22.6771 201.635 21.9601L201.648 21.9106H202.705L202.699 21.9539C202.525 23.1778 201.468 24.1236 200.016 24.1236ZM206.485 24.1236C204.698 24.1236 203.505 22.8317 203.505 20.7855V20.7732C203.505 18.7271 204.704 17.4475 206.479 17.4475C208.253 17.4475 209.458 18.7209 209.458 20.7732V20.7855C209.458 22.8379 208.259 24.1236 206.485 24.1236ZM206.491 23.1717C207.622 23.1717 208.358 22.2939 208.358 20.7855V20.7732C208.358 19.2649 207.616 18.3994 206.479 18.3994C205.36 18.3994 204.605 19.271 204.605 20.7732V20.7855C204.605 22.3 205.353 23.1717 206.491 23.1717ZM210.673 24V17.5711H211.748V18.5107H211.773C212.064 17.874 212.706 17.4475 213.535 17.4475C214.413 17.4475 215.062 17.8987 215.34 18.6838H215.365C215.723 17.9111 216.477 17.4475 217.38 17.4475C218.653 17.4475 219.475 18.282 219.475 19.5616V24H218.4V19.8088C218.4 18.9249 217.911 18.3994 217.064 18.3994C216.211 18.3994 215.612 19.0361 215.612 19.9139V24H214.536V19.6914C214.536 18.9125 214.017 18.3994 213.219 18.3994C212.366 18.3994 211.748 19.0732 211.748 19.9696V24H210.673Z" fill="white"/>
<rect x="121" y="39" width="133" height="5" rx="2.5" fill="white"/>
</svg>
