<svg width="375" height="128" viewBox="0 0 375 128" fill="none" xmlns="http://www.w3.org/2000/svg">
<g clip-path="url(#clip0_3_94)">
<path d="M375 0H0V128H375V0Z" fill="#F7F7F7"/>
<path d="M22 74.0054C22 74.2216 22.0745 74.4054 22.234 74.5568L30.7447 82.7838C30.883 82.9243 31.0638 83 31.266 83C31.6809 83 32 82.6865 32 82.2541C32 82.0486 31.9149 81.8649 31.7979 81.7351L23.7979 74.0054L31.7979 66.2757C31.9149 66.1351 32 65.9514 32 65.7459C32 65.3243 31.6809 65 31.266 65C31.0638 65 30.883 65.0757 30.7447 65.2162L22.234 73.4541C22.0745 73.6054 22 73.7892 22 74.0054Z" fill="#2E7CF6"/>
<path d="M113 74.0054C113 73.7892 112.926 73.6054 112.766 73.4541L104.266 65.2162C104.117 65.0757 103.947 65 103.734 65C103.33 65 103 65.3243 103 65.7459C103 65.9514 103.085 66.1351 103.213 66.2757L111.202 74.0054L103.213 81.7351C103.085 81.8649 103 82.0486 103 82.2541C103 82.6865 103.33 83 103.734 83C103.947 83 104.117 82.9243 104.266 82.7838L112.766 74.5568C112.926 74.4054 113 74.2216 113 74.0054Z" fill="#2E7CF6"/>
<path d="M187.005 77.6906C187.346 77.6906 187.636 77.3993 187.636 77.0432V65.4209L187.594 63.8561L188.515 64.8489L190.272 66.759C190.386 66.8885 190.551 66.9532 190.706 66.9532C191.027 66.9532 191.285 66.705 191.285 66.3705C191.285 66.1871 191.213 66.0576 191.099 65.9281L187.46 62.2158C187.305 62.054 187.171 62 187.005 62C186.84 62 186.705 62.054 186.55 62.2158L182.911 65.9281C182.787 66.0576 182.715 66.1871 182.715 66.3705C182.715 66.705 182.963 66.9532 183.294 66.9532C183.449 66.9532 183.624 66.8885 183.738 66.759L185.496 64.8489L186.416 63.8561L186.374 65.4209V77.0432C186.374 77.3993 186.664 77.6906 187.005 77.6906ZM181.05 86H192.95C194.966 86 196 84.9209 196 82.8489V71.8201C196 69.7374 194.966 68.6583 192.95 68.6583H190.003V69.9964H192.919C194.067 69.9964 194.718 70.6439 194.718 71.8849V82.7734C194.718 84.0252 194.067 84.6619 192.919 84.6619H181.071C179.913 84.6619 179.282 84.0252 179.282 82.7734V71.8849C179.282 70.6439 179.913 69.9964 181.071 69.9964H184.007V68.6583H181.05C179.034 68.6583 178 69.7266 178 71.8201V82.8489C178 84.9317 179.034 86 181.05 86Z" fill="#2E7CF6"/>
<path d="M266 66.0234C265.335 65.1182 263.053 64 260.36 64C257.136 64 254.432 65.5868 254 66.886V83.0948C254 83.7338 254.432 84 254.931 84C255.33 84 255.562 83.8829 255.795 83.7018C256.537 83.0202 257.934 82.1896 260.36 82.1896C262.831 82.1896 264.371 83.0309 264.981 83.6486C265.213 83.8403 265.49 84 266 84C266.499 84 266.776 83.819 267.019 83.6486C267.662 83.0522 269.169 82.1896 271.64 82.1896C274.066 82.1896 275.496 82.9989 276.205 83.7018C276.438 83.8829 276.67 84 277.069 84C277.568 84 278 83.7338 278 83.0948V66.886C277.568 65.5868 274.864 64 271.64 64C268.947 64 266.665 65.1182 266 66.0234ZM255.463 67.312C255.629 66.6411 257.59 65.3312 260.36 65.3312C263.141 65.3312 265.114 66.6518 265.269 67.312V82.3067C264.15 81.3908 262.343 80.8797 260.36 80.8797C258.366 80.8797 256.56 81.4015 255.463 82.328V67.312ZM276.537 67.312V82.328C275.429 81.4015 273.634 80.8797 271.64 80.8797C269.657 80.8797 267.85 81.3908 266.731 82.3067V67.312C266.886 66.6518 268.859 65.3312 271.64 65.3312C274.41 65.3312 276.36 66.6411 276.537 67.312Z" fill="#2E7CF6"/>
<path d="M337.122 80.2749H339.132V81.8246C339.132 83.9271 340.18 85 342.254 85H352.878C354.942 85 356 83.9163 356 81.8246V70.8897C356 68.798 354.942 67.7251 352.878 67.7251H350.868V66.1645C350.868 64.0837 349.81 63 347.746 63H337.122C335.048 63 334 64.0621 334 66.1645V77.1103C334 79.202 335.048 80.2749 337.122 80.2749ZM337.143 78.931C335.958 78.931 335.312 78.2916 335.312 77.0345V66.2404C335.312 64.9833 335.958 64.3438 337.143 64.3438H347.725C348.889 64.3438 349.556 64.9833 349.556 66.2404V67.7251H342.254C340.18 67.7251 339.132 68.7872 339.132 70.8897V78.931H337.143ZM342.275 83.6562C341.09 83.6562 340.444 83.0059 340.444 81.7596V70.9547C340.444 69.7084 341.09 69.0581 342.275 69.0581H352.857C354.021 69.0581 354.688 69.7084 354.688 70.9547V81.7596C354.688 83.0059 354.021 83.6562 352.857 83.6562H342.275Z" fill="#2E7CF6"/>
<g filter="url(#filter0_d_3_94)">
<path d="M338 8H37C31.4772 8 27 12.4772 27 18V40C27 45.5228 31.4772 50 37 50H338C343.523 50 348 45.5228 348 40V18C348 12.4772 343.523 8 338 8Z" fill="white"/>
</g>
<path d="M326.669 27.8161C326.896 27.8161 327.068 27.7455 327.195 27.6131L330.925 23.9596C331.088 23.8096 331.152 23.6331 331.152 23.4301C331.152 23.2359 331.07 23.0418 330.925 22.9006L327.195 19.2118C327.068 19.0706 326.887 19 326.669 19C326.262 19 325.954 19.3177 325.954 19.7236C325.954 19.909 326.027 20.0855 326.153 20.2267L328.571 22.5388C328.055 22.4505 327.53 22.3976 327.005 22.3976C322.568 22.3976 319 25.8658 319 30.19C319 34.523 322.568 38 327.005 38C331.441 38 335 34.523 335 30.19C335 29.7664 334.692 29.4575 334.248 29.4575C333.823 29.4575 333.542 29.7664 333.542 30.19C333.542 33.7376 330.636 36.5792 327.005 36.5792C323.374 36.5792 320.458 33.7376 320.458 30.19C320.458 26.6512 323.374 23.8184 327.005 23.8184C327.693 23.8184 328.327 23.8713 328.87 23.9861L326.162 26.6071C326.027 26.7483 325.954 26.9248 325.954 27.1101C325.954 27.516 326.262 27.8161 326.669 27.8161Z" fill="black"/>
<path d="M143.293 35.5H149.707C150.576 35.5 151 35.0736 151 34.1407V29.2499C151 28.4103 150.65 27.9772 149.929 27.9039V26.2248C149.929 23.7127 148.265 22.5 146.5 22.5C144.735 22.5 143.071 23.7127 143.071 26.2248V27.9372C142.411 28.0372 142 28.4636 142 29.2499V34.1407C142 35.0736 142.424 35.5 143.293 35.5ZM144.156 26.0848C144.156 24.4124 145.24 23.5261 146.5 23.5261C147.76 23.5261 148.844 24.4124 148.844 26.0848V27.8972L144.156 27.9039V26.0848Z" fill="#676769"/>
<path d="M162.106 35.1758C163.328 35.1758 164.427 34.5166 164.963 33.5146H164.998V35H166.527V28.6807C166.527 26.8525 165.174 25.6836 163.012 25.6836C160.858 25.6836 159.549 26.8965 159.417 28.3994L159.408 28.4961H160.885L160.902 28.417C161.078 27.5996 161.816 27.0371 162.994 27.0371C164.269 27.0371 164.998 27.7139 164.998 28.8301V29.5947L162.379 29.7441C160.278 29.8672 159.065 30.8428 159.065 32.3984V32.416C159.065 34.0771 160.287 35.1758 162.106 35.1758ZM160.63 32.416V32.3984C160.63 31.5459 161.333 31.001 162.555 30.9307L164.998 30.7812V31.5283C164.998 32.8555 163.891 33.8486 162.449 33.8486C161.351 33.8486 160.63 33.2949 160.63 32.416ZM168.47 38.0762H169.999V33.4707H170.034C170.605 34.5254 171.669 35.1758 172.961 35.1758C175.255 35.1758 176.819 33.3213 176.819 30.4385V30.4297C176.819 27.5469 175.272 25.6836 172.935 25.6836C171.625 25.6836 170.605 26.3428 170.034 27.4062H169.999V25.8594H168.47V38.0762ZM172.636 33.8223C171.098 33.8223 169.99 32.4775 169.99 30.4385V30.4297C169.99 28.3818 171.089 27.0371 172.636 27.0371C174.253 27.0371 175.255 28.3291 175.255 30.4297V30.4385C175.255 32.5215 174.253 33.8223 172.636 33.8223ZM178.366 38.0762H179.896V33.4707H179.931C180.502 34.5254 181.565 35.1758 182.857 35.1758C185.151 35.1758 186.716 33.3213 186.716 30.4385V30.4297C186.716 27.5469 185.169 25.6836 182.831 25.6836C181.521 25.6836 180.502 26.3428 179.931 27.4062H179.896V25.8594H178.366V38.0762ZM182.532 33.8223C180.994 33.8223 179.887 32.4775 179.887 30.4385V30.4297C179.887 28.3818 180.985 27.0371 182.532 27.0371C184.149 27.0371 185.151 28.3291 185.151 30.4297V30.4385C185.151 32.5215 184.149 33.8223 182.532 33.8223ZM188.342 35H189.871V22.3174H188.342V35ZM195.698 35.1758C197.693 35.1758 199.188 33.9805 199.486 32.4688L199.504 32.3809H198.001L197.975 32.46C197.711 33.2422 196.894 33.8223 195.733 33.8223C194.107 33.8223 193.07 32.7236 193.035 30.8428H199.618V30.2803C199.618 27.5381 198.098 25.6836 195.602 25.6836C193.105 25.6836 191.488 27.626 191.488 30.4561V30.4648C191.488 33.3389 193.07 35.1758 195.698 35.1758ZM195.593 27.0371C196.929 27.0371 197.913 27.8721 198.062 29.6475H193.062C193.229 27.9424 194.266 27.0371 195.593 27.0371ZM202.105 35.123C202.668 35.123 203.107 34.6836 203.107 34.1211C203.107 33.5586 202.668 33.1191 202.105 33.1191C201.543 33.1191 201.104 33.5586 201.104 34.1211C201.104 34.6836 201.543 35.123 202.105 35.123ZM208.293 35.1758C210.358 35.1758 211.861 33.8311 212.107 32.0908L212.116 32.0293H210.613L210.596 32.0996C210.341 33.1191 209.541 33.8223 208.293 33.8223C206.711 33.8223 205.621 32.5654 205.621 30.4385V30.4297C205.621 28.3555 206.685 27.0371 208.275 27.0371C209.62 27.0371 210.358 27.8457 210.587 28.7598L210.604 28.8301H212.099L212.09 28.7598C211.896 27.1953 210.552 25.6836 208.275 25.6836C205.735 25.6836 204.057 27.5293 204.057 30.4121V30.4209C204.057 33.3301 205.7 35.1758 208.293 35.1758ZM217.311 35.1758C219.833 35.1758 221.538 33.3477 221.538 30.4297V30.4121C221.538 27.4941 219.824 25.6836 217.302 25.6836C214.779 25.6836 213.074 27.5029 213.074 30.4121V30.4297C213.074 33.3389 214.771 35.1758 217.311 35.1758ZM217.319 33.8223C215.702 33.8223 214.639 32.583 214.639 30.4297V30.4121C214.639 28.2764 215.711 27.0371 217.302 27.0371C218.919 27.0371 219.974 28.2676 219.974 30.4121V30.4297C219.974 32.5742 218.928 33.8223 217.319 33.8223ZM223.085 35H224.614V29.2695C224.614 27.9951 225.493 27.0371 226.706 27.0371C227.84 27.0371 228.578 27.7666 228.578 28.874V35H230.107V29.1904C230.107 27.9424 230.96 27.0371 232.173 27.0371C233.377 27.0371 234.071 27.7842 234.071 29.041V35H235.601V28.6895C235.601 26.8701 234.432 25.6836 232.621 25.6836C231.338 25.6836 230.266 26.3428 229.756 27.4414H229.721C229.325 26.3252 228.402 25.6836 227.154 25.6836C225.977 25.6836 225.062 26.29 224.649 27.1953H224.614V25.8594H223.085V35Z" fill="#202124"/>
<path d="M42.5238 34.9619C42.7858 34.9619 42.9371 34.8477 43.0361 34.5867L43.7753 32.6397H47.0988L47.8438 34.5867C47.9428 34.8477 48.0941 34.9619 48.356 34.9619C48.6587 34.9619 48.8799 34.7825 48.8799 34.5323C48.8799 34.4616 48.8624 34.38 48.8158 34.2604L46.1093 27.4296C45.9812 27.1088 45.7717 26.9619 45.4516 26.9619C45.1082 26.9619 44.8928 27.1142 44.7648 27.4351L42.064 34.2604C42.0175 34.38 42 34.4616 42 34.5323C42 34.7825 42.2212 34.9619 42.5238 34.9619ZM44.0779 31.8076L45.4225 28.2291H45.4574L46.8019 31.8076H44.0779Z" fill="#202124"/>
<path d="M50.466 35C50.8589 35 51.0859 34.8287 51.2343 34.4371L52.3431 31.5167H57.3284L58.4459 34.4371C58.5943 34.8287 58.8213 35 59.2142 35C59.6682 35 60 34.7308 60 34.3555C60 34.2495 59.9738 34.1271 59.904 33.9477L55.8441 23.7016C55.6521 23.2203 55.3378 23 54.8576 23C54.3424 23 54.0194 23.2284 53.8273 23.7097L49.7762 33.9477C49.7064 34.1271 49.6802 34.2495 49.6802 34.3555C49.6802 34.7308 50.012 35 50.466 35ZM52.7971 30.2685L54.8139 24.9007H54.8663L56.8831 30.2685H52.7971Z" fill="#202124"/>
</g>
<defs>
<filter id="filter0_d_3_94" x="15" y="-2" width="345" height="66" filterUnits="userSpaceOnUse" color-interpolation-filters="sRGB">
<feFlood flood-opacity="0" result="BackgroundImageFix"/>
<feColorMatrix in="SourceAlpha" type="matrix" values="0 0 0 0 0 0 0 0 0 0 0 0 0 0 0 0 0 0 127 0" result="hardAlpha"/>
<feOffset dy="2"/>
<feGaussianBlur stdDeviation="6"/>
<feComposite in2="hardAlpha" operator="out"/>
<feColorMatrix type="matrix" values="0 0 0 0 0 0 0 0 0 0 0 0 0 0 0 0 0 0 0.13 0"/>
<feBlend mode="normal" in2="BackgroundImageFix" result="effect1_dropShadow_3_94"/>
<feBlend mode="normal" in="SourceGraphic" in2="effect1_dropShadow_3_94" result="shape"/>
</filter>
<clipPath id="clip0_3_94">
<rect width="375" height="128" fill="white"/>
</clipPath>
</defs>
</svg>
