<svg width="375" height="56" viewBox="0 0 375 56" fill="none" xmlns="http://www.w3.org/2000/svg">
<g clip-path="url(#clip0_744_781)">
<rect width="375" height="56" fill="#F7F7F7"/>
<rect x="10" y="11" width="356" height="34" rx="10" fill="#E3E3E3"/>
<path d="M347.669 26.8161C347.896 26.8161 348.068 26.7455 348.195 26.6131L351.925 22.9596C352.088 22.8096 352.152 22.6331 352.152 22.4301C352.152 22.2359 352.07 22.0418 351.925 21.9006L348.195 18.2118C348.068 18.0706 347.887 18 347.669 18C347.262 18 346.954 18.3177 346.954 18.7236C346.954 18.909 347.027 19.0855 347.153 19.2267L349.571 21.5388C349.055 21.4505 348.53 21.3976 348.005 21.3976C343.568 21.3976 340 24.8658 340 29.19C340 33.523 343.568 37 348.005 37C352.441 37 356 33.523 356 29.19C356 28.7664 355.692 28.4575 355.248 28.4575C354.823 28.4575 354.542 28.7664 354.542 29.19C354.542 32.7376 351.636 35.5792 348.005 35.5792C344.374 35.5792 341.458 32.7376 341.458 29.19C341.458 25.6512 344.374 22.8184 348.005 22.8184C348.693 22.8184 349.327 22.8713 349.87 22.9861L347.162 25.6071C347.027 25.7483 346.954 25.9248 346.954 26.1101C346.954 26.516 347.262 26.8161 347.669 26.8161Z" fill="black"/>
<path d="M19.5238 33.9619C19.7858 33.9619 19.9371 33.8477 20.0361 33.5867L20.7753 31.6397H24.0988L24.8438 33.5867C24.9428 33.8477 25.0941 33.9619 25.356 33.9619C25.6587 33.9619 25.8799 33.7825 25.8799 33.5323C25.8799 33.4616 25.8624 33.38 25.8158 33.2604L23.1093 26.4296C22.9812 26.1088 22.7717 25.9619 22.4516 25.9619C22.1082 25.9619 21.8928 26.1142 21.7648 26.4351L19.064 33.2604C19.0175 33.38 19 33.4616 19 33.5323C19 33.7825 19.2212 33.9619 19.5238 33.9619ZM21.0779 30.8076L22.4225 27.2291H22.4574L23.8019 30.8076H21.0779Z" fill="#202124"/>
<path d="M27.466 34C27.8589 34 28.0859 33.8287 28.2343 33.4371L29.3431 30.5167H34.3284L35.4459 33.4371C35.5943 33.8287 35.8213 34 36.2142 34C36.6682 34 37 33.7308 37 33.3555C37 33.2495 36.9738 33.1271 36.904 32.9477L32.8441 22.7016C32.6521 22.2203 32.3378 22 31.8576 22C31.3424 22 31.0194 22.2284 30.8273 22.7097L26.7762 32.9477C26.7064 33.1271 26.6802 33.2495 26.6802 33.3555C26.6802 33.7308 27.012 34 27.466 34ZM29.7971 29.2685L31.8139 23.9007H31.8663L33.8831 29.2685H29.7971Z" fill="#202124"/>
<path d="M142.793 34.5H149.207C150.076 34.5 150.5 34.0736 150.5 33.1407V28.2499C150.5 27.4103 150.15 26.9772 149.429 26.9039V25.2248C149.429 22.7127 147.765 21.5 146 21.5C144.235 21.5 142.571 22.7127 142.571 25.2248V26.9372C141.911 27.0372 141.5 27.4636 141.5 28.2499V33.1407C141.5 34.0736 141.924 34.5 142.793 34.5ZM143.656 25.0848C143.656 23.4124 144.74 22.5261 146 22.5261C147.26 22.5261 148.344 23.4124 148.344 25.0848V26.8972L143.656 26.9039V25.0848Z" fill="black"/>
<path d="M161.606 34.1758C162.828 34.1758 163.927 33.5166 164.463 32.5146H164.498V34H166.027V27.6807C166.027 25.8525 164.674 24.6836 162.512 24.6836C160.358 24.6836 159.049 25.8965 158.917 27.3994L158.908 27.4961H160.385L160.402 27.417C160.578 26.5996 161.316 26.0371 162.494 26.0371C163.769 26.0371 164.498 26.7139 164.498 27.8301V28.5947L161.879 28.7441C159.778 28.8672 158.565 29.8428 158.565 31.3984V31.416C158.565 33.0771 159.787 34.1758 161.606 34.1758ZM160.13 31.416V31.3984C160.13 30.5459 160.833 30.001 162.055 29.9307L164.498 29.7812V30.5283C164.498 31.8555 163.391 32.8486 161.949 32.8486C160.851 32.8486 160.13 32.2949 160.13 31.416ZM167.97 37.0762H169.499V32.4707H169.534C170.105 33.5254 171.169 34.1758 172.461 34.1758C174.755 34.1758 176.319 32.3213 176.319 29.4385V29.4297C176.319 26.5469 174.772 24.6836 172.435 24.6836C171.125 24.6836 170.105 25.3428 169.534 26.4062H169.499V24.8594H167.97V37.0762ZM172.136 32.8223C170.598 32.8223 169.49 31.4775 169.49 29.4385V29.4297C169.49 27.3818 170.589 26.0371 172.136 26.0371C173.753 26.0371 174.755 27.3291 174.755 29.4297V29.4385C174.755 31.5215 173.753 32.8223 172.136 32.8223ZM177.866 37.0762H179.396V32.4707H179.431C180.002 33.5254 181.065 34.1758 182.357 34.1758C184.651 34.1758 186.216 32.3213 186.216 29.4385V29.4297C186.216 26.5469 184.669 24.6836 182.331 24.6836C181.021 24.6836 180.002 25.3428 179.431 26.4062H179.396V24.8594H177.866V37.0762ZM182.032 32.8223C180.494 32.8223 179.387 31.4775 179.387 29.4385V29.4297C179.387 27.3818 180.485 26.0371 182.032 26.0371C183.649 26.0371 184.651 27.3291 184.651 29.4297V29.4385C184.651 31.5215 183.649 32.8223 182.032 32.8223ZM187.842 34H189.371V21.3174H187.842V34ZM195.198 34.1758C197.193 34.1758 198.688 32.9805 198.986 31.4688L199.004 31.3809H197.501L197.475 31.46C197.211 32.2422 196.394 32.8223 195.233 32.8223C193.607 32.8223 192.57 31.7236 192.535 29.8428H199.118V29.2803C199.118 26.5381 197.598 24.6836 195.102 24.6836C192.605 24.6836 190.988 26.626 190.988 29.4561V29.4648C190.988 32.3389 192.57 34.1758 195.198 34.1758ZM195.093 26.0371C196.429 26.0371 197.413 26.8721 197.562 28.6475H192.562C192.729 26.9424 193.766 26.0371 195.093 26.0371ZM201.605 34.123C202.168 34.123 202.607 33.6836 202.607 33.1211C202.607 32.5586 202.168 32.1191 201.605 32.1191C201.043 32.1191 200.604 32.5586 200.604 33.1211C200.604 33.6836 201.043 34.123 201.605 34.123ZM207.793 34.1758C209.858 34.1758 211.361 32.8311 211.607 31.0908L211.616 31.0293H210.113L210.096 31.0996C209.841 32.1191 209.041 32.8223 207.793 32.8223C206.211 32.8223 205.121 31.5654 205.121 29.4385V29.4297C205.121 27.3555 206.185 26.0371 207.775 26.0371C209.12 26.0371 209.858 26.8457 210.087 27.7598L210.104 27.8301H211.599L211.59 27.7598C211.396 26.1953 210.052 24.6836 207.775 24.6836C205.235 24.6836 203.557 26.5293 203.557 29.4121V29.4209C203.557 32.3301 205.2 34.1758 207.793 34.1758ZM216.811 34.1758C219.333 34.1758 221.038 32.3477 221.038 29.4297V29.4121C221.038 26.4941 219.324 24.6836 216.802 24.6836C214.279 24.6836 212.574 26.5029 212.574 29.4121V29.4297C212.574 32.3389 214.271 34.1758 216.811 34.1758ZM216.819 32.8223C215.202 32.8223 214.139 31.583 214.139 29.4297V29.4121C214.139 27.2764 215.211 26.0371 216.802 26.0371C218.419 26.0371 219.474 27.2676 219.474 29.4121V29.4297C219.474 31.5742 218.428 32.8223 216.819 32.8223ZM222.585 34H224.114V28.2695C224.114 26.9951 224.993 26.0371 226.206 26.0371C227.34 26.0371 228.078 26.7666 228.078 27.874V34H229.607V28.1904C229.607 26.9424 230.46 26.0371 231.673 26.0371C232.877 26.0371 233.571 26.7842 233.571 28.041V34H235.101V27.6895C235.101 25.8701 233.932 24.6836 232.121 24.6836C230.838 24.6836 229.766 25.3428 229.256 26.4414H229.221C228.825 25.3252 227.902 24.6836 226.654 24.6836C225.477 24.6836 224.562 25.29 224.149 26.1953H224.114V24.8594H222.585V34Z" fill="#202124"/>
</g>
<defs>
<clipPath id="clip0_744_781">
<rect width="375" height="56" fill="white"/>
</clipPath>
</defs>
</svg>
