<svg width="375" height="76" viewBox="0 0 375 76" fill="none" xmlns="http://www.w3.org/2000/svg">
<mask id="path-1-outside-1_77_4632" maskUnits="userSpaceOnUse" x="0" y="0" width="375" height="76" fill="black">
<rect fill="white" width="375" height="76"/>
<path d="M0 1H375V76H0V1Z"/>
</mask>
<path d="M0 1H375V76H0V1Z" fill="white"/>
<path d="M0 1.5H375V0.5H0V1.5Z" fill="black" fill-opacity="0.1" mask="url(#path-1-outside-1_77_4632)"/>
<path d="M27.2756 29.9394C27.7951 30.4587 28.6371 30.4587 29.1565 29.9393C29.6756 29.4202 29.676 28.5787 29.1573 28.0591L24.4399 23.3331H39.3333C40.0696 23.3331 40.6666 22.7361 40.6666 21.9998C40.6666 21.2634 40.0696 20.6664 39.3333 20.6664H24.4399L29.1578 15.9376C29.6762 15.4179 29.6757 14.5766 29.1567 14.0576C28.6372 13.5381 27.795 13.5381 27.2756 14.0576L20.5906 20.7425C19.8962 21.4368 19.8963 22.5626 20.5908 23.2569L27.2756 29.9394Z" fill="#7F868C"/>
<path d="M111.724 29.9394C111.205 30.4587 110.363 30.4587 109.843 29.9393C109.324 29.4202 109.324 28.5787 109.843 28.0591L114.56 23.3331H99.6666C98.9302 23.3331 98.3333 22.7361 98.3333 21.9998C98.3333 21.2634 98.9302 20.6664 99.6666 20.6664H114.56L109.842 15.9376C109.324 15.4179 109.324 14.5766 109.843 14.0576C110.363 13.5381 111.205 13.5381 111.724 14.0576L118.409 20.7425C119.104 21.4368 119.104 22.5626 118.409 23.2569L111.724 29.9394Z" fill="#C8C8C8"/>
<g clip-path="url(#clip0_77_4632)">
<circle cx="188" cy="22" r="17" fill="#E8EAED"/>
<path fill-rule="evenodd" clip-rule="evenodd" d="M188.802 14.1579C188.802 13.6166 188.363 13.1777 187.822 13.1777C187.281 13.1777 186.842 13.6166 186.842 14.1579V21.0186H179.98C179.439 21.0186 179 21.4574 179 21.9988C179 22.5401 179.439 22.979 179.98 22.979H186.842V29.8411C186.842 30.3825 187.281 30.8213 187.822 30.8213C188.363 30.8213 188.802 30.3825 188.802 29.8411V22.979H196.02C196.561 22.979 197 22.5401 197 21.9988C197 21.4574 196.561 21.0186 196.02 21.0186H188.802V14.1579Z" fill="#7F868C"/>
</g>
<rect x="257" y="12" width="20" height="20" rx="4" stroke="#7F868C" stroke-width="2.27273"/>
<path d="M266.866 26V19.7803H266.769L264.868 21.1016V19.6406L266.871 18.2495H268.488V26H266.866Z" fill="#7F868C"/>
<path fill-rule="evenodd" clip-rule="evenodd" d="M333 22.5C333 23.8807 331.881 25 330.5 25C329.119 25 328 23.8807 328 22.5C328 21.1193 329.119 20 330.5 20C331.881 20 333 21.1193 333 22.5ZM341 22.5C341 23.8807 339.881 25 338.5 25C337.119 25 336 23.8807 336 22.5C336 21.1193 337.119 20 338.5 20C339.881 20 341 21.1193 341 22.5ZM346.5 25C347.881 25 349 23.8807 349 22.5C349 21.1193 347.881 20 346.5 20C345.119 20 344 21.1193 344 22.5C344 23.8807 345.119 25 346.5 25Z" fill="#7F868C"/>
<rect x="121" y="63" width="133" height="5" rx="2.5" fill="black"/>
<defs>
<clipPath id="clip0_77_4632">
<rect width="34" height="34" fill="white" transform="translate(171 5)"/>
</clipPath>
</defs>
</svg>
