<svg width="812" height="22" viewBox="0 0 812 22" fill="none" xmlns="http://www.w3.org/2000/svg">
<mask id="path-1-inside-1_77_4666" fill="white">
<path d="M0 0H812V22H0V0Z"/>
</mask>
<path d="M0 0H812V22H0V0Z" fill="#F9F9F9" fill-opacity="0.94"/>
<path d="M812 22V21H0V22V23H812V22Z" fill="black" fill-opacity="0.1" mask="url(#path-1-inside-1_77_4666)"/>
<path d="M378.545 15V9.46125H377.648V8.57109H378.545V7.77984C378.545 6.54352 379.12 5.95626 380.306 5.95626C380.548 5.95626 380.801 5.9748 380.962 5.99953V6.87114C380.832 6.8526 380.665 6.84642 380.498 6.84642C379.905 6.84642 379.608 7.14932 379.608 7.78603V8.57109H380.931V9.46125H379.62V15H378.545ZM382.776 7.48313C382.405 7.48313 382.102 7.18022 382.102 6.80933C382.102 6.43225 382.405 6.13553 382.776 6.13553C383.153 6.13553 383.45 6.43225 383.45 6.80933C383.45 7.18022 383.153 7.48313 382.776 7.48313ZM382.238 15V8.57109H383.314V15H382.238ZM387.625 17.2872C386.037 17.2872 385.035 16.5392 384.825 15.5873L384.813 15.5316H385.894L385.919 15.5873C386.123 16.0509 386.735 16.3352 387.613 16.3352C388.744 16.3352 389.387 15.7109 389.387 14.7156V13.8935H389.362C388.979 14.6044 388.237 15.0618 387.316 15.0618C385.697 15.0618 384.59 13.7575 384.59 11.7485V11.7423C384.59 9.74561 385.709 8.44746 387.341 8.44746C388.25 8.44746 388.967 8.94199 389.362 9.65906H389.387V8.57109H390.463V14.8207C390.463 16.3105 389.369 17.2872 387.625 17.2872ZM387.551 14.1098C388.645 14.1098 389.387 13.1764 389.387 11.7485V11.7423C389.387 10.3267 388.639 9.39943 387.551 9.39943C386.407 9.39943 385.69 10.3143 385.69 11.7423V11.7485C385.69 13.2073 386.407 14.1098 387.551 14.1098ZM391.98 15V8.57109H393.056V9.5107H393.08C393.371 8.87399 394.014 8.44746 394.842 8.44746C395.72 8.44746 396.369 8.89872 396.647 9.68379H396.672C397.031 8.91108 397.785 8.44746 398.687 8.44746C399.961 8.44746 400.783 9.28198 400.783 10.5616V15H399.707V10.8088C399.707 9.92487 399.219 9.39943 398.372 9.39943C397.519 9.39943 396.919 10.0361 396.919 10.9139V15H395.844V10.6914C395.844 9.91251 395.324 9.39943 394.527 9.39943C393.674 9.39943 393.056 10.0732 393.056 10.9696V15H391.98ZM404.161 15.1236C402.881 15.1236 402.022 14.3509 402.022 13.1826V13.1702C402.022 12.0761 402.875 11.3899 404.353 11.3034L406.195 11.1983V10.6605C406.195 9.87542 405.682 9.39943 404.785 9.39943C403.957 9.39943 403.438 9.79506 403.314 10.37L403.302 10.4256H402.263L402.269 10.3576C402.362 9.30053 403.283 8.44746 404.798 8.44746C406.318 8.44746 407.27 9.26962 407.27 10.5554V15H406.195V13.9553H406.17C405.793 14.66 405.02 15.1236 404.161 15.1236ZM403.122 13.1826C403.122 13.8008 403.629 14.1902 404.402 14.1902C405.416 14.1902 406.195 13.4917 406.195 12.5583V12.0328L404.476 12.1379C403.617 12.1874 403.122 12.5706 403.122 13.1702V13.1826ZM409.424 15.0865C409.029 15.0865 408.72 14.7775 408.72 14.3818C408.72 13.9862 409.029 13.6771 409.424 13.6771C409.82 13.6771 410.129 13.9862 410.129 14.3818C410.129 14.7775 409.82 15.0865 409.424 15.0865ZM413.903 15.1236C412.079 15.1236 410.923 13.8255 410.923 11.7794V11.7732C410.923 9.74561 412.104 8.44746 413.891 8.44746C415.492 8.44746 416.437 9.5107 416.573 10.611L416.58 10.6605H415.529L415.516 10.611C415.356 9.96814 414.836 9.39943 413.891 9.39943C412.772 9.39943 412.024 10.3267 412.024 11.7855V11.7917C412.024 13.2877 412.79 14.1717 413.903 14.1717C414.781 14.1717 415.343 13.6771 415.523 12.9601L415.535 12.9106H416.592L416.586 12.9539C416.413 14.1778 415.356 15.1236 413.903 15.1236ZM420.372 15.1236C418.585 15.1236 417.392 13.8317 417.392 11.7855V11.7732C417.392 9.72706 418.592 8.44746 420.366 8.44746C422.14 8.44746 423.345 9.72088 423.345 11.7732V11.7855C423.345 13.8379 422.146 15.1236 420.372 15.1236ZM420.378 14.1717C421.509 14.1717 422.245 13.2939 422.245 11.7855V11.7732C422.245 10.2649 421.503 9.39943 420.366 9.39943C419.247 9.39943 418.493 10.271 418.493 11.7732V11.7855C418.493 13.3 419.241 14.1717 420.378 14.1717ZM424.56 15V8.57109H425.635V9.5107H425.66C425.951 8.87399 426.594 8.44746 427.422 8.44746C428.3 8.44746 428.949 8.89872 429.227 9.68379H429.252C429.61 8.91108 430.364 8.44746 431.267 8.44746C432.54 8.44746 433.362 9.28198 433.362 10.5616V15H432.287V10.8088C432.287 9.92487 431.799 9.39943 430.952 9.39943C430.099 9.39943 429.499 10.0361 429.499 10.9139V15H428.423V10.6914C428.423 9.91251 427.904 9.39943 427.107 9.39943C426.254 9.39943 425.635 10.0732 425.635 10.9696V15H424.56Z" fill="black"/>
</svg>
