<svg width="812" height="57" viewBox="0 0 812 57" fill="none" xmlns="http://www.w3.org/2000/svg">
<rect width="812" height="57" fill="#343739"/>
<path d="M83.2756 36.4394C83.7951 36.9587 84.6371 36.9587 85.1565 36.4393C85.6756 35.9202 85.676 35.0787 85.1573 34.5591L80.4399 29.8331H95.3333C96.0696 29.8331 96.6666 29.2361 96.6666 28.4998C96.6666 27.7634 96.0696 27.1664 95.3333 27.1664H80.4399L85.1578 22.4376C85.6762 21.9179 85.6757 21.0766 85.1567 20.5576C84.6372 20.0381 83.795 20.0381 83.2756 20.5576L76.5906 27.2425C75.8962 27.9368 75.8963 29.0626 76.5908 29.7569L83.2756 36.4394Z" fill="#E7EAED"/>
<path d="M141.724 36.4394C141.205 36.9587 140.363 36.9587 139.843 36.4393C139.324 35.9202 139.324 35.0787 139.843 34.5591L144.56 29.8331H129.667C128.93 29.8331 128.333 29.2361 128.333 28.4998C128.333 27.7634 128.93 27.1664 129.667 27.1664H144.56L139.842 22.4376C139.324 21.9179 139.324 21.0766 139.843 20.5576C140.363 20.0381 141.205 20.0381 141.724 20.5576L148.409 27.2425C149.104 27.9368 149.104 29.0626 148.409 29.7569L141.724 36.4394Z" fill="#747577"/>
<path d="M194.685 21.3777C193.329 20.5864 191.776 20.1961 190.206 20.2519C188.637 20.3078 187.116 20.8076 185.819 21.6933C184.522 22.579 183.504 23.8143 182.881 25.2558C182.258 26.6972 182.057 28.2858 182.301 29.837C182.544 31.3883 183.223 32.8386 184.258 34.0196C185.293 35.2006 186.641 36.0639 188.147 36.5092C188.821 36.7084 189.962 36.8092 191.283 36.7221C192.589 36.6359 193.951 36.3738 195.054 35.9325C195.67 35.6864 196.368 35.9857 196.614 36.601C196.86 37.2164 196.561 37.9147 195.946 38.1609C194.549 38.7195 192.926 39.0189 191.441 39.1169C189.972 39.2138 188.517 39.1212 187.467 38.8107C185.525 38.2366 183.787 37.1238 182.453 35.6013C181.119 34.0789 180.244 32.2093 179.93 30.2096C179.615 28.2099 179.875 26.1621 180.678 24.3039C181.481 22.4456 182.794 20.8532 184.465 19.7115C186.137 18.5697 188.098 17.9255 190.121 17.8535C192.144 17.7814 194.146 18.2847 195.894 19.3047C197.206 20.0697 198.334 21.1019 199.21 22.328L199.103 18.9593C199.085 18.4073 199.519 17.9456 200.071 17.928C200.623 17.9105 201.084 18.3438 201.102 18.8958L201.315 25.5978C201.323 25.8684 201.222 26.1309 201.033 26.3253C200.845 26.5198 200.586 26.6295 200.315 26.6295H193.534C192.982 26.6295 192.534 26.1818 192.534 25.6295C192.534 25.0773 192.982 24.6295 193.534 24.6295H197.82C197.096 23.2772 196.011 22.1514 194.685 21.3777Z" fill="#E7EAED"/>
<rect x="227" y="10" width="359" height="37" rx="18.5" fill="#5E6367"/>
<path d="M368.82 34V26.7031H367.422V25.5781H368.82V24.6406C368.82 22.9609 369.664 22.1562 371.266 22.1562C371.594 22.1562 371.891 22.1797 372.172 22.2344V23.3203C372.008 23.2891 371.781 23.2812 371.539 23.2812C370.57 23.2812 370.18 23.7578 370.18 24.6797V25.5781H372.094V26.7031H370.18V34H368.82ZM374.773 23.9531C374.258 23.9531 373.836 23.5312 373.836 23.0156C373.836 22.5 374.258 22.0781 374.773 22.0781C375.289 22.0781 375.711 22.5 375.711 23.0156C375.711 23.5312 375.289 23.9531 374.773 23.9531ZM374.086 34V25.5781H375.445V34H374.086ZM381.477 36.9688C379.445 36.9688 378.148 36.0547 377.938 34.6719L377.953 34.6641H379.359L379.367 34.6719C379.516 35.3125 380.266 35.7656 381.477 35.7656C382.984 35.7656 383.883 35.0547 383.883 33.8125V32.1094H383.758C383.227 33.0391 382.273 33.5625 381.117 33.5625C378.938 33.5625 377.586 31.875 377.586 29.5156V29.5C377.586 27.1406 378.945 25.4297 381.148 25.4297C382.336 25.4297 383.258 26.0156 383.773 26.9688H383.867V25.5781H385.227V33.8828C385.227 35.7656 383.773 36.9688 381.477 36.9688ZM381.414 32.3594C382.977 32.3594 383.914 31.1875 383.914 29.5156V29.5C383.914 27.8281 382.969 26.6328 381.414 26.6328C379.852 26.6328 378.977 27.8281 378.977 29.5V29.5156C378.977 31.1875 379.852 32.3594 381.414 32.3594ZM387.758 34V25.5781H389.117V26.8594H389.242C389.617 25.9531 390.414 25.4297 391.516 25.4297C392.656 25.4297 393.453 26.0312 393.844 26.9062H393.969C394.422 26.0156 395.383 25.4297 396.547 25.4297C398.266 25.4297 399.227 26.4141 399.227 28.1797V34H397.867V28.4922C397.867 27.25 397.297 26.6328 396.109 26.6328C394.938 26.6328 394.164 27.5156 394.164 28.5859V34H392.805V28.2812C392.805 27.2812 392.117 26.6328 391.055 26.6328C389.953 26.6328 389.117 27.5938 389.117 28.7812V34H387.758ZM403.992 34.1484C402.391 34.1484 401.18 33.1797 401.18 31.6484V31.6328C401.18 30.1328 402.289 29.2656 404.25 29.1484L406.664 29V28.2344C406.664 27.1953 406.031 26.6328 404.773 26.6328C403.766 26.6328 403.102 27.0078 402.883 27.6641L402.875 27.6875H401.516L401.523 27.6406C401.742 26.3203 403.023 25.4297 404.82 25.4297C406.875 25.4297 408.023 26.4844 408.023 28.2344V34H406.664V32.7578H406.539C406.008 33.6562 405.125 34.1484 403.992 34.1484ZM402.57 31.6172C402.57 32.4688 403.297 32.9688 404.273 32.9688C405.656 32.9688 406.664 32.0625 406.664 30.8594V30.0938L404.414 30.2344C403.133 30.3125 402.57 30.7656 402.57 31.6016V31.6172ZM411.617 34.0781C411.062 34.0781 410.602 33.6172 410.602 33.0625C410.602 32.5 411.062 32.0469 411.617 32.0469C412.18 32.0469 412.633 32.5 412.633 33.0625C412.633 33.6172 412.18 34.0781 411.617 34.0781ZM418.391 34.1484C416.031 34.1484 414.523 32.4375 414.523 29.7656V29.75C414.523 27.1328 416.023 25.4297 418.383 25.4297C420.43 25.4297 421.656 26.6094 421.906 28.1094L421.914 28.1562H420.562L420.555 28.1328C420.344 27.3047 419.594 26.6328 418.383 26.6328C416.867 26.6328 415.914 27.8516 415.914 29.75V29.7656C415.914 31.7031 416.883 32.9453 418.383 32.9453C419.516 32.9453 420.234 32.4453 420.547 31.5078L420.562 31.4609L421.906 31.4531L421.891 31.5391C421.547 33.0625 420.414 34.1484 418.391 34.1484ZM427.359 34.1484C424.961 34.1484 423.477 32.4922 423.477 29.7969V29.7812C423.477 27.0781 424.961 25.4297 427.359 25.4297C429.758 25.4297 431.242 27.0781 431.242 29.7812V29.7969C431.242 32.4922 429.758 34.1484 427.359 34.1484ZM427.359 32.9453C428.953 32.9453 429.852 31.7812 429.852 29.7969V29.7812C429.852 27.7891 428.953 26.6328 427.359 26.6328C425.766 26.6328 424.867 27.7891 424.867 29.7812V29.7969C424.867 31.7812 425.766 32.9453 427.359 32.9453ZM433.352 34V25.5781H434.711V26.8594H434.836C435.211 25.9531 436.008 25.4297 437.109 25.4297C438.25 25.4297 439.047 26.0312 439.438 26.9062H439.562C440.016 26.0156 440.977 25.4297 442.141 25.4297C443.859 25.4297 444.82 26.4141 444.82 28.1797V34H443.461V28.4922C443.461 27.25 442.891 26.6328 441.703 26.6328C440.531 26.6328 439.758 27.5156 439.758 28.5859V34H438.398V28.2812C438.398 27.2812 437.711 26.6328 436.648 26.6328C435.547 26.6328 434.711 27.5938 434.711 28.7812V34H433.352Z" fill="white"/>
<path d="M621.82 18.4652L624.091 21.003C624.509 21.4701 625.227 21.51 625.694 21.092C626.161 20.674 626.201 19.9564 625.783 19.4893L621.829 15.071C621.219 14.3891 620.151 14.3891 619.541 15.071L615.588 19.4893C615.17 19.9564 615.209 20.674 615.677 21.092C616.144 21.51 616.861 21.4701 617.279 21.003L619.55 18.4652V30.5584C619.55 31.1852 620.058 31.6934 620.685 31.6934C621.312 31.6934 621.82 31.1852 621.82 30.5584V18.4652Z" fill="#E7EAED"/>
<path d="M613.271 24.8742C613.07 24.8742 612.906 25.0376 612.906 25.2392V38.0725C612.906 38.2741 613.07 38.4375 613.271 38.4375H627.852C628.053 38.4375 628.217 38.2741 628.217 38.0725V25.2392C628.217 25.0376 628.053 24.8742 627.852 24.8742H624.21V22.6042H627.852C629.307 22.6042 630.487 23.7839 630.487 25.2392V38.0725C630.487 39.5278 629.307 40.7075 627.852 40.7075H613.271C611.816 40.7075 610.636 39.5278 610.636 38.0725V25.2392C610.636 23.7839 611.816 22.6042 613.271 22.6042H617V24.8742H613.271Z" fill="#E7EAED"/>
<rect x="663" y="18.5" width="20" height="20" rx="4" stroke="#E7EAED" stroke-width="2.27273"/>
<path d="M672.866 32.5V26.2803H672.769L670.868 27.6016V26.1406L672.871 24.7495H674.488V32.5H672.866Z" fill="#E7EAED"/>
<path fill-rule="evenodd" clip-rule="evenodd" d="M721 29C721 30.3807 719.881 31.5 718.5 31.5C717.119 31.5 716 30.3807 716 29C716 27.6193 717.119 26.5 718.5 26.5C719.881 26.5 721 27.6193 721 29ZM729 29C729 30.3807 727.881 31.5 726.5 31.5C725.119 31.5 724 30.3807 724 29C724 27.6193 725.119 26.5 726.5 26.5C727.881 26.5 729 27.6193 729 29ZM734.5 31.5C735.881 31.5 737 30.3807 737 29C737 27.6193 735.881 26.5 734.5 26.5C733.119 26.5 732 27.6193 732 29C732 30.3807 733.119 31.5 734.5 31.5Z" fill="#E7EAED"/>
</svg>
