<svg width="360" height="111" viewBox="0 0 360 111" fill="none" xmlns="http://www.w3.org/2000/svg">
<rect width="360" height="111" fill="#EBEBEB"/>
<rect x="16" y="10" width="288" height="41" rx="20" fill="white"/>
<path d="M37.0834 23.417C38.6482 23.417 39.9167 24.6855 39.9167 26.2503V27.667H41.1563C42.0365 27.667 42.7501 28.3805 42.7501 29.2607L42.7504 29.2003C42.5245 29.2004 42.1152 29.2003 42.1152 29.2003H42.0393H41.6882L41.6876 29.2607C41.6876 28.9673 41.4497 28.7295 41.1563 28.7295H33.0105C32.7171 28.7295 32.4792 28.9673 32.4792 29.2607V35.9899C32.4792 36.2833 32.7171 36.5212 33.0105 36.5212L37.0148 36.5218C37.3035 36.9301 37.668 37.2855 38.1055 37.584L33.0105 37.5837C32.1303 37.5837 31.4167 36.8701 31.4167 35.9899V29.2607C31.4167 28.3805 32.1303 27.667 33.0105 27.667H34.2501V26.2503C34.2501 24.6855 35.5186 23.417 37.0834 23.417ZM37.0834 24.4795C36.1054 24.4795 35.3126 25.2723 35.3126 26.2503V27.667H38.8542V26.2503C38.8542 25.2723 38.0614 24.4795 37.0834 24.4795Z" fill="#212121"/>
<path d="M43.65 30.5C42.5782 30.5 41.6163 30.0418 40.7483 29.1101C40.6116 28.9634 40.3899 28.9633 40.2531 29.1098C39.3829 30.0418 38.4205 30.5 37.35 30.5C37.1567 30.5 37 30.6679 37 30.875V33.1259L37.0038 33.3647C37.0778 35.6481 38.2236 37.2073 40.3893 37.9808C40.4612 38.0064 40.5388 38.0064 40.6107 37.9808C42.8511 37.1806 44 35.5397 44 33.1259V30.875L43.9929 30.7994C43.9603 30.6285 43.8191 30.5 43.65 30.5Z" fill="#67CE67"/>
<path d="M59.8281 36V28.7031H58.4297V27.5781H59.8281V26.6406C59.8281 24.9609 60.6719 24.1562 62.2734 24.1562C62.6016 24.1562 62.8984 24.1797 63.1797 24.2344V25.3203C63.0156 25.2891 62.7891 25.2812 62.5469 25.2812C61.5781 25.2812 61.1875 25.7578 61.1875 26.6797V27.5781H63.1016V28.7031H61.1875V36H59.8281ZM65.4612 25.9531C64.9456 25.9531 64.5237 25.5312 64.5237 25.0156C64.5237 24.5 64.9456 24.0781 65.4612 24.0781C65.9769 24.0781 66.3987 24.5 66.3987 25.0156C66.3987 25.5312 65.9769 25.9531 65.4612 25.9531ZM64.7737 36V27.5781H66.1331V36H64.7737ZM71.8444 38.9688C69.8131 38.9688 68.5162 38.0547 68.3053 36.6719L68.3209 36.6641H69.7272L69.735 36.6719C69.8834 37.3125 70.6334 37.7656 71.8444 37.7656C73.3522 37.7656 74.2506 37.0547 74.2506 35.8125V34.1094H74.1256C73.5944 35.0391 72.6412 35.5625 71.485 35.5625C69.3053 35.5625 67.9537 33.875 67.9537 31.5156V31.5C67.9537 29.1406 69.3131 27.4297 71.5162 27.4297C72.7037 27.4297 73.6256 28.0156 74.1412 28.9688H74.235V27.5781H75.5944V35.8828C75.5944 37.7656 74.1412 38.9688 71.8444 38.9688ZM71.7819 34.3594C73.3444 34.3594 74.2819 33.1875 74.2819 31.5156V31.5C74.2819 29.8281 73.3366 28.6328 71.7819 28.6328C70.2194 28.6328 69.3444 29.8281 69.3444 31.5V31.5156C69.3444 33.1875 70.2194 34.3594 71.7819 34.3594ZM77.8056 36V27.5781H79.165V28.8594H79.29C79.665 27.9531 80.4619 27.4297 81.5634 27.4297C82.7041 27.4297 83.5009 28.0312 83.8916 28.9062H84.0166C84.4697 28.0156 85.4306 27.4297 86.5947 27.4297C88.3134 27.4297 89.2744 28.4141 89.2744 30.1797V36H87.915V30.4922C87.915 29.25 87.3447 28.6328 86.1572 28.6328C84.9853 28.6328 84.2119 29.5156 84.2119 30.5859V36H82.8525V30.2812C82.8525 29.2812 82.165 28.6328 81.1025 28.6328C80.0009 28.6328 79.165 29.5938 79.165 30.7812V36H77.8056ZM93.72 36.1484C92.1184 36.1484 90.9075 35.1797 90.9075 33.6484V33.6328C90.9075 32.1328 92.0169 31.2656 93.9778 31.1484L96.3919 31V30.2344C96.3919 29.1953 95.7591 28.6328 94.5013 28.6328C93.4934 28.6328 92.8294 29.0078 92.6106 29.6641L92.6028 29.6875H91.2434L91.2513 29.6406C91.47 28.3203 92.7513 27.4297 94.5481 27.4297C96.6028 27.4297 97.7513 28.4844 97.7513 30.2344V36H96.3919V34.7578H96.2669C95.7356 35.6562 94.8528 36.1484 93.72 36.1484ZM92.2981 33.6172C92.2981 34.4688 93.0247 34.9688 94.0013 34.9688C95.3841 34.9688 96.3919 34.0625 96.3919 32.8594V32.0938L94.1419 32.2344C92.8606 32.3125 92.2981 32.7656 92.2981 33.6016V33.6172ZM101.025 36.0781C100.47 36.0781 100.009 35.6172 100.009 35.0625C100.009 34.5 100.47 34.0469 101.025 34.0469C101.588 34.0469 102.041 34.5 102.041 35.0625C102.041 35.6172 101.588 36.0781 101.025 36.0781ZM107.478 36.1484C105.119 36.1484 103.611 34.4375 103.611 31.7656V31.75C103.611 29.1328 105.111 27.4297 107.471 27.4297C109.518 27.4297 110.744 28.6094 110.994 30.1094L111.002 30.1562H109.65L109.643 30.1328C109.432 29.3047 108.682 28.6328 107.471 28.6328C105.955 28.6328 105.002 29.8516 105.002 31.75V31.7656C105.002 33.7031 105.971 34.9453 107.471 34.9453C108.603 34.9453 109.322 34.4453 109.635 33.5078L109.65 33.4609L110.994 33.4531L110.978 33.5391C110.635 35.0625 109.502 36.1484 107.478 36.1484ZM116.127 36.1484C113.729 36.1484 112.244 34.4922 112.244 31.7969V31.7812C112.244 29.0781 113.729 27.4297 116.127 27.4297C118.526 27.4297 120.01 29.0781 120.01 31.7812V31.7969C120.01 34.4922 118.526 36.1484 116.127 36.1484ZM116.127 34.9453C117.721 34.9453 118.619 33.7812 118.619 31.7969V31.7812C118.619 29.7891 117.721 28.6328 116.127 28.6328C114.533 28.6328 113.635 29.7891 113.635 31.7812V31.7969C113.635 33.7812 114.533 34.9453 116.127 34.9453ZM121.799 36V27.5781H123.159V28.8594H123.284C123.659 27.9531 124.456 27.4297 125.557 27.4297C126.698 27.4297 127.495 28.0312 127.885 28.9062H128.01C128.463 28.0156 129.424 27.4297 130.588 27.4297C132.307 27.4297 133.268 28.4141 133.268 30.1797V36H131.909V30.4922C131.909 29.25 131.338 28.6328 130.151 28.6328C128.979 28.6328 128.206 29.5156 128.206 30.5859V36H126.846V30.2812C126.846 29.2812 126.159 28.6328 125.096 28.6328C123.995 28.6328 123.159 29.5938 123.159 30.7812V36H121.799Z" fill="#212121"/>
<path d="M323.667 30.5015C323.665 28.9865 324.077 27.4998 324.858 26.2015C325.639 24.9033 326.759 23.8429 328.099 23.1345C329.438 22.4261 330.945 22.0966 332.458 22.1815C333.97 22.2665 335.431 22.7626 336.683 23.6165L335.18 25.5015C335.112 25.588 335.081 25.6978 335.094 25.8071C335.106 25.9164 335.162 26.0163 335.248 26.0849C335.311 26.1363 335.389 26.1674 335.471 26.174L341.031 26.6474C341.085 26.6521 341.14 26.646 341.193 26.6294C341.245 26.6128 341.293 26.5861 341.335 26.5508C341.377 26.5155 341.411 26.4723 341.437 26.4237C341.462 26.3751 341.477 26.3219 341.482 26.2674C341.486 26.2128 341.48 26.1579 341.463 26.1057L339.762 20.7932C339.739 20.7215 339.697 20.6574 339.64 20.6077C339.584 20.5579 339.515 20.5244 339.441 20.5107C339.416 20.5051 339.391 20.5021 339.365 20.5016C339.302 20.5016 339.241 20.5158 339.184 20.5431C339.128 20.5703 339.078 20.61 339.039 20.6591L337.723 22.3107C336.225 21.2605 334.468 20.6416 332.643 20.5215C330.818 20.4015 328.995 20.7849 327.373 21.6299C325.751 22.4749 324.392 23.7492 323.445 25.3136C322.497 26.878 321.997 28.6726 322 30.5015C322 30.7226 322.088 30.9345 322.244 31.0908C322.4 31.2471 322.612 31.3349 322.833 31.3349C323.054 31.3349 323.266 31.2471 323.423 31.0908C323.579 30.9345 323.667 30.7226 323.667 30.5015Z" fill="#212121"/>
<path d="M341.167 29.668C340.946 29.668 340.734 29.7558 340.577 29.912C340.421 30.0683 340.333 30.2803 340.333 30.5013C340.335 32.0163 339.923 33.5031 339.142 34.8013C338.361 36.0995 337.241 37.16 335.901 37.8684C334.562 38.5768 333.055 38.9063 331.542 38.8213C330.03 38.7364 328.569 38.2402 327.318 37.3863L328.82 35.5013C328.867 35.4423 328.897 35.3717 328.907 35.297C328.917 35.2224 328.906 35.1464 328.876 35.0772C328.846 35.0081 328.798 34.9483 328.737 34.9042C328.676 34.8602 328.604 34.8336 328.529 34.8271L322.969 34.3538C322.915 34.3491 322.86 34.3552 322.807 34.3718C322.755 34.3884 322.707 34.4151 322.665 34.4503C322.623 34.4856 322.589 34.5288 322.563 34.5775C322.538 34.6261 322.523 34.6792 322.518 34.7338C322.514 34.7884 322.52 34.8433 322.537 34.8955L324.238 40.2096C324.261 40.2813 324.303 40.3454 324.36 40.3952C324.416 40.4449 324.485 40.4784 324.559 40.4921C324.584 40.4977 324.609 40.5008 324.635 40.5013C324.698 40.5012 324.76 40.487 324.816 40.4598C324.872 40.4325 324.922 40.3929 324.961 40.3438L326.278 38.6921C327.775 39.7424 329.532 40.3613 331.357 40.4813C333.182 40.6014 335.005 40.218 336.627 39.3729C338.249 38.5279 339.608 37.2537 340.555 35.6893C341.503 34.1248 342.003 32.3303 342 30.5013C342 30.2803 341.912 30.0683 341.756 29.912C341.6 29.7558 341.388 29.668 341.167 29.668Z" fill="#212121"/>
<rect width="359" height="60" transform="translate(0.5 51)" fill="#EBEBEB"/>
<path d="M274.5 73H286.5C287.052 73 287.5 73.4477 287.5 74V86C287.5 86.5523 287.052 87 286.5 87H274.5C273.948 87 273.5 86.5523 273.5 86V74C273.5 73.4477 273.948 73 274.5 73Z" stroke="black" stroke-opacity="0.5" stroke-width="2"/>
<path d="M179.5 73C183.366 73 186.5 76.134 186.5 80C186.5 83.866 183.366 87 179.5 87C175.634 87 172.5 83.866 172.5 80C172.5 76.134 175.634 73 179.5 73Z" stroke="black" stroke-opacity="0.5" stroke-width="2"/>
<path fill-rule="evenodd" clip-rule="evenodd" d="M83.499 72.9832C84.8324 72.2124 86.5 73.1746 86.5 74.7147V86.2872C86.5 87.8273 84.8324 88.7895 83.499 88.0187L73.4899 82.2324C72.1579 81.4624 72.1579 79.5395 73.4899 78.7695L83.499 72.9832Z" stroke="black" stroke-opacity="0.5" stroke-width="2"/>
</svg>
