<?xml version="1.0" encoding="UTF-8"?>
<svg id="Layer_1" data-name="Layer 1" xmlns="http://www.w3.org/2000/svg" viewBox="0 0 30.08 31.95">
  <defs>
    <style>
      .cls-1 {
        fill: #fff;
      }

      .cls-1, .cls-2 {
        stroke-width: 0px;
      }

      .cls-2 {
        fill: #000;
      }
    </style>
  </defs>
  <rect class="cls-2" width="30.08" height="31.95" rx="4.03" ry="4.03"/>
  <path class="cls-1" d="M3.74,3.97v24h22.6V3.97H3.74ZM15.66,20.94s-.09-.04-.13-.06c-.62-.28-.75-.39-.77-.58.11-.11.42-.24.9-.36v1ZM8.55,25.74c0-.33.56-.56,1.31-.71v1.38c-.7-.14-1.31-.45-1.31-.67ZM10.43,23.42c-.69.1-1.34.23-1.88.45V5.46h4.73v14.78c0,1.26.99,1.7,1.65,2,.55.25.7.35.73.5-.41.27-2.05.39-3.05.47-.68.05-1.38.1-2.04.19-.05,0-.09,0-.14.02ZM16.57,18.27c-.41.05-1.14.15-1.8.39V5.46h4.21v12.64c-.67.02-1.55.06-2.41.17ZM5.23,5.46h1.83v20.28c0,.28.07.53.19.75h-2.02V5.46ZM24.86,26.49h-13.52v-1.68c.5-.05.98-.09,1.38-.12,2.38-.18,4.43-.33,4.43-1.87v-3.13c.71-.08,1.56-.12,2.57-.12h.74V5.46h4.4v21.03Z"/>
</svg>