<svg width="360" height="288" viewBox="0 0 360 288" fill="none" xmlns="http://www.w3.org/2000/svg">
<g filter="url(#filter0_i_24_1646)">
<rect width="360" height="288" fill="#292E32"/>
<g filter="url(#filter1_d_24_1646)">
<rect x="4" y="45" width="31.6" height="40" rx="6" fill="#484C4F"/>
<path d="M13.5552 65.2861C13.5552 63.2109 14.0312 61.5711 14.9834 60.3667C15.9355 59.1541 17.2132 58.5479 18.8164 58.5479C20.3789 58.5479 21.6118 59.0728 22.5151 60.1226L22.6128 58.792H24.688V77.0781H22.4297V70.7793C21.5182 71.7559 20.3057 72.2441 18.792 72.2441C17.1969 72.2441 15.9233 71.6257 14.9712 70.3887C14.0272 69.1436 13.5552 67.4956 13.5552 65.4448V65.2861ZM15.8135 65.5425C15.8135 67.0562 16.1309 68.2443 16.7656 69.1069C17.4085 69.9696 18.2712 70.4009 19.3535 70.4009C20.6963 70.4009 21.7217 69.8068 22.4297 68.6187V62.1489C21.7135 60.9852 20.6963 60.4033 19.3779 60.4033C18.2874 60.4033 17.4207 60.8387 16.7778 61.7095C16.1349 62.5721 15.8135 63.8498 15.8135 65.5425Z" fill="white"/>
<path d="M31.9033 55H30.7217V49.292L28.9785 49.8877V48.8867L31.752 47.8662H31.9033V55Z" fill="#B6B7B9"/>
</g>
<g filter="url(#filter2_d_24_1646)">
<rect x="39.6001" y="45" width="31.6" height="41" rx="6" fill="#484C4F"/>
<path d="M59.104 69.8872L61.6431 59.792H63.9014L60.0562 73H58.2251L55.0146 62.9902L51.8896 73H50.0586L46.2256 59.792H48.4717L51.0718 69.6797L54.1479 59.792H55.9668L59.104 69.8872Z" fill="white"/>
<path d="M69.0708 55H64.2905V54.1846L66.6587 51.6016C67.0005 51.2207 67.243 50.9033 67.3862 50.6494C67.5327 50.3923 67.606 50.1351 67.606 49.8779C67.606 49.5394 67.5099 49.266 67.3179 49.0576C67.1291 48.8493 66.8735 48.7451 66.5513 48.7451C66.1672 48.7451 65.8693 48.8623 65.6577 49.0967C65.4461 49.3311 65.3403 49.6517 65.3403 50.0586H64.1538C64.1538 49.6257 64.2515 49.2367 64.4468 48.8916C64.6453 48.5433 64.9269 48.2731 65.2915 48.0811C65.6593 47.889 66.0825 47.793 66.561 47.793C67.2511 47.793 67.7948 47.9671 68.1919 48.3154C68.5923 48.6605 68.7925 49.139 68.7925 49.751C68.7925 50.1058 68.6916 50.4785 68.4897 50.8691C68.2912 51.2565 67.964 51.6976 67.5083 52.1924L65.77 54.0527H69.0708V55Z" fill="#B6B7B9"/>
</g>
<g filter="url(#filter3_d_24_1646)">
<rect x="75.2" y="45" width="31.6" height="41" rx="6" fill="#484C4F"/>
<path d="M90.7615 73.2441C88.9711 73.2441 87.5144 72.6582 86.3914 71.4863C85.2683 70.3063 84.7068 68.7316 84.7068 66.7622V66.3472C84.7068 65.0369 84.955 63.8691 85.4514 62.8438C85.956 61.8102 86.6558 61.0046 87.551 60.4268C88.4543 59.8408 89.4309 59.5479 90.4807 59.5479C92.1978 59.5479 93.5325 60.1134 94.4846 61.2446C95.4368 62.3758 95.9128 63.9953 95.9128 66.103V67.043H86.9651C86.9976 68.3451 87.3761 69.3989 88.1003 70.2046C88.8328 71.0021 89.7605 71.4009 90.8835 71.4009C91.6811 71.4009 92.3565 71.2381 92.9099 70.9126C93.4633 70.5871 93.9475 70.1558 94.3625 69.6187L95.7419 70.6929C94.6352 72.3937 92.975 73.2441 90.7615 73.2441ZM90.4807 61.4033C89.5693 61.4033 88.8043 61.737 88.1858 62.4043C87.5673 63.0635 87.1848 63.9912 87.0383 65.1875H93.6545V65.0166C93.5894 63.8691 93.2802 62.9821 92.7268 62.3555C92.1734 61.7207 91.4247 61.4033 90.4807 61.4033Z" fill="white"/>
<path d="M101.262 50.9033H101.985C102.35 50.9001 102.638 50.8057 102.849 50.6201C103.064 50.4346 103.172 50.166 103.172 49.8145C103.172 49.4759 103.082 49.2139 102.903 49.0283C102.727 48.8395 102.457 48.7451 102.093 48.7451C101.774 48.7451 101.511 48.8379 101.306 49.0234C101.101 49.2057 100.999 49.445 100.999 49.7412H99.8123C99.8123 49.3766 99.9083 49.0446 100.1 48.7451C100.296 48.4456 100.566 48.2129 100.911 48.0469C101.259 47.8776 101.648 47.793 102.078 47.793C102.788 47.793 103.344 47.972 103.748 48.3301C104.155 48.6849 104.358 49.1797 104.358 49.8145C104.358 50.1335 104.256 50.4346 104.051 50.7178C103.849 50.9977 103.587 51.2093 103.264 51.3525C103.655 51.486 103.951 51.696 104.153 51.9824C104.358 52.2689 104.461 52.6107 104.461 53.0078C104.461 53.6458 104.241 54.1536 103.802 54.5312C103.365 54.9089 102.791 55.0977 102.078 55.0977C101.394 55.0977 100.834 54.9154 100.398 54.5508C99.962 54.1862 99.7439 53.7012 99.7439 53.0957H100.93C100.93 53.4082 101.035 53.6621 101.243 53.8574C101.455 54.0527 101.738 54.1504 102.093 54.1504C102.46 54.1504 102.75 54.0527 102.962 53.8574C103.173 53.6621 103.279 53.3789 103.279 53.0078C103.279 52.6335 103.168 52.3454 102.947 52.1436C102.726 51.9417 102.397 51.8408 101.961 51.8408H101.262V50.9033Z" fill="#B6B7B9"/>
</g>
<g filter="url(#filter4_d_24_1646)">
<rect x="110.8" y="45" width="31.6" height="41" rx="6" fill="#484C4F"/>
<path d="M130.157 61.8184C129.816 61.7614 129.445 61.7329 129.047 61.7329C127.566 61.7329 126.56 62.3636 126.031 63.625V73H123.773V59.792H125.97L126.007 61.3179C126.748 60.1379 127.797 59.5479 129.156 59.5479C129.596 59.5479 129.93 59.6048 130.157 59.7188V61.8184Z" fill="white"/>
<path d="M139.504 52.4658H140.388V53.418H139.504V55H138.318V53.418H135.246L135.212 52.6953L138.279 47.8906H139.504V52.4658ZM136.457 52.4658H138.318V49.4971L138.23 49.6533L136.457 52.4658Z" fill="#B6B7B9"/>
</g>
<g filter="url(#filter5_d_24_1646)">
<rect x="146.4" y="45" width="31.6" height="41" rx="6" fill="#484C4F"/>
<path d="M162.583 56.5938V59.792H165.049V61.5376H162.583V69.7285C162.583 70.2575 162.693 70.6562 162.913 70.9248C163.133 71.1852 163.507 71.3154 164.036 71.3154C164.297 71.3154 164.655 71.2666 165.11 71.1689V73C164.516 73.1628 163.938 73.2441 163.377 73.2441C162.368 73.2441 161.607 72.939 161.094 72.3286C160.582 71.7183 160.325 70.8516 160.325 69.7285V61.5376H157.92V59.792H160.325V56.5938H162.583Z" fill="white"/>
<path d="M171.408 51.4746L171.793 47.8906H175.612V48.916H172.78L172.584 50.6152C172.913 50.4264 173.284 50.332 173.698 50.332C174.375 50.332 174.901 50.5485 175.275 50.9814C175.653 51.4144 175.841 51.9971 175.841 52.7295C175.841 53.4521 175.633 54.0283 175.216 54.458C174.8 54.8844 174.228 55.0977 173.502 55.0977C172.851 55.0977 172.311 54.9137 171.881 54.5459C171.455 54.1748 171.224 53.6865 171.188 53.0811H172.335C172.381 53.4261 172.505 53.6914 172.707 53.877C172.908 54.0592 173.172 54.1504 173.498 54.1504C173.862 54.1504 174.145 54.0202 174.347 53.7598C174.552 53.4993 174.655 53.1445 174.655 52.6953C174.655 52.2624 174.542 51.9206 174.318 51.6699C174.093 51.416 173.784 51.2891 173.39 51.2891C173.175 51.2891 172.993 51.3184 172.843 51.377C172.694 51.4323 172.531 51.543 172.355 51.709L171.408 51.4746Z" fill="#B6B7B9"/>
</g>
<g filter="url(#filter6_d_24_1646)">
<rect x="182" y="45" width="31.6" height="41" rx="6" fill="#484C4F"/>
<path d="M197.11 69.6919L200.186 59.792H202.603L197.293 75.0386C196.471 77.2358 195.165 78.3345 193.375 78.3345L192.947 78.2979L192.105 78.1392V76.3081L192.715 76.3569C193.48 76.3569 194.074 76.2023 194.498 75.8931C194.929 75.5838 195.283 75.0182 195.56 74.1963L196.06 72.8535L191.348 59.792H193.814L197.11 69.6919Z" fill="white"/>
<path d="M210.382 47.8564V48.8379H210.235C209.571 48.8477 209.041 49.0299 208.644 49.3848C208.246 49.7396 208.01 50.2425 207.936 50.8936C208.316 50.4932 208.803 50.293 209.396 50.293C210.024 50.293 210.519 50.5143 210.88 50.957C211.244 51.3997 211.427 51.971 211.427 52.6709C211.427 53.3936 211.214 53.9795 210.787 54.4287C210.364 54.8747 209.807 55.0977 209.117 55.0977C208.408 55.0977 207.831 54.8356 207.389 54.3115C206.949 53.7874 206.729 53.1006 206.729 52.251V51.8457C206.729 50.599 207.032 49.6224 207.638 48.916C208.246 48.2096 209.12 47.8564 210.26 47.8564H210.382ZM209.107 51.25C208.847 51.25 208.608 51.3232 208.39 51.4697C208.175 51.6162 208.017 51.8115 207.916 52.0557V52.417C207.916 52.9443 208.027 53.3643 208.248 53.6768C208.469 53.986 208.756 54.1406 209.107 54.1406C209.459 54.1406 209.737 54.0088 209.942 53.7451C210.147 53.4814 210.25 53.1348 210.25 52.7051C210.25 52.2754 210.146 51.9255 209.938 51.6553C209.729 51.3851 209.452 51.25 209.107 51.25Z" fill="#B6B7B9"/>
</g>
<g filter="url(#filter7_d_24_1646)">
<rect x="217.6" y="45" width="31.6" height="41" rx="6" fill="#484C4F"/>
<path d="M235.566 71.6938C234.688 72.7274 233.398 73.2441 231.697 73.2441C230.289 73.2441 229.215 72.8372 228.474 72.0234C227.742 71.2015 227.371 69.9889 227.363 68.3857V59.792H229.622V68.3247C229.622 70.3267 230.435 71.3276 232.063 71.3276C233.788 71.3276 234.936 70.6847 235.505 69.3989V59.792H237.764V73H235.615L235.566 71.6938Z" fill="white"/>
<path d="M247.022 48.5498L244.18 55H242.935L245.772 48.8428H242.095V47.8906H247.022V48.5498Z" fill="#B6B7B9"/>
</g>
<g filter="url(#filter8_d_24_1646)">
<rect x="253.2" y="45" width="31.6" height="41" rx="6" fill="#484C4F"/>
<path d="M269.823 73H267.565V59.792H269.823V73ZM267.382 56.2886C267.382 55.9224 267.491 55.6131 267.711 55.3608C267.939 55.1086 268.273 54.9824 268.712 54.9824C269.152 54.9824 269.485 55.1086 269.713 55.3608C269.941 55.6131 270.055 55.9224 270.055 56.2886C270.055 56.6548 269.941 56.96 269.713 57.2041C269.485 57.4482 269.152 57.5703 268.712 57.5703C268.273 57.5703 267.939 57.4482 267.711 57.2041C267.491 56.96 267.382 56.6548 267.382 56.2886Z" fill="white"/>
<path d="M282.368 49.7656C282.368 50.1139 282.278 50.4248 282.099 50.6982C281.92 50.9684 281.676 51.1816 281.367 51.3379C281.738 51.5104 282.023 51.7464 282.221 52.0459C282.423 52.3454 282.524 52.6839 282.524 53.0615C282.524 53.6865 282.313 54.1829 281.889 54.5508C281.466 54.9154 280.903 55.0977 280.2 55.0977C279.494 55.0977 278.927 54.9137 278.501 54.5459C278.078 54.1781 277.866 53.6833 277.866 53.0615C277.866 52.6807 277.967 52.3389 278.169 52.0361C278.371 51.7334 278.654 51.5007 279.018 51.3379C278.712 51.1816 278.47 50.9684 278.291 50.6982C278.115 50.4248 278.027 50.1139 278.027 49.7656C278.027 49.1602 278.222 48.68 278.613 48.3252C279.004 47.9704 279.531 47.793 280.195 47.793C280.862 47.793 281.391 47.9704 281.782 48.3252C282.173 48.68 282.368 49.1602 282.368 49.7656ZM281.338 53.0029C281.338 52.6514 281.232 52.3682 281.02 52.1533C280.812 51.9352 280.535 51.8262 280.19 51.8262C279.845 51.8262 279.568 51.9336 279.36 52.1484C279.155 52.3633 279.052 52.6481 279.052 53.0029C279.052 53.3512 279.153 53.6296 279.355 53.8379C279.56 54.0462 279.842 54.1504 280.2 54.1504C280.558 54.1504 280.836 54.0495 281.035 53.8477C281.237 53.6458 281.338 53.3643 281.338 53.0029ZM281.186 49.8096C281.186 49.5003 281.097 49.2464 280.918 49.0479C280.739 48.846 280.498 48.7451 280.195 48.7451C279.892 48.7451 279.653 48.8411 279.477 49.0332C279.302 49.222 279.214 49.4808 279.214 49.8096C279.214 50.1351 279.302 50.3939 279.477 50.5859C279.656 50.778 279.897 50.874 280.2 50.874C280.503 50.874 280.742 50.778 280.918 50.5859C281.097 50.3939 281.186 50.1351 281.186 49.8096Z" fill="#B6B7B9"/>
</g>
<g filter="url(#filter9_d_24_1646)">
<rect x="288.8" y="45" width="31.6" height="41" rx="6" fill="#484C4F"/>
<path d="M298.282 66.2739C298.282 64.98 298.534 63.8162 299.039 62.7827C299.552 61.7492 300.26 60.9517 301.163 60.3901C302.074 59.8286 303.112 59.5479 304.276 59.5479C306.074 59.5479 307.527 60.1704 308.634 61.4155C309.748 62.6606 310.306 64.3167 310.306 66.3838V66.5425C310.306 67.8283 310.058 68.9839 309.561 70.0093C309.073 71.0265 308.369 71.82 307.449 72.3896C306.538 72.9593 305.488 73.2441 304.3 73.2441C302.51 73.2441 301.057 72.6216 299.942 71.3765C298.835 70.1313 298.282 68.4834 298.282 66.4326V66.2739ZM300.552 66.5425C300.552 68.0073 300.89 69.1833 301.566 70.0703C302.249 70.9574 303.161 71.4009 304.3 71.4009C305.448 71.4009 306.359 70.9533 307.034 70.0581C307.71 69.1548 308.048 67.8934 308.048 66.2739C308.048 64.8254 307.702 63.6535 307.01 62.7583C306.326 61.855 305.415 61.4033 304.276 61.4033C303.161 61.4033 302.261 61.8468 301.578 62.7339C300.894 63.6209 300.552 64.8905 300.552 66.5425Z" fill="white"/>
<path d="M316.855 52.0264C316.458 52.4463 315.994 52.6562 315.463 52.6562C314.838 52.6562 314.34 52.4382 313.969 52.002C313.598 51.5625 313.412 50.9863 313.412 50.2734C313.412 49.8047 313.507 49.3799 313.696 48.999C313.884 48.6182 314.153 48.3219 314.501 48.1104C314.85 47.8988 315.253 47.793 315.712 47.793C316.428 47.793 316.996 48.0599 317.416 48.5938C317.836 49.1276 318.046 49.8421 318.046 50.7373V51.0693C318.046 52.3519 317.756 53.3301 317.177 54.0039C316.598 54.6777 315.733 55.0195 314.584 55.0293H314.443V54.0479H314.614C315.313 54.0381 315.851 53.8704 316.225 53.5449C316.599 53.2161 316.809 52.71 316.855 52.0264ZM315.712 51.7285C315.95 51.7285 316.173 51.6602 316.381 51.5234C316.589 51.3867 316.751 51.1979 316.865 50.957V50.4932C316.865 49.9691 316.757 49.5475 316.542 49.2285C316.327 48.9095 316.049 48.75 315.707 48.75C315.365 48.75 315.092 48.8916 314.887 49.1748C314.685 49.4548 314.584 49.8096 314.584 50.2393C314.584 50.6852 314.687 51.0449 314.892 51.3184C315.097 51.5918 315.37 51.7285 315.712 51.7285Z" fill="#B6B7B9"/>
</g>
<g filter="url(#filter10_d_24_1646)">
<rect x="324.4" y="45" width="31.6" height="41" rx="6" fill="#484C4F"/>
<path d="M345.747 66.5425C345.747 68.5526 345.287 70.172 344.368 71.4009C343.448 72.6297 342.203 73.2441 340.632 73.2441C339.029 73.2441 337.768 72.7355 336.848 71.7183V78.0781H334.59V59.792H336.653L336.763 61.2568C337.682 60.1175 338.96 59.5479 340.596 59.5479C342.183 59.5479 343.436 60.146 344.355 61.3423C345.283 62.5386 345.747 64.2028 345.747 66.335V66.5425ZM343.489 66.2861C343.489 64.7969 343.171 63.6209 342.537 62.7583C341.902 61.8957 341.031 61.4644 339.924 61.4644C338.557 61.4644 337.532 62.0706 336.848 63.2832V69.5942C337.524 70.7987 338.557 71.4009 339.949 71.4009C341.031 71.4009 341.89 70.9736 342.524 70.1191C343.167 69.2565 343.489 67.9788 343.489 66.2861Z" fill="white"/>
<path d="M353.724 52.0068C353.724 53.029 353.532 53.8005 353.148 54.3213C352.767 54.8389 352.186 55.0977 351.405 55.0977C350.637 55.0977 350.057 54.8454 349.667 54.3408C349.279 53.833 349.081 53.0827 349.071 52.0898V50.8594C349.071 49.8372 349.261 49.0706 349.642 48.5596C350.026 48.0485 350.611 47.793 351.395 47.793C352.173 47.793 352.752 48.042 353.133 48.54C353.517 49.0381 353.714 49.7835 353.724 50.7764V52.0068ZM352.538 50.6787C352.538 50.0114 352.446 49.5231 352.264 49.2139C352.082 48.9014 351.792 48.7451 351.395 48.7451C351.008 48.7451 350.723 48.8932 350.541 49.1895C350.358 49.4824 350.262 49.9414 350.252 50.5664V52.1777C350.252 52.8418 350.345 53.3366 350.531 53.6621C350.716 53.9876 351.008 54.1504 351.405 54.1504C351.786 54.1504 352.067 54.0007 352.25 53.7012C352.432 53.3984 352.528 52.9264 352.538 52.2852V50.6787Z" fill="#B6B7B9"/>
</g>
<g filter="url(#filter11_d_24_1646)">
<rect x="20" y="96" width="32" height="41" rx="6" fill="#484C4F"/>
<path d="M38.064 124C37.9338 123.74 37.828 123.276 37.7466 122.608C36.6968 123.699 35.4435 124.244 33.9868 124.244C32.6847 124.244 31.6146 123.878 30.7764 123.146C29.9463 122.405 29.5312 121.469 29.5312 120.338C29.5312 118.963 30.0521 117.896 31.0938 117.14C32.1436 116.375 33.6165 115.992 35.5127 115.992H37.71V114.955C37.71 114.165 37.474 113.539 37.002 113.075C36.5299 112.603 35.8341 112.367 34.9146 112.367C34.1089 112.367 33.4334 112.57 32.8882 112.977C32.3429 113.384 32.0703 113.876 32.0703 114.454H29.7998C29.7998 113.795 30.0317 113.16 30.4956 112.55C30.9676 111.931 31.6024 111.443 32.3999 111.085C33.2056 110.727 34.0885 110.548 35.0488 110.548C36.5706 110.548 37.7629 110.93 38.6255 111.695C39.4881 112.452 39.9357 113.498 39.9683 114.833V120.912C39.9683 122.124 40.1229 123.089 40.4321 123.805V124H38.064ZM34.3164 122.279C35.0244 122.279 35.6958 122.096 36.3306 121.729C36.9653 121.363 37.4251 120.887 37.71 120.301V117.591H35.9399C33.173 117.591 31.7896 118.401 31.7896 120.021C31.7896 120.729 32.0256 121.282 32.4976 121.681C32.9696 122.079 33.5758 122.279 34.3164 122.279Z" fill="white"/>
</g>
<g filter="url(#filter12_d_24_1646)">
<rect x="56" y="96" width="32" height="41" rx="6" fill="#484C4F"/>
<path d="M74.4541 120.497C74.4541 119.886 74.2222 119.414 73.7583 119.081C73.3026 118.739 72.501 118.446 71.3535 118.202C70.2142 117.958 69.3068 117.665 68.6313 117.323C67.964 116.981 67.4676 116.574 67.1421 116.102C66.8247 115.63 66.666 115.069 66.666 114.417C66.666 113.335 67.1217 112.42 68.0332 111.671C68.9528 110.922 70.1247 110.548 71.5488 110.548C73.0462 110.548 74.2588 110.934 75.1865 111.708C76.1224 112.481 76.5903 113.469 76.5903 114.674H74.3198C74.3198 114.055 74.0553 113.522 73.5264 113.075C73.0055 112.627 72.3464 112.403 71.5488 112.403C70.7269 112.403 70.084 112.582 69.6201 112.94C69.1562 113.299 68.9243 113.766 68.9243 114.344C68.9243 114.889 69.14 115.3 69.5713 115.577C70.0026 115.854 70.7798 116.118 71.9028 116.371C73.034 116.623 73.9495 116.924 74.6494 117.274C75.3493 117.624 75.866 118.047 76.1997 118.543C76.5415 119.032 76.7124 119.63 76.7124 120.338C76.7124 121.518 76.2404 122.466 75.2964 123.182C74.3524 123.89 73.1276 124.244 71.6221 124.244C70.5641 124.244 69.6283 124.057 68.8145 123.683C68.0007 123.308 67.3618 122.787 66.8979 122.12C66.4422 121.445 66.2144 120.716 66.2144 119.935H68.4727C68.5133 120.692 68.8145 121.294 69.376 121.742C69.9456 122.181 70.6943 122.401 71.6221 122.401C72.4766 122.401 73.1602 122.23 73.6729 121.888C74.1937 121.538 74.4541 121.074 74.4541 120.497Z" fill="white"/>
</g>
<g filter="url(#filter13_d_24_1646)">
<rect x="92" y="96" width="32" height="41" rx="6" fill="#484C4F"/>
<path d="M101.604 117.286C101.604 115.26 102.084 113.632 103.044 112.403C104.005 111.166 105.262 110.548 106.816 110.548C108.363 110.548 109.587 111.077 110.491 112.135V105.25H112.749V124H110.674L110.564 122.584C109.661 123.691 108.403 124.244 106.792 124.244C105.262 124.244 104.013 123.618 103.044 122.364C102.084 121.111 101.604 119.475 101.604 117.457V117.286ZM103.862 117.542C103.862 119.04 104.172 120.212 104.79 121.058C105.409 121.904 106.263 122.328 107.354 122.328C108.786 122.328 109.832 121.685 110.491 120.399V114.332C109.815 113.087 108.778 112.464 107.378 112.464C106.271 112.464 105.409 112.892 104.79 113.746C104.172 114.601 103.862 115.866 103.862 117.542Z" fill="white"/>
</g>
<g filter="url(#filter14_d_24_1646)">
<rect x="128" y="96" width="32" height="41" rx="6" fill="#484C4F"/>
<path d="M141.974 124V112.538H139.887V110.792H141.974V109.437C141.974 108.021 142.353 106.926 143.109 106.153C143.866 105.38 144.936 104.994 146.32 104.994C146.841 104.994 147.357 105.063 147.87 105.201L147.748 107.032C147.366 106.959 146.959 106.922 146.527 106.922C145.795 106.922 145.229 107.138 144.831 107.569C144.432 107.993 144.232 108.603 144.232 109.4V110.792H147.052V112.538H144.232V124H141.974Z" fill="white"/>
</g>
<g filter="url(#filter15_d_24_1646)">
<rect x="164" y="96" width="32" height="41" rx="6" fill="#484C4F"/>
<path d="M173.653 117.286C173.653 115.227 174.129 113.591 175.081 112.379C176.033 111.158 177.295 110.548 178.865 110.548C180.477 110.548 181.734 111.118 182.637 112.257L182.747 110.792H184.81V123.683C184.81 125.392 184.301 126.738 183.284 127.723C182.275 128.708 180.916 129.2 179.207 129.2C178.255 129.2 177.323 128.997 176.412 128.59C175.5 128.183 174.804 127.625 174.324 126.917L175.496 125.562C176.465 126.759 177.649 127.357 179.048 127.357C180.147 127.357 181.001 127.048 181.612 126.429C182.23 125.811 182.54 124.94 182.54 123.817V122.682C181.636 123.723 180.403 124.244 178.841 124.244C177.295 124.244 176.041 123.622 175.081 122.376C174.129 121.131 173.653 119.435 173.653 117.286ZM175.923 117.542C175.923 119.032 176.229 120.204 176.839 121.058C177.449 121.904 178.304 122.328 179.402 122.328C180.826 122.328 181.872 121.681 182.54 120.387V114.356C181.848 113.095 180.81 112.464 179.427 112.464C178.328 112.464 177.47 112.892 176.851 113.746C176.233 114.601 175.923 115.866 175.923 117.542Z" fill="white"/>
</g>
<g filter="url(#filter16_d_24_1646)">
<rect x="200" y="96" width="32" height="41" rx="6" fill="#484C4F"/>
<path d="M212.083 112.391C213.083 111.162 214.386 110.548 215.989 110.548C218.78 110.548 220.188 112.123 220.212 115.272V124H217.954V115.26C217.946 114.308 217.726 113.604 217.295 113.148C216.872 112.692 216.208 112.464 215.305 112.464C214.573 112.464 213.93 112.66 213.376 113.05C212.823 113.441 212.392 113.954 212.083 114.588V124H209.824V105.25H212.083V112.391Z" fill="white"/>
</g>
<g filter="url(#filter17_d_24_1646)">
<rect x="236" y="96" width="32" height="41" rx="6" fill="#484C4F"/>
<path d="M252.05 110.792V125.526C252.05 128.065 250.898 129.334 248.595 129.334C248.099 129.334 247.639 129.261 247.216 129.115V127.308C247.476 127.373 247.818 127.406 248.241 127.406C248.746 127.406 249.128 127.267 249.389 126.991C249.657 126.722 249.792 126.25 249.792 125.575V110.792H252.05ZM249.56 107.289C249.56 106.931 249.669 106.625 249.889 106.373C250.117 106.113 250.447 105.982 250.878 105.982C251.317 105.982 251.651 106.109 251.879 106.361C252.107 106.613 252.221 106.922 252.221 107.289C252.221 107.655 252.107 107.96 251.879 108.204C251.651 108.448 251.317 108.57 250.878 108.57C250.438 108.57 250.109 108.448 249.889 108.204C249.669 107.96 249.56 107.655 249.56 107.289Z" fill="white"/>
</g>
<g filter="url(#filter18_d_24_1646)">
<rect x="272" y="96" width="32" height="41" rx="6" fill="#484C4F"/>
<path d="M286.56 117.884L285.144 119.361V124H282.886V105.25H285.144V116.59L286.353 115.138L290.466 110.792H293.213L288.074 116.31L293.811 124H291.162L286.56 117.884Z" fill="white"/>
</g>
<g filter="url(#filter19_d_24_1646)">
<rect x="308" y="96" width="32" height="41" rx="6" fill="#484C4F"/>
<path d="M324.623 124H322.365V105.25H324.623V124Z" fill="white"/>
</g>
<g filter="url(#filter20_d_24_1646)">
<rect x="4" y="198" width="48" height="40" rx="6" fill="#373C40"/>
<path d="M13.2031 219.656C13.2031 218.964 13.2891 218.411 13.4609 218C13.6328 217.589 13.9714 217.138 14.4766 216.648C14.987 216.154 15.3099 215.802 15.4453 215.594C15.6536 215.276 15.7578 214.932 15.7578 214.562C15.7578 214.073 15.6354 213.701 15.3906 213.445C15.151 213.185 14.7969 213.055 14.3281 213.055C13.8802 213.055 13.5182 213.182 13.2422 213.438C12.9714 213.688 12.8359 214.029 12.8359 214.461H10.9375C10.9479 213.539 11.2604 212.81 11.875 212.273C12.4948 211.737 13.3125 211.469 14.3281 211.469C15.375 211.469 16.1901 211.734 16.7734 212.266C17.362 212.797 17.6562 213.539 17.6562 214.492C17.6562 215.341 17.2604 216.177 16.4688 217L15.5078 217.945C15.1641 218.336 14.987 218.906 14.9766 219.656H13.2031ZM13.0703 222.086C13.0703 221.779 13.1667 221.531 13.3594 221.344C13.5521 221.151 13.8125 221.055 14.1406 221.055C14.474 221.055 14.737 221.154 14.9297 221.352C15.1224 221.544 15.2188 221.789 15.2188 222.086C15.2188 222.372 15.125 222.612 14.9375 222.805C14.75 222.997 14.4844 223.094 14.1406 223.094C13.7969 223.094 13.5312 222.997 13.3438 222.805C13.1615 222.612 13.0703 222.372 13.0703 222.086ZM24.2422 223H22.3516V213.867L19.5625 214.82V213.219L24 211.586H24.2422V223ZM35.8438 223H28.1953V221.695L31.9844 217.562C32.5312 216.953 32.9193 216.445 33.1484 216.039C33.3828 215.628 33.5 215.216 33.5 214.805C33.5 214.263 33.3464 213.826 33.0391 213.492C32.737 213.159 32.3281 212.992 31.8125 212.992C31.1979 212.992 30.7214 213.18 30.3828 213.555C30.0443 213.93 29.875 214.443 29.875 215.094H27.9766C27.9766 214.401 28.1328 213.779 28.4453 213.227C28.763 212.669 29.2135 212.237 29.7969 211.93C30.3854 211.622 31.0625 211.469 31.8281 211.469C32.9323 211.469 33.8021 211.747 34.4375 212.305C35.0781 212.857 35.3984 213.622 35.3984 214.602C35.3984 215.169 35.237 215.766 34.9141 216.391C34.5964 217.01 34.0729 217.716 33.3438 218.508L30.5625 221.484H35.8438V223ZM39.4844 216.445H40.6406C41.224 216.44 41.6849 216.289 42.0234 215.992C42.3672 215.695 42.5391 215.266 42.5391 214.703C42.5391 214.161 42.3958 213.742 42.1094 213.445C41.8281 213.143 41.3958 212.992 40.8125 212.992C40.3021 212.992 39.8828 213.141 39.5547 213.438C39.2266 213.729 39.0625 214.112 39.0625 214.586H37.1641C37.1641 214.003 37.3177 213.471 37.625 212.992C37.9375 212.513 38.3698 212.141 38.9219 211.875C39.4792 211.604 40.1016 211.469 40.7891 211.469C41.9245 211.469 42.8151 211.755 43.4609 212.328C44.112 212.896 44.4375 213.688 44.4375 214.703C44.4375 215.214 44.2734 215.695 43.9453 216.148C43.6224 216.596 43.2031 216.935 42.6875 217.164C43.3125 217.378 43.7865 217.714 44.1094 218.172C44.4375 218.63 44.6016 219.177 44.6016 219.812C44.6016 220.833 44.25 221.646 43.5469 222.25C42.849 222.854 41.9297 223.156 40.7891 223.156C39.6953 223.156 38.7995 222.865 38.1016 222.281C37.4036 221.698 37.0547 220.922 37.0547 219.953H38.9531C38.9531 220.453 39.1198 220.859 39.4531 221.172C39.7917 221.484 40.2448 221.641 40.8125 221.641C41.401 221.641 41.8646 221.484 42.2031 221.172C42.5417 220.859 42.7109 220.406 42.7109 219.812C42.7109 219.214 42.5339 218.753 42.1797 218.43C41.8255 218.107 41.2995 217.945 40.6016 217.945H39.4844V216.445Z" fill="#C4C5C7"/>
</g>
<g filter="url(#filter21_d_24_1646)">
<rect x="56" y="198" width="28.6667" height="40" rx="6" fill="#373C40"/>
<path d="M68.3262 225.282H66.3677L72.2432 209.07H74.2017L68.3262 225.282Z" fill="white"/>
</g>
<g filter="url(#filter22_d_24_1646)">
<rect x="88.6667" y="198" width="28.6667" height="40" rx="6" fill="#484C4F"/>
<circle cx="103.167" cy="218.5" r="7.75" stroke="#C4C5C7" stroke-width="1.5"/>
<circle cx="100.333" cy="216.8" r="1.13333" fill="#C4C5C7"/>
<ellipse cx="106" cy="216.8" rx="1.13333" ry="1.13333" fill="#C4C5C7"/>
<path d="M99.7668 220.483C100.145 221.145 101.354 222.467 103.167 222.467C104.98 222.467 106 221.145 106.284 220.483" stroke="#C4C5C7" stroke-width="1.62963" stroke-linecap="round"/>
</g>
<g filter="url(#filter23_d_24_1646)">
<rect x="121.333" y="198" width="150" height="40" rx="6" fill="#484C4F"/>
</g>
<g filter="url(#filter24_d_24_1646)">
<rect x="275.333" y="198" width="28.6667" height="40" rx="6" fill="#373C40"/>
<path d="M288.75 219.875C289.127 219.875 289.417 219.983 289.622 220.199C289.827 220.409 289.929 220.675 289.929 220.996C289.929 221.311 289.827 221.574 289.622 221.784C289.417 221.989 289.127 222.091 288.75 222.091C288.391 222.091 288.106 221.989 287.895 221.784C287.685 221.579 287.58 221.317 287.58 220.996C287.58 220.675 287.682 220.409 287.887 220.199C288.092 219.983 288.379 219.875 288.75 219.875Z" fill="white"/>
</g>
<g filter="url(#filter25_d_24_1646)">
<rect x="308" y="198" width="48" height="40" rx="6" fill="#5F97F6"/>
<path d="M323 217H337.17L333.59 213.41L335 212L341 218L335 224L333.59 222.59L337.17 219H323V217Z" fill="white"/>
</g>
<g filter="url(#filter26_d_24_1646)">
<rect x="4" y="147" width="34.025" height="41" rx="6" fill="#373C40"/>
<path d="M20.5 159L21.1264 158.425L20.5 157.743L19.8736 158.425L20.5 159ZM24.9811 169.356V168.506H24.1311V169.356H24.9811ZM24.9811 176V176.85C25.4506 176.85 25.8311 176.469 25.8311 176H24.9811ZM16.1981 176H15.3481C15.3481 176.469 15.7287 176.85 16.1981 176.85V176ZM16.1981 169.356H17.0481V168.506H16.1981V169.356ZM29.2313 168.518L29.8577 167.944L29.2313 168.518ZM11.7687 168.518L11.1423 167.944L11.7687 168.518ZM19.8736 158.425L11.1423 167.944L12.3951 169.093L21.1264 159.575L19.8736 158.425ZM19.8736 159.575L28.6049 169.093L29.8577 167.944L21.1264 158.425L19.8736 159.575ZM28.8628 168.506H24.9811V170.206H28.8628V168.506ZM24.1311 169.356V176H25.8311V169.356H24.1311ZM24.9811 175.15H16.1981V176.85H24.9811V175.15ZM17.0481 176V169.356H15.3481V176H17.0481ZM16.1981 168.506H12.1372V170.206H16.1981V168.506ZM28.6049 169.093C28.399 168.868 28.5582 168.506 28.8628 168.506V170.206C30.0377 170.206 30.6519 168.81 29.8577 167.944L28.6049 169.093ZM11.1423 167.944C10.3481 168.81 10.9623 170.206 12.1372 170.206V168.506C12.4418 168.506 12.601 168.868 12.3951 169.093L11.1423 167.944Z" fill="#C4C5C7"/>
</g>
<g filter="url(#filter27_d_24_1646)">
<rect x="42.0249" y="147" width="34.025" height="40" rx="6" fill="#484C4F"/>
<path d="M58.4639 165.614L61.3936 160.792H64.0303L59.709 167.323L64.1646 174H61.5522L58.5005 169.056L55.4487 174H52.8242L57.2798 167.323L52.9585 160.792H55.5708L58.4639 165.614Z" fill="white"/>
</g>
<g filter="url(#filter28_d_24_1646)">
<rect x="80.05" y="147" width="34.025" height="40" rx="6" fill="#484C4F"/>
<path d="M94.1819 172.157H101.909V174H91.4231V172.34L98.7107 162.66H91.533V160.792H101.543V162.391L94.1819 172.157Z" fill="white"/>
</g>
<g filter="url(#filter29_d_24_1646)">
<rect x="118.075" y="147" width="34.025" height="40" rx="6" fill="#484C4F"/>
<path d="M134.539 172.401C135.344 172.401 136.048 172.157 136.651 171.668C137.253 171.18 137.587 170.57 137.652 169.837H139.788C139.747 170.594 139.487 171.314 139.007 171.998C138.526 172.682 137.884 173.227 137.078 173.634C136.28 174.041 135.434 174.244 134.539 174.244C132.74 174.244 131.308 173.646 130.242 172.45C129.184 171.245 128.655 169.601 128.655 167.518V167.14C128.655 165.854 128.891 164.71 129.363 163.709C129.835 162.708 130.51 161.931 131.389 161.378C132.276 160.825 133.322 160.548 134.527 160.548C136.008 160.548 137.237 160.991 138.213 161.878C139.198 162.765 139.723 163.917 139.788 165.333H137.652C137.587 164.479 137.261 163.779 136.675 163.233C136.097 162.68 135.381 162.403 134.527 162.403C133.379 162.403 132.488 162.818 131.853 163.648C131.227 164.47 130.913 165.663 130.913 167.225V167.652C130.913 169.174 131.227 170.346 131.853 171.168C132.48 171.99 133.375 172.401 134.539 172.401Z" fill="white"/>
</g>
<g filter="url(#filter30_d_24_1646)">
<rect x="156.1" y="147" width="34.025" height="40" rx="6" fill="#484C4F"/>
<path d="M172.612 170.936L175.884 160.792H178.191L173.455 174H171.733L166.948 160.792H169.255L172.612 170.936Z" fill="white"/>
</g>
<g filter="url(#filter31_d_24_1646)">
<rect x="194.125" y="147" width="34.025" height="40" rx="6" fill="#484C4F"/>
<path d="M216.497 167.542C216.497 169.561 216.033 171.184 215.105 172.413C214.177 173.634 212.932 174.244 211.37 174.244C209.701 174.244 208.411 173.654 207.5 172.474L207.39 174H205.315V155.25H207.573V162.245C208.485 161.113 209.742 160.548 211.345 160.548C212.948 160.548 214.206 161.154 215.117 162.367C216.037 163.579 216.497 165.239 216.497 167.347V167.542ZM214.238 167.286C214.238 165.748 213.941 164.56 213.347 163.722C212.753 162.883 211.899 162.464 210.784 162.464C209.294 162.464 208.224 163.156 207.573 164.54V170.252C208.265 171.636 209.343 172.328 210.808 172.328C211.89 172.328 212.733 171.909 213.335 171.07C213.937 170.232 214.238 168.971 214.238 167.286Z" fill="white"/>
</g>
<g filter="url(#filter32_d_24_1646)">
<rect x="232.15" y="147" width="34.025" height="40" rx="6" fill="#484C4F"/>
<path d="M245.098 160.792L245.171 162.452C246.181 161.183 247.499 160.548 249.126 160.548C251.918 160.548 253.326 162.123 253.35 165.272V174H251.092V165.26C251.084 164.308 250.864 163.604 250.433 163.148C250.009 162.692 249.346 162.464 248.443 162.464C247.71 162.464 247.068 162.66 246.514 163.05C245.961 163.441 245.529 163.954 245.22 164.588V174H242.962V160.792H245.098Z" fill="white"/>
</g>
<g filter="url(#filter33_d_24_1646)">
<rect x="270.175" y="147" width="34.025" height="40" rx="6" fill="#484C4F"/>
<path d="M279.046 160.792L279.107 162.257C280.076 161.118 281.382 160.548 283.026 160.548C284.873 160.548 286.13 161.256 286.798 162.672C287.237 162.037 287.807 161.524 288.507 161.134C289.215 160.743 290.049 160.548 291.009 160.548C293.906 160.548 295.379 162.082 295.428 165.15V174H293.17V165.284C293.17 164.34 292.954 163.636 292.523 163.172C292.091 162.7 291.367 162.464 290.35 162.464C289.512 162.464 288.816 162.717 288.262 163.221C287.709 163.718 287.388 164.389 287.298 165.235V174H285.028V165.345C285.028 163.425 284.088 162.464 282.208 162.464C280.727 162.464 279.713 163.095 279.168 164.356V174H276.91V160.792H279.046Z" fill="white"/>
</g>
<g filter="url(#filter34_d_24_1646)">
<rect x="308.2" y="147" width="48" height="41" rx="6" fill="#373C40"/>
<path fill-rule="evenodd" clip-rule="evenodd" d="M343.172 161C343.172 159.895 342.276 159 341.172 159H327.038C326.408 159 325.868 159.27 325.508 159.81L321.2 167.097L325.508 174.385C325.868 174.835 326.408 175.194 327.038 175.194H341.172C342.276 175.194 343.172 174.299 343.172 173.194C343.172 169.13 343.172 165.065 343.172 161Z" stroke="#C4C5C7" stroke-width="1.7" stroke-linecap="square"/>
<path fill-rule="evenodd" clip-rule="evenodd" d="M335.599 170.82C335.931 171.152 336.469 171.152 336.801 170.82C337.133 170.488 337.133 169.949 336.801 169.618L334.402 167.219L337.02 164.601C337.352 164.269 337.352 163.731 337.02 163.399C336.688 163.067 336.15 163.067 335.818 163.399L333.2 166.017L330.582 163.399C330.25 163.067 329.712 163.067 329.38 163.399C329.048 163.731 329.048 164.269 329.38 164.601L331.998 167.219L329.599 169.618C329.267 169.949 329.267 170.488 329.599 170.82C329.931 171.152 330.469 171.152 330.801 170.82L333.2 168.421L335.599 170.82Z" fill="#C4C5C7"/>
</g>
<rect width="360" height="37" fill="#292E32"/>
<circle cx="13.5" cy="13.5" r="13.5" transform="matrix(-1 0 0 1 35 6)" fill="white"/>
<path d="M22.668 14L24 15.2925L19.6734 19.5L24 23.7075L22.668 25L17 19.5L22.668 14Z" fill="#686868"/>
<path d="M80.0876 20.9366C78.9844 22.0414 79.2068 24.0765 79.2068 25.1837L84.1721 20.5331C83.265 20.0902 81.1629 19.8598 80.0876 20.9366Z" fill="#AAABAD"/>
<path d="M80.2318 17.5293L73.4245 19.5226C73.2821 19.5598 73.2159 19.7211 73.3026 19.8385C73.9722 20.7447 75.299 21.6206 77.1981 21.1978C79.0953 20.7753 80.1144 19.0699 80.2317 18.013C80.2939 17.5292 80.3676 17.4939 80.2318 17.5293Z" fill="#AAABAD"/>
<path fill-rule="evenodd" clip-rule="evenodd" d="M69 12.9932C69 11.3401 70.3586 10 72.0345 10H81.9655C83.6414 10 85 11.3401 85 12.9932V20.2428C85 21.0499 84.6696 21.8228 84.0836 22.3862L81.209 25.1502C80.6423 25.6951 79.8822 26 79.0909 26H72.0345C70.3586 26 69 24.6599 69 23.0068V12.9932ZM72.0345 11.6327C71.2727 11.6327 70.6552 12.2418 70.6552 12.9932V23.0068C70.6552 23.7582 71.2727 24.3673 72.0345 24.3673H79.0909C79.4506 24.3673 79.796 24.2287 80.0536 23.9811L82.9283 21.2171C83.1946 20.961 83.3448 20.6097 83.3448 20.2428V12.9932C83.3448 12.2418 82.7273 11.6327 81.9655 11.6327H72.0345Z" fill="#AAABAD"/>
<path d="M73.4831 15.6802C72.8126 15.8544 72.3724 16.4747 72.3619 17.1721C72.3578 17.4454 72.6262 17.6191 72.9011 17.5849L73.2484 17.5417C73.8843 17.4626 74.5035 17.285 75.0833 17.0154C75.2603 16.9331 75.3571 16.7352 75.2726 16.5611C74.9417 15.8788 74.1995 15.494 73.4831 15.6802Z" fill="#AAABAD"/>
<path d="M78.3645 14.542C77.694 14.7162 77.2537 15.3366 77.2432 16.0339C77.2391 16.3072 77.5075 16.4809 77.7824 16.4467L78.1297 16.4035C78.7656 16.3245 79.3849 16.1468 79.9646 15.8772C80.1416 15.7949 80.2384 15.597 80.154 15.4229C79.823 14.7406 79.0809 14.3558 78.3645 14.542Z" fill="#AAABAD"/>
<path fill-rule="evenodd" clip-rule="evenodd" d="M116.6 14H112.4C111.56 14 111 14.7 111 15.4V21C111 21.7 111.56 22.4 112.4 22.4H116.6C117.44 22.4 118 21.7 118 21V18.2H115.9V20.3H113.1V16.1H118V15.4C118 14.7 117.44 14 116.6 14ZM120.133 14H122.233V22.4H120.133V14ZM131 14V16.1H126.8V17.5H129.6V19.6H126.8V22.4H124.7V14H131Z" fill="#AAABAD"/>
<path fill-rule="evenodd" clip-rule="evenodd" d="M170.833 10.5002H167.35C167 9.5335 166.083 8.8335 165 8.8335C163.917 8.8335 163 9.5335 162.65 10.5002H159.167C158.25 10.5002 157.5 11.2502 157.5 12.1668V25.5002C157.5 26.4168 158.25 27.1668 159.167 27.1668H170.833C171.75 27.1668 172.5 26.4168 172.5 25.5002V12.1668C172.5 11.2502 171.75 10.5002 170.833 10.5002ZM165 10.5002C165.458 10.5002 165.833 10.8752 165.833 11.3335C165.833 11.7918 165.458 12.1668 165 12.1668C164.542 12.1668 164.167 11.7918 164.167 11.3335C164.167 10.8752 164.542 10.5002 165 10.5002ZM159.167 25.5002H170.833V12.1668H169.167V14.6668H160.833V12.1668H159.167V25.5002Z" fill="#AAABAD"/>
<path fill-rule="evenodd" clip-rule="evenodd" d="M215.252 17.9998C215.252 18.2832 215.227 18.5498 215.193 18.8165L216.952 20.1915C217.11 20.3165 217.152 20.5415 217.052 20.7248L215.385 23.6082C215.285 23.7915 215.068 23.8665 214.877 23.7915L212.802 22.9582C212.368 23.2832 211.902 23.5665 211.393 23.7748L211.077 25.9832C211.052 26.1832 210.877 26.3332 210.668 26.3332H207.335C207.127 26.3332 206.952 26.1832 206.927 25.9832L206.61 23.7748C206.102 23.5665 205.635 23.2915 205.202 22.9582L203.127 23.7915C202.943 23.8582 202.718 23.7915 202.618 23.6082L200.952 20.7248C200.852 20.5415 200.893 20.3165 201.052 20.1915L202.81 18.8165C202.777 18.5498 202.752 18.2748 202.752 17.9998C202.752 17.7248 202.777 17.4498 202.81 17.1832L201.052 15.8082C200.893 15.6832 200.843 15.4582 200.952 15.2748L202.618 12.3915C202.718 12.2082 202.935 12.1332 203.127 12.2082L205.202 13.0415C205.635 12.7165 206.102 12.4332 206.61 12.2248L206.927 10.0165C206.952 9.8165 207.127 9.6665 207.335 9.6665H210.668C210.877 9.6665 211.052 9.8165 211.077 10.0165L211.393 12.2248C211.902 12.4332 212.368 12.7082 212.802 13.0415L214.877 12.2082C215.06 12.1415 215.285 12.2082 215.385 12.3915L217.052 15.2748C217.152 15.4582 217.11 15.6832 216.952 15.8082L215.193 17.1832C215.227 17.4498 215.252 17.7165 215.252 17.9998ZM206.085 17.9998C206.085 19.6082 207.393 20.9165 209.002 20.9165C210.61 20.9165 211.918 19.6082 211.918 17.9998C211.918 16.3915 210.61 15.0832 209.002 15.0832C207.393 15.0832 206.085 16.3915 206.085 17.9998Z" fill="#AAABAD"/>
<line x1="252.5" y1="8" x2="251.5" y2="29" stroke="#3D4246"/>
<path fill-rule="evenodd" clip-rule="evenodd" d="M291.667 17C290.75 17 290 17.75 290 18.6667C290 19.5833 290.75 20.3333 291.667 20.3333C292.583 20.3333 293.333 19.5833 293.333 18.6667C293.333 17.75 292.583 17 291.667 17ZM301.667 17C300.75 17 300 17.75 300 18.6667C300 19.5833 300.75 20.3333 301.667 20.3333C302.583 20.3333 303.333 19.5833 303.333 18.6667C303.333 17.75 302.583 17 301.667 17ZM295 18.6667C295 17.75 295.75 17 296.667 17C297.583 17 298.333 17.75 298.333 18.6667C298.333 19.5833 297.583 20.3333 296.667 20.3333C295.75 20.3333 295 19.5833 295 18.6667Z" fill="#AAABAD"/>
<g clip-path="url(#clip0_24_1646)">
<path d="M347.833 18.9849H346.417C346.417 19.6015 346.283 20.1765 346.058 20.6932L347.083 21.7182C347.55 20.9015 347.833 19.9765 347.833 18.9849ZM344.483 19.1265C344.483 19.0765 344.5 19.0349 344.5 18.9849V13.9849C344.5 12.6015 343.383 11.4849 342 11.4849C340.617 11.4849 339.5 12.6015 339.5 13.9849V14.1349L344.483 19.1265ZM335.558 12.3182L334.5 13.3765L339.508 18.3849V18.9849C339.508 20.3682 340.617 21.4849 342 21.4849C342.183 21.4849 342.367 21.4599 342.542 21.4182L343.925 22.8015C343.333 23.0765 342.675 23.2349 342 23.2349C339.7 23.2349 337.583 21.4849 337.583 18.9849H336.167C336.167 21.8265 338.433 24.1765 341.167 24.5849V27.3182H342.833V24.5849C343.592 24.4765 344.308 24.2099 344.95 23.8349L348.442 27.3182L349.5 26.2599L335.558 12.3182Z" fill="#C0C1C3"/>
</g>
<rect y="246" width="360" height="42" fill="black"/>
<path d="M335 264L341.5 270.5L348 264" stroke="white" stroke-width="2" stroke-linecap="round" stroke-linejoin="round"/>
<rect x="132" y="280" width="96" height="3" rx="1.5" fill="#5B5B5B"/>
<circle cx="17" cy="263" r="1" fill="#F2F2F2"/>
<circle cx="17" cy="267" r="1" fill="#F2F2F2"/>
<circle cx="21" cy="263" r="1" fill="#F2F2F2"/>
<circle cx="21" cy="267" r="1" fill="#F2F2F2"/>
<circle cx="25" cy="263" r="1" fill="#F2F2F2"/>
<circle cx="25" cy="267" r="1" fill="#F2F2F2"/>
<circle cx="29" cy="263" r="1" fill="#F2F2F2"/>
<circle cx="29" cy="267" r="1" fill="#F2F2F2"/>
<circle cx="29" cy="271" r="1" fill="#F2F2F2"/>
<circle cx="13" cy="263" r="1" fill="#F2F2F2"/>
<circle cx="13" cy="267" r="1" fill="#F2F2F2"/>
<circle cx="13" cy="271" r="1" fill="#F2F2F2"/>
<rect x="16" y="270" width="10" height="2" rx="1" fill="#F2F2F2"/>
</g>
<defs>
<filter id="filter0_i_24_1646" x="0" y="0" width="360" height="288" filterUnits="userSpaceOnUse" color-interpolation-filters="sRGB">
<feFlood flood-opacity="0" result="BackgroundImageFix"/>
<feBlend mode="normal" in="SourceGraphic" in2="BackgroundImageFix" result="shape"/>
<feColorMatrix in="SourceAlpha" type="matrix" values="0 0 0 0 0 0 0 0 0 0 0 0 0 0 0 0 0 0 127 0" result="hardAlpha"/>
<feOffset dy="1"/>
<feComposite in2="hardAlpha" operator="arithmetic" k2="-1" k3="1"/>
<feColorMatrix type="matrix" values="0 0 0 0 0.3625 0 0 0 0 0.3625 0 0 0 0 0.3625 0 0 0 1 0"/>
<feBlend mode="normal" in2="shape" result="effect1_innerShadow_24_1646"/>
</filter>
<filter id="filter1_d_24_1646" x="4" y="45" width="31.6001" height="41" filterUnits="userSpaceOnUse" color-interpolation-filters="sRGB">
<feFlood flood-opacity="0" result="BackgroundImageFix"/>
<feColorMatrix in="SourceAlpha" type="matrix" values="0 0 0 0 0 0 0 0 0 0 0 0 0 0 0 0 0 0 127 0" result="hardAlpha"/>
<feOffset dy="1"/>
<feColorMatrix type="matrix" values="0 0 0 0 0 0 0 0 0 0 0 0 0 0 0 0 0 0 0.25 0"/>
<feBlend mode="normal" in2="BackgroundImageFix" result="effect1_dropShadow_24_1646"/>
<feBlend mode="normal" in="SourceGraphic" in2="effect1_dropShadow_24_1646" result="shape"/>
</filter>
<filter id="filter2_d_24_1646" x="39.6001" y="45" width="31.6001" height="42" filterUnits="userSpaceOnUse" color-interpolation-filters="sRGB">
<feFlood flood-opacity="0" result="BackgroundImageFix"/>
<feColorMatrix in="SourceAlpha" type="matrix" values="0 0 0 0 0 0 0 0 0 0 0 0 0 0 0 0 0 0 127 0" result="hardAlpha"/>
<feOffset dy="1"/>
<feColorMatrix type="matrix" values="0 0 0 0 0 0 0 0 0 0 0 0 0 0 0 0 0 0 0.25 0"/>
<feBlend mode="normal" in2="BackgroundImageFix" result="effect1_dropShadow_24_1646"/>
<feBlend mode="normal" in="SourceGraphic" in2="effect1_dropShadow_24_1646" result="shape"/>
</filter>
<filter id="filter3_d_24_1646" x="75.2" y="45" width="31.6001" height="42" filterUnits="userSpaceOnUse" color-interpolation-filters="sRGB">
<feFlood flood-opacity="0" result="BackgroundImageFix"/>
<feColorMatrix in="SourceAlpha" type="matrix" values="0 0 0 0 0 0 0 0 0 0 0 0 0 0 0 0 0 0 127 0" result="hardAlpha"/>
<feOffset dy="1"/>
<feColorMatrix type="matrix" values="0 0 0 0 0 0 0 0 0 0 0 0 0 0 0 0 0 0 0.25 0"/>
<feBlend mode="normal" in2="BackgroundImageFix" result="effect1_dropShadow_24_1646"/>
<feBlend mode="normal" in="SourceGraphic" in2="effect1_dropShadow_24_1646" result="shape"/>
</filter>
<filter id="filter4_d_24_1646" x="110.8" y="45" width="31.6001" height="42" filterUnits="userSpaceOnUse" color-interpolation-filters="sRGB">
<feFlood flood-opacity="0" result="BackgroundImageFix"/>
<feColorMatrix in="SourceAlpha" type="matrix" values="0 0 0 0 0 0 0 0 0 0 0 0 0 0 0 0 0 0 127 0" result="hardAlpha"/>
<feOffset dy="1"/>
<feColorMatrix type="matrix" values="0 0 0 0 0 0 0 0 0 0 0 0 0 0 0 0 0 0 0.25 0"/>
<feBlend mode="normal" in2="BackgroundImageFix" result="effect1_dropShadow_24_1646"/>
<feBlend mode="normal" in="SourceGraphic" in2="effect1_dropShadow_24_1646" result="shape"/>
</filter>
<filter id="filter5_d_24_1646" x="146.4" y="45" width="31.6001" height="42" filterUnits="userSpaceOnUse" color-interpolation-filters="sRGB">
<feFlood flood-opacity="0" result="BackgroundImageFix"/>
<feColorMatrix in="SourceAlpha" type="matrix" values="0 0 0 0 0 0 0 0 0 0 0 0 0 0 0 0 0 0 127 0" result="hardAlpha"/>
<feOffset dy="1"/>
<feColorMatrix type="matrix" values="0 0 0 0 0 0 0 0 0 0 0 0 0 0 0 0 0 0 0.25 0"/>
<feBlend mode="normal" in2="BackgroundImageFix" result="effect1_dropShadow_24_1646"/>
<feBlend mode="normal" in="SourceGraphic" in2="effect1_dropShadow_24_1646" result="shape"/>
</filter>
<filter id="filter6_d_24_1646" x="182" y="45" width="31.6001" height="42" filterUnits="userSpaceOnUse" color-interpolation-filters="sRGB">
<feFlood flood-opacity="0" result="BackgroundImageFix"/>
<feColorMatrix in="SourceAlpha" type="matrix" values="0 0 0 0 0 0 0 0 0 0 0 0 0 0 0 0 0 0 127 0" result="hardAlpha"/>
<feOffset dy="1"/>
<feColorMatrix type="matrix" values="0 0 0 0 0 0 0 0 0 0 0 0 0 0 0 0 0 0 0.25 0"/>
<feBlend mode="normal" in2="BackgroundImageFix" result="effect1_dropShadow_24_1646"/>
<feBlend mode="normal" in="SourceGraphic" in2="effect1_dropShadow_24_1646" result="shape"/>
</filter>
<filter id="filter7_d_24_1646" x="217.6" y="45" width="31.6001" height="42" filterUnits="userSpaceOnUse" color-interpolation-filters="sRGB">
<feFlood flood-opacity="0" result="BackgroundImageFix"/>
<feColorMatrix in="SourceAlpha" type="matrix" values="0 0 0 0 0 0 0 0 0 0 0 0 0 0 0 0 0 0 127 0" result="hardAlpha"/>
<feOffset dy="1"/>
<feColorMatrix type="matrix" values="0 0 0 0 0 0 0 0 0 0 0 0 0 0 0 0 0 0 0.25 0"/>
<feBlend mode="normal" in2="BackgroundImageFix" result="effect1_dropShadow_24_1646"/>
<feBlend mode="normal" in="SourceGraphic" in2="effect1_dropShadow_24_1646" result="shape"/>
</filter>
<filter id="filter8_d_24_1646" x="253.2" y="45" width="31.6001" height="42" filterUnits="userSpaceOnUse" color-interpolation-filters="sRGB">
<feFlood flood-opacity="0" result="BackgroundImageFix"/>
<feColorMatrix in="SourceAlpha" type="matrix" values="0 0 0 0 0 0 0 0 0 0 0 0 0 0 0 0 0 0 127 0" result="hardAlpha"/>
<feOffset dy="1"/>
<feColorMatrix type="matrix" values="0 0 0 0 0 0 0 0 0 0 0 0 0 0 0 0 0 0 0.25 0"/>
<feBlend mode="normal" in2="BackgroundImageFix" result="effect1_dropShadow_24_1646"/>
<feBlend mode="normal" in="SourceGraphic" in2="effect1_dropShadow_24_1646" result="shape"/>
</filter>
<filter id="filter9_d_24_1646" x="288.8" y="45" width="31.6001" height="42" filterUnits="userSpaceOnUse" color-interpolation-filters="sRGB">
<feFlood flood-opacity="0" result="BackgroundImageFix"/>
<feColorMatrix in="SourceAlpha" type="matrix" values="0 0 0 0 0 0 0 0 0 0 0 0 0 0 0 0 0 0 127 0" result="hardAlpha"/>
<feOffset dy="1"/>
<feColorMatrix type="matrix" values="0 0 0 0 0 0 0 0 0 0 0 0 0 0 0 0 0 0 0.25 0"/>
<feBlend mode="normal" in2="BackgroundImageFix" result="effect1_dropShadow_24_1646"/>
<feBlend mode="normal" in="SourceGraphic" in2="effect1_dropShadow_24_1646" result="shape"/>
</filter>
<filter id="filter10_d_24_1646" x="324.4" y="45" width="31.6001" height="42" filterUnits="userSpaceOnUse" color-interpolation-filters="sRGB">
<feFlood flood-opacity="0" result="BackgroundImageFix"/>
<feColorMatrix in="SourceAlpha" type="matrix" values="0 0 0 0 0 0 0 0 0 0 0 0 0 0 0 0 0 0 127 0" result="hardAlpha"/>
<feOffset dy="1"/>
<feColorMatrix type="matrix" values="0 0 0 0 0 0 0 0 0 0 0 0 0 0 0 0 0 0 0.25 0"/>
<feBlend mode="normal" in2="BackgroundImageFix" result="effect1_dropShadow_24_1646"/>
<feBlend mode="normal" in="SourceGraphic" in2="effect1_dropShadow_24_1646" result="shape"/>
</filter>
<filter id="filter11_d_24_1646" x="20" y="96" width="32" height="42" filterUnits="userSpaceOnUse" color-interpolation-filters="sRGB">
<feFlood flood-opacity="0" result="BackgroundImageFix"/>
<feColorMatrix in="SourceAlpha" type="matrix" values="0 0 0 0 0 0 0 0 0 0 0 0 0 0 0 0 0 0 127 0" result="hardAlpha"/>
<feOffset dy="1"/>
<feColorMatrix type="matrix" values="0 0 0 0 0 0 0 0 0 0 0 0 0 0 0 0 0 0 0.25 0"/>
<feBlend mode="normal" in2="BackgroundImageFix" result="effect1_dropShadow_24_1646"/>
<feBlend mode="normal" in="SourceGraphic" in2="effect1_dropShadow_24_1646" result="shape"/>
</filter>
<filter id="filter12_d_24_1646" x="56" y="96" width="32" height="42" filterUnits="userSpaceOnUse" color-interpolation-filters="sRGB">
<feFlood flood-opacity="0" result="BackgroundImageFix"/>
<feColorMatrix in="SourceAlpha" type="matrix" values="0 0 0 0 0 0 0 0 0 0 0 0 0 0 0 0 0 0 127 0" result="hardAlpha"/>
<feOffset dy="1"/>
<feColorMatrix type="matrix" values="0 0 0 0 0 0 0 0 0 0 0 0 0 0 0 0 0 0 0.25 0"/>
<feBlend mode="normal" in2="BackgroundImageFix" result="effect1_dropShadow_24_1646"/>
<feBlend mode="normal" in="SourceGraphic" in2="effect1_dropShadow_24_1646" result="shape"/>
</filter>
<filter id="filter13_d_24_1646" x="92" y="96" width="32" height="42" filterUnits="userSpaceOnUse" color-interpolation-filters="sRGB">
<feFlood flood-opacity="0" result="BackgroundImageFix"/>
<feColorMatrix in="SourceAlpha" type="matrix" values="0 0 0 0 0 0 0 0 0 0 0 0 0 0 0 0 0 0 127 0" result="hardAlpha"/>
<feOffset dy="1"/>
<feColorMatrix type="matrix" values="0 0 0 0 0 0 0 0 0 0 0 0 0 0 0 0 0 0 0.25 0"/>
<feBlend mode="normal" in2="BackgroundImageFix" result="effect1_dropShadow_24_1646"/>
<feBlend mode="normal" in="SourceGraphic" in2="effect1_dropShadow_24_1646" result="shape"/>
</filter>
<filter id="filter14_d_24_1646" x="128" y="96" width="32" height="42" filterUnits="userSpaceOnUse" color-interpolation-filters="sRGB">
<feFlood flood-opacity="0" result="BackgroundImageFix"/>
<feColorMatrix in="SourceAlpha" type="matrix" values="0 0 0 0 0 0 0 0 0 0 0 0 0 0 0 0 0 0 127 0" result="hardAlpha"/>
<feOffset dy="1"/>
<feColorMatrix type="matrix" values="0 0 0 0 0 0 0 0 0 0 0 0 0 0 0 0 0 0 0.25 0"/>
<feBlend mode="normal" in2="BackgroundImageFix" result="effect1_dropShadow_24_1646"/>
<feBlend mode="normal" in="SourceGraphic" in2="effect1_dropShadow_24_1646" result="shape"/>
</filter>
<filter id="filter15_d_24_1646" x="164" y="96" width="32" height="42" filterUnits="userSpaceOnUse" color-interpolation-filters="sRGB">
<feFlood flood-opacity="0" result="BackgroundImageFix"/>
<feColorMatrix in="SourceAlpha" type="matrix" values="0 0 0 0 0 0 0 0 0 0 0 0 0 0 0 0 0 0 127 0" result="hardAlpha"/>
<feOffset dy="1"/>
<feColorMatrix type="matrix" values="0 0 0 0 0 0 0 0 0 0 0 0 0 0 0 0 0 0 0.25 0"/>
<feBlend mode="normal" in2="BackgroundImageFix" result="effect1_dropShadow_24_1646"/>
<feBlend mode="normal" in="SourceGraphic" in2="effect1_dropShadow_24_1646" result="shape"/>
</filter>
<filter id="filter16_d_24_1646" x="200" y="96" width="32" height="42" filterUnits="userSpaceOnUse" color-interpolation-filters="sRGB">
<feFlood flood-opacity="0" result="BackgroundImageFix"/>
<feColorMatrix in="SourceAlpha" type="matrix" values="0 0 0 0 0 0 0 0 0 0 0 0 0 0 0 0 0 0 127 0" result="hardAlpha"/>
<feOffset dy="1"/>
<feColorMatrix type="matrix" values="0 0 0 0 0 0 0 0 0 0 0 0 0 0 0 0 0 0 0.25 0"/>
<feBlend mode="normal" in2="BackgroundImageFix" result="effect1_dropShadow_24_1646"/>
<feBlend mode="normal" in="SourceGraphic" in2="effect1_dropShadow_24_1646" result="shape"/>
</filter>
<filter id="filter17_d_24_1646" x="236" y="96" width="32" height="42" filterUnits="userSpaceOnUse" color-interpolation-filters="sRGB">
<feFlood flood-opacity="0" result="BackgroundImageFix"/>
<feColorMatrix in="SourceAlpha" type="matrix" values="0 0 0 0 0 0 0 0 0 0 0 0 0 0 0 0 0 0 127 0" result="hardAlpha"/>
<feOffset dy="1"/>
<feColorMatrix type="matrix" values="0 0 0 0 0 0 0 0 0 0 0 0 0 0 0 0 0 0 0.25 0"/>
<feBlend mode="normal" in2="BackgroundImageFix" result="effect1_dropShadow_24_1646"/>
<feBlend mode="normal" in="SourceGraphic" in2="effect1_dropShadow_24_1646" result="shape"/>
</filter>
<filter id="filter18_d_24_1646" x="272" y="96" width="32" height="42" filterUnits="userSpaceOnUse" color-interpolation-filters="sRGB">
<feFlood flood-opacity="0" result="BackgroundImageFix"/>
<feColorMatrix in="SourceAlpha" type="matrix" values="0 0 0 0 0 0 0 0 0 0 0 0 0 0 0 0 0 0 127 0" result="hardAlpha"/>
<feOffset dy="1"/>
<feColorMatrix type="matrix" values="0 0 0 0 0 0 0 0 0 0 0 0 0 0 0 0 0 0 0.25 0"/>
<feBlend mode="normal" in2="BackgroundImageFix" result="effect1_dropShadow_24_1646"/>
<feBlend mode="normal" in="SourceGraphic" in2="effect1_dropShadow_24_1646" result="shape"/>
</filter>
<filter id="filter19_d_24_1646" x="308" y="96" width="32" height="42" filterUnits="userSpaceOnUse" color-interpolation-filters="sRGB">
<feFlood flood-opacity="0" result="BackgroundImageFix"/>
<feColorMatrix in="SourceAlpha" type="matrix" values="0 0 0 0 0 0 0 0 0 0 0 0 0 0 0 0 0 0 127 0" result="hardAlpha"/>
<feOffset dy="1"/>
<feColorMatrix type="matrix" values="0 0 0 0 0 0 0 0 0 0 0 0 0 0 0 0 0 0 0.25 0"/>
<feBlend mode="normal" in2="BackgroundImageFix" result="effect1_dropShadow_24_1646"/>
<feBlend mode="normal" in="SourceGraphic" in2="effect1_dropShadow_24_1646" result="shape"/>
</filter>
<filter id="filter20_d_24_1646" x="4" y="198" width="48" height="41" filterUnits="userSpaceOnUse" color-interpolation-filters="sRGB">
<feFlood flood-opacity="0" result="BackgroundImageFix"/>
<feColorMatrix in="SourceAlpha" type="matrix" values="0 0 0 0 0 0 0 0 0 0 0 0 0 0 0 0 0 0 127 0" result="hardAlpha"/>
<feOffset dy="1"/>
<feColorMatrix type="matrix" values="0 0 0 0 0 0 0 0 0 0 0 0 0 0 0 0 0 0 0.25 0"/>
<feBlend mode="normal" in2="BackgroundImageFix" result="effect1_dropShadow_24_1646"/>
<feBlend mode="normal" in="SourceGraphic" in2="effect1_dropShadow_24_1646" result="shape"/>
</filter>
<filter id="filter21_d_24_1646" x="56" y="198" width="28.6667" height="41" filterUnits="userSpaceOnUse" color-interpolation-filters="sRGB">
<feFlood flood-opacity="0" result="BackgroundImageFix"/>
<feColorMatrix in="SourceAlpha" type="matrix" values="0 0 0 0 0 0 0 0 0 0 0 0 0 0 0 0 0 0 127 0" result="hardAlpha"/>
<feOffset dy="1"/>
<feColorMatrix type="matrix" values="0 0 0 0 0 0 0 0 0 0 0 0 0 0 0 0 0 0 0.25 0"/>
<feBlend mode="normal" in2="BackgroundImageFix" result="effect1_dropShadow_24_1646"/>
<feBlend mode="normal" in="SourceGraphic" in2="effect1_dropShadow_24_1646" result="shape"/>
</filter>
<filter id="filter22_d_24_1646" x="88.6667" y="198" width="28.6667" height="41" filterUnits="userSpaceOnUse" color-interpolation-filters="sRGB">
<feFlood flood-opacity="0" result="BackgroundImageFix"/>
<feColorMatrix in="SourceAlpha" type="matrix" values="0 0 0 0 0 0 0 0 0 0 0 0 0 0 0 0 0 0 127 0" result="hardAlpha"/>
<feOffset dy="1"/>
<feColorMatrix type="matrix" values="0 0 0 0 0 0 0 0 0 0 0 0 0 0 0 0 0 0 0.25 0"/>
<feBlend mode="normal" in2="BackgroundImageFix" result="effect1_dropShadow_24_1646"/>
<feBlend mode="normal" in="SourceGraphic" in2="effect1_dropShadow_24_1646" result="shape"/>
</filter>
<filter id="filter23_d_24_1646" x="121.333" y="198" width="150" height="41" filterUnits="userSpaceOnUse" color-interpolation-filters="sRGB">
<feFlood flood-opacity="0" result="BackgroundImageFix"/>
<feColorMatrix in="SourceAlpha" type="matrix" values="0 0 0 0 0 0 0 0 0 0 0 0 0 0 0 0 0 0 127 0" result="hardAlpha"/>
<feOffset dy="1"/>
<feColorMatrix type="matrix" values="0 0 0 0 0 0 0 0 0 0 0 0 0 0 0 0 0 0 0.25 0"/>
<feBlend mode="normal" in2="BackgroundImageFix" result="effect1_dropShadow_24_1646"/>
<feBlend mode="normal" in="SourceGraphic" in2="effect1_dropShadow_24_1646" result="shape"/>
</filter>
<filter id="filter24_d_24_1646" x="275.333" y="198" width="28.6667" height="41" filterUnits="userSpaceOnUse" color-interpolation-filters="sRGB">
<feFlood flood-opacity="0" result="BackgroundImageFix"/>
<feColorMatrix in="SourceAlpha" type="matrix" values="0 0 0 0 0 0 0 0 0 0 0 0 0 0 0 0 0 0 127 0" result="hardAlpha"/>
<feOffset dy="1"/>
<feColorMatrix type="matrix" values="0 0 0 0 0 0 0 0 0 0 0 0 0 0 0 0 0 0 0.25 0"/>
<feBlend mode="normal" in2="BackgroundImageFix" result="effect1_dropShadow_24_1646"/>
<feBlend mode="normal" in="SourceGraphic" in2="effect1_dropShadow_24_1646" result="shape"/>
</filter>
<filter id="filter25_d_24_1646" x="308" y="198" width="48" height="41" filterUnits="userSpaceOnUse" color-interpolation-filters="sRGB">
<feFlood flood-opacity="0" result="BackgroundImageFix"/>
<feColorMatrix in="SourceAlpha" type="matrix" values="0 0 0 0 0 0 0 0 0 0 0 0 0 0 0 0 0 0 127 0" result="hardAlpha"/>
<feOffset dy="1"/>
<feColorMatrix type="matrix" values="0 0 0 0 0 0 0 0 0 0 0 0 0 0 0 0 0 0 0.25 0"/>
<feBlend mode="normal" in2="BackgroundImageFix" result="effect1_dropShadow_24_1646"/>
<feBlend mode="normal" in="SourceGraphic" in2="effect1_dropShadow_24_1646" result="shape"/>
</filter>
<filter id="filter26_d_24_1646" x="4" y="147" width="34.0249" height="42" filterUnits="userSpaceOnUse" color-interpolation-filters="sRGB">
<feFlood flood-opacity="0" result="BackgroundImageFix"/>
<feColorMatrix in="SourceAlpha" type="matrix" values="0 0 0 0 0 0 0 0 0 0 0 0 0 0 0 0 0 0 127 0" result="hardAlpha"/>
<feOffset dy="1"/>
<feColorMatrix type="matrix" values="0 0 0 0 0 0 0 0 0 0 0 0 0 0 0 0 0 0 0.25 0"/>
<feBlend mode="normal" in2="BackgroundImageFix" result="effect1_dropShadow_24_1646"/>
<feBlend mode="normal" in="SourceGraphic" in2="effect1_dropShadow_24_1646" result="shape"/>
</filter>
<filter id="filter27_d_24_1646" x="42.0249" y="147" width="34.0249" height="41" filterUnits="userSpaceOnUse" color-interpolation-filters="sRGB">
<feFlood flood-opacity="0" result="BackgroundImageFix"/>
<feColorMatrix in="SourceAlpha" type="matrix" values="0 0 0 0 0 0 0 0 0 0 0 0 0 0 0 0 0 0 127 0" result="hardAlpha"/>
<feOffset dy="1"/>
<feColorMatrix type="matrix" values="0 0 0 0 0 0 0 0 0 0 0 0 0 0 0 0 0 0 0.25 0"/>
<feBlend mode="normal" in2="BackgroundImageFix" result="effect1_dropShadow_24_1646"/>
<feBlend mode="normal" in="SourceGraphic" in2="effect1_dropShadow_24_1646" result="shape"/>
</filter>
<filter id="filter28_d_24_1646" x="80.05" y="147" width="34.0249" height="41" filterUnits="userSpaceOnUse" color-interpolation-filters="sRGB">
<feFlood flood-opacity="0" result="BackgroundImageFix"/>
<feColorMatrix in="SourceAlpha" type="matrix" values="0 0 0 0 0 0 0 0 0 0 0 0 0 0 0 0 0 0 127 0" result="hardAlpha"/>
<feOffset dy="1"/>
<feColorMatrix type="matrix" values="0 0 0 0 0 0 0 0 0 0 0 0 0 0 0 0 0 0 0.25 0"/>
<feBlend mode="normal" in2="BackgroundImageFix" result="effect1_dropShadow_24_1646"/>
<feBlend mode="normal" in="SourceGraphic" in2="effect1_dropShadow_24_1646" result="shape"/>
</filter>
<filter id="filter29_d_24_1646" x="118.075" y="147" width="34.0249" height="41" filterUnits="userSpaceOnUse" color-interpolation-filters="sRGB">
<feFlood flood-opacity="0" result="BackgroundImageFix"/>
<feColorMatrix in="SourceAlpha" type="matrix" values="0 0 0 0 0 0 0 0 0 0 0 0 0 0 0 0 0 0 127 0" result="hardAlpha"/>
<feOffset dy="1"/>
<feColorMatrix type="matrix" values="0 0 0 0 0 0 0 0 0 0 0 0 0 0 0 0 0 0 0.25 0"/>
<feBlend mode="normal" in2="BackgroundImageFix" result="effect1_dropShadow_24_1646"/>
<feBlend mode="normal" in="SourceGraphic" in2="effect1_dropShadow_24_1646" result="shape"/>
</filter>
<filter id="filter30_d_24_1646" x="156.1" y="147" width="34.0249" height="41" filterUnits="userSpaceOnUse" color-interpolation-filters="sRGB">
<feFlood flood-opacity="0" result="BackgroundImageFix"/>
<feColorMatrix in="SourceAlpha" type="matrix" values="0 0 0 0 0 0 0 0 0 0 0 0 0 0 0 0 0 0 127 0" result="hardAlpha"/>
<feOffset dy="1"/>
<feColorMatrix type="matrix" values="0 0 0 0 0 0 0 0 0 0 0 0 0 0 0 0 0 0 0.25 0"/>
<feBlend mode="normal" in2="BackgroundImageFix" result="effect1_dropShadow_24_1646"/>
<feBlend mode="normal" in="SourceGraphic" in2="effect1_dropShadow_24_1646" result="shape"/>
</filter>
<filter id="filter31_d_24_1646" x="194.125" y="147" width="34.0249" height="41" filterUnits="userSpaceOnUse" color-interpolation-filters="sRGB">
<feFlood flood-opacity="0" result="BackgroundImageFix"/>
<feColorMatrix in="SourceAlpha" type="matrix" values="0 0 0 0 0 0 0 0 0 0 0 0 0 0 0 0 0 0 127 0" result="hardAlpha"/>
<feOffset dy="1"/>
<feColorMatrix type="matrix" values="0 0 0 0 0 0 0 0 0 0 0 0 0 0 0 0 0 0 0.25 0"/>
<feBlend mode="normal" in2="BackgroundImageFix" result="effect1_dropShadow_24_1646"/>
<feBlend mode="normal" in="SourceGraphic" in2="effect1_dropShadow_24_1646" result="shape"/>
</filter>
<filter id="filter32_d_24_1646" x="232.15" y="147" width="34.0249" height="41" filterUnits="userSpaceOnUse" color-interpolation-filters="sRGB">
<feFlood flood-opacity="0" result="BackgroundImageFix"/>
<feColorMatrix in="SourceAlpha" type="matrix" values="0 0 0 0 0 0 0 0 0 0 0 0 0 0 0 0 0 0 127 0" result="hardAlpha"/>
<feOffset dy="1"/>
<feColorMatrix type="matrix" values="0 0 0 0 0 0 0 0 0 0 0 0 0 0 0 0 0 0 0.25 0"/>
<feBlend mode="normal" in2="BackgroundImageFix" result="effect1_dropShadow_24_1646"/>
<feBlend mode="normal" in="SourceGraphic" in2="effect1_dropShadow_24_1646" result="shape"/>
</filter>
<filter id="filter33_d_24_1646" x="270.175" y="147" width="34.0249" height="41" filterUnits="userSpaceOnUse" color-interpolation-filters="sRGB">
<feFlood flood-opacity="0" result="BackgroundImageFix"/>
<feColorMatrix in="SourceAlpha" type="matrix" values="0 0 0 0 0 0 0 0 0 0 0 0 0 0 0 0 0 0 127 0" result="hardAlpha"/>
<feOffset dy="1"/>
<feColorMatrix type="matrix" values="0 0 0 0 0 0 0 0 0 0 0 0 0 0 0 0 0 0 0.25 0"/>
<feBlend mode="normal" in2="BackgroundImageFix" result="effect1_dropShadow_24_1646"/>
<feBlend mode="normal" in="SourceGraphic" in2="effect1_dropShadow_24_1646" result="shape"/>
</filter>
<filter id="filter34_d_24_1646" x="308.2" y="147" width="48" height="42" filterUnits="userSpaceOnUse" color-interpolation-filters="sRGB">
<feFlood flood-opacity="0" result="BackgroundImageFix"/>
<feColorMatrix in="SourceAlpha" type="matrix" values="0 0 0 0 0 0 0 0 0 0 0 0 0 0 0 0 0 0 127 0" result="hardAlpha"/>
<feOffset dy="1"/>
<feColorMatrix type="matrix" values="0 0 0 0 0 0 0 0 0 0 0 0 0 0 0 0 0 0 0.25 0"/>
<feBlend mode="normal" in2="BackgroundImageFix" result="effect1_dropShadow_24_1646"/>
<feBlend mode="normal" in="SourceGraphic" in2="effect1_dropShadow_24_1646" result="shape"/>
</filter>
<clipPath id="clip0_24_1646">
<rect width="20" height="20" fill="white" transform="translate(332 8)"/>
</clipPath>
</defs>
</svg>
