<svg width="375" height="52" viewBox="0 0 375 52" fill="none" xmlns="http://www.w3.org/2000/svg">
<rect width="375" height="52" fill="#F9F9F9" fill-opacity="0.94"/>
<path d="M155.291 24.0283H159.709C160.315 24.0283 160.613 23.7305 160.613 23.0713V19.6582C160.613 19.0674 160.369 18.7646 159.866 18.7158V17.5586C159.866 15.8154 158.713 14.9707 157.502 14.9707C156.287 14.9707 155.134 15.8154 155.134 17.5586V18.7354C154.67 18.8086 154.387 19.1064 154.387 19.6582V23.0713C154.387 23.7305 154.685 24.0283 155.291 24.0283ZM155.925 17.4658C155.925 16.333 156.648 15.7275 157.502 15.7275C158.352 15.7275 159.075 16.333 159.075 17.4658V18.7061L155.925 18.7158V17.4658Z" fill="#7F7F83"/>
<path d="M164.657 24H165.733V18.4613H167.044V17.5711H165.721V16.786C165.721 16.1493 166.017 15.8464 166.611 15.8464C166.778 15.8464 166.945 15.8526 167.075 15.8711V14.9995C166.914 14.9748 166.66 14.9563 166.419 14.9563C165.232 14.9563 164.657 15.5435 164.657 16.7798V17.5711H163.761V18.4613H164.657V24ZM168.889 16.4831C169.266 16.4831 169.562 16.1802 169.562 15.8093C169.562 15.4322 169.266 15.1355 168.889 15.1355C168.518 15.1355 168.215 15.4322 168.215 15.8093C168.215 16.1802 168.518 16.4831 168.889 16.4831ZM168.351 24H169.427V17.5711H168.351V24ZM173.738 26.2872C175.481 26.2872 176.575 25.3105 176.575 23.8207V17.5711H175.5V18.6591H175.475C175.079 17.942 174.362 17.4475 173.454 17.4475C171.822 17.4475 170.703 18.7456 170.703 20.7423V20.7485C170.703 22.7575 171.809 24.0618 173.429 24.0618C174.35 24.0618 175.092 23.6044 175.475 22.8935H175.5V23.7156C175.5 24.7109 174.857 25.3352 173.726 25.3352C172.848 25.3352 172.236 25.0509 172.032 24.5873L172.007 24.5316H170.925L170.938 24.5873C171.148 25.5392 172.149 26.2872 173.738 26.2872ZM173.664 23.1098C172.52 23.1098 171.803 22.2073 171.803 20.7485V20.7423C171.803 19.3143 172.52 18.3994 173.664 18.3994C174.752 18.3994 175.5 19.3267 175.5 20.7423V20.7485C175.5 22.1764 174.758 23.1098 173.664 23.1098ZM178.093 24H179.169V19.9696C179.169 19.0732 179.787 18.3994 180.64 18.3994C181.437 18.3994 181.956 18.9125 181.956 19.6914V24H183.032V19.9139C183.032 19.0361 183.632 18.3994 184.485 18.3994C185.332 18.3994 185.82 18.9249 185.82 19.8088V24H186.896V19.5616C186.896 18.282 186.073 17.4475 184.8 17.4475C183.897 17.4475 183.143 17.9111 182.785 18.6838H182.76C182.482 17.8987 181.833 17.4475 180.955 17.4475C180.127 17.4475 179.484 17.874 179.193 18.5107H179.169V17.5711H178.093V24ZM190.274 24.1236C191.133 24.1236 191.906 23.66 192.283 22.9553H192.307V24H193.383V19.5554C193.383 18.2696 192.431 17.4475 190.91 17.4475C189.396 17.4475 188.475 18.3005 188.382 19.3576L188.376 19.4256H189.414L189.427 19.37C189.55 18.7951 190.07 18.3994 190.898 18.3994C191.794 18.3994 192.307 18.8754 192.307 19.6605V20.1983L190.465 20.3034C188.988 20.3899 188.135 21.0761 188.135 22.1702V22.1826C188.135 23.3509 188.994 24.1236 190.274 24.1236ZM189.235 22.1826V22.1702C189.235 21.5706 189.73 21.1874 190.589 21.1379L192.307 21.0328V21.5583C192.307 22.4917 191.529 23.1902 190.515 23.1902C189.742 23.1902 189.235 22.8008 189.235 22.1826ZM195.537 24.0865C195.933 24.0865 196.242 23.7775 196.242 23.3818C196.242 22.9862 195.933 22.6771 195.537 22.6771C195.142 22.6771 194.833 22.9862 194.833 23.3818C194.833 23.7775 195.142 24.0865 195.537 24.0865ZM200.016 24.1236C201.468 24.1236 202.525 23.1778 202.699 21.9539L202.705 21.9106H201.648L201.635 21.9601C201.456 22.6771 200.894 23.1717 200.016 23.1717C198.903 23.1717 198.137 22.2877 198.137 20.7917V20.7855C198.137 19.3267 198.884 18.3994 200.003 18.3994C200.949 18.3994 201.468 18.9681 201.629 19.611L201.642 19.6605H202.692L202.686 19.611C202.55 18.5107 201.604 17.4475 200.003 17.4475C198.217 17.4475 197.036 18.7456 197.036 20.7732V20.7794C197.036 22.8255 198.192 24.1236 200.016 24.1236ZM206.485 24.1236C208.259 24.1236 209.458 22.8379 209.458 20.7855V20.7732C209.458 18.7209 208.253 17.4475 206.479 17.4475C204.704 17.4475 203.505 18.7271 203.505 20.7732V20.7855C203.505 22.8317 204.698 24.1236 206.485 24.1236ZM206.491 23.1717C205.353 23.1717 204.605 22.3 204.605 20.7855V20.7732C204.605 19.271 205.36 18.3994 206.479 18.3994C207.616 18.3994 208.358 19.2649 208.358 20.7732V20.7855C208.358 22.2939 207.622 23.1717 206.491 23.1717ZM210.673 24H211.748V19.9696C211.748 19.0732 212.366 18.3994 213.219 18.3994C214.017 18.3994 214.536 18.9125 214.536 19.6914V24H215.612V19.9139C215.612 19.0361 216.211 18.3994 217.064 18.3994C217.911 18.3994 218.4 18.9249 218.4 19.8088V24H219.475V19.5616C219.475 18.282 218.653 17.4475 217.38 17.4475C216.477 17.4475 215.723 17.9111 215.365 18.6838H215.34C215.062 17.8987 214.413 17.4475 213.535 17.4475C212.706 17.4475 212.064 17.874 211.773 18.5107H211.748V17.5711H210.673V24Z" fill="black"/>
<rect x="121" y="39" width="133" height="5" rx="2.5" fill="#4B4B4B"/>
</svg>
