<svg width="800" height="62" viewBox="0 0 800 62" fill="none" xmlns="http://www.w3.org/2000/svg">
<rect width="800" height="62" fill="#EBEBEB"/>
<rect x="16" y="10" width="724" height="42" rx="20" fill="white"/>
<path d="M37.0834 23.918C38.6482 23.918 39.9167 25.1865 39.9167 26.7513V28.168H41.1563C42.0365 28.168 42.7501 28.8815 42.7501 29.7617L42.7504 29.7013C42.5245 29.7013 42.1152 29.7013 42.1152 29.7013H42.0393H41.6882L41.6876 29.7617C41.6876 29.4683 41.4497 29.2305 41.1563 29.2305H33.0105C32.7171 29.2305 32.4792 29.4683 32.4792 29.7617V36.4909C32.4792 36.7843 32.7171 37.0221 33.0105 37.0221L37.0148 37.0227C37.3035 37.4311 37.668 37.7864 38.1055 38.085L33.0105 38.0846C32.1303 38.0846 31.4167 37.3711 31.4167 36.4909V29.7617C31.4167 28.8815 32.1303 28.168 33.0105 28.168H34.2501V26.7513C34.2501 25.1865 35.5186 23.918 37.0834 23.918ZM37.0834 24.9805C36.1054 24.9805 35.3126 25.7733 35.3126 26.7513V28.168H38.8542V26.7513C38.8542 25.7733 38.0614 24.9805 37.0834 24.9805Z" fill="#212121"/>
<path d="M43.65 31C42.5782 31 41.6163 30.5418 40.7483 29.6101C40.6116 29.4634 40.3899 29.4633 40.2531 29.6098C39.3829 30.5418 38.4205 31 37.35 31C37.1567 31 37 31.1679 37 31.375V33.6259L37.0038 33.8647C37.0778 36.1481 38.2236 37.7073 40.3893 38.4808C40.4612 38.5064 40.5388 38.5064 40.6107 38.4808C42.8511 37.6806 44 36.0397 44 33.6259V31.375L43.9929 31.2994C43.9603 31.1285 43.8191 31 43.65 31Z" fill="#67CE67"/>
<path d="M59.8281 36V28.7031H58.4297V27.5781H59.8281V26.6406C59.8281 24.9609 60.6719 24.1562 62.2734 24.1562C62.6016 24.1562 62.8984 24.1797 63.1797 24.2344V25.3203C63.0156 25.2891 62.7891 25.2812 62.5469 25.2812C61.5781 25.2812 61.1875 25.7578 61.1875 26.6797V27.5781H63.1016V28.7031H61.1875V36H59.8281ZM65.4612 25.9531C64.9456 25.9531 64.5237 25.5312 64.5237 25.0156C64.5237 24.5 64.9456 24.0781 65.4612 24.0781C65.9769 24.0781 66.3987 24.5 66.3987 25.0156C66.3987 25.5312 65.9769 25.9531 65.4612 25.9531ZM64.7737 36V27.5781H66.1331V36H64.7737ZM71.8444 38.9688C69.8131 38.9688 68.5162 38.0547 68.3053 36.6719L68.3209 36.6641H69.7272L69.735 36.6719C69.8834 37.3125 70.6334 37.7656 71.8444 37.7656C73.3522 37.7656 74.2506 37.0547 74.2506 35.8125V34.1094H74.1256C73.5944 35.0391 72.6412 35.5625 71.485 35.5625C69.3053 35.5625 67.9537 33.875 67.9537 31.5156V31.5C67.9537 29.1406 69.3131 27.4297 71.5162 27.4297C72.7037 27.4297 73.6256 28.0156 74.1412 28.9688H74.235V27.5781H75.5944V35.8828C75.5944 37.7656 74.1412 38.9688 71.8444 38.9688ZM71.7819 34.3594C73.3444 34.3594 74.2819 33.1875 74.2819 31.5156V31.5C74.2819 29.8281 73.3366 28.6328 71.7819 28.6328C70.2194 28.6328 69.3444 29.8281 69.3444 31.5V31.5156C69.3444 33.1875 70.2194 34.3594 71.7819 34.3594ZM77.8056 36V27.5781H79.165V28.8594H79.29C79.665 27.9531 80.4619 27.4297 81.5634 27.4297C82.7041 27.4297 83.5009 28.0312 83.8916 28.9062H84.0166C84.4697 28.0156 85.4306 27.4297 86.5947 27.4297C88.3134 27.4297 89.2744 28.4141 89.2744 30.1797V36H87.915V30.4922C87.915 29.25 87.3447 28.6328 86.1572 28.6328C84.9853 28.6328 84.2119 29.5156 84.2119 30.5859V36H82.8525V30.2812C82.8525 29.2812 82.165 28.6328 81.1025 28.6328C80.0009 28.6328 79.165 29.5938 79.165 30.7812V36H77.8056ZM93.72 36.1484C92.1184 36.1484 90.9075 35.1797 90.9075 33.6484V33.6328C90.9075 32.1328 92.0169 31.2656 93.9778 31.1484L96.3919 31V30.2344C96.3919 29.1953 95.7591 28.6328 94.5013 28.6328C93.4934 28.6328 92.8294 29.0078 92.6106 29.6641L92.6028 29.6875H91.2434L91.2513 29.6406C91.47 28.3203 92.7513 27.4297 94.5481 27.4297C96.6028 27.4297 97.7513 28.4844 97.7513 30.2344V36H96.3919V34.7578H96.2669C95.7356 35.6562 94.8528 36.1484 93.72 36.1484ZM92.2981 33.6172C92.2981 34.4688 93.0247 34.9688 94.0013 34.9688C95.3841 34.9688 96.3919 34.0625 96.3919 32.8594V32.0938L94.1419 32.2344C92.8606 32.3125 92.2981 32.7656 92.2981 33.6016V33.6172ZM101.025 36.0781C100.47 36.0781 100.009 35.6172 100.009 35.0625C100.009 34.5 100.47 34.0469 101.025 34.0469C101.588 34.0469 102.041 34.5 102.041 35.0625C102.041 35.6172 101.588 36.0781 101.025 36.0781ZM107.478 36.1484C105.119 36.1484 103.611 34.4375 103.611 31.7656V31.75C103.611 29.1328 105.111 27.4297 107.471 27.4297C109.518 27.4297 110.744 28.6094 110.994 30.1094L111.002 30.1562H109.65L109.643 30.1328C109.432 29.3047 108.682 28.6328 107.471 28.6328C105.955 28.6328 105.002 29.8516 105.002 31.75V31.7656C105.002 33.7031 105.971 34.9453 107.471 34.9453C108.603 34.9453 109.322 34.4453 109.635 33.5078L109.65 33.4609L110.994 33.4531L110.978 33.5391C110.635 35.0625 109.502 36.1484 107.478 36.1484ZM116.127 36.1484C113.729 36.1484 112.244 34.4922 112.244 31.7969V31.7812C112.244 29.0781 113.729 27.4297 116.127 27.4297C118.526 27.4297 120.01 29.0781 120.01 31.7812V31.7969C120.01 34.4922 118.526 36.1484 116.127 36.1484ZM116.127 34.9453C117.721 34.9453 118.619 33.7812 118.619 31.7969V31.7812C118.619 29.7891 117.721 28.6328 116.127 28.6328C114.533 28.6328 113.635 29.7891 113.635 31.7812V31.7969C113.635 33.7812 114.533 34.9453 116.127 34.9453ZM121.799 36V27.5781H123.159V28.8594H123.284C123.659 27.9531 124.456 27.4297 125.557 27.4297C126.698 27.4297 127.495 28.0312 127.885 28.9062H128.01C128.463 28.0156 129.424 27.4297 130.588 27.4297C132.307 27.4297 133.268 28.4141 133.268 30.1797V36H131.909V30.4922C131.909 29.25 131.338 28.6328 130.151 28.6328C128.979 28.6328 128.206 29.5156 128.206 30.5859V36H126.846V30.2812C126.846 29.2812 126.159 28.6328 125.096 28.6328C123.995 28.6328 123.159 29.5938 123.159 30.7812V36H121.799Z" fill="#212121"/>
<path d="M759.667 31.0015C759.665 29.4865 760.077 27.9998 760.858 26.7015C761.639 25.4033 762.759 24.3429 764.099 23.6345C765.438 22.9261 766.945 22.5966 768.458 22.6815C769.97 22.7665 771.431 23.2626 772.683 24.1165L771.18 26.0015C771.112 26.088 771.081 26.1978 771.094 26.3071C771.106 26.4164 771.162 26.5163 771.248 26.5849C771.311 26.6363 771.389 26.6674 771.471 26.674L777.031 27.1474C777.085 27.1521 777.14 27.146 777.193 27.1294C777.245 27.1128 777.293 27.0861 777.335 27.0508C777.377 27.0155 777.411 26.9723 777.437 26.9237C777.462 26.8751 777.477 26.8219 777.482 26.7674C777.486 26.7128 777.48 26.6579 777.463 26.6057L775.762 21.2932C775.739 21.2215 775.697 21.1574 775.64 21.1077C775.584 21.0579 775.515 21.0244 775.441 21.0107C775.416 21.0051 775.391 21.0021 775.365 21.0016C775.302 21.0016 775.241 21.0158 775.184 21.0431C775.128 21.0703 775.078 21.11 775.039 21.1591L773.723 22.8107C772.225 21.7605 770.468 21.1416 768.643 21.0215C766.818 20.9015 764.995 21.2849 763.373 22.1299C761.751 22.9749 760.392 24.2492 759.445 25.8136C758.497 27.378 757.997 29.1726 758 31.0015C758 31.2226 758.088 31.4345 758.244 31.5908C758.4 31.7471 758.612 31.8349 758.833 31.8349C759.054 31.8349 759.266 31.7471 759.423 31.5908C759.579 31.4345 759.667 31.2226 759.667 31.0015Z" fill="#212121"/>
<path d="M777.167 30.168C776.946 30.168 776.734 30.2558 776.577 30.412C776.421 30.5683 776.333 30.7803 776.333 31.0013C776.335 32.5163 775.923 34.0031 775.142 35.3013C774.361 36.5995 773.241 37.66 771.901 38.3684C770.562 39.0768 769.055 39.4063 767.542 39.3213C766.03 39.2364 764.569 38.7402 763.318 37.8863L764.82 36.0013C764.867 35.9423 764.897 35.8717 764.907 35.797C764.917 35.7224 764.906 35.6464 764.876 35.5772C764.846 35.5081 764.798 35.4483 764.737 35.4042C764.676 35.3602 764.604 35.3336 764.529 35.3271L758.969 34.8538C758.915 34.8491 758.86 34.8552 758.807 34.8718C758.755 34.8884 758.707 34.9151 758.665 34.9503C758.623 34.9856 758.589 35.0288 758.563 35.0775C758.538 35.1261 758.523 35.1792 758.518 35.2338C758.514 35.2884 758.52 35.3433 758.537 35.3955L760.238 40.7096C760.261 40.7813 760.303 40.8454 760.36 40.8952C760.416 40.9449 760.485 40.9784 760.559 40.9921C760.584 40.9977 760.61 41.0008 760.635 41.0013C760.698 41.0012 760.76 40.987 760.816 40.9598C760.872 40.9325 760.922 40.8929 760.961 40.8438L762.278 39.1921C763.775 40.2424 765.532 40.8613 767.357 40.9813C769.182 41.1014 771.005 40.718 772.627 39.8729C774.249 39.0279 775.608 37.7537 776.555 36.1893C777.503 34.6248 778.003 32.8303 778 31.0013C778 30.7803 777.912 30.5683 777.756 30.412C777.6 30.2558 777.388 30.168 777.167 30.168Z" fill="#212121"/>
</svg>
