<svg width="800" height="49" viewBox="0 0 800 49" fill="none" xmlns="http://www.w3.org/2000/svg">
<rect width="800" height="49" fill="#303030"/>
<path d="M494.5 17H506.5C507.052 17 507.5 17.4477 507.5 18V30C507.5 30.5523 507.052 31 506.5 31H494.5C493.948 31 493.5 30.5523 493.5 30V18C493.5 17.4477 493.948 17 494.5 17Z" stroke="white" stroke-opacity="0.8" stroke-width="2"/>
<path d="M399.5 17C403.366 17 406.5 20.134 406.5 24C406.5 27.866 403.366 31 399.5 31C395.634 31 392.5 27.866 392.5 24C392.5 20.134 395.634 17 399.5 17Z" stroke="white" stroke-opacity="0.8" stroke-width="2"/>
<path fill-rule="evenodd" clip-rule="evenodd" d="M303.499 16.9832C304.832 16.2124 306.5 17.1746 306.5 18.7147V30.2872C306.5 31.8273 304.832 32.7895 303.499 32.0187L293.49 26.2324C292.158 25.4624 292.158 23.5395 293.49 22.7695L303.499 16.9832Z" stroke="white" stroke-opacity="0.8" stroke-width="2"/>
</svg>
