<svg width="361" height="44" viewBox="0 0 361 44" fill="none" xmlns="http://www.w3.org/2000/svg">
<rect width="361" height="44" fill="#303030"/>
<path d="M26.4756 17.0127V27H24.8281V18.9678L22.3877 19.7949V18.4346L26.2773 17.0127H26.4756ZM35.5879 25.6875V27H28.916V25.8721L32.1562 22.3379C32.5117 21.9368 32.792 21.5905 32.9971 21.2988C33.2021 21.0072 33.3457 20.7451 33.4277 20.5127C33.5143 20.2757 33.5576 20.0456 33.5576 19.8223C33.5576 19.5078 33.4984 19.2321 33.3799 18.9951C33.266 18.7536 33.0973 18.5645 32.874 18.4277C32.6507 18.2865 32.3796 18.2158 32.0605 18.2158C31.6914 18.2158 31.3815 18.2956 31.1309 18.4551C30.8802 18.6146 30.6911 18.8356 30.5635 19.1182C30.4359 19.3962 30.3721 19.7152 30.3721 20.0752H28.7246C28.7246 19.4964 28.8568 18.9678 29.1211 18.4893C29.3854 18.0062 29.7682 17.6234 30.2695 17.3408C30.7708 17.0537 31.3747 16.9102 32.0811 16.9102C32.7464 16.9102 33.3115 17.0218 33.7764 17.2451C34.2412 17.4684 34.5944 17.7852 34.8359 18.1953C35.082 18.6055 35.2051 19.0908 35.2051 19.6514C35.2051 19.9613 35.1549 20.2689 35.0547 20.5742C34.9544 20.8796 34.8109 21.1849 34.624 21.4902C34.4417 21.791 34.2253 22.0941 33.9746 22.3994C33.724 22.7002 33.4482 23.0055 33.1475 23.3154L30.9941 25.6875H35.5879ZM36.9893 26.1797C36.9893 25.9245 37.0758 25.7103 37.249 25.5371C37.4222 25.3594 37.6569 25.2705 37.9531 25.2705C38.2539 25.2705 38.4886 25.3594 38.6572 25.5371C38.8304 25.7103 38.917 25.9245 38.917 26.1797C38.917 26.4349 38.8304 26.6491 38.6572 26.8223C38.4886 26.9954 38.2539 27.082 37.9531 27.082C37.6569 27.082 37.4222 26.9954 37.249 26.8223C37.0758 26.6491 36.9893 26.4349 36.9893 26.1797ZM36.9961 20.3555C36.9961 20.1003 37.0827 19.8861 37.2559 19.7129C37.429 19.5352 37.6637 19.4463 37.96 19.4463C38.2607 19.4463 38.4954 19.5352 38.6641 19.7129C38.8372 19.8861 38.9238 20.1003 38.9238 20.3555C38.9238 20.6107 38.8372 20.8249 38.6641 20.998C38.4954 21.1712 38.2607 21.2578 37.96 21.2578C37.6637 21.2578 37.429 21.1712 37.2559 20.998C37.0827 20.8249 36.9961 20.6107 36.9961 20.3555ZM42.499 21.2783H43.4834C43.8662 21.2783 44.1829 21.2122 44.4336 21.0801C44.6888 20.9479 44.8779 20.7656 45.001 20.5332C45.124 20.3008 45.1855 20.0342 45.1855 19.7334C45.1855 19.4189 45.1286 19.1501 45.0146 18.9268C44.9053 18.6989 44.7367 18.5234 44.5088 18.4004C44.2855 18.2773 44.0007 18.2158 43.6543 18.2158C43.3626 18.2158 43.0983 18.2751 42.8613 18.3936C42.6289 18.5075 42.4443 18.6715 42.3076 18.8857C42.1709 19.0954 42.1025 19.346 42.1025 19.6377H40.4482C40.4482 19.109 40.5872 18.6396 40.8652 18.2295C41.1432 17.8193 41.5215 17.498 42 17.2656C42.4831 17.0286 43.0254 16.9102 43.627 16.9102C44.2695 16.9102 44.8301 17.0173 45.3086 17.2314C45.7917 17.4411 46.1676 17.7555 46.4365 18.1748C46.7054 18.5941 46.8398 19.1136 46.8398 19.7334C46.8398 20.016 46.7738 20.3031 46.6416 20.5947C46.5094 20.8864 46.3135 21.153 46.0537 21.3945C45.7939 21.6315 45.4704 21.8252 45.083 21.9756C44.6956 22.1214 44.2467 22.1943 43.7363 22.1943H42.499V21.2783ZM42.499 22.5635V21.6611H43.7363C44.3197 21.6611 44.8164 21.7295 45.2266 21.8662C45.6413 22.0029 45.9785 22.1921 46.2383 22.4336C46.498 22.6706 46.6872 22.9417 46.8057 23.2471C46.9287 23.5524 46.9902 23.876 46.9902 24.2178C46.9902 24.6826 46.9059 25.0973 46.7373 25.4619C46.5732 25.8219 46.3385 26.1273 46.0332 26.3779C45.7279 26.6286 45.3701 26.8177 44.96 26.9453C44.5544 27.0729 44.1123 27.1367 43.6338 27.1367C43.2054 27.1367 42.7952 27.0775 42.4033 26.959C42.0114 26.8405 41.6605 26.665 41.3506 26.4326C41.0407 26.1956 40.7946 25.9017 40.6123 25.5508C40.4346 25.1953 40.3457 24.7852 40.3457 24.3203H41.9932C41.9932 24.6165 42.0615 24.8786 42.1982 25.1064C42.3395 25.3298 42.5355 25.5052 42.7861 25.6328C43.0413 25.7604 43.333 25.8242 43.6611 25.8242C44.0075 25.8242 44.306 25.7627 44.5566 25.6396C44.8073 25.5166 44.9987 25.3343 45.1309 25.0928C45.2676 24.8512 45.3359 24.5596 45.3359 24.2178C45.3359 23.8304 45.2607 23.516 45.1104 23.2744C44.96 23.0329 44.7458 22.8551 44.4678 22.7412C44.1898 22.6227 43.8617 22.5635 43.4834 22.5635H42.499ZM55.1455 21.1895V22.8164C55.1455 23.5957 55.068 24.2611 54.9131 24.8125C54.7627 25.3594 54.5439 25.8037 54.2568 26.1455C53.9697 26.4873 53.6257 26.738 53.2246 26.8975C52.8281 27.057 52.3838 27.1367 51.8916 27.1367C51.4997 27.1367 51.1351 27.0866 50.7979 26.9863C50.4652 26.8861 50.1644 26.7288 49.8955 26.5146C49.6266 26.3005 49.3965 26.0247 49.2051 25.6875C49.0182 25.3457 48.8724 24.9378 48.7676 24.4639C48.6673 23.9899 48.6172 23.4408 48.6172 22.8164V21.1895C48.6172 20.4056 48.6947 19.7448 48.8496 19.207C49.0046 18.6647 49.2256 18.2249 49.5127 17.8877C49.7998 17.5459 50.1416 17.2975 50.5381 17.1426C50.9391 16.9876 51.3857 16.9102 51.8779 16.9102C52.2744 16.9102 52.639 16.9603 52.9717 17.0605C53.3089 17.1562 53.6097 17.3089 53.874 17.5186C54.1429 17.7282 54.3708 18.0016 54.5576 18.3389C54.749 18.6715 54.8949 19.0749 54.9951 19.5488C55.0954 20.0182 55.1455 20.5651 55.1455 21.1895ZM53.498 23.0488V20.9434C53.498 20.5469 53.4753 20.1982 53.4297 19.8975C53.3841 19.5921 53.3158 19.3346 53.2246 19.125C53.138 18.9108 53.0286 18.7376 52.8965 18.6055C52.7643 18.4688 52.6139 18.3708 52.4453 18.3115C52.2767 18.2477 52.0876 18.2158 51.8779 18.2158C51.6227 18.2158 51.3949 18.266 51.1943 18.3662C50.9938 18.4619 50.8252 18.6169 50.6885 18.8311C50.5518 19.0452 50.4469 19.3278 50.374 19.6787C50.3057 20.0251 50.2715 20.4466 50.2715 20.9434V23.0488C50.2715 23.4499 50.2943 23.8031 50.3398 24.1084C50.3854 24.4137 50.4538 24.6758 50.5449 24.8945C50.6361 25.1087 50.7454 25.2865 50.873 25.4277C51.0052 25.5645 51.1556 25.6647 51.3242 25.7285C51.4974 25.7923 51.6865 25.8242 51.8916 25.8242C52.1514 25.8242 52.3815 25.7741 52.582 25.6738C52.7826 25.5736 52.9512 25.4141 53.0879 25.1953C53.2246 24.972 53.3271 24.6826 53.3955 24.3271C53.4639 23.9717 53.498 23.5456 53.498 23.0488Z" fill="white" fill-opacity="0.8"/>
<g clip-path="url(#clip0_77_4943)">
<path fill-rule="evenodd" clip-rule="evenodd" d="M287.955 18.0159L296.977 29L306 18.0159C303.489 16.1226 300.364 15 296.977 15C293.59 15 290.465 16.1226 287.955 18.0159Z" fill="white" fill-opacity="0.6"/>
<path fill-rule="evenodd" clip-rule="evenodd" d="M307 29H321V15L307 29Z" fill="white" fill-opacity="0.6"/>
<path fill-rule="evenodd" clip-rule="evenodd" d="M334 15.875V15L331 15V15.875H328V29H337V15.875H334Z" fill="white" fill-opacity="0.6"/>
</g>
<defs>
<clipPath id="clip0_77_4943">
<rect width="49.0453" height="14" fill="white" transform="translate(287.955 15)"/>
</clipPath>
</defs>
</svg>
