<svg width="375" height="132" viewBox="0 0 375 132" fill="none" xmlns="http://www.w3.org/2000/svg">
<g clip-path="url(#clip0_77_4296)">
<rect width="375" height="132" fill="#3D3D3D" fill-opacity="0.94"/>
<g filter="url(#filter0_d_77_4296)">
<rect x="22" y="8" width="331" height="44" rx="11.5" fill="white" fill-opacity="0.2" shape-rendering="crispEdges"/>
<path d="M47.3906 36.167C47.8389 36.167 48.0674 35.9736 48.2432 35.4814L49.2715 32.6426H54.1318L55.1514 35.4814C55.3271 35.9736 55.5557 36.167 56.0039 36.167C56.4961 36.167 56.8213 35.877 56.8213 35.4199C56.8213 35.2617 56.7861 35.1211 56.7246 34.9277L52.8838 24.6797C52.6729 24.1084 52.2949 23.8359 51.6973 23.8359C51.126 23.8359 50.7393 24.1084 50.5371 24.6709L46.6963 34.9453C46.626 35.1387 46.5996 35.2793 46.5996 35.4287C46.5996 35.8857 46.8984 36.167 47.3906 36.167ZM49.6934 31.2891L51.6709 25.752H51.7236L53.6924 31.2891H49.6934ZM38.8828 36.167C39.252 36.167 39.498 35.9824 39.6475 35.5078L40.2803 33.6797H43.3301L43.9629 35.5078C44.1211 35.9912 44.3672 36.167 44.7363 36.167C45.1846 36.167 45.501 35.877 45.501 35.4551C45.501 35.2969 45.4658 35.1387 45.3867 34.9189L42.9258 28.3711C42.7324 27.8438 42.3721 27.5186 41.792 27.5186C41.2383 27.5186 40.8867 27.8438 40.6934 28.3711L38.2236 34.9189C38.1445 35.1387 38.1182 35.3057 38.1182 35.4551C38.1182 35.877 38.4258 36.167 38.8828 36.167ZM40.667 32.4756L41.748 29.2236H41.8535L42.9434 32.4756H40.667Z" fill="white"/>
<path opacity="0.5" d="M145.102 36.0381C144.145 36.0381 143.639 35.5186 143.639 34.4863V29.9883C143.639 29.0791 144.035 28.5664 144.787 28.457V26.8984C144.787 24.4854 146.373 23.2891 148.089 23.2891C149.805 23.2891 151.391 24.4854 151.391 26.8984V28.4639C152.143 28.5664 152.539 29.0791 152.539 29.9883V34.4863C152.539 35.5186 152.033 36.0381 151.069 36.0381H145.102ZM145.874 26.7754V28.4365H150.304V26.7754C150.304 25.1826 149.278 24.3281 148.089 24.3281C146.893 24.3281 145.874 25.1826 145.874 26.7754Z" fill="white"/>
<path d="M161.828 35.5V28.2031H160.43V27.0781H161.828V26.1406C161.828 24.4609 162.672 23.6562 164.273 23.6562C164.602 23.6562 164.898 23.6797 165.18 23.7344V24.8203C165.016 24.7891 164.789 24.7812 164.547 24.7812C163.578 24.7812 163.188 25.2578 163.188 26.1797V27.0781H165.102V28.2031H163.188V35.5H161.828ZM167.333 25.4531C166.818 25.4531 166.396 25.0312 166.396 24.5156C166.396 24 166.818 23.5781 167.333 23.5781C167.849 23.5781 168.271 24 168.271 24.5156C168.271 25.0312 167.849 25.4531 167.333 25.4531ZM166.646 35.5V27.0781H168.005V35.5H166.646ZM173.588 38.4688C171.557 38.4688 170.26 37.5547 170.049 36.1719L170.065 36.1641H171.471L171.479 36.1719C171.627 36.8125 172.377 37.2656 173.588 37.2656C175.096 37.2656 175.995 36.5547 175.995 35.3125V33.6094H175.87C175.338 34.5391 174.385 35.0625 173.229 35.0625C171.049 35.0625 169.698 33.375 169.698 31.0156V31C169.698 28.6406 171.057 26.9297 173.26 26.9297C174.448 26.9297 175.37 27.5156 175.885 28.4688H175.979V27.0781H177.338V35.3828C177.338 37.2656 175.885 38.4688 173.588 38.4688ZM173.526 33.8594C175.088 33.8594 176.026 32.6875 176.026 31.0156V31C176.026 29.3281 175.081 28.1328 173.526 28.1328C171.963 28.1328 171.088 29.3281 171.088 31V31.0156C171.088 32.6875 171.963 33.8594 173.526 33.8594ZM179.422 35.5V27.0781H180.781V28.3594H180.906C181.281 27.4531 182.078 26.9297 183.179 26.9297C184.32 26.9297 185.117 27.5312 185.508 28.4062H185.633C186.086 27.5156 187.047 26.9297 188.211 26.9297C189.929 26.9297 190.89 27.9141 190.89 29.6797V35.5H189.531V29.9922C189.531 28.75 188.961 28.1328 187.773 28.1328C186.601 28.1328 185.828 29.0156 185.828 30.0859V35.5H184.469V29.7812C184.469 28.7812 183.781 28.1328 182.719 28.1328C181.617 28.1328 180.781 29.0938 180.781 30.2812V35.5H179.422ZM195.208 35.6484C193.606 35.6484 192.396 34.6797 192.396 33.1484V33.1328C192.396 31.6328 193.505 30.7656 195.466 30.6484L197.88 30.5V29.7344C197.88 28.6953 197.247 28.1328 195.989 28.1328C194.981 28.1328 194.317 28.5078 194.099 29.1641L194.091 29.1875H192.731L192.739 29.1406C192.958 27.8203 194.239 26.9297 196.036 26.9297C198.091 26.9297 199.239 27.9844 199.239 29.7344V35.5H197.88V34.2578H197.755C197.224 35.1562 196.341 35.6484 195.208 35.6484ZM193.786 33.1172C193.786 33.9688 194.513 34.4688 195.489 34.4688C196.872 34.4688 197.88 33.5625 197.88 32.3594V31.5938L195.63 31.7344C194.349 31.8125 193.786 32.2656 193.786 33.1016V33.1172ZM202.385 35.5781C201.83 35.5781 201.369 35.1172 201.369 34.5625C201.369 34 201.83 33.5469 202.385 33.5469C202.947 33.5469 203.401 34 203.401 34.5625C203.401 35.1172 202.947 35.5781 202.385 35.5781ZM208.71 35.6484C206.351 35.6484 204.843 33.9375 204.843 31.2656V31.25C204.843 28.6328 206.343 26.9297 208.703 26.9297C210.75 26.9297 211.976 28.1094 212.226 29.6094L212.234 29.6562H210.882L210.875 29.6328C210.664 28.8047 209.914 28.1328 208.703 28.1328C207.187 28.1328 206.234 29.3516 206.234 31.25V31.2656C206.234 33.2031 207.203 34.4453 208.703 34.4453C209.835 34.4453 210.554 33.9453 210.867 33.0078L210.882 32.9609L212.226 32.9531L212.21 33.0391C211.867 34.5625 210.734 35.6484 208.71 35.6484ZM217.231 35.6484C214.833 35.6484 213.348 33.9922 213.348 31.2969V31.2812C213.348 28.5781 214.833 26.9297 217.231 26.9297C219.63 26.9297 221.114 28.5781 221.114 31.2812V31.2969C221.114 33.9922 219.63 35.6484 217.231 35.6484ZM217.231 34.4453C218.825 34.4453 219.723 33.2812 219.723 31.2969V31.2812C219.723 29.2891 218.825 28.1328 217.231 28.1328C215.637 28.1328 214.739 29.2891 214.739 31.2812V31.2969C214.739 33.2812 215.637 34.4453 217.231 34.4453ZM222.775 35.5V27.0781H224.135V28.3594H224.26C224.635 27.4531 225.432 26.9297 226.533 26.9297C227.674 26.9297 228.471 27.5312 228.861 28.4062H228.986C229.439 27.5156 230.4 26.9297 231.564 26.9297C233.283 26.9297 234.244 27.9141 234.244 29.6797V35.5H232.885V29.9922C232.885 28.75 232.314 28.1328 231.127 28.1328C229.955 28.1328 229.182 29.0156 229.182 30.0859V35.5H227.822V29.7812C227.822 28.7812 227.135 28.1328 226.072 28.1328C224.971 28.1328 224.135 29.0938 224.135 30.2812V35.5H222.775Z" fill="white"/>
<path d="M330.578 29.1113C330.798 29.1113 330.965 29.041 331.097 28.9092L334.516 25.4639C334.674 25.3057 334.744 25.1299 334.744 24.9277C334.744 24.7344 334.665 24.541 334.516 24.3916L331.097 20.9199C330.965 20.7793 330.798 20.7002 330.578 20.7002C330.183 20.7002 329.875 21.0254 329.875 21.4385C329.875 21.623 329.945 21.7988 330.068 21.9482L332.213 24.04C331.765 23.9609 331.308 23.9258 330.859 23.9258C326.764 23.9258 323.485 27.1953 323.485 31.291C323.485 35.3867 326.772 38.6826 330.868 38.6826C334.955 38.6826 338.242 35.3867 338.242 31.291C338.242 30.8604 337.935 30.5439 337.495 30.5439C337.073 30.5439 336.792 30.8604 336.792 31.291C336.792 34.5869 334.155 37.2324 330.868 37.2324C327.572 37.2324 324.936 34.5869 324.936 31.291C324.936 27.9863 327.563 25.3584 330.859 25.3584C331.466 25.3584 332.011 25.4023 332.494 25.499L330.077 27.8984C329.945 28.0391 329.875 28.2061 329.875 28.3906C329.875 28.8037 330.183 29.1113 330.578 29.1113Z" fill="white"/>
</g>
<path d="M24.5762 78.2441C24.5762 78.0293 24.6514 77.8467 24.8125 77.6963L33.4062 69.5107C33.5459 69.3711 33.7285 69.2959 33.9326 69.2959C34.3516 69.2959 34.6738 69.6182 34.6738 70.0371C34.6738 70.2412 34.5879 70.4238 34.4697 70.5635L26.3916 78.2441L34.4697 85.9248C34.5879 86.0537 34.6738 86.2363 34.6738 86.4404C34.6738 86.8701 34.3516 87.1816 33.9326 87.1816C33.7285 87.1816 33.5459 87.1064 33.4062 86.9668L24.8125 78.792C24.6514 78.6416 24.5762 78.459 24.5762 78.2441Z" fill="#007AFF"/>
<path d="M115.663 78.2441C115.663 78.459 115.588 78.6416 115.427 78.792L106.844 86.9668C106.693 87.1064 106.521 87.1816 106.307 87.1816C105.898 87.1816 105.565 86.8701 105.565 86.4404C105.565 86.2363 105.651 86.0537 105.78 85.9248L113.848 78.2441L105.78 70.5635C105.651 70.4238 105.565 70.2412 105.565 70.0371C105.565 69.6182 105.898 69.2959 106.307 69.2959C106.521 69.2959 106.693 69.3711 106.844 69.5107L115.427 77.6963C115.588 77.8467 115.663 78.0293 115.663 78.2441Z" fill="#A3A3A3"/>
<path d="M187.489 81.1445C187.135 81.1445 186.834 80.8545 186.834 80.5V68.9307L186.888 67.373L185.921 68.3613L184.095 70.2627C183.977 70.3916 183.794 70.4561 183.633 70.4561C183.289 70.4561 183.042 70.209 183.042 69.876C183.042 69.6934 183.106 69.5645 183.235 69.4355L187.017 65.7402C187.178 65.5791 187.328 65.5254 187.489 65.5254C187.661 65.5254 187.812 65.5791 187.973 65.7402L191.743 69.4355C191.872 69.5645 191.937 69.6934 191.937 69.876C191.937 70.209 191.679 70.4561 191.335 70.4561C191.174 70.4561 191.002 70.3916 190.884 70.2627L189.058 68.3613L188.102 67.373L188.145 68.9307V80.5C188.145 80.8545 187.854 81.1445 187.489 81.1445ZM181.312 89.416C179.218 89.416 178.144 88.3525 178.144 86.2793V75.3008C178.144 73.2168 179.218 72.1533 181.312 72.1533H184.911V73.4854H181.334C180.131 73.4854 179.476 74.1299 179.476 75.3652V86.2041C179.476 87.4502 180.131 88.084 181.334 88.084H193.645C194.837 88.084 195.514 87.4502 195.514 86.2041V75.3652C195.514 74.1299 194.837 73.4854 193.645 73.4854H190.078V72.1533H193.677C195.771 72.1533 196.846 73.2275 196.846 75.3008V86.2793C196.846 88.3418 195.771 89.416 193.677 89.416H181.312Z" fill="#007AFF"/>
<path d="M254.02 86.5371V71.9707C254.02 71.7881 254.041 71.6592 254.148 71.4766C255.115 69.8652 257.5 68.5654 260.293 68.5654C262.699 68.5654 264.676 69.543 265.75 70.9502C266.824 69.543 268.801 68.5654 271.207 68.5654C274 68.5654 276.385 69.8652 277.352 71.4766C277.459 71.6592 277.48 71.7881 277.48 71.9707V86.5371C277.48 87.1816 277.051 87.4502 276.567 87.4502C276.277 87.4502 276.041 87.2998 275.729 87.085C274.58 86.1504 272.958 85.5811 271.239 85.5918C269.553 85.6025 267.898 86.2686 266.663 87.4932C266.33 87.8154 266.051 87.9229 265.75 87.9229C265.449 87.9229 265.181 87.8262 264.837 87.4932C263.612 86.2471 261.937 85.6025 260.261 85.5918C258.542 85.5811 256.92 86.1504 255.771 87.085C255.459 87.2998 255.212 87.4502 254.933 87.4502C254.449 87.4502 254.02 87.1816 254.02 86.5371ZM255.352 85.7529C256.458 84.8721 258.241 84.2598 260.293 84.2598C262.248 84.2598 264.031 85.0762 265.084 85.9678V72.2285C264.235 70.7891 262.431 69.8975 260.293 69.8975C258.22 69.8975 256.232 70.7891 255.352 72.1318V85.7529ZM266.416 85.9678C267.469 85.0762 269.252 84.2598 271.207 84.2598C273.259 84.2598 275.053 84.8721 276.148 85.7529V72.1318C275.257 70.7891 273.28 69.8975 271.207 69.8975C269.069 69.8975 267.254 70.7891 266.416 72.2285V85.9678Z" fill="#007AFF"/>
<path d="M335.997 84.4854C333.892 84.4854 332.828 83.4219 332.828 81.3486V70.499C332.828 68.415 333.892 67.3623 335.997 67.3623H346.782C348.877 67.3623 349.951 68.4365 349.951 70.499V72.0459H351.992C354.087 72.0459 355.161 73.1094 355.161 75.1826V86.0215C355.161 88.0947 354.087 89.1689 351.992 89.1689H341.207C339.102 89.1689 338.038 88.1055 338.038 86.0215V84.4854H335.997ZM336.019 83.1533H338.038V75.1826C338.038 73.0986 339.102 72.0459 341.207 72.0459H348.619V70.5742C348.619 69.3281 347.942 68.6943 346.761 68.6943H336.019C334.815 68.6943 334.16 69.3281 334.16 70.5742V81.2734C334.16 82.5195 334.815 83.1533 336.019 83.1533ZM341.229 87.8369H351.971C353.152 87.8369 353.829 87.1924 353.829 85.957V75.2471C353.829 74.0117 353.152 73.3672 351.971 73.3672H341.229C340.025 73.3672 339.37 74.0117 339.37 75.2471V85.957C339.37 87.1924 340.025 87.8369 341.229 87.8369Z" fill="#007AFF"/>
<rect x="121" y="119" width="133" height="5" rx="2.5" fill="white"/>
</g>
<defs>
<filter id="filter0_d_77_4296" x="5" y="-9" width="365" height="78" filterUnits="userSpaceOnUse" color-interpolation-filters="sRGB">
<feFlood flood-opacity="0" result="BackgroundImageFix"/>
<feColorMatrix in="SourceAlpha" type="matrix" values="0 0 0 0 0 0 0 0 0 0 0 0 0 0 0 0 0 0 127 0" result="hardAlpha"/>
<feOffset/>
<feGaussianBlur stdDeviation="8.5"/>
<feComposite in2="hardAlpha" operator="out"/>
<feColorMatrix type="matrix" values="0 0 0 0 0 0 0 0 0 0 0 0 0 0 0 0 0 0 0.13 0"/>
<feBlend mode="normal" in2="BackgroundImageFix" result="effect1_dropShadow_77_4296"/>
<feBlend mode="normal" in="SourceGraphic" in2="effect1_dropShadow_77_4296" result="shape"/>
</filter>
<clipPath id="clip0_77_4296">
<rect width="375" height="132" fill="white"/>
</clipPath>
</defs>
</svg>
