<svg width="375" height="48" viewBox="0 0 375 48" fill="none" xmlns="http://www.w3.org/2000/svg">
<path d="M52.0549 36.2988C49.2077 36.2988 47.4977 33.8833 47.4977 30.0151V29.9985C47.4977 26.1304 49.2077 23.7231 52.0549 23.7231C54.902 23.7231 56.6286 26.1304 56.6286 29.9985V30.0151C56.6286 33.8833 54.902 36.2988 52.0549 36.2988ZM52.0549 34.564C53.5822 34.564 54.4704 32.854 54.4704 30.0151V29.9985C54.4704 27.1597 53.5822 25.4663 52.0549 25.4663C50.5275 25.4663 49.6559 27.1597 49.6559 29.9985V30.0151C49.6559 32.854 50.5275 34.564 52.0549 34.564ZM62.7194 23.7231C65.2761 23.7231 67.5007 25.541 67.5007 29.8574V29.874C67.5007 33.9082 65.6828 36.2988 62.6696 36.2988C60.4699 36.2988 58.8264 34.9956 58.4445 33.1611L58.4279 33.0698H60.5363L60.5612 33.1528C60.8766 33.9912 61.6154 34.5391 62.6696 34.5391C64.5705 34.5391 65.3757 32.6797 65.467 30.3887C65.467 30.2974 65.4753 30.2061 65.4753 30.1147H65.3093C64.8693 31.061 63.8234 31.8994 62.1799 31.8994C59.8806 31.8994 58.2702 30.2227 58.2702 27.9482V27.9316C58.2702 25.4995 60.1213 23.7231 62.7194 23.7231ZM62.7111 30.2559C64.0641 30.2559 65.1017 29.2764 65.1017 27.9233V27.9067C65.1017 26.5371 64.0641 25.4663 62.736 25.4663C61.4162 25.4663 60.362 26.5205 60.362 27.8569V27.8735C60.362 29.2598 61.3498 30.2559 62.7111 30.2559ZM70.7692 28.2388C70.0139 28.2388 69.4494 27.6577 69.4494 26.9272C69.4494 26.1885 70.0139 25.6157 70.7692 25.6157C71.5329 25.6157 72.0891 26.1885 72.0891 26.9272C72.0891 27.6577 71.5329 28.2388 70.7692 28.2388ZM70.7692 34.3979C70.0139 34.3979 69.4494 33.8252 69.4494 33.0864C69.4494 32.3477 70.0139 31.7749 70.7692 31.7749C71.5329 31.7749 72.0891 32.3477 72.0891 33.0864C72.0891 33.8252 71.5329 34.3979 70.7692 34.3979ZM79.8483 36V33.7007H73.988V31.9492C75.5402 29.2515 77.2419 26.4956 78.8688 24.022H81.8986V31.9326H83.509V33.7007H81.8986V36H79.8483ZM75.9802 31.9824H79.8815V25.7319H79.757C78.5285 27.6079 77.1423 29.8242 75.9802 31.8579V31.9824ZM87.9728 36V26.1304H87.8317L84.8517 28.2388V26.2217L87.9811 24.022H90.1144V36H87.9728Z" fill="black"/>
<path fill-rule="evenodd" clip-rule="evenodd" d="M285.804 23.5H284.637C283.993 23.5 283.471 24.0037 283.471 24.625V34.375C283.471 34.9963 283.993 35.5 284.637 35.5H285.804C286.448 35.5 286.971 34.9963 286.971 34.375V24.625C286.971 24.0037 286.448 23.5 285.804 23.5ZM279.147 26.1251H280.314C280.958 26.1251 281.48 26.6288 281.48 27.2501V34.3751C281.48 34.9965 280.958 35.5001 280.314 35.5001H279.147C278.503 35.5001 277.98 34.9965 277.98 34.3751V27.2501C277.98 26.6288 278.503 26.1251 279.147 26.1251ZM274.824 28.7499H273.657C273.013 28.7499 272.49 29.2536 272.49 29.8749V34.3749C272.49 34.9962 273.013 35.4999 273.657 35.4999H274.824C275.468 35.4999 275.99 34.9962 275.99 34.3749V29.8749C275.99 29.2536 275.468 28.7499 274.824 28.7499ZM269.333 30.9999H268.167C267.522 30.9999 267 31.5036 267 32.1249V34.3749C267 34.9962 267.522 35.4999 268.167 35.4999H269.333C269.978 35.4999 270.5 34.9962 270.5 34.3749V32.1249C270.5 31.5036 269.978 30.9999 269.333 30.9999Z" fill="black"/>
<path fill-rule="evenodd" clip-rule="evenodd" d="M301.471 25.846C303.938 25.8461 306.31 26.8167 308.097 28.5571C308.232 28.6915 308.447 28.6898 308.58 28.5533L309.867 27.2234C309.934 27.1542 309.971 27.0604 309.971 26.9629C309.97 26.8653 309.932 26.772 309.864 26.7036C305.172 22.0988 297.77 22.0988 293.078 26.7036C293.01 26.772 292.971 26.8652 292.971 26.9628C292.97 27.0603 293.007 27.1541 293.074 27.2234L294.362 28.5533C294.494 28.69 294.709 28.6917 294.844 28.5571C296.632 26.8166 299.004 25.846 301.471 25.846ZM301.471 30.173C302.826 30.173 304.133 30.6888 305.138 31.6204C305.274 31.7526 305.488 31.7497 305.62 31.6139L306.905 30.284C306.973 30.2142 307.011 30.1196 307.01 30.0213C307.009 29.9229 306.969 29.8291 306.9 29.7608C303.841 26.8467 299.104 26.8467 296.045 29.7608C295.975 29.8291 295.936 29.923 295.935 30.0213C295.934 30.1197 295.972 30.2143 296.04 30.284L297.325 31.6139C297.457 31.7497 297.671 31.7526 297.807 31.6204C298.811 30.6894 300.117 30.1736 301.471 30.173ZM304.046 33.084C304.048 33.1826 304.01 33.2777 303.941 33.3468L301.718 35.6445C301.653 35.712 301.564 35.75 301.471 35.75C301.378 35.75 301.289 35.712 301.224 35.6445L299.001 33.3468C298.932 33.2776 298.894 33.1825 298.896 33.0839C298.898 32.9853 298.94 32.8919 299.011 32.8258C300.431 31.596 302.511 31.596 303.931 32.8258C304.002 32.892 304.044 32.9854 304.046 33.084Z" fill="black"/>
<g clip-path="url(#clip0_85_2824)">
<rect opacity="0.4" x="316.471" y="23.5" width="24" height="12" rx="3.5" stroke="black"/>
<path opacity="0.5" d="M341.971 27.5V31.5C342.777 31.1612 343.301 30.3731 343.301 29.5C343.301 28.6269 342.777 27.8388 341.971 27.5Z" fill="black"/>
<rect x="317.971" y="25" width="21" height="9" rx="2" fill="black"/>
</g>
<defs>
<clipPath id="clip0_85_2824">
<rect width="27.33" height="13" fill="white" transform="translate(315.971 23)"/>
</clipPath>
</defs>
</svg>
