<svg width="368" height="87" viewBox="0 0 368 87" fill="none" xmlns="http://www.w3.org/2000/svg">
<g clip-path="url(#clip0_77_4794)" filter="url(#filter0_d_77_4794)">
<rect width="360" height="79" transform="translate(4 3)" fill="white"/>
<rect width="360" height="32" transform="translate(4 3)" fill="white"/>
<path d="M24.875 14.2261V23.5H23.3452V16.0415L21.0791 16.8096V15.5464L24.6909 14.2261H24.875ZM34.2822 22.2812V23.5H28.0869V22.4526L31.0957 19.1709C31.4258 18.7985 31.686 18.4769 31.8765 18.2061C32.0669 17.9352 32.2002 17.6919 32.2764 17.4761C32.3568 17.256 32.397 17.0423 32.397 16.835C32.397 16.543 32.342 16.2869 32.2319 16.0669C32.1261 15.8426 31.9696 15.667 31.7622 15.54C31.5549 15.4089 31.3031 15.3433 31.0068 15.3433C30.6641 15.3433 30.3763 15.4173 30.1436 15.5654C29.9108 15.7135 29.7352 15.9188 29.6167 16.1812C29.4982 16.4393 29.439 16.7355 29.439 17.0698H27.9092C27.9092 16.5324 28.0319 16.0415 28.2773 15.5972C28.5228 15.1486 28.8783 14.7931 29.3438 14.5308C29.8092 14.2642 30.37 14.1309 31.0259 14.1309C31.6437 14.1309 32.1685 14.2345 32.6001 14.4419C33.0317 14.6493 33.3597 14.9434 33.584 15.3242C33.8125 15.7051 33.9268 16.1558 33.9268 16.6763C33.9268 16.964 33.8802 17.2497 33.7871 17.5332C33.694 17.8167 33.5607 18.1003 33.3872 18.3838C33.2179 18.6631 33.0169 18.9445 32.7842 19.228C32.5514 19.5073 32.2954 19.7909 32.0161 20.0786L30.0166 22.2812H34.2822ZM35.5835 22.7383C35.5835 22.5013 35.6639 22.3024 35.8247 22.1416C35.9855 21.9766 36.2035 21.894 36.4785 21.894C36.7578 21.894 36.9757 21.9766 37.1323 22.1416C37.2931 22.3024 37.3735 22.5013 37.3735 22.7383C37.3735 22.9753 37.2931 23.1742 37.1323 23.335C36.9757 23.4958 36.7578 23.5762 36.4785 23.5762C36.2035 23.5762 35.9855 23.4958 35.8247 23.335C35.6639 23.1742 35.5835 22.9753 35.5835 22.7383ZM35.5898 17.3301C35.5898 17.0931 35.6702 16.8942 35.8311 16.7334C35.9919 16.5684 36.2098 16.4858 36.4849 16.4858C36.7642 16.4858 36.9821 16.5684 37.1387 16.7334C37.2995 16.8942 37.3799 17.0931 37.3799 17.3301C37.3799 17.5671 37.2995 17.766 37.1387 17.9268C36.9821 18.0876 36.7642 18.168 36.4849 18.168C36.2098 18.168 35.9919 18.0876 35.8311 17.9268C35.6702 17.766 35.5898 17.5671 35.5898 17.3301ZM40.6997 18.187H41.6138C41.9692 18.187 42.2633 18.1257 42.4961 18.0029C42.7331 17.8802 42.9087 17.7109 43.0229 17.4951C43.1372 17.2793 43.1943 17.0317 43.1943 16.7524C43.1943 16.4604 43.1414 16.2108 43.0356 16.0034C42.9341 15.7918 42.7775 15.6289 42.5659 15.5146C42.3586 15.4004 42.0941 15.3433 41.7725 15.3433C41.5016 15.3433 41.2562 15.3983 41.0361 15.5083C40.8203 15.6141 40.6489 15.7664 40.522 15.9653C40.395 16.16 40.3315 16.3927 40.3315 16.6636H38.7954C38.7954 16.1727 38.9245 15.7368 39.1826 15.356C39.4408 14.9751 39.792 14.6768 40.2363 14.4609C40.6849 14.2409 41.1885 14.1309 41.7471 14.1309C42.3438 14.1309 42.8643 14.2303 43.3086 14.4292C43.7572 14.6239 44.1063 14.9159 44.356 15.3052C44.6056 15.6945 44.7305 16.1769 44.7305 16.7524C44.7305 17.0148 44.6691 17.2814 44.5464 17.5522C44.4237 17.8231 44.2417 18.0706 44.0005 18.2949C43.7593 18.515 43.4588 18.6948 43.0991 18.8345C42.7394 18.9699 42.3226 19.0376 41.8486 19.0376H40.6997V18.187ZM40.6997 19.3804V18.5425H41.8486C42.3903 18.5425 42.8516 18.606 43.2324 18.7329C43.6175 18.8599 43.9307 19.0355 44.1719 19.2598C44.4131 19.4798 44.5887 19.7316 44.6987 20.0151C44.813 20.2987 44.8701 20.5991 44.8701 20.9165C44.8701 21.3481 44.7918 21.7332 44.6353 22.0718C44.4829 22.4061 44.265 22.6896 43.9814 22.9224C43.6979 23.1551 43.3657 23.3307 42.9849 23.4492C42.6082 23.5677 42.1978 23.627 41.7534 23.627C41.3556 23.627 40.9748 23.5719 40.6108 23.4619C40.2469 23.3519 39.9211 23.189 39.6333 22.9731C39.3455 22.7531 39.117 22.4801 38.9478 22.1543C38.7827 21.8242 38.7002 21.4434 38.7002 21.0117H40.23C40.23 21.2868 40.2935 21.5301 40.4204 21.7417C40.5516 21.9491 40.7336 22.112 40.9663 22.2305C41.2033 22.349 41.4741 22.4082 41.7788 22.4082C42.1004 22.4082 42.3776 22.3511 42.6104 22.2368C42.8431 22.1226 43.0208 21.9533 43.1436 21.729C43.2705 21.5047 43.334 21.2339 43.334 20.9165C43.334 20.5568 43.2642 20.2648 43.1245 20.0405C42.9849 19.8162 42.786 19.6512 42.5278 19.5454C42.2697 19.4354 41.965 19.3804 41.6138 19.3804H40.6997ZM52.3159 18.1045V19.6152C52.3159 20.3389 52.244 20.9567 52.1001 21.4688C51.9604 21.9766 51.7573 22.3892 51.4907 22.7065C51.2241 23.0239 50.9046 23.2567 50.5322 23.4048C50.1641 23.5529 49.7515 23.627 49.2944 23.627C48.9305 23.627 48.592 23.5804 48.2788 23.4873C47.9699 23.3942 47.6906 23.2482 47.4409 23.0493C47.1912 22.8504 46.9775 22.5944 46.7998 22.2812C46.6263 21.9639 46.4909 21.5851 46.3936 21.145C46.3005 20.7049 46.2539 20.195 46.2539 19.6152V18.1045C46.2539 17.3766 46.3258 16.763 46.4697 16.2637C46.6136 15.7601 46.8188 15.3517 47.0854 15.0386C47.3521 14.7212 47.6694 14.4906 48.0376 14.3467C48.41 14.2028 48.8247 14.1309 49.2817 14.1309C49.6499 14.1309 49.9884 14.1774 50.2974 14.2705C50.6105 14.3594 50.8898 14.5011 51.1353 14.6958C51.3849 14.8905 51.5965 15.1444 51.77 15.4575C51.9478 15.7664 52.0832 16.141 52.1763 16.5811C52.2694 17.0169 52.3159 17.5247 52.3159 18.1045ZM50.7861 19.8311V17.876C50.7861 17.5078 50.765 17.1841 50.7227 16.9048C50.6803 16.6213 50.6169 16.3822 50.5322 16.1875C50.4518 15.9886 50.3503 15.8278 50.2275 15.7051C50.1048 15.5781 49.9652 15.4871 49.8086 15.4321C49.652 15.3729 49.4764 15.3433 49.2817 15.3433C49.0448 15.3433 48.8332 15.3898 48.647 15.4829C48.4608 15.5718 48.3042 15.7157 48.1772 15.9146C48.0503 16.1134 47.953 16.3758 47.8853 16.7017C47.8218 17.0233 47.79 17.4147 47.79 17.876V19.8311C47.79 20.2035 47.8112 20.5314 47.8535 20.8149C47.8958 21.0985 47.9593 21.3418 48.0439 21.5449C48.1286 21.7438 48.2301 21.9089 48.3486 22.04C48.4714 22.167 48.611 22.2601 48.7676 22.3193C48.9284 22.3786 49.104 22.4082 49.2944 22.4082C49.5356 22.4082 49.7493 22.3617 49.9355 22.2686C50.1217 22.1755 50.2783 22.0273 50.4053 21.8242C50.5322 21.6169 50.6274 21.3481 50.6909 21.0181C50.7544 20.688 50.7861 20.2923 50.7861 19.8311Z" fill="black"/>
<mask id="mask0_77_4794" style="mask-type:luminance" maskUnits="userSpaceOnUse" x="255" y="13" width="16" height="12">
<path fill-rule="evenodd" clip-rule="evenodd" d="M255 13V16L263 25L271 16V13H263H255Z" fill="white"/>
</mask>
<g mask="url(#mask0_77_4794)">
<path fill-rule="evenodd" clip-rule="evenodd" d="M263 13C256.4 13 251 18.4 251 25C251 31.6 256.4 37 263 37C269.6 37 275 31.6 275 25C275 18.4 269.6 13 263 13ZM263 34C258 34 254 30 254 25C254 20 258 16 263 16C268 16 272 20 272 25C272 30 268 34 263 34Z" fill="black" fill-opacity="0.1"/>
<path fill-rule="evenodd" clip-rule="evenodd" d="M263 16C258 16 254 20 254 25C254 30 258 34 263 34C268 34 272 30 272 25C272 20 268 16 263 16ZM263 31C259.7 31 257 28.3 257 25C257 21.7 259.7 19 263 19C266.3 19 269 21.7 269 25C269 28.3 266.3 31 263 31Z" fill="black"/>
<path fill-rule="evenodd" clip-rule="evenodd" d="M263 19C259.7 19 257 21.7 257 25C257 28.3 259.7 31 263 31C266.3 31 269 28.3 269 25C269 21.7 266.3 19 263 19ZM263 28C261.3 28 260 26.7 260 25C260 23.3 261.3 22 263 22C264.7 22 266 23.3 266 25C266 26.7 264.7 28 263 28Z" fill="black"/>
<path fill-rule="evenodd" clip-rule="evenodd" d="M263 28C264.657 28 266 26.6569 266 25C266 23.3431 264.657 22 263 22C261.343 22 260 23.3431 260 25C260 26.6569 261.343 28 263 28Z" fill="black"/>
</g>
<mask id="mask1_77_4794" style="mask-type:luminance" maskUnits="userSpaceOnUse" x="281" y="13" width="12" height="12">
<path fill-rule="evenodd" clip-rule="evenodd" d="M293 25V13L281 25H293Z" fill="white"/>
</mask>
<g mask="url(#mask1_77_4794)">
<path fill-rule="evenodd" clip-rule="evenodd" d="M290 13V25H293V13H290Z" fill="black" fill-opacity="0.1"/>
<path fill-rule="evenodd" clip-rule="evenodd" d="M287 13V25H290V13H287Z" fill="black" fill-opacity="0.1"/>
<path fill-rule="evenodd" clip-rule="evenodd" d="M284 13V25H287V13H284Z" fill="black"/>
<path fill-rule="evenodd" clip-rule="evenodd" d="M281 13V25H284V13H281Z" fill="black"/>
</g>
<path d="M306.107 19.1011L305.167 18.8599L305.631 14.2578H310.373V15.3433H306.627L306.348 17.8569C306.517 17.7596 306.731 17.6686 306.989 17.584C307.252 17.4993 307.552 17.457 307.891 17.457C308.318 17.457 308.701 17.5311 309.04 17.6792C309.378 17.8231 309.666 18.0304 309.903 18.3013C310.144 18.5721 310.328 18.8979 310.455 19.2788C310.582 19.6597 310.646 20.085 310.646 20.5547C310.646 20.999 310.584 21.4074 310.461 21.7798C310.343 22.1522 310.163 22.478 309.922 22.7573C309.681 23.0324 309.376 23.2461 309.008 23.3984C308.644 23.5508 308.214 23.627 307.719 23.627C307.347 23.627 306.993 23.5762 306.659 23.4746C306.329 23.3688 306.033 23.2101 305.771 22.9985C305.512 22.7827 305.301 22.5161 305.136 22.1987C304.975 21.8771 304.873 21.5005 304.831 21.0688H305.948C305.999 21.4159 306.101 21.7078 306.253 21.9448C306.405 22.1818 306.604 22.3617 306.85 22.4844C307.099 22.6029 307.389 22.6621 307.719 22.6621C307.999 22.6621 308.246 22.6134 308.462 22.5161C308.678 22.4188 308.86 22.2791 309.008 22.0972C309.156 21.9152 309.268 21.6951 309.344 21.437C309.425 21.1789 309.465 20.889 309.465 20.5674C309.465 20.2754 309.425 20.0046 309.344 19.7549C309.264 19.5052 309.143 19.2873 308.982 19.1011C308.826 18.9149 308.633 18.771 308.405 18.6694C308.176 18.5636 307.914 18.5107 307.618 18.5107C307.224 18.5107 306.926 18.5636 306.723 18.6694C306.524 18.7752 306.319 18.9191 306.107 19.1011ZM317.736 18.1426V19.5518C317.736 20.3092 317.668 20.9482 317.533 21.4688C317.397 21.9893 317.203 22.4082 316.949 22.7256C316.695 23.043 316.388 23.2736 316.028 23.4175C315.673 23.5571 315.271 23.627 314.822 23.627C314.467 23.627 314.139 23.5825 313.838 23.4937C313.538 23.4048 313.267 23.263 313.026 23.0684C312.789 22.8695 312.586 22.6113 312.417 22.2939C312.247 21.9766 312.118 21.5915 312.029 21.1387C311.94 20.6859 311.896 20.1569 311.896 19.5518V18.1426C311.896 17.3851 311.964 16.7503 312.099 16.2383C312.239 15.7262 312.436 15.3158 312.689 15.0068C312.943 14.6937 313.248 14.4694 313.604 14.334C313.963 14.1986 314.365 14.1309 314.81 14.1309C315.169 14.1309 315.499 14.1753 315.8 14.2642C316.104 14.3488 316.375 14.4863 316.612 14.6768C316.849 14.863 317.05 15.1126 317.215 15.4258C317.385 15.7347 317.514 16.1134 317.603 16.562C317.691 17.0106 317.736 17.5374 317.736 18.1426ZM316.555 19.7422V17.9458C316.555 17.5311 316.53 17.1672 316.479 16.854C316.432 16.5366 316.363 16.2658 316.27 16.0415C316.176 15.8172 316.058 15.6353 315.914 15.4956C315.774 15.356 315.611 15.2544 315.425 15.1909C315.243 15.1232 315.038 15.0894 314.81 15.0894C314.53 15.0894 314.283 15.1423 314.067 15.248C313.851 15.3496 313.669 15.5125 313.521 15.7368C313.377 15.9611 313.267 16.2552 313.191 16.6191C313.115 16.9831 313.077 17.4253 313.077 17.9458V19.7422C313.077 20.1569 313.1 20.5229 313.146 20.8403C313.197 21.1577 313.271 21.4328 313.369 21.6655C313.466 21.894 313.584 22.0824 313.724 22.2305C313.864 22.3786 314.025 22.4886 314.207 22.5605C314.393 22.6283 314.598 22.6621 314.822 22.6621C315.11 22.6621 315.362 22.6071 315.578 22.4971C315.793 22.387 315.973 22.2157 316.117 21.9829C316.265 21.7459 316.375 21.4434 316.447 21.0752C316.519 20.7028 316.555 20.2585 316.555 19.7422ZM319.145 16.5239V16.0352C319.145 15.6839 319.221 15.3644 319.374 15.0767C319.526 14.7889 319.744 14.5583 320.027 14.3848C320.311 14.2113 320.647 14.1245 321.037 14.1245C321.434 14.1245 321.773 14.2113 322.052 14.3848C322.336 14.5583 322.554 14.7889 322.706 15.0767C322.858 15.3644 322.935 15.6839 322.935 16.0352V16.5239C322.935 16.8667 322.858 17.182 322.706 17.4697C322.558 17.7575 322.342 17.9881 322.059 18.1616C321.779 18.3351 321.443 18.4219 321.049 18.4219C320.656 18.4219 320.315 18.3351 320.027 18.1616C319.744 17.9881 319.526 17.7575 319.374 17.4697C319.221 17.182 319.145 16.8667 319.145 16.5239ZM320.027 16.0352V16.5239C320.027 16.7186 320.063 16.9027 320.135 17.0762C320.211 17.2497 320.326 17.3914 320.478 17.5015C320.63 17.6073 320.821 17.6602 321.049 17.6602C321.278 17.6602 321.466 17.6073 321.614 17.5015C321.762 17.3914 321.872 17.2497 321.944 17.0762C322.016 16.9027 322.052 16.7186 322.052 16.5239V16.0352C322.052 15.8363 322.014 15.6501 321.938 15.4766C321.866 15.2988 321.754 15.1571 321.602 15.0513C321.453 14.9412 321.265 14.8862 321.037 14.8862C320.812 14.8862 320.624 14.9412 320.472 15.0513C320.324 15.1571 320.211 15.2988 320.135 15.4766C320.063 15.6501 320.027 15.8363 320.027 16.0352ZM323.646 21.729V21.2339C323.646 20.8869 323.722 20.5695 323.874 20.2817C324.026 19.994 324.244 19.7633 324.528 19.5898C324.811 19.4163 325.148 19.3296 325.537 19.3296C325.935 19.3296 326.273 19.4163 326.553 19.5898C326.836 19.7633 327.054 19.994 327.207 20.2817C327.359 20.5695 327.435 20.8869 327.435 21.2339V21.729C327.435 22.076 327.359 22.3934 327.207 22.6812C327.058 22.9689 326.843 23.1995 326.559 23.373C326.28 23.5465 325.943 23.6333 325.55 23.6333C325.156 23.6333 324.818 23.5465 324.534 23.373C324.251 23.1995 324.031 22.9689 323.874 22.6812C323.722 22.3934 323.646 22.076 323.646 21.729ZM324.528 21.2339V21.729C324.528 21.9237 324.564 22.1099 324.636 22.2876C324.712 22.4611 324.826 22.6029 324.979 22.7129C325.131 22.8187 325.321 22.8716 325.55 22.8716C325.778 22.8716 325.967 22.8187 326.115 22.7129C326.267 22.6029 326.379 22.4611 326.451 22.2876C326.523 22.1141 326.559 21.9279 326.559 21.729V21.2339C326.559 21.035 326.521 20.8488 326.445 20.6753C326.373 20.5018 326.261 20.3621 326.108 20.2563C325.96 20.1463 325.77 20.0913 325.537 20.0913C325.313 20.0913 325.125 20.1463 324.972 20.2563C324.824 20.3621 324.712 20.5018 324.636 20.6753C324.564 20.8488 324.528 21.035 324.528 21.2339ZM325.829 15.5718L321.316 22.7954L320.656 22.3765L325.169 15.1528L325.829 15.5718Z" fill="black"/>
<mask id="mask2_77_4794" style="mask-type:luminance" maskUnits="userSpaceOnUse" x="332" y="11" width="8" height="14">
<path fill-rule="evenodd" clip-rule="evenodd" d="M339 12.5H338V11.5H334V12.5H333C332.4 12.5 332 12.9 332 13.5V23.5C332 24.1 332.4 24.5 333 24.5H339C339.6 24.5 340 24.1 340 23.5V13.5C340 12.9 339.6 12.5 339 12.5Z" fill="white"/>
</mask>
<g mask="url(#mask2_77_4794)">
<path fill-rule="evenodd" clip-rule="evenodd" d="M332 21.5V24.5H340V21.5H332Z" fill="black"/>
<path fill-rule="evenodd" clip-rule="evenodd" d="M332 18.5V21.5H340V18.5H332Z" fill="black"/>
<path fill-rule="evenodd" clip-rule="evenodd" d="M332 15.5V18.5H340V15.5H332Z" fill="black" fill-opacity="0.1"/>
<path fill-rule="evenodd" clip-rule="evenodd" d="M332 12.5V15.5H340V12.5H332Z" fill="black" fill-opacity="0.1"/>
<path fill-rule="evenodd" clip-rule="evenodd" d="M334 11.5V12.5H338V11.5H334Z" fill="black" fill-opacity="0.1"/>
</g>
<path d="M152.652 60H151.388V51.9609C151.388 51.4004 151.497 50.9264 151.716 50.5391C151.935 50.1517 152.247 49.8577 152.652 49.6572C153.058 49.4567 153.539 49.3564 154.095 49.3564C154.423 49.3564 154.744 49.3975 155.059 49.4795C155.373 49.557 155.697 49.6549 156.029 49.7734L155.817 50.8398C155.608 50.7578 155.364 50.6803 155.086 50.6074C154.812 50.5299 154.512 50.4912 154.184 50.4912C153.641 50.4912 153.249 50.6143 153.008 50.8604C152.771 51.1019 152.652 51.4688 152.652 51.9609V60ZM154.163 52.6035V53.5742H150.219V52.6035H154.163ZM156.651 52.6035V60H155.387V52.6035H156.651ZM163.661 52.6035H164.81V59.8428C164.81 60.4945 164.678 61.0505 164.413 61.5107C164.149 61.971 163.78 62.3197 163.306 62.5566C162.837 62.7982 162.294 62.9189 161.679 62.9189C161.424 62.9189 161.123 62.8779 160.777 62.7959C160.435 62.7184 160.098 62.584 159.765 62.3926C159.437 62.2057 159.161 61.9528 158.938 61.6338L159.601 60.8818C159.911 61.2555 160.234 61.5153 160.572 61.6611C160.913 61.807 161.251 61.8799 161.583 61.8799C161.984 61.8799 162.331 61.8047 162.622 61.6543C162.914 61.5039 163.14 61.2806 163.299 60.9844C163.463 60.6927 163.545 60.3327 163.545 59.9043V54.2305L163.661 52.6035ZM158.569 56.3838V56.2402C158.569 55.6751 158.635 55.1624 158.767 54.7021C158.904 54.2373 159.097 53.8385 159.348 53.5059C159.603 53.1732 159.911 52.918 160.271 52.7402C160.631 52.5579 161.036 52.4668 161.488 52.4668C161.952 52.4668 162.358 52.5488 162.704 52.7129C163.055 52.8724 163.352 53.1071 163.593 53.417C163.839 53.7223 164.033 54.0915 164.174 54.5244C164.315 54.9574 164.413 55.4473 164.468 55.9941V56.623C164.418 57.1654 164.32 57.653 164.174 58.0859C164.033 58.5189 163.839 58.888 163.593 59.1934C163.352 59.4987 163.055 59.7334 162.704 59.8975C162.354 60.057 161.943 60.1367 161.474 60.1367C161.032 60.1367 160.631 60.0433 160.271 59.8564C159.915 59.6696 159.61 59.4076 159.355 59.0703C159.1 58.7331 158.904 58.3366 158.767 57.8809C158.635 57.4206 158.569 56.9215 158.569 56.3838ZM159.833 56.2402V56.3838C159.833 56.7529 159.87 57.0993 159.943 57.4229C160.02 57.7464 160.136 58.0312 160.291 58.2773C160.451 58.5234 160.654 58.7171 160.9 58.8584C161.146 58.9951 161.44 59.0635 161.782 59.0635C162.201 59.0635 162.547 58.9746 162.821 58.7969C163.094 58.6191 163.311 58.3844 163.47 58.0928C163.634 57.8011 163.762 57.4844 163.853 57.1426V55.4951C163.803 55.2445 163.725 55.0029 163.62 54.7705C163.52 54.5335 163.388 54.3239 163.224 54.1416C163.064 53.9548 162.866 53.8066 162.629 53.6973C162.392 53.5879 162.114 53.5332 161.795 53.5332C161.449 53.5332 161.15 53.6061 160.9 53.752C160.654 53.8932 160.451 54.0892 160.291 54.3398C160.136 54.5859 160.02 54.873 159.943 55.2012C159.87 55.5247 159.833 55.8711 159.833 56.2402ZM168.129 54.0732V60H166.857V52.6035H168.06L168.129 54.0732ZM167.869 56.0215L167.281 56.001C167.286 55.4951 167.352 55.028 167.479 54.5996C167.607 54.1667 167.796 53.7907 168.047 53.4717C168.297 53.1527 168.609 52.9066 168.983 52.7334C169.357 52.5557 169.79 52.4668 170.282 52.4668C170.628 52.4668 170.947 52.5169 171.239 52.6172C171.531 52.7129 171.784 52.8656 171.998 53.0752C172.212 53.2848 172.378 53.5537 172.497 53.8818C172.615 54.21 172.675 54.6064 172.675 55.0713V60H171.41V55.1328C171.41 54.7454 171.344 54.4355 171.212 54.2031C171.084 53.9707 170.902 53.8021 170.665 53.6973C170.428 53.5879 170.15 53.5332 169.831 53.5332C169.457 53.5332 169.145 53.5993 168.894 53.7314C168.644 53.8636 168.443 54.0459 168.293 54.2783C168.142 54.5107 168.033 54.7773 167.965 55.0781C167.901 55.3743 167.869 55.6888 167.869 56.0215ZM172.661 55.3242L171.813 55.584C171.818 55.1784 171.884 54.7887 172.011 54.415C172.144 54.0413 172.333 53.7087 172.579 53.417C172.829 53.1253 173.137 52.8952 173.502 52.7266C173.866 52.5534 174.283 52.4668 174.753 52.4668C175.149 52.4668 175.5 52.5192 175.805 52.624C176.115 52.7288 176.375 52.8906 176.585 53.1094C176.799 53.3236 176.961 53.5993 177.07 53.9365C177.179 54.2738 177.234 54.6748 177.234 55.1396V60H175.963V55.126C175.963 54.7113 175.897 54.39 175.764 54.1621C175.637 53.9297 175.454 53.7679 175.217 53.6768C174.985 53.5811 174.707 53.5332 174.384 53.5332C174.106 53.5332 173.859 53.5811 173.645 53.6768C173.431 53.7725 173.251 53.9046 173.105 54.0732C172.959 54.2373 172.848 54.4264 172.77 54.6406C172.697 54.8548 172.661 55.0827 172.661 55.3242ZM183.649 58.7354V54.9277C183.649 54.6361 183.59 54.3831 183.472 54.1689C183.358 53.9502 183.185 53.7816 182.952 53.6631C182.72 53.5446 182.433 53.4854 182.091 53.4854C181.772 53.4854 181.492 53.54 181.25 53.6494C181.013 53.7588 180.826 53.9023 180.69 54.0801C180.557 54.2578 180.491 54.4492 180.491 54.6543H179.227C179.227 54.39 179.295 54.1279 179.432 53.8682C179.568 53.6084 179.764 53.3737 180.02 53.1641C180.279 52.9499 180.589 52.7812 180.949 52.6582C181.314 52.5306 181.719 52.4668 182.166 52.4668C182.704 52.4668 183.178 52.5579 183.588 52.7402C184.003 52.9225 184.326 53.1982 184.559 53.5674C184.796 53.932 184.914 54.39 184.914 54.9414V58.3867C184.914 58.6328 184.935 58.8949 184.976 59.1729C185.021 59.4508 185.087 59.6901 185.174 59.8906V60H183.855C183.791 59.8542 183.741 59.6605 183.704 59.4189C183.668 59.1729 183.649 58.945 183.649 58.7354ZM183.868 55.5156L183.882 56.4043H182.604C182.244 56.4043 181.922 56.4339 181.64 56.4932C181.357 56.5479 181.12 56.6322 180.929 56.7461C180.737 56.86 180.592 57.0036 180.491 57.1768C180.391 57.3454 180.341 57.5436 180.341 57.7715C180.341 58.0039 180.393 58.2158 180.498 58.4072C180.603 58.5986 180.76 58.7513 180.97 58.8652C181.184 58.9746 181.446 59.0293 181.756 59.0293C182.143 59.0293 182.485 58.9473 182.781 58.7832C183.078 58.6191 183.312 58.4186 183.485 58.1816C183.663 57.9447 183.759 57.7145 183.773 57.4912L184.313 58.0996C184.281 58.291 184.194 58.5029 184.053 58.7354C183.912 58.9678 183.722 59.1911 183.485 59.4053C183.253 59.6149 182.975 59.7904 182.651 59.9316C182.332 60.0684 181.972 60.1367 181.571 60.1367C181.07 60.1367 180.63 60.0387 180.252 59.8428C179.878 59.6468 179.587 59.3848 179.377 59.0566C179.172 58.724 179.069 58.3525 179.069 57.9424C179.069 57.5459 179.147 57.1973 179.302 56.8965C179.457 56.5911 179.68 56.3382 179.972 56.1377C180.263 55.9326 180.614 55.7777 181.024 55.6729C181.435 55.568 181.893 55.5156 182.399 55.5156H183.868ZM187.064 59.3301C187.064 59.1159 187.13 58.9359 187.262 58.79C187.399 58.6396 187.595 58.5645 187.85 58.5645C188.105 58.5645 188.299 58.6396 188.431 58.79C188.568 58.9359 188.636 59.1159 188.636 59.3301C188.636 59.5397 188.568 59.7174 188.431 59.8633C188.299 60.0091 188.105 60.082 187.85 60.082C187.595 60.082 187.399 60.0091 187.262 59.8633C187.13 59.7174 187.064 59.5397 187.064 59.3301ZM193.835 59.0977C194.136 59.0977 194.414 59.0361 194.669 58.9131C194.924 58.79 195.134 58.6214 195.298 58.4072C195.462 58.1885 195.555 57.9401 195.578 57.6621H196.781C196.758 58.0996 196.61 58.5075 196.337 58.8857C196.068 59.2594 195.715 59.5625 195.277 59.7949C194.84 60.0228 194.359 60.1367 193.835 60.1367C193.279 60.1367 192.793 60.0387 192.379 59.8428C191.969 59.6468 191.627 59.3779 191.353 59.0361C191.084 58.6943 190.882 58.3024 190.745 57.8604C190.613 57.4137 190.547 56.9421 190.547 56.4453V56.1582C190.547 55.6615 190.613 55.1921 190.745 54.75C190.882 54.3034 191.084 53.9092 191.353 53.5674C191.627 53.2256 191.969 52.9567 192.379 52.7607C192.793 52.5648 193.279 52.4668 193.835 52.4668C194.414 52.4668 194.919 52.5853 195.352 52.8223C195.785 53.0547 196.125 53.3737 196.371 53.7793C196.622 54.1803 196.758 54.6361 196.781 55.1465H195.578C195.555 54.8411 195.469 54.5654 195.318 54.3193C195.172 54.0732 194.972 53.8773 194.717 53.7314C194.466 53.5811 194.172 53.5059 193.835 53.5059C193.447 53.5059 193.122 53.5833 192.857 53.7383C192.597 53.8887 192.39 54.0938 192.235 54.3535C192.085 54.6087 191.975 54.8936 191.907 55.208C191.843 55.5179 191.811 55.8346 191.811 56.1582V56.4453C191.811 56.7689 191.843 57.0879 191.907 57.4023C191.971 57.7168 192.078 58.0016 192.228 58.2568C192.383 58.512 192.591 58.7171 192.85 58.8721C193.115 59.0225 193.443 59.0977 193.835 59.0977ZM198.008 56.3838V56.2266C198.008 55.6934 198.085 55.1989 198.24 54.7432C198.395 54.2829 198.619 53.8841 198.91 53.5469C199.202 53.2051 199.555 52.9408 199.97 52.7539C200.385 52.5625 200.849 52.4668 201.364 52.4668C201.884 52.4668 202.351 52.5625 202.766 52.7539C203.185 52.9408 203.541 53.2051 203.832 53.5469C204.128 53.8841 204.354 54.2829 204.509 54.7432C204.664 55.1989 204.741 55.6934 204.741 56.2266V56.3838C204.741 56.917 204.664 57.4115 204.509 57.8672C204.354 58.3229 204.128 58.7217 203.832 59.0635C203.541 59.4007 203.187 59.665 202.773 59.8564C202.362 60.0433 201.898 60.1367 201.378 60.1367C200.859 60.1367 200.391 60.0433 199.977 59.8564C199.562 59.665 199.207 59.4007 198.91 59.0635C198.619 58.7217 198.395 58.3229 198.24 57.8672C198.085 57.4115 198.008 56.917 198.008 56.3838ZM199.273 56.2266V56.3838C199.273 56.7529 199.316 57.1016 199.403 57.4297C199.489 57.7533 199.619 58.0404 199.792 58.291C199.97 58.5417 200.191 58.7399 200.455 58.8857C200.72 59.027 201.027 59.0977 201.378 59.0977C201.724 59.0977 202.028 59.027 202.287 58.8857C202.552 58.7399 202.77 58.5417 202.944 58.291C203.117 58.0404 203.247 57.7533 203.333 57.4297C203.424 57.1016 203.47 56.7529 203.47 56.3838V56.2266C203.47 55.862 203.424 55.5179 203.333 55.1943C203.247 54.8662 203.114 54.5768 202.937 54.3262C202.764 54.071 202.545 53.8704 202.28 53.7246C202.021 53.5788 201.715 53.5059 201.364 53.5059C201.018 53.5059 200.713 53.5788 200.448 53.7246C200.189 53.8704 199.97 54.071 199.792 54.3262C199.619 54.5768 199.489 54.8662 199.403 55.1943C199.316 55.5179 199.273 55.862 199.273 56.2266ZM207.725 54.0732V60H206.454V52.6035H207.657L207.725 54.0732ZM207.465 56.0215L206.877 56.001C206.882 55.4951 206.948 55.028 207.076 54.5996C207.203 54.1667 207.392 53.7907 207.643 53.4717C207.894 53.1527 208.206 52.9066 208.58 52.7334C208.953 52.5557 209.386 52.4668 209.878 52.4668C210.225 52.4668 210.544 52.5169 210.835 52.6172C211.127 52.7129 211.38 52.8656 211.594 53.0752C211.808 53.2848 211.975 53.5537 212.093 53.8818C212.212 54.21 212.271 54.6064 212.271 55.0713V60H211.006V55.1328C211.006 54.7454 210.94 54.4355 210.808 54.2031C210.681 53.9707 210.498 53.8021 210.261 53.6973C210.024 53.5879 209.746 53.5332 209.427 53.5332C209.054 53.5332 208.741 53.5993 208.491 53.7314C208.24 53.8636 208.04 54.0459 207.889 54.2783C207.739 54.5107 207.629 54.7773 207.561 55.0781C207.497 55.3743 207.465 55.6888 207.465 56.0215ZM212.257 55.3242L211.41 55.584C211.414 55.1784 211.48 54.7887 211.608 54.415C211.74 54.0413 211.929 53.7087 212.175 53.417C212.426 53.1253 212.734 52.8952 213.098 52.7266C213.463 52.5534 213.88 52.4668 214.349 52.4668C214.746 52.4668 215.097 52.5192 215.402 52.624C215.712 52.7288 215.972 52.8906 216.181 53.1094C216.395 53.3236 216.557 53.5993 216.667 53.9365C216.776 54.2738 216.831 54.6748 216.831 55.1396V60H215.559V55.126C215.559 54.7113 215.493 54.39 215.361 54.1621C215.233 53.9297 215.051 53.7679 214.814 53.6768C214.582 53.5811 214.304 53.5332 213.98 53.5332C213.702 53.5332 213.456 53.5811 213.242 53.6768C213.028 53.7725 212.848 53.9046 212.702 54.0732C212.556 54.2373 212.444 54.4264 212.367 54.6406C212.294 54.8548 212.257 55.0827 212.257 55.3242Z" fill="black"/>
</g>
<defs>
<filter id="filter0_d_77_4794" x="0" y="0" width="368" height="87" filterUnits="userSpaceOnUse" color-interpolation-filters="sRGB">
<feFlood flood-opacity="0" result="BackgroundImageFix"/>
<feColorMatrix in="SourceAlpha" type="matrix" values="0 0 0 0 0 0 0 0 0 0 0 0 0 0 0 0 0 0 127 0" result="hardAlpha"/>
<feOffset dy="1"/>
<feGaussianBlur stdDeviation="2"/>
<feComposite in2="hardAlpha" operator="out"/>
<feColorMatrix type="matrix" values="0 0 0 0 0 0 0 0 0 0 0 0 0 0 0 0 0 0 0.1 0"/>
<feBlend mode="normal" in2="BackgroundImageFix" result="effect1_dropShadow_77_4794"/>
<feBlend mode="normal" in="SourceGraphic" in2="effect1_dropShadow_77_4794" result="shape"/>
</filter>
<clipPath id="clip0_77_4794">
<rect width="360" height="79" fill="white" transform="translate(4 3)"/>
</clipPath>
</defs>
</svg>
