<svg width="368" height="96" viewBox="0 0 368 96" fill="none" xmlns="http://www.w3.org/2000/svg">
<g filter="url(#filter0_d_77_4771)">
<g clip-path="url(#clip0_77_4771)">
<mask id="path-1-inside-1_77_4771" fill="white">
<path d="M4 3H364V91H4V3Z"/>
</mask>
<rect width="360" height="32" transform="translate(4 3)" fill="white"/>
<path d="M24.875 14.2261V23.5H23.3452V16.0415L21.0791 16.8096V15.5464L24.6909 14.2261H24.875ZM34.2822 22.2812V23.5H28.0869V22.4526L31.0957 19.1709C31.4258 18.7985 31.686 18.4769 31.8765 18.2061C32.0669 17.9352 32.2002 17.6919 32.2764 17.4761C32.3568 17.256 32.397 17.0423 32.397 16.835C32.397 16.543 32.342 16.2869 32.2319 16.0669C32.1261 15.8426 31.9696 15.667 31.7622 15.54C31.5549 15.4089 31.3031 15.3433 31.0068 15.3433C30.6641 15.3433 30.3763 15.4173 30.1436 15.5654C29.9108 15.7135 29.7352 15.9188 29.6167 16.1812C29.4982 16.4393 29.439 16.7355 29.439 17.0698H27.9092C27.9092 16.5324 28.0319 16.0415 28.2773 15.5972C28.5228 15.1486 28.8783 14.7931 29.3438 14.5308C29.8092 14.2642 30.37 14.1309 31.0259 14.1309C31.6437 14.1309 32.1685 14.2345 32.6001 14.4419C33.0317 14.6493 33.3597 14.9434 33.584 15.3242C33.8125 15.7051 33.9268 16.1558 33.9268 16.6763C33.9268 16.964 33.8802 17.2497 33.7871 17.5332C33.694 17.8167 33.5607 18.1003 33.3872 18.3838C33.2179 18.6631 33.0169 18.9445 32.7842 19.228C32.5514 19.5073 32.2954 19.7909 32.0161 20.0786L30.0166 22.2812H34.2822ZM35.5835 22.7383C35.5835 22.5013 35.6639 22.3024 35.8247 22.1416C35.9855 21.9766 36.2035 21.894 36.4785 21.894C36.7578 21.894 36.9757 21.9766 37.1323 22.1416C37.2931 22.3024 37.3735 22.5013 37.3735 22.7383C37.3735 22.9753 37.2931 23.1742 37.1323 23.335C36.9757 23.4958 36.7578 23.5762 36.4785 23.5762C36.2035 23.5762 35.9855 23.4958 35.8247 23.335C35.6639 23.1742 35.5835 22.9753 35.5835 22.7383ZM35.5898 17.3301C35.5898 17.0931 35.6702 16.8942 35.8311 16.7334C35.9919 16.5684 36.2098 16.4858 36.4849 16.4858C36.7642 16.4858 36.9821 16.5684 37.1387 16.7334C37.2995 16.8942 37.3799 17.0931 37.3799 17.3301C37.3799 17.5671 37.2995 17.766 37.1387 17.9268C36.9821 18.0876 36.7642 18.168 36.4849 18.168C36.2098 18.168 35.9919 18.0876 35.8311 17.9268C35.6702 17.766 35.5898 17.5671 35.5898 17.3301ZM40.6997 18.187H41.6138C41.9692 18.187 42.2633 18.1257 42.4961 18.0029C42.7331 17.8802 42.9087 17.7109 43.0229 17.4951C43.1372 17.2793 43.1943 17.0317 43.1943 16.7524C43.1943 16.4604 43.1414 16.2108 43.0356 16.0034C42.9341 15.7918 42.7775 15.6289 42.5659 15.5146C42.3586 15.4004 42.0941 15.3433 41.7725 15.3433C41.5016 15.3433 41.2562 15.3983 41.0361 15.5083C40.8203 15.6141 40.6489 15.7664 40.522 15.9653C40.395 16.16 40.3315 16.3927 40.3315 16.6636H38.7954C38.7954 16.1727 38.9245 15.7368 39.1826 15.356C39.4408 14.9751 39.792 14.6768 40.2363 14.4609C40.6849 14.2409 41.1885 14.1309 41.7471 14.1309C42.3438 14.1309 42.8643 14.2303 43.3086 14.4292C43.7572 14.6239 44.1063 14.9159 44.356 15.3052C44.6056 15.6945 44.7305 16.1769 44.7305 16.7524C44.7305 17.0148 44.6691 17.2814 44.5464 17.5522C44.4237 17.8231 44.2417 18.0706 44.0005 18.2949C43.7593 18.515 43.4588 18.6948 43.0991 18.8345C42.7394 18.9699 42.3226 19.0376 41.8486 19.0376H40.6997V18.187ZM40.6997 19.3804V18.5425H41.8486C42.3903 18.5425 42.8516 18.606 43.2324 18.7329C43.6175 18.8599 43.9307 19.0355 44.1719 19.2598C44.4131 19.4798 44.5887 19.7316 44.6987 20.0151C44.813 20.2987 44.8701 20.5991 44.8701 20.9165C44.8701 21.3481 44.7918 21.7332 44.6353 22.0718C44.4829 22.4061 44.265 22.6896 43.9814 22.9224C43.6979 23.1551 43.3657 23.3307 42.9849 23.4492C42.6082 23.5677 42.1978 23.627 41.7534 23.627C41.3556 23.627 40.9748 23.5719 40.6108 23.4619C40.2469 23.3519 39.9211 23.189 39.6333 22.9731C39.3455 22.7531 39.117 22.4801 38.9478 22.1543C38.7827 21.8242 38.7002 21.4434 38.7002 21.0117H40.23C40.23 21.2868 40.2935 21.5301 40.4204 21.7417C40.5516 21.9491 40.7336 22.112 40.9663 22.2305C41.2033 22.349 41.4741 22.4082 41.7788 22.4082C42.1004 22.4082 42.3776 22.3511 42.6104 22.2368C42.8431 22.1226 43.0208 21.9533 43.1436 21.729C43.2705 21.5047 43.334 21.2339 43.334 20.9165C43.334 20.5568 43.2642 20.2648 43.1245 20.0405C42.9849 19.8162 42.786 19.6512 42.5278 19.5454C42.2697 19.4354 41.965 19.3804 41.6138 19.3804H40.6997ZM52.3159 18.1045V19.6152C52.3159 20.3389 52.244 20.9567 52.1001 21.4688C51.9604 21.9766 51.7573 22.3892 51.4907 22.7065C51.2241 23.0239 50.9046 23.2567 50.5322 23.4048C50.1641 23.5529 49.7515 23.627 49.2944 23.627C48.9305 23.627 48.592 23.5804 48.2788 23.4873C47.9699 23.3942 47.6906 23.2482 47.4409 23.0493C47.1912 22.8504 46.9775 22.5944 46.7998 22.2812C46.6263 21.9639 46.4909 21.5851 46.3936 21.145C46.3005 20.7049 46.2539 20.195 46.2539 19.6152V18.1045C46.2539 17.3766 46.3258 16.763 46.4697 16.2637C46.6136 15.7601 46.8188 15.3517 47.0854 15.0386C47.3521 14.7212 47.6694 14.4906 48.0376 14.3467C48.41 14.2028 48.8247 14.1309 49.2817 14.1309C49.6499 14.1309 49.9884 14.1774 50.2974 14.2705C50.6105 14.3594 50.8898 14.5011 51.1353 14.6958C51.3849 14.8905 51.5965 15.1444 51.77 15.4575C51.9478 15.7664 52.0832 16.141 52.1763 16.5811C52.2694 17.0169 52.3159 17.5247 52.3159 18.1045ZM50.7861 19.8311V17.876C50.7861 17.5078 50.765 17.1841 50.7227 16.9048C50.6803 16.6213 50.6169 16.3822 50.5322 16.1875C50.4518 15.9886 50.3503 15.8278 50.2275 15.7051C50.1048 15.5781 49.9652 15.4871 49.8086 15.4321C49.652 15.3729 49.4764 15.3433 49.2817 15.3433C49.0448 15.3433 48.8332 15.3898 48.647 15.4829C48.4608 15.5718 48.3042 15.7157 48.1772 15.9146C48.0503 16.1134 47.953 16.3758 47.8853 16.7017C47.8218 17.0233 47.79 17.4147 47.79 17.876V19.8311C47.79 20.2035 47.8112 20.5314 47.8535 20.8149C47.8958 21.0985 47.9593 21.3418 48.0439 21.5449C48.1286 21.7438 48.2301 21.9089 48.3486 22.04C48.4714 22.167 48.611 22.2601 48.7676 22.3193C48.9284 22.3786 49.104 22.4082 49.2944 22.4082C49.5356 22.4082 49.7493 22.3617 49.9355 22.2686C50.1217 22.1755 50.2783 22.0273 50.4053 21.8242C50.5322 21.6169 50.6274 21.3481 50.6909 21.0181C50.7544 20.688 50.7861 20.2923 50.7861 19.8311Z" fill="black"/>
<mask id="mask0_77_4771" style="mask-type:luminance" maskUnits="userSpaceOnUse" x="255" y="13" width="16" height="12">
<path fill-rule="evenodd" clip-rule="evenodd" d="M255 13V16L263 25L271 16V13H263H255Z" fill="white"/>
</mask>
<g mask="url(#mask0_77_4771)">
<path fill-rule="evenodd" clip-rule="evenodd" d="M263 13C256.4 13 251 18.4 251 25C251 31.6 256.4 37 263 37C269.6 37 275 31.6 275 25C275 18.4 269.6 13 263 13ZM263 34C258 34 254 30 254 25C254 20 258 16 263 16C268 16 272 20 272 25C272 30 268 34 263 34Z" fill="black" fill-opacity="0.1"/>
<path fill-rule="evenodd" clip-rule="evenodd" d="M263 16C258 16 254 20 254 25C254 30 258 34 263 34C268 34 272 30 272 25C272 20 268 16 263 16ZM263 31C259.7 31 257 28.3 257 25C257 21.7 259.7 19 263 19C266.3 19 269 21.7 269 25C269 28.3 266.3 31 263 31Z" fill="black"/>
<path fill-rule="evenodd" clip-rule="evenodd" d="M263 19C259.7 19 257 21.7 257 25C257 28.3 259.7 31 263 31C266.3 31 269 28.3 269 25C269 21.7 266.3 19 263 19ZM263 28C261.3 28 260 26.7 260 25C260 23.3 261.3 22 263 22C264.7 22 266 23.3 266 25C266 26.7 264.7 28 263 28Z" fill="black"/>
<path fill-rule="evenodd" clip-rule="evenodd" d="M263 28C264.657 28 266 26.6569 266 25C266 23.3431 264.657 22 263 22C261.343 22 260 23.3431 260 25C260 26.6569 261.343 28 263 28Z" fill="black"/>
</g>
<mask id="mask1_77_4771" style="mask-type:luminance" maskUnits="userSpaceOnUse" x="281" y="13" width="12" height="12">
<path fill-rule="evenodd" clip-rule="evenodd" d="M293 25V13L281 25H293Z" fill="white"/>
</mask>
<g mask="url(#mask1_77_4771)">
<path fill-rule="evenodd" clip-rule="evenodd" d="M290 13V25H293V13H290Z" fill="black" fill-opacity="0.1"/>
<path fill-rule="evenodd" clip-rule="evenodd" d="M287 13V25H290V13H287Z" fill="black" fill-opacity="0.1"/>
<path fill-rule="evenodd" clip-rule="evenodd" d="M284 13V25H287V13H284Z" fill="black"/>
<path fill-rule="evenodd" clip-rule="evenodd" d="M281 13V25H284V13H281Z" fill="black"/>
</g>
<path d="M306.107 19.1011L305.167 18.8599L305.631 14.2578H310.373V15.3433H306.627L306.348 17.8569C306.517 17.7596 306.731 17.6686 306.989 17.584C307.252 17.4993 307.552 17.457 307.891 17.457C308.318 17.457 308.701 17.5311 309.04 17.6792C309.378 17.8231 309.666 18.0304 309.903 18.3013C310.144 18.5721 310.328 18.8979 310.455 19.2788C310.582 19.6597 310.646 20.085 310.646 20.5547C310.646 20.999 310.584 21.4074 310.461 21.7798C310.343 22.1522 310.163 22.478 309.922 22.7573C309.681 23.0324 309.376 23.2461 309.008 23.3984C308.644 23.5508 308.214 23.627 307.719 23.627C307.347 23.627 306.993 23.5762 306.659 23.4746C306.329 23.3688 306.033 23.2101 305.771 22.9985C305.512 22.7827 305.301 22.5161 305.136 22.1987C304.975 21.8771 304.873 21.5005 304.831 21.0688H305.948C305.999 21.4159 306.101 21.7078 306.253 21.9448C306.405 22.1818 306.604 22.3617 306.85 22.4844C307.099 22.6029 307.389 22.6621 307.719 22.6621C307.999 22.6621 308.246 22.6134 308.462 22.5161C308.678 22.4188 308.86 22.2791 309.008 22.0972C309.156 21.9152 309.268 21.6951 309.344 21.437C309.425 21.1789 309.465 20.889 309.465 20.5674C309.465 20.2754 309.425 20.0046 309.344 19.7549C309.264 19.5052 309.143 19.2873 308.982 19.1011C308.826 18.9149 308.633 18.771 308.405 18.6694C308.176 18.5636 307.914 18.5107 307.618 18.5107C307.224 18.5107 306.926 18.5636 306.723 18.6694C306.524 18.7752 306.319 18.9191 306.107 19.1011ZM317.736 18.1426V19.5518C317.736 20.3092 317.668 20.9482 317.533 21.4688C317.397 21.9893 317.203 22.4082 316.949 22.7256C316.695 23.043 316.388 23.2736 316.028 23.4175C315.673 23.5571 315.271 23.627 314.822 23.627C314.467 23.627 314.139 23.5825 313.838 23.4937C313.538 23.4048 313.267 23.263 313.026 23.0684C312.789 22.8695 312.586 22.6113 312.417 22.2939C312.247 21.9766 312.118 21.5915 312.029 21.1387C311.94 20.6859 311.896 20.1569 311.896 19.5518V18.1426C311.896 17.3851 311.964 16.7503 312.099 16.2383C312.239 15.7262 312.436 15.3158 312.689 15.0068C312.943 14.6937 313.248 14.4694 313.604 14.334C313.963 14.1986 314.365 14.1309 314.81 14.1309C315.169 14.1309 315.499 14.1753 315.8 14.2642C316.104 14.3488 316.375 14.4863 316.612 14.6768C316.849 14.863 317.05 15.1126 317.215 15.4258C317.385 15.7347 317.514 16.1134 317.603 16.562C317.691 17.0106 317.736 17.5374 317.736 18.1426ZM316.555 19.7422V17.9458C316.555 17.5311 316.53 17.1672 316.479 16.854C316.432 16.5366 316.363 16.2658 316.27 16.0415C316.176 15.8172 316.058 15.6353 315.914 15.4956C315.774 15.356 315.611 15.2544 315.425 15.1909C315.243 15.1232 315.038 15.0894 314.81 15.0894C314.53 15.0894 314.283 15.1423 314.067 15.248C313.851 15.3496 313.669 15.5125 313.521 15.7368C313.377 15.9611 313.267 16.2552 313.191 16.6191C313.115 16.9831 313.077 17.4253 313.077 17.9458V19.7422C313.077 20.1569 313.1 20.5229 313.146 20.8403C313.197 21.1577 313.271 21.4328 313.369 21.6655C313.466 21.894 313.584 22.0824 313.724 22.2305C313.864 22.3786 314.025 22.4886 314.207 22.5605C314.393 22.6283 314.598 22.6621 314.822 22.6621C315.11 22.6621 315.362 22.6071 315.578 22.4971C315.793 22.387 315.973 22.2157 316.117 21.9829C316.265 21.7459 316.375 21.4434 316.447 21.0752C316.519 20.7028 316.555 20.2585 316.555 19.7422ZM319.145 16.5239V16.0352C319.145 15.6839 319.221 15.3644 319.374 15.0767C319.526 14.7889 319.744 14.5583 320.027 14.3848C320.311 14.2113 320.647 14.1245 321.037 14.1245C321.434 14.1245 321.773 14.2113 322.052 14.3848C322.336 14.5583 322.554 14.7889 322.706 15.0767C322.858 15.3644 322.935 15.6839 322.935 16.0352V16.5239C322.935 16.8667 322.858 17.182 322.706 17.4697C322.558 17.7575 322.342 17.9881 322.059 18.1616C321.779 18.3351 321.443 18.4219 321.049 18.4219C320.656 18.4219 320.315 18.3351 320.027 18.1616C319.744 17.9881 319.526 17.7575 319.374 17.4697C319.221 17.182 319.145 16.8667 319.145 16.5239ZM320.027 16.0352V16.5239C320.027 16.7186 320.063 16.9027 320.135 17.0762C320.211 17.2497 320.326 17.3914 320.478 17.5015C320.63 17.6073 320.821 17.6602 321.049 17.6602C321.278 17.6602 321.466 17.6073 321.614 17.5015C321.762 17.3914 321.872 17.2497 321.944 17.0762C322.016 16.9027 322.052 16.7186 322.052 16.5239V16.0352C322.052 15.8363 322.014 15.6501 321.938 15.4766C321.866 15.2988 321.754 15.1571 321.602 15.0513C321.453 14.9412 321.265 14.8862 321.037 14.8862C320.812 14.8862 320.624 14.9412 320.472 15.0513C320.324 15.1571 320.211 15.2988 320.135 15.4766C320.063 15.6501 320.027 15.8363 320.027 16.0352ZM323.646 21.729V21.2339C323.646 20.8869 323.722 20.5695 323.874 20.2817C324.026 19.994 324.244 19.7633 324.528 19.5898C324.811 19.4163 325.148 19.3296 325.537 19.3296C325.935 19.3296 326.273 19.4163 326.553 19.5898C326.836 19.7633 327.054 19.994 327.207 20.2817C327.359 20.5695 327.435 20.8869 327.435 21.2339V21.729C327.435 22.076 327.359 22.3934 327.207 22.6812C327.058 22.9689 326.843 23.1995 326.559 23.373C326.28 23.5465 325.943 23.6333 325.55 23.6333C325.156 23.6333 324.818 23.5465 324.534 23.373C324.251 23.1995 324.031 22.9689 323.874 22.6812C323.722 22.3934 323.646 22.076 323.646 21.729ZM324.528 21.2339V21.729C324.528 21.9237 324.564 22.1099 324.636 22.2876C324.712 22.4611 324.826 22.6029 324.979 22.7129C325.131 22.8187 325.321 22.8716 325.55 22.8716C325.778 22.8716 325.967 22.8187 326.115 22.7129C326.267 22.6029 326.379 22.4611 326.451 22.2876C326.523 22.1141 326.559 21.9279 326.559 21.729V21.2339C326.559 21.035 326.521 20.8488 326.445 20.6753C326.373 20.5018 326.261 20.3621 326.108 20.2563C325.96 20.1463 325.77 20.0913 325.537 20.0913C325.313 20.0913 325.125 20.1463 324.972 20.2563C324.824 20.3621 324.712 20.5018 324.636 20.6753C324.564 20.8488 324.528 21.035 324.528 21.2339ZM325.829 15.5718L321.316 22.7954L320.656 22.3765L325.169 15.1528L325.829 15.5718Z" fill="black"/>
<mask id="mask2_77_4771" style="mask-type:luminance" maskUnits="userSpaceOnUse" x="332" y="11" width="8" height="14">
<path fill-rule="evenodd" clip-rule="evenodd" d="M339 12.5H338V11.5H334V12.5H333C332.4 12.5 332 12.9 332 13.5V23.5C332 24.1 332.4 24.5 333 24.5H339C339.6 24.5 340 24.1 340 23.5V13.5C340 12.9 339.6 12.5 339 12.5Z" fill="white"/>
</mask>
<g mask="url(#mask2_77_4771)">
<path fill-rule="evenodd" clip-rule="evenodd" d="M332 21.5V24.5H340V21.5H332Z" fill="black"/>
<path fill-rule="evenodd" clip-rule="evenodd" d="M332 18.5V21.5H340V18.5H332Z" fill="black"/>
<path fill-rule="evenodd" clip-rule="evenodd" d="M332 15.5V18.5H340V15.5H332Z" fill="black" fill-opacity="0.1"/>
<path fill-rule="evenodd" clip-rule="evenodd" d="M332 12.5V15.5H340V12.5H332Z" fill="black" fill-opacity="0.1"/>
<path fill-rule="evenodd" clip-rule="evenodd" d="M334 11.5V12.5H338V11.5H334Z" fill="black" fill-opacity="0.1"/>
</g>
<rect width="360" height="56" transform="translate(4 35)" fill="white"/>
<path fill-rule="evenodd" clip-rule="evenodd" d="M34.7115 64.5239L26.5366 57L18.2885 64.484C17.9207 64.815 17.9021 65.3695 18.2469 65.7225C18.5918 66.0756 19.1695 66.0935 19.5373 65.7625L20.0445 65.3017V71.1501C20.0445 72.1718 20.9074 73 21.9718 73H31.1012C32.1657 73 33.0286 72.1718 33.0286 71.1501V65.4013L33.4627 65.8025C33.8305 66.1334 34.4083 66.1156 34.7531 65.7625C35.098 65.4095 35.0793 64.8549 34.7115 64.5239ZM31.2027 63.714L26.5366 59.4022L21.8704 63.6425V71.1501C21.8704 71.2039 21.9158 71.2475 21.9718 71.2475H31.1012C31.1573 71.2475 31.2027 71.2039 31.2027 71.1501V63.714Z" fill="#3D4043"/>
<rect x="49" y="47" width="233" height="36" rx="18" fill="#F1F3F4"/>
<path d="M70.75 62.8333H70.125V61.5952C70.125 59.8867 68.725 58.5 67 58.5C65.275 58.5 63.875 59.8867 63.875 61.5952V62.8333H63.25C62.5625 62.8333 62 63.3905 62 64.0714V70.2619C62 70.9429 62.5625 71.5 63.25 71.5H70.75C71.4375 71.5 72 70.9429 72 70.2619V64.0714C72 63.3905 71.4375 62.8333 70.75 62.8333ZM65.125 62.8333V61.5952C65.125 60.5676 65.9625 59.7381 67 59.7381C68.0375 59.7381 68.875 60.5676 68.875 61.5952V62.8333H65.125Z" fill="black"/>
<path d="M84.8418 70.5H83.4868V61.8867C83.4868 61.2861 83.604 60.7783 83.8384 60.3633C84.0728 59.9482 84.4072 59.6333 84.8418 59.4185C85.2764 59.2036 85.7915 59.0962 86.3872 59.0962C86.7388 59.0962 87.083 59.1401 87.4199 59.228C87.7568 59.311 88.1035 59.416 88.46 59.543L88.2329 60.6855C88.0083 60.5977 87.7471 60.5146 87.4492 60.4365C87.1562 60.3535 86.834 60.312 86.4824 60.312C85.9014 60.312 85.4814 60.4438 85.2227 60.7075C84.9688 60.9663 84.8418 61.3594 84.8418 61.8867V70.5ZM86.4604 62.5752V63.6152H82.2344V62.5752H86.4604ZM89.1265 62.5752V70.5H87.7715V62.5752H89.1265ZM96.4873 62.5752H97.7178V70.3315C97.7178 71.0298 97.5762 71.6255 97.293 72.1187C97.0098 72.6118 96.6143 72.9854 96.1064 73.2393C95.6035 73.498 95.0225 73.6274 94.3633 73.6274C94.0898 73.6274 93.7676 73.5835 93.3965 73.4956C93.0303 73.4126 92.6689 73.2686 92.3125 73.0635C91.9609 72.8633 91.6655 72.5923 91.4263 72.2505L92.1367 71.4448C92.4688 71.8452 92.8154 72.1235 93.1768 72.2798C93.543 72.436 93.9043 72.5142 94.2607 72.5142C94.6904 72.5142 95.0615 72.4336 95.374 72.2725C95.6865 72.1113 95.9282 71.8721 96.0991 71.5547C96.2749 71.2422 96.3628 70.8564 96.3628 70.3975V64.3184L96.4873 62.5752ZM91.0308 66.6255V66.4717C91.0308 65.8662 91.1016 65.3169 91.2432 64.8237C91.3896 64.3257 91.5972 63.8984 91.8657 63.542C92.1392 63.1855 92.4688 62.9121 92.8545 62.7217C93.2402 62.5264 93.6748 62.4287 94.1582 62.4287C94.6562 62.4287 95.0908 62.5166 95.4619 62.6924C95.8379 62.8633 96.1553 63.1147 96.4141 63.4468C96.6777 63.7739 96.8853 64.1694 97.0366 64.6333C97.188 65.0972 97.293 65.6221 97.3516 66.208V66.8818C97.2979 67.4629 97.1929 67.9854 97.0366 68.4492C96.8853 68.9131 96.6777 69.3086 96.4141 69.6357C96.1553 69.9629 95.8379 70.2144 95.4619 70.3901C95.0859 70.561 94.6465 70.6465 94.1436 70.6465C93.6699 70.6465 93.2402 70.5464 92.8545 70.3462C92.4736 70.146 92.1465 69.8652 91.873 69.5039C91.5996 69.1426 91.3896 68.7178 91.2432 68.2295C91.1016 67.7363 91.0308 67.2017 91.0308 66.6255ZM92.3857 66.4717V66.6255C92.3857 67.021 92.4248 67.3921 92.5029 67.7388C92.5859 68.0854 92.7104 68.3906 92.8765 68.6543C93.0474 68.918 93.2646 69.1255 93.5283 69.2769C93.792 69.4233 94.1069 69.4966 94.4731 69.4966C94.9224 69.4966 95.2935 69.4014 95.5864 69.2109C95.8794 69.0205 96.1113 68.769 96.2822 68.4565C96.458 68.144 96.5947 67.8047 96.6924 67.4385V65.6733C96.6387 65.4048 96.5557 65.146 96.4434 64.897C96.3359 64.6431 96.1943 64.4185 96.0186 64.2231C95.8477 64.0229 95.6353 63.8643 95.3813 63.7471C95.1274 63.6299 94.8296 63.5713 94.4878 63.5713C94.1167 63.5713 93.7969 63.6494 93.5283 63.8057C93.2646 63.957 93.0474 64.167 92.8765 64.4355C92.7104 64.6992 92.5859 65.0068 92.5029 65.3584C92.4248 65.7051 92.3857 66.0762 92.3857 66.4717ZM101.124 64.1499V70.5H99.7612V62.5752H101.05L101.124 64.1499ZM100.845 66.2373L100.215 66.2153C100.22 65.6733 100.291 65.1729 100.428 64.7139C100.564 64.25 100.767 63.8472 101.036 63.5054C101.304 63.1636 101.639 62.8999 102.039 62.7144C102.439 62.5239 102.903 62.4287 103.431 62.4287C103.802 62.4287 104.144 62.4824 104.456 62.5898C104.769 62.6924 105.04 62.856 105.269 63.0806C105.499 63.3052 105.677 63.5933 105.804 63.9448C105.931 64.2964 105.994 64.7212 105.994 65.2192V70.5H104.639V65.2852C104.639 64.8701 104.568 64.5381 104.427 64.2891C104.29 64.04 104.095 63.8594 103.841 63.7471C103.587 63.6299 103.289 63.5713 102.947 63.5713C102.547 63.5713 102.212 63.6421 101.944 63.7837C101.675 63.9253 101.46 64.1206 101.299 64.3696C101.138 64.6187 101.021 64.9043 100.948 65.2266C100.879 65.5439 100.845 65.8809 100.845 66.2373ZM105.979 65.4902L105.071 65.7686C105.076 65.334 105.147 64.9165 105.284 64.5161C105.425 64.1157 105.628 63.7593 105.892 63.4468C106.16 63.1343 106.49 62.8877 106.88 62.707C107.271 62.5215 107.718 62.4287 108.221 62.4287C108.646 62.4287 109.021 62.4849 109.349 62.5972C109.681 62.7095 109.959 62.8828 110.184 63.1172C110.413 63.3467 110.586 63.6421 110.704 64.0034C110.821 64.3647 110.879 64.7944 110.879 65.2925V70.5H109.517V65.2778C109.517 64.8335 109.446 64.4893 109.305 64.2451C109.168 63.9961 108.973 63.8228 108.719 63.7251C108.47 63.6226 108.172 63.5713 107.825 63.5713C107.527 63.5713 107.264 63.6226 107.034 63.7251C106.805 63.8276 106.612 63.9692 106.456 64.1499C106.299 64.3257 106.18 64.5283 106.097 64.7578C106.019 64.9873 105.979 65.2314 105.979 65.4902ZM117.603 69.145V65.0654C117.603 64.7529 117.54 64.4819 117.413 64.2524C117.291 64.0181 117.105 63.8374 116.856 63.7104C116.607 63.5835 116.299 63.52 115.933 63.52C115.591 63.52 115.291 63.5786 115.032 63.6958C114.778 63.813 114.578 63.9668 114.432 64.1572C114.29 64.3477 114.219 64.5527 114.219 64.7725H112.864C112.864 64.4893 112.938 64.2085 113.084 63.9302C113.23 63.6519 113.44 63.4004 113.714 63.1758C113.992 62.9463 114.324 62.7656 114.71 62.6338C115.101 62.4971 115.535 62.4287 116.014 62.4287C116.59 62.4287 117.098 62.5264 117.537 62.7217C117.981 62.917 118.328 63.2124 118.577 63.6079C118.831 63.9985 118.958 64.4893 118.958 65.0801V68.7715C118.958 69.0352 118.98 69.3159 119.024 69.6138C119.073 69.9116 119.144 70.168 119.236 70.3828V70.5H117.823C117.754 70.3438 117.701 70.1362 117.662 69.8774C117.623 69.6138 117.603 69.3696 117.603 69.145ZM117.837 65.6953L117.852 66.6475H116.482C116.097 66.6475 115.752 66.6792 115.45 66.7427C115.147 66.8013 114.893 66.8916 114.688 67.0137C114.483 67.1357 114.327 67.2896 114.219 67.4751C114.112 67.6558 114.058 67.8682 114.058 68.1123C114.058 68.3613 114.114 68.5884 114.227 68.7935C114.339 68.9985 114.507 69.1621 114.732 69.2842C114.961 69.4014 115.242 69.46 115.574 69.46C115.989 69.46 116.355 69.3721 116.673 69.1963C116.99 69.0205 117.242 68.8057 117.427 68.5518C117.618 68.2979 117.72 68.0513 117.735 67.812L118.313 68.4639C118.279 68.6689 118.187 68.896 118.035 69.145C117.884 69.394 117.681 69.6333 117.427 69.8628C117.178 70.0874 116.88 70.2754 116.534 70.4268C116.192 70.5732 115.806 70.6465 115.376 70.6465C114.839 70.6465 114.368 70.5415 113.963 70.3315C113.562 70.1216 113.25 69.8408 113.025 69.4893C112.806 69.1328 112.696 68.7349 112.696 68.2954C112.696 67.8706 112.779 67.4971 112.945 67.1748C113.111 66.8477 113.35 66.5767 113.663 66.3618C113.975 66.1421 114.351 65.9761 114.791 65.8638C115.23 65.7515 115.721 65.6953 116.263 65.6953H117.837ZM121.111 69.7822C121.111 69.5527 121.182 69.3599 121.324 69.2036C121.47 69.0425 121.68 68.9619 121.954 68.9619C122.227 68.9619 122.435 69.0425 122.576 69.2036C122.723 69.3599 122.796 69.5527 122.796 69.7822C122.796 70.0068 122.723 70.1973 122.576 70.3535C122.435 70.5098 122.227 70.5879 121.954 70.5879C121.68 70.5879 121.47 70.5098 121.324 70.3535C121.182 70.1973 121.111 70.0068 121.111 69.7822ZM128.216 69.5332C128.538 69.5332 128.836 69.4673 129.109 69.3354C129.383 69.2036 129.607 69.0229 129.783 68.7935C129.959 68.5591 130.059 68.293 130.083 67.9951H131.373C131.348 68.4639 131.189 68.9009 130.896 69.3062C130.608 69.7065 130.23 70.0312 129.761 70.2803C129.292 70.5244 128.777 70.6465 128.216 70.6465C127.62 70.6465 127.1 70.5415 126.656 70.3315C126.216 70.1216 125.85 69.8335 125.557 69.4673C125.269 69.1011 125.052 68.6812 124.905 68.2075C124.764 67.729 124.693 67.2236 124.693 66.6914V66.3838C124.693 65.8516 124.764 65.3486 124.905 64.875C125.052 64.3965 125.269 63.9741 125.557 63.6079C125.85 63.2417 126.216 62.9536 126.656 62.7437C127.1 62.5337 127.62 62.4287 128.216 62.4287C128.836 62.4287 129.378 62.5557 129.842 62.8096C130.306 63.0586 130.669 63.4004 130.933 63.835C131.202 64.2646 131.348 64.7529 131.373 65.2998H130.083C130.059 64.9727 129.966 64.6772 129.805 64.4136C129.649 64.1499 129.434 63.9399 129.161 63.7837C128.892 63.6226 128.577 63.542 128.216 63.542C127.801 63.542 127.452 63.625 127.168 63.791C126.89 63.9521 126.668 64.1719 126.502 64.4502C126.341 64.7236 126.224 65.0288 126.15 65.3657C126.082 65.6978 126.048 66.0371 126.048 66.3838V66.6914C126.048 67.0381 126.082 67.3799 126.15 67.7168C126.219 68.0537 126.333 68.3589 126.495 68.6323C126.661 68.9058 126.883 69.1255 127.161 69.2915C127.444 69.4526 127.796 69.5332 128.216 69.5332ZM132.537 66.6255V66.457C132.537 65.8857 132.62 65.356 132.786 64.8677C132.952 64.3745 133.191 63.9473 133.504 63.5859C133.816 63.2197 134.195 62.9365 134.639 62.7363C135.083 62.5312 135.582 62.4287 136.133 62.4287C136.69 62.4287 137.19 62.5312 137.635 62.7363C138.084 62.9365 138.465 63.2197 138.777 63.5859C139.095 63.9473 139.336 64.3745 139.502 64.8677C139.668 65.356 139.751 65.8857 139.751 66.457V66.6255C139.751 67.1968 139.668 67.7266 139.502 68.2148C139.336 68.7031 139.095 69.1304 138.777 69.4966C138.465 69.8579 138.086 70.1411 137.642 70.3462C137.203 70.5464 136.705 70.6465 136.148 70.6465C135.591 70.6465 135.091 70.5464 134.646 70.3462C134.202 70.1411 133.821 69.8579 133.504 69.4966C133.191 69.1304 132.952 68.7031 132.786 68.2148C132.62 67.7266 132.537 67.1968 132.537 66.6255ZM133.892 66.457V66.6255C133.892 67.021 133.938 67.3945 134.031 67.7461C134.124 68.0928 134.263 68.4004 134.449 68.6689C134.639 68.9375 134.876 69.1499 135.159 69.3062C135.442 69.4575 135.772 69.5332 136.148 69.5332C136.519 69.5332 136.844 69.4575 137.122 69.3062C137.405 69.1499 137.64 68.9375 137.825 68.6689C138.011 68.4004 138.15 68.0928 138.243 67.7461C138.34 67.3945 138.389 67.021 138.389 66.6255V66.457C138.389 66.0664 138.34 65.6978 138.243 65.3511C138.15 64.9995 138.008 64.6895 137.818 64.4209C137.632 64.1475 137.398 63.9326 137.115 63.7764C136.836 63.6201 136.509 63.542 136.133 63.542C135.762 63.542 135.435 63.6201 135.152 63.7764C134.874 63.9326 134.639 64.1475 134.449 64.4209C134.263 64.6895 134.124 64.9995 134.031 65.3511C133.938 65.6978 133.892 66.0664 133.892 66.457ZM142.798 64.1499V70.5H141.436V62.5752H142.725L142.798 64.1499ZM142.52 66.2373L141.89 66.2153C141.895 65.6733 141.966 65.1729 142.103 64.7139C142.239 64.25 142.442 63.8472 142.71 63.5054C142.979 63.1636 143.313 62.8999 143.714 62.7144C144.114 62.5239 144.578 62.4287 145.105 62.4287C145.477 62.4287 145.818 62.4824 146.131 62.5898C146.443 62.6924 146.714 62.856 146.944 63.0806C147.173 63.3052 147.352 63.5933 147.479 63.9448C147.605 64.2964 147.669 64.7212 147.669 65.2192V70.5H146.314V65.2852C146.314 64.8701 146.243 64.5381 146.102 64.2891C145.965 64.04 145.77 63.8594 145.516 63.7471C145.262 63.6299 144.964 63.5713 144.622 63.5713C144.222 63.5713 143.887 63.6421 143.619 63.7837C143.35 63.9253 143.135 64.1206 142.974 64.3696C142.813 64.6187 142.696 64.9043 142.623 65.2266C142.554 65.5439 142.52 65.8809 142.52 66.2373ZM147.654 65.4902L146.746 65.7686C146.751 65.334 146.822 64.9165 146.958 64.5161C147.1 64.1157 147.303 63.7593 147.566 63.4468C147.835 63.1343 148.165 62.8877 148.555 62.707C148.946 62.5215 149.393 62.4287 149.896 62.4287C150.32 62.4287 150.696 62.4849 151.023 62.5972C151.355 62.7095 151.634 62.8828 151.858 63.1172C152.088 63.3467 152.261 63.6421 152.378 64.0034C152.496 64.3647 152.554 64.7944 152.554 65.2925V70.5H151.192V65.2778C151.192 64.8335 151.121 64.4893 150.979 64.2451C150.843 63.9961 150.647 63.8228 150.394 63.7251C150.145 63.6226 149.847 63.5713 149.5 63.5713C149.202 63.5713 148.938 63.6226 148.709 63.7251C148.479 63.8276 148.287 63.9692 148.13 64.1499C147.974 64.3257 147.854 64.5283 147.771 64.7578C147.693 64.9873 147.654 65.2314 147.654 65.4902Z" fill="black"/>
<path fill-rule="evenodd" clip-rule="evenodd" d="M300.685 56.75C298.407 56.75 296.56 58.6738 296.56 61.0469V68.9531C296.56 71.3262 298.407 73.25 300.685 73.25H308.275C310.553 73.25 312.4 71.3262 312.4 68.9531V61.0469C312.4 58.6738 310.553 56.75 308.275 56.75H300.685ZM298.21 61.0469C298.21 59.623 299.318 58.4688 300.685 58.4688H308.275C309.642 58.4688 310.75 59.623 310.75 61.0469V68.9531C310.75 70.377 309.642 71.5312 308.275 71.5312H300.685C299.318 71.5312 298.21 70.377 298.21 68.9531V61.0469ZM304.161 68.9995H305.409V61.1523H305.249L302.32 62.2749V63.376L304.161 62.7207V68.9995Z" fill="#3D4043"/>
<g clip-path="url(#clip1_77_4771)">
<path d="M339 61C340.1 61 341 60.1 341 59C341 57.9 340.1 57 339 57C337.9 57 337 57.9 337 59C337 60.1 337.9 61 339 61ZM339 63C337.9 63 337 63.9 337 65C337 66.1 337.9 67 339 67C340.1 67 341 66.1 341 65C341 63.9 340.1 63 339 63ZM339 69C337.9 69 337 69.9 337 71C337 72.1 337.9 73 339 73C340.1 73 341 72.1 341 71C341 69.9 340.1 69 339 69Z" fill="#3D4043"/>
</g>
</g>
<path d="M364 90H4V92H364V90Z" fill="#F1F3F4" mask="url(#path-1-inside-1_77_4771)"/>
</g>
<defs>
<filter id="filter0_d_77_4771" x="0" y="0" width="368" height="96" filterUnits="userSpaceOnUse" color-interpolation-filters="sRGB">
<feFlood flood-opacity="0" result="BackgroundImageFix"/>
<feColorMatrix in="SourceAlpha" type="matrix" values="0 0 0 0 0 0 0 0 0 0 0 0 0 0 0 0 0 0 127 0" result="hardAlpha"/>
<feOffset dy="1"/>
<feGaussianBlur stdDeviation="2"/>
<feComposite in2="hardAlpha" operator="out"/>
<feColorMatrix type="matrix" values="0 0 0 0 0 0 0 0 0 0 0 0 0 0 0 0 0 0 0.1 0"/>
<feBlend mode="normal" in2="BackgroundImageFix" result="effect1_dropShadow_77_4771"/>
<feBlend mode="normal" in="SourceGraphic" in2="effect1_dropShadow_77_4771" result="shape"/>
</filter>
<clipPath id="clip0_77_4771">
<path d="M4 3H364V91H4V3Z" fill="white"/>
</clipPath>
<clipPath id="clip1_77_4771">
<rect width="24" height="24" fill="white" transform="translate(327 53)"/>
</clipPath>
</defs>
</svg>
