<svg width="375" height="54" viewBox="0 0 375 54" fill="none" xmlns="http://www.w3.org/2000/svg">
<g clip-path="url(#clip0_5_211)">
<path d="M375 0H0V54H375V0Z" fill="white"/>
<path d="M347 9H29C19.0589 9 11 17.0589 11 27C11 36.9411 19.0589 45 29 45H347C356.941 45 365 36.9411 365 27C365 17.0589 356.941 9 347 9Z" fill="#E8EAED"/>
<path d="M341.004 29.9156C341.463 29.9156 341.835 29.5141 341.835 29.0539V20.763L341.764 19.5331L342.215 20.169L343.252 21.3319C343.386 21.4908 343.592 21.5829 343.79 21.5829C344.186 21.5829 344.518 21.2733 344.518 20.8383C344.518 20.6207 344.439 20.4534 344.296 20.2944L341.653 17.6089C341.432 17.383 341.226 17.3077 341.004 17.3077C340.79 17.3077 340.577 17.383 340.363 17.6089L337.72 20.2944C337.569 20.4534 337.49 20.6207 337.49 20.8383C337.49 21.2733 337.823 21.5829 338.21 21.5829C338.416 21.5829 338.622 21.4908 338.764 21.3319L339.793 20.169L340.252 19.5331L340.181 20.763V29.0539C340.181 29.5141 340.545 29.9156 341.004 29.9156ZM336.43 36.6923H345.571C347.336 36.6923 348.269 35.7051 348.269 33.8561V25.7325C348.269 23.8836 347.336 22.8964 345.571 22.8964H343.489V24.8122H345.404C346.085 24.8122 346.465 25.1803 346.465 25.9417V33.6554C346.465 34.4083 346.085 34.7764 345.404 34.7764H336.596C335.907 34.7764 335.543 34.4083 335.543 33.6554V25.9417C335.543 25.1803 335.907 24.8122 336.596 24.8122H338.543V22.8964H336.43C334.673 22.8964 333.731 23.8836 333.731 25.7325V33.8561C333.731 35.7051 334.673 36.6923 336.43 36.6923Z" fill="#9AA0A6"/>
<path d="M117.181 32.8932H122.647C123.388 32.8932 123.75 32.5157 123.75 31.6899V27.3605C123.75 26.6173 123.451 26.2339 122.837 26.169V24.6826C122.837 22.4589 121.419 21.3854 119.914 21.3854C118.41 21.3854 116.991 22.4589 116.991 24.6826V26.1985C116.428 26.287 116.078 26.6645 116.078 27.3605V31.6899C116.078 32.5157 116.44 32.8932 117.181 32.8932ZM117.916 24.5588C117.916 23.0783 118.84 22.2938 119.914 22.2938C120.988 22.2938 121.912 23.0783 121.912 24.5588V26.1631L117.916 26.169V24.5588Z" fill="black"/>
<path d="M139.15 33.1758C141.189 33.1758 142.701 32.0508 142.701 30.4512V30.4424C142.701 29.1416 142.033 28.4121 140.188 27.9639L138.737 27.6123C137.727 27.3662 137.313 26.9355 137.313 26.3115V26.3027C137.313 25.4941 137.999 24.958 139.106 24.958C140.24 24.958 140.917 25.5469 141.04 26.4346L141.049 26.4961H142.508L142.499 26.3818C142.385 24.8525 141.11 23.6836 139.106 23.6836C137.129 23.6836 135.749 24.7998 135.749 26.373V26.3818C135.749 27.7002 136.584 28.5 138.307 28.9131L139.757 29.2646C140.794 29.5195 141.137 29.8887 141.137 30.5479V30.5566C141.137 31.3828 140.398 31.9014 139.159 31.9014C137.911 31.9014 137.234 31.3652 137.05 30.4512L137.032 30.3633H135.503L135.512 30.4424C135.696 32.0771 136.997 33.1758 139.15 33.1758ZM147.263 33.1758C147.562 33.1758 147.887 33.1406 148.08 33.1143V31.875C147.948 31.8838 147.772 31.9102 147.588 31.9102C146.771 31.9102 146.34 31.6377 146.34 30.6621V25.125H148.08V23.8594H146.34V21.3896H144.758V23.8594H143.422V25.125H144.758V30.6709C144.758 32.4199 145.584 33.1758 147.263 33.1758ZM153.248 33.1758C155.771 33.1758 157.476 31.3477 157.476 28.4297V28.4121C157.476 25.4941 155.762 23.6836 153.239 23.6836C150.717 23.6836 149.012 25.5029 149.012 28.4121V28.4297C149.012 31.3389 150.708 33.1758 153.248 33.1758ZM153.257 31.8223C151.64 31.8223 150.576 30.583 150.576 28.4297V28.4121C150.576 26.2764 151.648 25.0371 153.239 25.0371C154.856 25.0371 155.911 26.2676 155.911 28.4121V28.4297C155.911 30.5742 154.865 31.8223 153.257 31.8223ZM159.022 33H160.552V27.3574C160.552 25.9688 161.325 25.1426 162.512 25.1426C162.881 25.1426 163.206 25.1865 163.329 25.2305V23.7451C163.206 23.7275 162.978 23.6836 162.714 23.6836C161.686 23.6836 160.895 24.3516 160.587 25.4062H160.552V23.8594H159.022V33ZM167.899 33.1758C169.895 33.1758 171.389 31.9805 171.688 30.4688L171.705 30.3809H170.202L170.176 30.46C169.912 31.2422 169.095 31.8223 167.935 31.8223C166.309 31.8223 165.271 30.7236 165.236 28.8428H171.819V28.2803C171.819 25.5381 170.299 23.6836 167.803 23.6836C165.307 23.6836 163.689 25.626 163.689 28.4561V28.4648C163.689 31.3389 165.271 33.1758 167.899 33.1758ZM167.794 25.0371C169.13 25.0371 170.114 25.8721 170.264 27.6475H165.263C165.43 25.9424 166.467 25.0371 167.794 25.0371ZM174.307 33.123C174.869 33.123 175.309 32.6836 175.309 32.1211C175.309 31.5586 174.869 31.1191 174.307 31.1191C173.744 31.1191 173.305 31.5586 173.305 32.1211C173.305 32.6836 173.744 33.123 174.307 33.123ZM180.573 36.252C183.052 36.252 184.607 34.8633 184.607 32.7451V23.8594H183.078V25.4062H183.043C182.48 24.3867 181.461 23.6836 180.169 23.6836C177.849 23.6836 176.258 25.5293 176.258 28.3682V28.377C176.258 31.2334 177.831 33.0879 180.134 33.0879C181.443 33.0879 182.498 32.4375 183.043 31.4268H183.078V32.5957C183.078 34.0107 182.164 34.8984 180.556 34.8984C179.308 34.8984 178.438 34.4941 178.147 33.835L178.112 33.7559H176.574L176.592 33.835C176.891 35.1885 178.314 36.252 180.573 36.252ZM180.468 31.7344C178.842 31.7344 177.822 30.4512 177.822 28.377V28.3682C177.822 26.3379 178.842 25.0371 180.468 25.0371C182.015 25.0371 183.078 26.3555 183.078 28.3682V28.377C183.078 30.4072 182.023 31.7344 180.468 31.7344ZM190.373 33.1758C192.896 33.1758 194.601 31.3477 194.601 28.4297V28.4121C194.601 25.4941 192.887 23.6836 190.364 23.6836C187.842 23.6836 186.137 25.5029 186.137 28.4121V28.4297C186.137 31.3389 187.833 33.1758 190.373 33.1758ZM190.382 31.8223C188.765 31.8223 187.701 30.583 187.701 28.4297V28.4121C187.701 26.2764 188.773 25.0371 190.364 25.0371C191.981 25.0371 193.036 26.2676 193.036 28.4121V28.4297C193.036 30.5742 191.99 31.8223 190.382 31.8223ZM199.936 33.1758C202.458 33.1758 204.163 31.3477 204.163 28.4297V28.4121C204.163 25.4941 202.449 23.6836 199.927 23.6836C197.404 23.6836 195.699 25.5029 195.699 28.4121V28.4297C195.699 31.3389 197.396 33.1758 199.936 33.1758ZM199.944 31.8223C198.327 31.8223 197.264 30.583 197.264 28.4297V28.4121C197.264 26.2764 198.336 25.0371 199.927 25.0371C201.544 25.0371 202.599 26.2676 202.599 28.4121V28.4297C202.599 30.5742 201.553 31.8223 199.944 31.8223ZM209.577 36.252C212.056 36.252 213.611 34.8633 213.611 32.7451V23.8594H212.082V25.4062H212.047C211.484 24.3867 210.465 23.6836 209.173 23.6836C206.853 23.6836 205.262 25.5293 205.262 28.3682V28.377C205.262 31.2334 206.835 33.0879 209.138 33.0879C210.447 33.0879 211.502 32.4375 212.047 31.4268H212.082V32.5957C212.082 34.0107 211.168 34.8984 209.56 34.8984C208.312 34.8984 207.441 34.4941 207.151 33.835L207.116 33.7559H205.578L205.596 33.835C205.895 35.1885 207.318 36.252 209.577 36.252ZM209.472 31.7344C207.846 31.7344 206.826 30.4512 206.826 28.377V28.3682C206.826 26.3379 207.846 25.0371 209.472 25.0371C211.019 25.0371 212.082 26.3555 212.082 28.3682V28.377C212.082 30.4072 211.027 31.7344 209.472 31.7344ZM215.668 33H217.197V20.3174H215.668V33ZM223.024 33.1758C225.02 33.1758 226.514 31.9805 226.812 30.4688L226.83 30.3809H225.327L225.301 30.46C225.037 31.2422 224.22 31.8223 223.06 31.8223C221.434 31.8223 220.396 30.7236 220.361 28.8428H226.944V28.2803C226.944 25.5381 225.424 23.6836 222.928 23.6836C220.432 23.6836 218.814 25.626 218.814 28.4561V28.4648C218.814 31.3389 220.396 33.1758 223.024 33.1758ZM222.919 25.0371C224.255 25.0371 225.239 25.8721 225.389 27.6475H220.388C220.555 25.9424 221.592 25.0371 222.919 25.0371ZM229.432 33.123C229.994 33.123 230.434 32.6836 230.434 32.1211C230.434 31.5586 229.994 31.1191 229.432 31.1191C228.869 31.1191 228.43 31.5586 228.43 32.1211C228.43 32.6836 228.869 33.123 229.432 33.123ZM235.619 33.1758C237.685 33.1758 239.188 31.8311 239.434 30.0908L239.442 30.0293H237.939L237.922 30.0996C237.667 31.1191 236.867 31.8223 235.619 31.8223C234.037 31.8223 232.947 30.5654 232.947 28.4385V28.4297C232.947 26.3555 234.011 25.0371 235.602 25.0371C236.946 25.0371 237.685 25.8457 237.913 26.7598L237.931 26.8301H239.425L239.416 26.7598C239.223 25.1953 237.878 23.6836 235.602 23.6836C233.062 23.6836 231.383 25.5293 231.383 28.4121V28.4209C231.383 31.3301 233.026 33.1758 235.619 33.1758ZM244.637 33.1758C247.159 33.1758 248.864 31.3477 248.864 28.4297V28.4121C248.864 25.4941 247.15 23.6836 244.628 23.6836C242.105 23.6836 240.4 25.5029 240.4 28.4121V28.4297C240.4 31.3389 242.097 33.1758 244.637 33.1758ZM244.646 31.8223C243.028 31.8223 241.965 30.583 241.965 28.4297V28.4121C241.965 26.2764 243.037 25.0371 244.628 25.0371C246.245 25.0371 247.3 26.2676 247.3 28.4121V28.4297C247.3 30.5742 246.254 31.8223 244.646 31.8223ZM250.411 33H251.94V27.2695C251.94 25.9951 252.819 25.0371 254.032 25.0371C255.166 25.0371 255.904 25.7666 255.904 26.874V33H257.434V27.1904C257.434 25.9424 258.286 25.0371 259.499 25.0371C260.703 25.0371 261.397 25.7842 261.397 27.041V33H262.927V26.6895C262.927 24.8701 261.758 23.6836 259.947 23.6836C258.664 23.6836 257.592 24.3428 257.082 25.4414H257.047C256.651 24.3252 255.729 23.6836 254.48 23.6836C253.303 23.6836 252.389 24.29 251.976 25.1953H251.94V23.8594H250.411V33Z" fill="#202124"/>
</g>
<defs>
<clipPath id="clip0_5_211">
<rect width="375" height="54" fill="white"/>
</clipPath>
</defs>
</svg>
