<svg width="375" height="78" viewBox="0 0 375 78" fill="none" xmlns="http://www.w3.org/2000/svg">
<g clip-path="url(#clip0_5_193)">
<mask id="mask0_5_193" style="mask-type:luminance" maskUnits="userSpaceOnUse" x="0" y="-5" width="375" height="83">
<path d="M375 -5H0V78H375V-5Z" fill="white"/>
</mask>
<g mask="url(#mask0_5_193)">
<path d="M375 0.0112305H0V78.0001H375V0.0112305Z" fill="white"/>
<path d="M22 22.0064C22 22.3933 22.1786 22.7801 22.4945 23.0638L31.5594 31.5616C31.8891 31.8582 32.2462 32 32.6445 32C33.5098 32 34.1416 31.4197 34.1416 30.6331C34.1416 30.2205 33.9768 29.8723 33.6883 29.6144L30.598 26.6744L26.6149 23.2573L29.8151 23.4378H46.4617C47.3682 23.4378 48 22.8446 48 22.0064C48 21.1554 47.3682 20.5622 46.4617 20.5622H29.8151L26.6286 20.7427L30.598 17.3256L33.6883 14.3856C33.9768 14.1277 34.1416 13.7795 34.1416 13.3669C34.1416 12.5803 33.5098 12 32.6445 12C32.2462 12 31.8753 12.1418 31.5182 12.4642L22.4945 20.9362C22.1786 21.2199 22 21.6067 22 22.0064Z" fill="#80858A"/>
<path d="M122 22.0064C122 21.6067 121.821 21.2199 121.506 20.9362L112.482 12.4642C112.125 12.1418 111.754 12 111.369 12C110.49 12 109.858 12.5803 109.858 13.3669C109.858 13.7795 110.037 14.1277 110.312 14.3856L113.402 17.3256L117.385 20.7427L114.199 20.5622H97.552C96.6318 20.5622 96 21.1554 96 22.0064C96 22.8446 96.6318 23.4378 97.552 23.4378H114.199L117.385 23.2573L113.402 26.6744L110.312 29.6144C110.037 29.8723 109.858 30.2205 109.858 30.6331C109.858 31.4197 110.49 32 111.369 32C111.754 32 112.125 31.8582 112.454 31.5616L121.506 23.0638C121.821 22.7801 122 22.3933 122 22.0064Z" fill="#80858A"/>
<mask id="mask1_5_193" style="mask-type:luminance" maskUnits="userSpaceOnUse" x="170" y="4" width="36" height="36">
<path d="M206 4H170V40H206V4Z" fill="white"/>
</mask>
<g mask="url(#mask1_5_193)">
<path d="M188 40C197.941 40 206 31.9411 206 22C206 12.0589 197.941 4 188 4C178.059 4 170 12.0589 170 22C170 31.9411 178.059 40 188 40Z" fill="#E8EAED"/>
<path d="M177 22C177 22.8148 177.67 23.4719 178.472 23.4719H186.528V31.5281C186.528 32.3297 187.198 33 188 33C188.802 33 189.472 32.3297 189.472 31.5281V23.4719H197.528C198.33 23.4719 199 22.8148 199 22C199 21.1983 198.33 20.5281 197.528 20.5281H189.472V12.4719C189.472 11.6703 188.802 11 188 11C187.198 11 186.528 11.6703 186.528 12.4719V20.5281H178.472C177.67 20.5281 177 21.1983 177 22Z" fill="#80858A"/>
</g>
<path d="M267.8 27H269.622V25.3179H270.828V23.7881H269.622V17.8403H266.917L263.249 23.7183V25.3179H267.8V27ZM264.912 23.8389V23.7881L267.793 19.2241H267.838V23.8389H264.912Z" fill="#80858A"/>
<path d="M273 11H261C258.239 11 256 13.2386 256 16V27.9966C256 30.758 258.239 32.9966 261 32.9966H273C275.761 32.9966 278 30.758 278 27.9966V16C278 13.2386 275.761 11 273 11Z" stroke="#80858A" stroke-width="2"/>
<path fill-rule="evenodd" clip-rule="evenodd" d="M334 22C334 23.6569 332.657 25 331 25C329.343 25 328 23.6569 328 22C328 20.3431 329.343 19 331 19C332.657 19 334 20.3431 334 22ZM344 22C344 23.6569 342.657 25 341 25C339.343 25 338 23.6569 338 22C338 20.3431 339.343 19 341 19C342.657 19 344 20.3431 344 22ZM351 25C352.657 25 354 23.6569 354 22C354 20.3431 352.657 19 351 19C349.343 19 348 20.3431 348 22C348 23.6569 349.343 25 351 25Z" fill="#80858A"/>
</g>
</g>
<defs>
<clipPath id="clip0_5_193">
<rect width="375" height="78" fill="white"/>
</clipPath>
</defs>
</svg>
