<svg width="812" height="54" viewBox="0 0 812 54" fill="none" xmlns="http://www.w3.org/2000/svg">
<g clip-path="url(#clip0_746_5834)">
<g filter="url(#filter0_d_746_5834)">
<rect width="812" height="54" fill="white"/>
</g>
<rect x="217" y="9" width="376" height="36" rx="18" fill="#E8EAED"/>
<path fill-rule="evenodd" clip-rule="evenodd" d="M573.769 26.448C573.769 28.2409 572.6 29.4605 570.996 29.4605C569.392 29.4605 568.223 28.2409 568.223 26.448V21.0125C568.223 19.2276 569.392 18 570.996 18C572.6 18 573.769 19.2276 573.769 21.0125V26.448ZM565 26.6337C565 29.9531 567.157 32.2307 570.277 32.5376V36H571.723V32.5376C574.835 32.2307 577 29.9531 577 26.6337V25.0346H575.507V26.5772C575.507 29.3232 573.69 31.1404 570.996 31.1404C568.302 31.1404 566.485 29.3232 566.485 26.5772V25.0346H565V26.6337Z" fill="#9CA0A8"/>
<path d="M334.125 32.2158H339.703C340.459 32.2158 340.828 31.8408 340.828 31.0205V26.7197C340.828 25.9814 340.523 25.6006 339.896 25.5361V24.0596C339.896 21.8506 338.449 20.7842 336.914 20.7842C335.379 20.7842 333.932 21.8506 333.932 24.0596V25.5654C333.357 25.6533 333 26.0283 333 26.7197V31.0205C333 31.8408 333.369 32.2158 334.125 32.2158ZM334.875 23.9365C334.875 22.4658 335.818 21.6865 336.914 21.6865C338.01 21.6865 338.953 22.4658 338.953 23.9365V25.5303L334.875 25.5361V23.9365Z" fill="black"/>
<path d="M352.064 33.1758C354.104 33.1758 355.615 32.0508 355.615 30.4512V30.4424C355.615 29.1416 354.947 28.4121 353.102 27.9639L351.651 27.6123C350.641 27.3662 350.228 26.9355 350.228 26.3115V26.3027C350.228 25.4941 350.913 24.958 352.021 24.958C353.154 24.958 353.831 25.5469 353.954 26.4346L353.963 26.4961H355.422L355.413 26.3818C355.299 24.8525 354.024 23.6836 352.021 23.6836C350.043 23.6836 348.663 24.7998 348.663 26.373V26.3818C348.663 27.7002 349.498 28.5 351.221 28.9131L352.671 29.2646C353.708 29.5195 354.051 29.8887 354.051 30.5479V30.5566C354.051 31.3828 353.312 31.9014 352.073 31.9014C350.825 31.9014 350.148 31.3652 349.964 30.4512L349.946 30.3633H348.417L348.426 30.4424C348.61 32.0771 349.911 33.1758 352.064 33.1758ZM360.177 33.1758C360.476 33.1758 360.801 33.1406 360.994 33.1143V31.875C360.862 31.8838 360.687 31.9102 360.502 31.9102C359.685 31.9102 359.254 31.6377 359.254 30.6621V25.125H360.994V23.8594H359.254V21.3896H357.672V23.8594H356.336V25.125H357.672V30.6709C357.672 32.4199 358.498 33.1758 360.177 33.1758ZM366.162 33.1758C368.685 33.1758 370.39 31.3477 370.39 28.4297V28.4121C370.39 25.4941 368.676 23.6836 366.153 23.6836C363.631 23.6836 361.926 25.5029 361.926 28.4121V28.4297C361.926 31.3389 363.622 33.1758 366.162 33.1758ZM366.171 31.8223C364.554 31.8223 363.49 30.583 363.49 28.4297V28.4121C363.49 26.2764 364.562 25.0371 366.153 25.0371C367.771 25.0371 368.825 26.2676 368.825 28.4121V28.4297C368.825 30.5742 367.779 31.8223 366.171 31.8223ZM371.937 33H373.466V27.3574C373.466 25.9688 374.239 25.1426 375.426 25.1426C375.795 25.1426 376.12 25.1865 376.243 25.2305V23.7451C376.12 23.7275 375.892 23.6836 375.628 23.6836C374.6 23.6836 373.809 24.3516 373.501 25.4062H373.466V23.8594H371.937V33ZM380.813 33.1758C382.809 33.1758 384.303 31.9805 384.602 30.4688L384.619 30.3809H383.116L383.09 30.46C382.826 31.2422 382.009 31.8223 380.849 31.8223C379.223 31.8223 378.186 30.7236 378.15 28.8428H384.733V28.2803C384.733 25.5381 383.213 23.6836 380.717 23.6836C378.221 23.6836 376.604 25.626 376.604 28.4561V28.4648C376.604 31.3389 378.186 33.1758 380.813 33.1758ZM380.708 25.0371C382.044 25.0371 383.028 25.8721 383.178 27.6475H378.177C378.344 25.9424 379.381 25.0371 380.708 25.0371ZM387.221 33.123C387.783 33.123 388.223 32.6836 388.223 32.1211C388.223 31.5586 387.783 31.1191 387.221 31.1191C386.658 31.1191 386.219 31.5586 386.219 32.1211C386.219 32.6836 386.658 33.123 387.221 33.123ZM393.487 36.252C395.966 36.252 397.521 34.8633 397.521 32.7451V23.8594H395.992V25.4062H395.957C395.395 24.3867 394.375 23.6836 393.083 23.6836C390.763 23.6836 389.172 25.5293 389.172 28.3682V28.377C389.172 31.2334 390.745 33.0879 393.048 33.0879C394.357 33.0879 395.412 32.4375 395.957 31.4268H395.992V32.5957C395.992 34.0107 395.078 34.8984 393.47 34.8984C392.222 34.8984 391.352 34.4941 391.062 33.835L391.026 33.7559H389.488L389.506 33.835C389.805 35.1885 391.229 36.252 393.487 36.252ZM393.382 31.7344C391.756 31.7344 390.736 30.4512 390.736 28.377V28.3682C390.736 26.3379 391.756 25.0371 393.382 25.0371C394.929 25.0371 395.992 26.3555 395.992 28.3682V28.377C395.992 30.4072 394.938 31.7344 393.382 31.7344ZM403.287 33.1758C405.81 33.1758 407.515 31.3477 407.515 28.4297V28.4121C407.515 25.4941 405.801 23.6836 403.278 23.6836C400.756 23.6836 399.051 25.5029 399.051 28.4121V28.4297C399.051 31.3389 400.747 33.1758 403.287 33.1758ZM403.296 31.8223C401.679 31.8223 400.615 30.583 400.615 28.4297V28.4121C400.615 26.2764 401.688 25.0371 403.278 25.0371C404.896 25.0371 405.95 26.2676 405.95 28.4121V28.4297C405.95 30.5742 404.904 31.8223 403.296 31.8223ZM412.85 33.1758C415.372 33.1758 417.077 31.3477 417.077 28.4297V28.4121C417.077 25.4941 415.363 23.6836 412.841 23.6836C410.318 23.6836 408.613 25.5029 408.613 28.4121V28.4297C408.613 31.3389 410.31 33.1758 412.85 33.1758ZM412.858 31.8223C411.241 31.8223 410.178 30.583 410.178 28.4297V28.4121C410.178 26.2764 411.25 25.0371 412.841 25.0371C414.458 25.0371 415.513 26.2676 415.513 28.4121V28.4297C415.513 30.5742 414.467 31.8223 412.858 31.8223ZM422.491 36.252C424.97 36.252 426.525 34.8633 426.525 32.7451V23.8594H424.996V25.4062H424.961C424.398 24.3867 423.379 23.6836 422.087 23.6836C419.767 23.6836 418.176 25.5293 418.176 28.3682V28.377C418.176 31.2334 419.749 33.0879 422.052 33.0879C423.361 33.0879 424.416 32.4375 424.961 31.4268H424.996V32.5957C424.996 34.0107 424.082 34.8984 422.474 34.8984C421.226 34.8984 420.355 34.4941 420.065 33.835L420.03 33.7559H418.492L418.51 33.835C418.809 35.1885 420.232 36.252 422.491 36.252ZM422.386 31.7344C420.76 31.7344 419.74 30.4512 419.74 28.377V28.3682C419.74 26.3379 420.76 25.0371 422.386 25.0371C423.933 25.0371 424.996 26.3555 424.996 28.3682V28.377C424.996 30.4072 423.941 31.7344 422.386 31.7344ZM428.582 33H430.111V20.3174H428.582V33ZM435.938 33.1758C437.934 33.1758 439.428 31.9805 439.727 30.4688L439.744 30.3809H438.241L438.215 30.46C437.951 31.2422 437.134 31.8223 435.974 31.8223C434.348 31.8223 433.311 30.7236 433.275 28.8428H439.858V28.2803C439.858 25.5381 438.338 23.6836 435.842 23.6836C433.346 23.6836 431.729 25.626 431.729 28.4561V28.4648C431.729 31.3389 433.311 33.1758 435.938 33.1758ZM435.833 25.0371C437.169 25.0371 438.153 25.8721 438.303 27.6475H433.302C433.469 25.9424 434.506 25.0371 435.833 25.0371ZM442.346 33.123C442.908 33.123 443.348 32.6836 443.348 32.1211C443.348 31.5586 442.908 31.1191 442.346 31.1191C441.783 31.1191 441.344 31.5586 441.344 32.1211C441.344 32.6836 441.783 33.123 442.346 33.123ZM448.533 33.1758C450.599 33.1758 452.102 31.8311 452.348 30.0908L452.356 30.0293H450.854L450.836 30.0996C450.581 31.1191 449.781 31.8223 448.533 31.8223C446.951 31.8223 445.861 30.5654 445.861 28.4385V28.4297C445.861 26.3555 446.925 25.0371 448.516 25.0371C449.86 25.0371 450.599 25.8457 450.827 26.7598L450.845 26.8301H452.339L452.33 26.7598C452.137 25.1953 450.792 23.6836 448.516 23.6836C445.976 23.6836 444.297 25.5293 444.297 28.4121V28.4209C444.297 31.3301 445.94 33.1758 448.533 33.1758ZM457.551 33.1758C460.073 33.1758 461.778 31.3477 461.778 28.4297V28.4121C461.778 25.4941 460.064 23.6836 457.542 23.6836C455.02 23.6836 453.314 25.5029 453.314 28.4121V28.4297C453.314 31.3389 455.011 33.1758 457.551 33.1758ZM457.56 31.8223C455.942 31.8223 454.879 30.583 454.879 28.4297V28.4121C454.879 26.2764 455.951 25.0371 457.542 25.0371C459.159 25.0371 460.214 26.2676 460.214 28.4121V28.4297C460.214 30.5742 459.168 31.8223 457.56 31.8223ZM463.325 33H464.854V27.2695C464.854 25.9951 465.733 25.0371 466.946 25.0371C468.08 25.0371 468.818 25.7666 468.818 26.874V33H470.348V27.1904C470.348 25.9424 471.2 25.0371 472.413 25.0371C473.617 25.0371 474.312 25.7842 474.312 27.041V33H475.841V26.6895C475.841 24.8701 474.672 23.6836 472.861 23.6836C471.578 23.6836 470.506 24.3428 469.996 25.4414H469.961C469.565 24.3252 468.643 23.6836 467.395 23.6836C466.217 23.6836 465.303 24.29 464.89 25.1953H464.854V23.8594H463.325V33Z" fill="#202124"/>
<path d="M59 27.0064C59 27.3933 59.1786 27.7801 59.4945 28.0638L68.5594 36.5616C68.8891 36.8582 69.2462 37 69.6445 37C70.5098 37 71.1416 36.4197 71.1416 35.6331C71.1416 35.2205 70.9768 34.8723 70.6883 34.6144L67.598 31.6744L63.6149 28.2573L66.8151 28.4378H83.4617C84.3682 28.4378 85 27.8446 85 27.0064C85 26.1554 84.3682 25.5622 83.4617 25.5622H66.8151L63.6286 25.7427L67.598 22.3256L70.6883 19.3856C70.9768 19.1277 71.1416 18.7795 71.1416 18.3669C71.1416 17.5803 70.5098 17 69.6445 17C69.2462 17 68.8753 17.1418 68.5182 17.4642L59.4945 25.9362C59.1786 26.2199 59 26.6067 59 27.0064Z" fill="#80858A"/>
<path d="M139 27.0064C139 26.6067 138.821 26.2199 138.506 25.9362L129.482 17.4642C129.125 17.1418 128.754 17 128.369 17C127.49 17 126.858 17.5803 126.858 18.3669C126.858 18.7795 127.037 19.1277 127.312 19.3856L130.402 22.3256L134.385 25.7427L131.199 25.5622H114.552C113.632 25.5622 113 26.1554 113 27.0064C113 27.8446 113.632 28.4378 114.552 28.4378H131.199L134.385 28.2573L130.402 31.6744L127.312 34.6144C127.037 34.8723 126.858 35.2205 126.858 35.6331C126.858 36.4197 127.49 37 128.369 37C128.754 37 129.125 36.8582 129.454 36.5616L138.506 28.0638C138.821 27.7801 139 27.3933 139 27.0064Z" fill="#80858A"/>
<path d="M189.442 15.4239C190.06 14.8506 191.005 14.8449 191.591 15.4917C191.871 15.8014 192.036 16.1938 191.993 16.6293L191.617 24.1196L191.617 24.1216C191.598 24.5446 191.411 24.9459 191.108 25.227C190.808 25.5051 190.433 25.6744 189.968 25.6427L182.598 25.3351C182.184 25.3287 181.823 25.1442 181.531 24.8219C180.957 24.1871 181.003 23.2509 181.633 22.6663C181.926 22.3945 182.306 22.2523 182.706 22.2569L182.715 22.257L187.065 22.4641C186.779 22.0694 186.447 21.6632 186.074 21.2515C182.832 17.671 177.402 17.4233 173.866 20.703C170.32 23.9923 170.083 29.498 173.323 33.0775C176.563 36.6563 181.994 36.8892 185.541 33.5993C185.845 33.3179 186.222 33.1513 186.62 33.1529C187.022 33.1545 187.401 33.3291 187.691 33.649C188.3 34.3214 188.244 35.2662 187.595 35.8683C182.811 40.3055 175.458 39.9912 171.082 35.1566C166.705 30.3226 167.027 22.8717 171.812 18.434C176.588 14.0042 183.94 14.3392 188.315 19.1724C188.492 19.3676 188.662 19.5687 188.825 19.7744L188.936 16.4626L188.939 16.4434C188.98 16.0593 189.15 15.6945 189.442 15.4239Z" fill="#80858A"/>
<path d="M630.005 30.6098C630.573 30.6098 631.034 30.1126 631.034 29.5429V19.2779L630.946 17.7553L631.504 18.5425L632.788 19.9823C632.954 20.1791 633.209 20.2931 633.454 20.2931C633.944 20.2931 634.355 19.9098 634.355 19.3712C634.355 19.1019 634.257 18.8947 634.081 18.6979L630.808 15.3729C630.534 15.0932 630.279 15 630.005 15C629.74 15 629.476 15.0932 629.211 15.3729L625.938 18.6979C625.752 18.8947 625.654 19.1019 625.654 19.3712C625.654 19.9098 626.066 20.2931 626.546 20.2931C626.801 20.2931 627.056 20.1791 627.232 19.9823L628.506 18.5425L629.074 17.7553L628.986 19.2779V29.5429C628.986 30.1126 629.437 30.6098 630.005 30.6098ZM624.341 39H635.659C637.844 39 639 37.7777 639 35.4886V25.4307C639 23.1416 637.844 21.9193 635.659 21.9193H633.082V24.2913H635.453C636.296 24.2913 636.766 24.7471 636.766 25.6897V35.24C636.766 36.1722 636.296 36.628 635.453 36.628H624.547C623.695 36.628 623.244 36.1722 623.244 35.24V25.6897C623.244 24.7471 623.695 24.2913 624.547 24.2913H626.958V21.9193H624.341C622.166 21.9193 621 23.1416 621 25.4307V35.4886C621 37.7777 622.166 39 624.341 39Z" fill="#80858A"/>
<path d="M684.8 32H686.622V30.3179H687.828V28.7881H686.622V22.8403H683.917L680.249 28.7183V30.3179H684.8V32ZM681.912 28.8389V28.7881L684.793 24.2241H684.838V28.8389H681.912Z" fill="#80858A"/>
<rect x="673" y="16" width="22" height="21.9966" rx="5" stroke="#80858A" stroke-width="2"/>
<path fill-rule="evenodd" clip-rule="evenodd" d="M731 27C731 28.6569 729.657 30 728 30C726.343 30 725 28.6569 725 27C725 25.3431 726.343 24 728 24C729.657 24 731 25.3431 731 27ZM741 27C741 28.6569 739.657 30 738 30C736.343 30 735 28.6569 735 27C735 25.3431 736.343 24 738 24C739.657 24 741 25.3431 741 27ZM748 30C749.657 30 751 28.6569 751 27C751 25.3431 749.657 24 748 24C746.343 24 745 25.3431 745 27C745 28.6569 746.343 30 748 30Z" fill="#80858A"/>
</g>
<defs>
<filter id="filter0_d_746_5834" x="0" y="-0.4" width="812" height="54.4" filterUnits="userSpaceOnUse" color-interpolation-filters="sRGB">
<feFlood flood-opacity="0" result="BackgroundImageFix"/>
<feColorMatrix in="SourceAlpha" type="matrix" values="0 0 0 0 0 0 0 0 0 0 0 0 0 0 0 0 0 0 127 0" result="hardAlpha"/>
<feOffset dy="-0.4"/>
<feColorMatrix type="matrix" values="0 0 0 0 0.756863 0 0 0 0 0.756863 0 0 0 0 0.756863 0 0 0 1 0"/>
<feBlend mode="normal" in2="BackgroundImageFix" result="effect1_dropShadow_746_5834"/>
<feBlend mode="normal" in="SourceGraphic" in2="effect1_dropShadow_746_5834" result="shape"/>
</filter>
<clipPath id="clip0_746_5834">
<rect width="812" height="54" fill="white"/>
</clipPath>
</defs>
</svg>
