<svg width="800" height="89" viewBox="0 0 800 89" fill="none" xmlns="http://www.w3.org/2000/svg">
<g clip-path="url(#clip0_77_4818)">
<rect width="800" height="32" fill="white"/>
<path d="M20.875 11.2261V20.5H19.3452V13.0415L17.0791 13.8096V12.5464L20.6909 11.2261H20.875ZM30.2822 19.2812V20.5H24.0869V19.4526L27.0957 16.1709C27.4258 15.7985 27.686 15.4769 27.8765 15.2061C28.0669 14.9352 28.2002 14.6919 28.2764 14.4761C28.3568 14.256 28.397 14.0423 28.397 13.835C28.397 13.543 28.342 13.2869 28.2319 13.0669C28.1261 12.8426 27.9696 12.667 27.7622 12.54C27.5549 12.4089 27.3031 12.3433 27.0068 12.3433C26.6641 12.3433 26.3763 12.4173 26.1436 12.5654C25.9108 12.7135 25.7352 12.9188 25.6167 13.1812C25.4982 13.4393 25.439 13.7355 25.439 14.0698H23.9092C23.9092 13.5324 24.0319 13.0415 24.2773 12.5972C24.5228 12.1486 24.8783 11.7931 25.3438 11.5308C25.8092 11.2642 26.37 11.1309 27.0259 11.1309C27.6437 11.1309 28.1685 11.2345 28.6001 11.4419C29.0317 11.6493 29.3597 11.9434 29.584 12.3242C29.8125 12.7051 29.9268 13.1558 29.9268 13.6763C29.9268 13.964 29.8802 14.2497 29.7871 14.5332C29.694 14.8167 29.5607 15.1003 29.3872 15.3838C29.2179 15.6631 29.0169 15.9445 28.7842 16.228C28.5514 16.5073 28.2954 16.7909 28.0161 17.0786L26.0166 19.2812H30.2822ZM31.5835 19.7383C31.5835 19.5013 31.6639 19.3024 31.8247 19.1416C31.9855 18.9766 32.2035 18.894 32.4785 18.894C32.7578 18.894 32.9757 18.9766 33.1323 19.1416C33.2931 19.3024 33.3735 19.5013 33.3735 19.7383C33.3735 19.9753 33.2931 20.1742 33.1323 20.335C32.9757 20.4958 32.7578 20.5762 32.4785 20.5762C32.2035 20.5762 31.9855 20.4958 31.8247 20.335C31.6639 20.1742 31.5835 19.9753 31.5835 19.7383ZM31.5898 14.3301C31.5898 14.0931 31.6702 13.8942 31.8311 13.7334C31.9919 13.5684 32.2098 13.4858 32.4849 13.4858C32.7642 13.4858 32.9821 13.5684 33.1387 13.7334C33.2995 13.8942 33.3799 14.0931 33.3799 14.3301C33.3799 14.5671 33.2995 14.766 33.1387 14.9268C32.9821 15.0876 32.7642 15.168 32.4849 15.168C32.2098 15.168 31.9919 15.0876 31.8311 14.9268C31.6702 14.766 31.5898 14.5671 31.5898 14.3301ZM36.6997 15.187H37.6138C37.9692 15.187 38.2633 15.1257 38.4961 15.0029C38.7331 14.8802 38.9087 14.7109 39.0229 14.4951C39.1372 14.2793 39.1943 14.0317 39.1943 13.7524C39.1943 13.4604 39.1414 13.2108 39.0356 13.0034C38.9341 12.7918 38.7775 12.6289 38.5659 12.5146C38.3586 12.4004 38.0941 12.3433 37.7725 12.3433C37.5016 12.3433 37.2562 12.3983 37.0361 12.5083C36.8203 12.6141 36.6489 12.7664 36.522 12.9653C36.395 13.16 36.3315 13.3927 36.3315 13.6636H34.7954C34.7954 13.1727 34.9245 12.7368 35.1826 12.356C35.4408 11.9751 35.792 11.6768 36.2363 11.4609C36.6849 11.2409 37.1885 11.1309 37.7471 11.1309C38.3438 11.1309 38.8643 11.2303 39.3086 11.4292C39.7572 11.6239 40.1063 11.9159 40.356 12.3052C40.6056 12.6945 40.7305 13.1769 40.7305 13.7524C40.7305 14.0148 40.6691 14.2814 40.5464 14.5522C40.4237 14.8231 40.2417 15.0706 40.0005 15.2949C39.7593 15.515 39.4588 15.6948 39.0991 15.8345C38.7394 15.9699 38.3226 16.0376 37.8486 16.0376H36.6997V15.187ZM36.6997 16.3804V15.5425H37.8486C38.3903 15.5425 38.8516 15.606 39.2324 15.7329C39.6175 15.8599 39.9307 16.0355 40.1719 16.2598C40.4131 16.4798 40.5887 16.7316 40.6987 17.0151C40.813 17.2987 40.8701 17.5991 40.8701 17.9165C40.8701 18.3481 40.7918 18.7332 40.6353 19.0718C40.4829 19.4061 40.265 19.6896 39.9814 19.9224C39.6979 20.1551 39.3657 20.3307 38.9849 20.4492C38.6082 20.5677 38.1978 20.627 37.7534 20.627C37.3556 20.627 36.9748 20.5719 36.6108 20.4619C36.2469 20.3519 35.9211 20.189 35.6333 19.9731C35.3455 19.7531 35.117 19.4801 34.9478 19.1543C34.7827 18.8242 34.7002 18.4434 34.7002 18.0117H36.23C36.23 18.2868 36.2935 18.5301 36.4204 18.7417C36.5516 18.9491 36.7336 19.112 36.9663 19.2305C37.2033 19.349 37.4741 19.4082 37.7788 19.4082C38.1004 19.4082 38.3776 19.3511 38.6104 19.2368C38.8431 19.1226 39.0208 18.9533 39.1436 18.729C39.2705 18.5047 39.334 18.2339 39.334 17.9165C39.334 17.5568 39.2642 17.2648 39.1245 17.0405C38.9849 16.8162 38.786 16.6512 38.5278 16.5454C38.2697 16.4354 37.965 16.3804 37.6138 16.3804H36.6997ZM48.3159 15.1045V16.6152C48.3159 17.3389 48.244 17.9567 48.1001 18.4688C47.9604 18.9766 47.7573 19.3892 47.4907 19.7065C47.2241 20.0239 46.9046 20.2567 46.5322 20.4048C46.1641 20.5529 45.7515 20.627 45.2944 20.627C44.9305 20.627 44.592 20.5804 44.2788 20.4873C43.9699 20.3942 43.6906 20.2482 43.4409 20.0493C43.1912 19.8504 42.9775 19.5944 42.7998 19.2812C42.6263 18.9639 42.4909 18.5851 42.3936 18.145C42.3005 17.7049 42.2539 17.195 42.2539 16.6152V15.1045C42.2539 14.3766 42.3258 13.763 42.4697 13.2637C42.6136 12.7601 42.8188 12.3517 43.0854 12.0386C43.3521 11.7212 43.6694 11.4906 44.0376 11.3467C44.41 11.2028 44.8247 11.1309 45.2817 11.1309C45.6499 11.1309 45.9884 11.1774 46.2974 11.2705C46.6105 11.3594 46.8898 11.5011 47.1353 11.6958C47.3849 11.8905 47.5965 12.1444 47.77 12.4575C47.9478 12.7664 48.0832 13.141 48.1763 13.5811C48.2694 14.0169 48.3159 14.5247 48.3159 15.1045ZM46.7861 16.8311V14.876C46.7861 14.5078 46.765 14.1841 46.7227 13.9048C46.6803 13.6213 46.6169 13.3822 46.5322 13.1875C46.4518 12.9886 46.3503 12.8278 46.2275 12.7051C46.1048 12.5781 45.9652 12.4871 45.8086 12.4321C45.652 12.3729 45.4764 12.3433 45.2817 12.3433C45.0448 12.3433 44.8332 12.3898 44.647 12.4829C44.4608 12.5718 44.3042 12.7157 44.1772 12.9146C44.0503 13.1134 43.953 13.3758 43.8853 13.7017C43.8218 14.0233 43.79 14.4147 43.79 14.876V16.8311C43.79 17.2035 43.8112 17.5314 43.8535 17.8149C43.8958 18.0985 43.9593 18.3418 44.0439 18.5449C44.1286 18.7438 44.2301 18.9089 44.3486 19.04C44.4714 19.167 44.611 19.2601 44.7676 19.3193C44.9284 19.3786 45.104 19.4082 45.2944 19.4082C45.5356 19.4082 45.7493 19.3617 45.9355 19.2686C46.1217 19.1755 46.2783 19.0273 46.4053 18.8242C46.5322 18.6169 46.6274 18.3481 46.6909 18.0181C46.7544 17.688 46.7861 17.2923 46.7861 16.8311Z" fill="black"/>
<mask id="mask0_77_4818" style="mask-type:luminance" maskUnits="userSpaceOnUse" x="691" y="10" width="16" height="12">
<path fill-rule="evenodd" clip-rule="evenodd" d="M691 10V13L699 22L707 13V10H699H691Z" fill="white"/>
</mask>
<g mask="url(#mask0_77_4818)">
<path fill-rule="evenodd" clip-rule="evenodd" d="M699 10C692.4 10 687 15.4 687 22C687 28.6 692.4 34 699 34C705.6 34 711 28.6 711 22C711 15.4 705.6 10 699 10ZM699 31C694 31 690 27 690 22C690 17 694 13 699 13C704 13 708 17 708 22C708 27 704 31 699 31Z" fill="black" fill-opacity="0.1"/>
<path fill-rule="evenodd" clip-rule="evenodd" d="M699 13C694 13 690 17 690 22C690 27 694 31 699 31C704 31 708 27 708 22C708 17 704 13 699 13ZM699 28C695.7 28 693 25.3 693 22C693 18.7 695.7 16 699 16C702.3 16 705 18.7 705 22C705 25.3 702.3 28 699 28Z" fill="black"/>
<path fill-rule="evenodd" clip-rule="evenodd" d="M699 16C695.7 16 693 18.7 693 22C693 25.3 695.7 28 699 28C702.3 28 705 25.3 705 22C705 18.7 702.3 16 699 16ZM699 25C697.3 25 696 23.7 696 22C696 20.3 697.3 19 699 19C700.7 19 702 20.3 702 22C702 23.7 700.7 25 699 25Z" fill="black"/>
<path fill-rule="evenodd" clip-rule="evenodd" d="M699 25C700.657 25 702 23.6569 702 22C702 20.3431 700.657 19 699 19C697.343 19 696 20.3431 696 22C696 23.6569 697.343 25 699 25Z" fill="black"/>
</g>
<mask id="mask1_77_4818" style="mask-type:luminance" maskUnits="userSpaceOnUse" x="717" y="10" width="12" height="12">
<path fill-rule="evenodd" clip-rule="evenodd" d="M729 22V10L717 22H729Z" fill="white"/>
</mask>
<g mask="url(#mask1_77_4818)">
<path fill-rule="evenodd" clip-rule="evenodd" d="M726 10V22H729V10H726Z" fill="black" fill-opacity="0.1"/>
<path fill-rule="evenodd" clip-rule="evenodd" d="M723 10V22H726V10H723Z" fill="black" fill-opacity="0.1"/>
<path fill-rule="evenodd" clip-rule="evenodd" d="M720 10V22H723V10H720Z" fill="black"/>
<path fill-rule="evenodd" clip-rule="evenodd" d="M717 10V22H720V10H717Z" fill="black"/>
</g>
<path d="M742.107 16.1011L741.167 15.8599L741.631 11.2578H746.373V12.3433H742.627L742.348 14.8569C742.517 14.7596 742.731 14.6686 742.989 14.584C743.252 14.4993 743.552 14.457 743.891 14.457C744.318 14.457 744.701 14.5311 745.04 14.6792C745.378 14.8231 745.666 15.0304 745.903 15.3013C746.144 15.5721 746.328 15.8979 746.455 16.2788C746.582 16.6597 746.646 17.085 746.646 17.5547C746.646 17.999 746.584 18.4074 746.461 18.7798C746.343 19.1522 746.163 19.478 745.922 19.7573C745.681 20.0324 745.376 20.2461 745.008 20.3984C744.644 20.5508 744.214 20.627 743.719 20.627C743.347 20.627 742.993 20.5762 742.659 20.4746C742.329 20.3688 742.033 20.2101 741.771 19.9985C741.512 19.7827 741.301 19.5161 741.136 19.1987C740.975 18.8771 740.873 18.5005 740.831 18.0688H741.948C741.999 18.4159 742.101 18.7078 742.253 18.9448C742.405 19.1818 742.604 19.3617 742.85 19.4844C743.099 19.6029 743.389 19.6621 743.719 19.6621C743.999 19.6621 744.246 19.6134 744.462 19.5161C744.678 19.4188 744.86 19.2791 745.008 19.0972C745.156 18.9152 745.268 18.6951 745.344 18.437C745.425 18.1789 745.465 17.889 745.465 17.5674C745.465 17.2754 745.425 17.0046 745.344 16.7549C745.264 16.5052 745.143 16.2873 744.982 16.1011C744.826 15.9149 744.633 15.771 744.405 15.6694C744.176 15.5636 743.914 15.5107 743.618 15.5107C743.224 15.5107 742.926 15.5636 742.723 15.6694C742.524 15.7752 742.319 15.9191 742.107 16.1011ZM753.736 15.1426V16.5518C753.736 17.3092 753.668 17.9482 753.533 18.4688C753.397 18.9893 753.203 19.4082 752.949 19.7256C752.695 20.043 752.388 20.2736 752.028 20.4175C751.673 20.5571 751.271 20.627 750.822 20.627C750.467 20.627 750.139 20.5825 749.838 20.4937C749.538 20.4048 749.267 20.263 749.026 20.0684C748.789 19.8695 748.586 19.6113 748.417 19.2939C748.247 18.9766 748.118 18.5915 748.029 18.1387C747.94 17.6859 747.896 17.1569 747.896 16.5518V15.1426C747.896 14.3851 747.964 13.7503 748.099 13.2383C748.239 12.7262 748.436 12.3158 748.689 12.0068C748.943 11.6937 749.248 11.4694 749.604 11.334C749.963 11.1986 750.365 11.1309 750.81 11.1309C751.169 11.1309 751.499 11.1753 751.8 11.2642C752.104 11.3488 752.375 11.4863 752.612 11.6768C752.849 11.863 753.05 12.1126 753.215 12.4258C753.385 12.7347 753.514 13.1134 753.603 13.562C753.691 14.0106 753.736 14.5374 753.736 15.1426ZM752.555 16.7422V14.9458C752.555 14.5311 752.53 14.1672 752.479 13.854C752.432 13.5366 752.363 13.2658 752.27 13.0415C752.176 12.8172 752.058 12.6353 751.914 12.4956C751.774 12.356 751.611 12.2544 751.425 12.1909C751.243 12.1232 751.038 12.0894 750.81 12.0894C750.53 12.0894 750.283 12.1423 750.067 12.248C749.851 12.3496 749.669 12.5125 749.521 12.7368C749.377 12.9611 749.267 13.2552 749.191 13.6191C749.115 13.9831 749.077 14.4253 749.077 14.9458V16.7422C749.077 17.1569 749.1 17.5229 749.146 17.8403C749.197 18.1577 749.271 18.4328 749.369 18.6655C749.466 18.894 749.584 19.0824 749.724 19.2305C749.864 19.3786 750.025 19.4886 750.207 19.5605C750.393 19.6283 750.598 19.6621 750.822 19.6621C751.11 19.6621 751.362 19.6071 751.578 19.4971C751.793 19.387 751.973 19.2157 752.117 18.9829C752.265 18.7459 752.375 18.4434 752.447 18.0752C752.519 17.7028 752.555 17.2585 752.555 16.7422ZM755.145 13.5239V13.0352C755.145 12.6839 755.221 12.3644 755.374 12.0767C755.526 11.7889 755.744 11.5583 756.027 11.3848C756.311 11.2113 756.647 11.1245 757.037 11.1245C757.434 11.1245 757.773 11.2113 758.052 11.3848C758.336 11.5583 758.554 11.7889 758.706 12.0767C758.858 12.3644 758.935 12.6839 758.935 13.0352V13.5239C758.935 13.8667 758.858 14.182 758.706 14.4697C758.558 14.7575 758.342 14.9881 758.059 15.1616C757.779 15.3351 757.443 15.4219 757.049 15.4219C756.656 15.4219 756.315 15.3351 756.027 15.1616C755.744 14.9881 755.526 14.7575 755.374 14.4697C755.221 14.182 755.145 13.8667 755.145 13.5239ZM756.027 13.0352V13.5239C756.027 13.7186 756.063 13.9027 756.135 14.0762C756.211 14.2497 756.326 14.3914 756.478 14.5015C756.63 14.6073 756.821 14.6602 757.049 14.6602C757.278 14.6602 757.466 14.6073 757.614 14.5015C757.762 14.3914 757.872 14.2497 757.944 14.0762C758.016 13.9027 758.052 13.7186 758.052 13.5239V13.0352C758.052 12.8363 758.014 12.6501 757.938 12.4766C757.866 12.2988 757.754 12.1571 757.602 12.0513C757.453 11.9412 757.265 11.8862 757.037 11.8862C756.812 11.8862 756.624 11.9412 756.472 12.0513C756.324 12.1571 756.211 12.2988 756.135 12.4766C756.063 12.6501 756.027 12.8363 756.027 13.0352ZM759.646 18.729V18.2339C759.646 17.8869 759.722 17.5695 759.874 17.2817C760.026 16.994 760.244 16.7633 760.528 16.5898C760.811 16.4163 761.148 16.3296 761.537 16.3296C761.935 16.3296 762.273 16.4163 762.553 16.5898C762.836 16.7633 763.054 16.994 763.207 17.2817C763.359 17.5695 763.435 17.8869 763.435 18.2339V18.729C763.435 19.076 763.359 19.3934 763.207 19.6812C763.058 19.9689 762.843 20.1995 762.559 20.373C762.28 20.5465 761.943 20.6333 761.55 20.6333C761.156 20.6333 760.818 20.5465 760.534 20.373C760.251 20.1995 760.031 19.9689 759.874 19.6812C759.722 19.3934 759.646 19.076 759.646 18.729ZM760.528 18.2339V18.729C760.528 18.9237 760.564 19.1099 760.636 19.2876C760.712 19.4611 760.826 19.6029 760.979 19.7129C761.131 19.8187 761.321 19.8716 761.55 19.8716C761.778 19.8716 761.967 19.8187 762.115 19.7129C762.267 19.6029 762.379 19.4611 762.451 19.2876C762.523 19.1141 762.559 18.9279 762.559 18.729V18.2339C762.559 18.035 762.521 17.8488 762.445 17.6753C762.373 17.5018 762.261 17.3621 762.108 17.2563C761.96 17.1463 761.77 17.0913 761.537 17.0913C761.313 17.0913 761.125 17.1463 760.972 17.2563C760.824 17.3621 760.712 17.5018 760.636 17.6753C760.564 17.8488 760.528 18.035 760.528 18.2339ZM761.829 12.5718L757.316 19.7954L756.656 19.3765L761.169 12.1528L761.829 12.5718Z" fill="black"/>
<mask id="mask2_77_4818" style="mask-type:luminance" maskUnits="userSpaceOnUse" x="768" y="8" width="8" height="14">
<path fill-rule="evenodd" clip-rule="evenodd" d="M775 9.5H774V8.5H770V9.5H769C768.4 9.5 768 9.9 768 10.5V20.5C768 21.1 768.4 21.5 769 21.5H775C775.6 21.5 776 21.1 776 20.5V10.5C776 9.9 775.6 9.5 775 9.5Z" fill="white"/>
</mask>
<g mask="url(#mask2_77_4818)">
<path fill-rule="evenodd" clip-rule="evenodd" d="M768 18.5V21.5H776V18.5H768Z" fill="black"/>
<path fill-rule="evenodd" clip-rule="evenodd" d="M768 15.5V18.5H776V15.5H768Z" fill="black"/>
<path fill-rule="evenodd" clip-rule="evenodd" d="M768 12.5V15.5H776V12.5H768Z" fill="black" fill-opacity="0.1"/>
<path fill-rule="evenodd" clip-rule="evenodd" d="M768 9.5V12.5H776V9.5H768Z" fill="black" fill-opacity="0.1"/>
<path fill-rule="evenodd" clip-rule="evenodd" d="M770 8.5V9.5H774V8.5H770Z" fill="black" fill-opacity="0.1"/>
</g>
<rect width="800" height="56" transform="translate(0 32)" fill="white"/>
<path fill-rule="evenodd" clip-rule="evenodd" d="M30.7115 61.5239L22.5366 54L14.2885 61.484C13.9207 61.815 13.9021 62.3695 14.2469 62.7225C14.5918 63.0756 15.1695 63.0935 15.5373 62.7625L16.0445 62.3017V68.1501C16.0445 69.1718 16.9074 70 17.9718 70H27.1012C28.1657 70 29.0286 69.1718 29.0286 68.1501V62.4013L29.4627 62.8025C29.8305 63.1334 30.4083 63.1156 30.7531 62.7625C31.098 62.4095 31.0793 61.8549 30.7115 61.5239ZM27.2027 60.714L22.5366 56.4022L17.8704 60.6425V68.1501C17.8704 68.2039 17.9158 68.2475 17.9718 68.2475H27.1012C27.1573 68.2475 27.2027 68.2039 27.2027 68.1501V60.714Z" fill="#3D4043"/>
<rect x="45" y="44" width="621" height="36" rx="18" fill="#F1F3F4"/>
<path d="M66.75 59.8333H66.125V58.5952C66.125 56.8867 64.725 55.5 63 55.5C61.275 55.5 59.875 56.8867 59.875 58.5952V59.8333H59.25C58.5625 59.8333 58 60.3905 58 61.0714V67.2619C58 67.9429 58.5625 68.5 59.25 68.5H66.75C67.4375 68.5 68 67.9429 68 67.2619V61.0714C68 60.3905 67.4375 59.8333 66.75 59.8333ZM61.125 59.8333V58.5952C61.125 57.5676 61.9625 56.7381 63 56.7381C64.0375 56.7381 64.875 57.5676 64.875 58.5952V59.8333H61.125Z" fill="black"/>
<path d="M80.8418 67.5H79.4868V58.8867C79.4868 58.2861 79.604 57.7783 79.8384 57.3633C80.0728 56.9482 80.4072 56.6333 80.8418 56.4185C81.2764 56.2036 81.7915 56.0962 82.3872 56.0962C82.7388 56.0962 83.083 56.1401 83.4199 56.228C83.7568 56.311 84.1035 56.416 84.46 56.543L84.2329 57.6855C84.0083 57.5977 83.7471 57.5146 83.4492 57.4365C83.1562 57.3535 82.834 57.312 82.4824 57.312C81.9014 57.312 81.4814 57.4438 81.2227 57.7075C80.9688 57.9663 80.8418 58.3594 80.8418 58.8867V67.5ZM82.4604 59.5752V60.6152H78.2344V59.5752H82.4604ZM85.1265 59.5752V67.5H83.7715V59.5752H85.1265ZM92.4873 59.5752H93.7178V67.3315C93.7178 68.0298 93.5762 68.6255 93.293 69.1187C93.0098 69.6118 92.6143 69.9854 92.1064 70.2393C91.6035 70.498 91.0225 70.6274 90.3633 70.6274C90.0898 70.6274 89.7676 70.5835 89.3965 70.4956C89.0303 70.4126 88.6689 70.2686 88.3125 70.0635C87.9609 69.8633 87.6655 69.5923 87.4263 69.2505L88.1367 68.4448C88.4688 68.8452 88.8154 69.1235 89.1768 69.2798C89.543 69.436 89.9043 69.5142 90.2607 69.5142C90.6904 69.5142 91.0615 69.4336 91.374 69.2725C91.6865 69.1113 91.9282 68.8721 92.0991 68.5547C92.2749 68.2422 92.3628 67.8564 92.3628 67.3975V61.3184L92.4873 59.5752ZM87.0308 63.6255V63.4717C87.0308 62.8662 87.1016 62.3169 87.2432 61.8237C87.3896 61.3257 87.5972 60.8984 87.8657 60.542C88.1392 60.1855 88.4688 59.9121 88.8545 59.7217C89.2402 59.5264 89.6748 59.4287 90.1582 59.4287C90.6562 59.4287 91.0908 59.5166 91.4619 59.6924C91.8379 59.8633 92.1553 60.1147 92.4141 60.4468C92.6777 60.7739 92.8853 61.1694 93.0366 61.6333C93.188 62.0972 93.293 62.6221 93.3516 63.208V63.8818C93.2979 64.4629 93.1929 64.9854 93.0366 65.4492C92.8853 65.9131 92.6777 66.3086 92.4141 66.6357C92.1553 66.9629 91.8379 67.2144 91.4619 67.3901C91.0859 67.561 90.6465 67.6465 90.1436 67.6465C89.6699 67.6465 89.2402 67.5464 88.8545 67.3462C88.4736 67.146 88.1465 66.8652 87.873 66.5039C87.5996 66.1426 87.3896 65.7178 87.2432 65.2295C87.1016 64.7363 87.0308 64.2017 87.0308 63.6255ZM88.3857 63.4717V63.6255C88.3857 64.021 88.4248 64.3921 88.5029 64.7388C88.5859 65.0854 88.7104 65.3906 88.8765 65.6543C89.0474 65.918 89.2646 66.1255 89.5283 66.2769C89.792 66.4233 90.1069 66.4966 90.4731 66.4966C90.9224 66.4966 91.2935 66.4014 91.5864 66.2109C91.8794 66.0205 92.1113 65.769 92.2822 65.4565C92.458 65.144 92.5947 64.8047 92.6924 64.4385V62.6733C92.6387 62.4048 92.5557 62.146 92.4434 61.897C92.3359 61.6431 92.1943 61.4185 92.0186 61.2231C91.8477 61.0229 91.6353 60.8643 91.3813 60.7471C91.1274 60.6299 90.8296 60.5713 90.4878 60.5713C90.1167 60.5713 89.7969 60.6494 89.5283 60.8057C89.2646 60.957 89.0474 61.167 88.8765 61.4355C88.7104 61.6992 88.5859 62.0068 88.5029 62.3584C88.4248 62.7051 88.3857 63.0762 88.3857 63.4717ZM97.1235 61.1499V67.5H95.7612V59.5752H97.0503L97.1235 61.1499ZM96.8452 63.2373L96.2153 63.2153C96.2202 62.6733 96.291 62.1729 96.4277 61.7139C96.5645 61.25 96.7671 60.8472 97.0356 60.5054C97.3042 60.1636 97.6387 59.8999 98.0391 59.7144C98.4395 59.5239 98.9033 59.4287 99.4307 59.4287C99.8018 59.4287 100.144 59.4824 100.456 59.5898C100.769 59.6924 101.04 59.856 101.269 60.0806C101.499 60.3052 101.677 60.5933 101.804 60.9448C101.931 61.2964 101.994 61.7212 101.994 62.2192V67.5H100.639V62.2852C100.639 61.8701 100.568 61.5381 100.427 61.2891C100.29 61.04 100.095 60.8594 99.8408 60.7471C99.5869 60.6299 99.2891 60.5713 98.9473 60.5713C98.5469 60.5713 98.2124 60.6421 97.9438 60.7837C97.6753 60.9253 97.4604 61.1206 97.2993 61.3696C97.1382 61.6187 97.021 61.9043 96.9478 62.2266C96.8794 62.5439 96.8452 62.8809 96.8452 63.2373ZM101.979 62.4902L101.071 62.7686C101.076 62.334 101.147 61.9165 101.284 61.5161C101.425 61.1157 101.628 60.7593 101.892 60.4468C102.16 60.1343 102.49 59.8877 102.88 59.707C103.271 59.5215 103.718 59.4287 104.221 59.4287C104.646 59.4287 105.021 59.4849 105.349 59.5972C105.681 59.7095 105.959 59.8828 106.184 60.1172C106.413 60.3467 106.586 60.6421 106.704 61.0034C106.821 61.3647 106.879 61.7944 106.879 62.2925V67.5H105.517V62.2778C105.517 61.8335 105.446 61.4893 105.305 61.2451C105.168 60.9961 104.973 60.8228 104.719 60.7251C104.47 60.6226 104.172 60.5713 103.825 60.5713C103.527 60.5713 103.264 60.6226 103.034 60.7251C102.805 60.8276 102.612 60.9692 102.456 61.1499C102.299 61.3257 102.18 61.5283 102.097 61.7578C102.019 61.9873 101.979 62.2314 101.979 62.4902ZM113.603 66.145V62.0654C113.603 61.7529 113.54 61.4819 113.413 61.2524C113.291 61.0181 113.105 60.8374 112.856 60.7104C112.607 60.5835 112.299 60.52 111.933 60.52C111.591 60.52 111.291 60.5786 111.032 60.6958C110.778 60.813 110.578 60.9668 110.432 61.1572C110.29 61.3477 110.219 61.5527 110.219 61.7725H108.864C108.864 61.4893 108.938 61.2085 109.084 60.9302C109.23 60.6519 109.44 60.4004 109.714 60.1758C109.992 59.9463 110.324 59.7656 110.71 59.6338C111.101 59.4971 111.535 59.4287 112.014 59.4287C112.59 59.4287 113.098 59.5264 113.537 59.7217C113.981 59.917 114.328 60.2124 114.577 60.6079C114.831 60.9985 114.958 61.4893 114.958 62.0801V65.7715C114.958 66.0352 114.98 66.3159 115.024 66.6138C115.073 66.9116 115.144 67.168 115.236 67.3828V67.5H113.823C113.754 67.3438 113.701 67.1362 113.662 66.8774C113.623 66.6138 113.603 66.3696 113.603 66.145ZM113.837 62.6953L113.852 63.6475H112.482C112.097 63.6475 111.752 63.6792 111.45 63.7427C111.147 63.8013 110.893 63.8916 110.688 64.0137C110.483 64.1357 110.327 64.2896 110.219 64.4751C110.112 64.6558 110.058 64.8682 110.058 65.1123C110.058 65.3613 110.114 65.5884 110.227 65.7935C110.339 65.9985 110.507 66.1621 110.732 66.2842C110.961 66.4014 111.242 66.46 111.574 66.46C111.989 66.46 112.355 66.3721 112.673 66.1963C112.99 66.0205 113.242 65.8057 113.427 65.5518C113.618 65.2979 113.72 65.0513 113.735 64.812L114.313 65.4639C114.279 65.6689 114.187 65.896 114.035 66.145C113.884 66.394 113.681 66.6333 113.427 66.8628C113.178 67.0874 112.88 67.2754 112.534 67.4268C112.192 67.5732 111.806 67.6465 111.376 67.6465C110.839 67.6465 110.368 67.5415 109.963 67.3315C109.562 67.1216 109.25 66.8408 109.025 66.4893C108.806 66.1328 108.696 65.7349 108.696 65.2954C108.696 64.8706 108.779 64.4971 108.945 64.1748C109.111 63.8477 109.35 63.5767 109.663 63.3618C109.975 63.1421 110.351 62.9761 110.791 62.8638C111.23 62.7515 111.721 62.6953 112.263 62.6953H113.837ZM117.111 66.7822C117.111 66.5527 117.182 66.3599 117.324 66.2036C117.47 66.0425 117.68 65.9619 117.954 65.9619C118.227 65.9619 118.435 66.0425 118.576 66.2036C118.723 66.3599 118.796 66.5527 118.796 66.7822C118.796 67.0068 118.723 67.1973 118.576 67.3535C118.435 67.5098 118.227 67.5879 117.954 67.5879C117.68 67.5879 117.47 67.5098 117.324 67.3535C117.182 67.1973 117.111 67.0068 117.111 66.7822ZM124.216 66.5332C124.538 66.5332 124.836 66.4673 125.109 66.3354C125.383 66.2036 125.607 66.0229 125.783 65.7935C125.959 65.5591 126.059 65.293 126.083 64.9951H127.373C127.348 65.4639 127.189 65.9009 126.896 66.3062C126.608 66.7065 126.23 67.0312 125.761 67.2803C125.292 67.5244 124.777 67.6465 124.216 67.6465C123.62 67.6465 123.1 67.5415 122.656 67.3315C122.216 67.1216 121.85 66.8335 121.557 66.4673C121.269 66.1011 121.052 65.6812 120.905 65.2075C120.764 64.729 120.693 64.2236 120.693 63.6914V63.3838C120.693 62.8516 120.764 62.3486 120.905 61.875C121.052 61.3965 121.269 60.9741 121.557 60.6079C121.85 60.2417 122.216 59.9536 122.656 59.7437C123.1 59.5337 123.62 59.4287 124.216 59.4287C124.836 59.4287 125.378 59.5557 125.842 59.8096C126.306 60.0586 126.669 60.4004 126.933 60.835C127.202 61.2646 127.348 61.7529 127.373 62.2998H126.083C126.059 61.9727 125.966 61.6772 125.805 61.4136C125.649 61.1499 125.434 60.9399 125.161 60.7837C124.892 60.6226 124.577 60.542 124.216 60.542C123.801 60.542 123.452 60.625 123.168 60.791C122.89 60.9521 122.668 61.1719 122.502 61.4502C122.341 61.7236 122.224 62.0288 122.15 62.3657C122.082 62.6978 122.048 63.0371 122.048 63.3838V63.6914C122.048 64.0381 122.082 64.3799 122.15 64.7168C122.219 65.0537 122.333 65.3589 122.495 65.6323C122.661 65.9058 122.883 66.1255 123.161 66.2915C123.444 66.4526 123.796 66.5332 124.216 66.5332ZM128.537 63.6255V63.457C128.537 62.8857 128.62 62.356 128.786 61.8677C128.952 61.3745 129.191 60.9473 129.504 60.5859C129.816 60.2197 130.195 59.9365 130.639 59.7363C131.083 59.5312 131.582 59.4287 132.133 59.4287C132.69 59.4287 133.19 59.5312 133.635 59.7363C134.084 59.9365 134.465 60.2197 134.777 60.5859C135.095 60.9473 135.336 61.3745 135.502 61.8677C135.668 62.356 135.751 62.8857 135.751 63.457V63.6255C135.751 64.1968 135.668 64.7266 135.502 65.2148C135.336 65.7031 135.095 66.1304 134.777 66.4966C134.465 66.8579 134.086 67.1411 133.642 67.3462C133.203 67.5464 132.705 67.6465 132.148 67.6465C131.591 67.6465 131.091 67.5464 130.646 67.3462C130.202 67.1411 129.821 66.8579 129.504 66.4966C129.191 66.1304 128.952 65.7031 128.786 65.2148C128.62 64.7266 128.537 64.1968 128.537 63.6255ZM129.892 63.457V63.6255C129.892 64.021 129.938 64.3945 130.031 64.7461C130.124 65.0928 130.263 65.4004 130.449 65.6689C130.639 65.9375 130.876 66.1499 131.159 66.3062C131.442 66.4575 131.772 66.5332 132.148 66.5332C132.519 66.5332 132.844 66.4575 133.122 66.3062C133.405 66.1499 133.64 65.9375 133.825 65.6689C134.011 65.4004 134.15 65.0928 134.243 64.7461C134.34 64.3945 134.389 64.021 134.389 63.6255V63.457C134.389 63.0664 134.34 62.6978 134.243 62.3511C134.15 61.9995 134.008 61.6895 133.818 61.4209C133.632 61.1475 133.398 60.9326 133.115 60.7764C132.836 60.6201 132.509 60.542 132.133 60.542C131.762 60.542 131.435 60.6201 131.152 60.7764C130.874 60.9326 130.639 61.1475 130.449 61.4209C130.263 61.6895 130.124 61.9995 130.031 62.3511C129.938 62.6978 129.892 63.0664 129.892 63.457ZM138.798 61.1499V67.5H137.436V59.5752H138.725L138.798 61.1499ZM138.52 63.2373L137.89 63.2153C137.895 62.6733 137.966 62.1729 138.103 61.7139C138.239 61.25 138.442 60.8472 138.71 60.5054C138.979 60.1636 139.313 59.8999 139.714 59.7144C140.114 59.5239 140.578 59.4287 141.105 59.4287C141.477 59.4287 141.818 59.4824 142.131 59.5898C142.443 59.6924 142.714 59.856 142.944 60.0806C143.173 60.3052 143.352 60.5933 143.479 60.9448C143.605 61.2964 143.669 61.7212 143.669 62.2192V67.5H142.314V62.2852C142.314 61.8701 142.243 61.5381 142.102 61.2891C141.965 61.04 141.77 60.8594 141.516 60.7471C141.262 60.6299 140.964 60.5713 140.622 60.5713C140.222 60.5713 139.887 60.6421 139.619 60.7837C139.35 60.9253 139.135 61.1206 138.974 61.3696C138.813 61.6187 138.696 61.9043 138.623 62.2266C138.554 62.5439 138.52 62.8809 138.52 63.2373ZM143.654 62.4902L142.746 62.7686C142.751 62.334 142.822 61.9165 142.958 61.5161C143.1 61.1157 143.303 60.7593 143.566 60.4468C143.835 60.1343 144.165 59.8877 144.555 59.707C144.946 59.5215 145.393 59.4287 145.896 59.4287C146.32 59.4287 146.696 59.4849 147.023 59.5972C147.355 59.7095 147.634 59.8828 147.858 60.1172C148.088 60.3467 148.261 60.6421 148.378 61.0034C148.496 61.3647 148.554 61.7944 148.554 62.2925V67.5H147.192V62.2778C147.192 61.8335 147.121 61.4893 146.979 61.2451C146.843 60.9961 146.647 60.8228 146.394 60.7251C146.145 60.6226 145.847 60.5713 145.5 60.5713C145.202 60.5713 144.938 60.6226 144.709 60.7251C144.479 60.8276 144.287 60.9692 144.13 61.1499C143.974 61.3257 143.854 61.5283 143.771 61.7578C143.693 61.9873 143.654 62.2314 143.654 62.4902Z" fill="black"/>
<path d="M690.23 55.5156C690.23 55.0604 689.861 54.6914 689.405 54.6914C688.95 54.6914 688.581 55.0604 688.581 55.5156V61.2832H682.812C682.357 61.2832 681.988 61.6522 681.988 62.1074C681.988 62.5625 682.357 62.9315 682.812 62.9315H688.581V68.7021C688.581 69.1572 688.95 69.5262 689.405 69.5262C689.861 69.5262 690.23 69.1572 690.23 68.7021V62.9315H696.298C696.754 62.9315 697.123 62.5625 697.123 62.1074C697.123 61.6522 696.754 61.2832 696.298 61.2832H690.23V55.5156Z" fill="#3D4043"/>
<path fill-rule="evenodd" clip-rule="evenodd" d="M729.685 53.75C727.407 53.75 725.56 55.6738 725.56 58.0469V65.9531C725.56 68.3262 727.407 70.25 729.685 70.25H737.275C739.553 70.25 741.4 68.3262 741.4 65.9531V58.0469C741.4 55.6738 739.553 53.75 737.275 53.75H729.685ZM727.21 58.0469C727.21 56.623 728.318 55.4688 729.685 55.4688H737.275C738.642 55.4688 739.75 56.623 739.75 58.0469V65.9531C739.75 67.377 738.642 68.5312 737.275 68.5312H729.685C728.318 68.5312 727.21 67.377 727.21 65.9531V58.0469ZM733.161 65.9995H734.409V58.1523H734.249L731.32 59.2749V60.376L733.161 59.7207V65.9995Z" fill="#3D4043"/>
<g clip-path="url(#clip1_77_4818)">
<path d="M775 58C776.1 58 777 57.1 777 56C777 54.9 776.1 54 775 54C773.9 54 773 54.9 773 56C773 57.1 773.9 58 775 58ZM775 60C773.9 60 773 60.9 773 62C773 63.1 773.9 64 775 64C776.1 64 777 63.1 777 62C777 60.9 776.1 60 775 60ZM775 66C773.9 66 773 66.9 773 68C773 69.1 773.9 70 775 70C776.1 70 777 69.1 777 68C777 66.9 776.1 66 775 66Z" fill="#3D4043"/>
</g>
</g>
<path d="M800 88V87.5H0V88V88.5H800V88Z" fill="#F1F3F4"/>
<defs>
<clipPath id="clip0_77_4818">
<path d="M0 0H800V88H0V0Z" fill="white"/>
</clipPath>
<clipPath id="clip1_77_4818">
<rect width="24" height="24" fill="white" transform="translate(763 50)"/>
</clipPath>
</defs>
</svg>
