<svg width="800" height="46" viewBox="0 0 800 46" fill="none" xmlns="http://www.w3.org/2000/svg">
<rect width="800" height="46" fill="black"/>
<path d="M312.489 23.8442C311.837 23.4473 311.837 22.5527 312.489 22.1558L322.34 16.1641C323.055 15.7291 324 16.2097 324 17.0083L324 28.9917C324 29.7903 323.055 30.2709 322.34 29.8359L312.489 23.8442Z" fill="#B3B3B3"/>
<path d="M400 29C403.314 29 406 26.3137 406 23C406 19.6863 403.314 17 400 17C396.686 17 394 19.6863 394 23C394 26.3137 396.686 29 400 29Z" fill="#B3B3B3"/>
<path fill-rule="evenodd" clip-rule="evenodd" d="M409 23C409 27.9706 404.971 32 400 32C395.029 32 391 27.9706 391 23C391 18.0294 395.029 14 400 14C404.971 14 409 18.0294 409 23ZM407.5 23C407.5 27.1421 404.142 30.5 400 30.5C395.858 30.5 392.5 27.1421 392.5 23C392.5 18.8579 395.858 15.5 400 15.5C404.142 15.5 407.5 18.8579 407.5 23Z" fill="#B3B3B3"/>
<rect x="476" y="17" width="12" height="12" rx="1" fill="#B3B3B3"/>
</svg>
