<svg width="810" height="49" viewBox="0 0 810 49" fill="none" xmlns="http://www.w3.org/2000/svg">
<g clip-path="url(#clip0_77_4353)" filter="url(#filter0_d_77_4353)">
<rect width="812" height="48" fill="#3D3D3D" fill-opacity="0.94"/>
<path d="M76.3062 24.2441C76.3062 24.0293 76.3814 23.8467 76.5425 23.6963L85.1363 15.5107C85.2759 15.3711 85.4585 15.2959 85.6626 15.2959C86.0816 15.2959 86.4038 15.6182 86.4038 16.0371C86.4038 16.2412 86.3179 16.4238 86.1997 16.5635L78.1216 24.2441L86.1997 31.9248C86.3179 32.0537 86.4038 32.2363 86.4038 32.4404C86.4038 32.8701 86.0816 33.1816 85.6626 33.1816C85.4585 33.1816 85.2759 33.1064 85.1363 32.9668L76.5425 24.792C76.3814 24.6416 76.3062 24.459 76.3062 24.2441Z" fill="#007AFF"/>
<path d="M122.913 24.2441C122.913 24.459 122.838 24.6416 122.677 24.792L114.094 32.9668C113.943 33.1064 113.771 33.1816 113.557 33.1816C113.148 33.1816 112.815 32.8701 112.815 32.4404C112.815 32.2363 112.901 32.0537 113.03 31.9248L121.098 24.2441L113.03 16.5635C112.901 16.4238 112.815 16.2412 112.815 16.0371C112.815 15.6182 113.148 15.2959 113.557 15.2959C113.771 15.2959 113.943 15.3711 114.094 15.5107L122.677 23.6963C122.838 23.8467 122.913 24.0293 122.913 24.2441Z" fill="#A3A3A3"/>
<path d="M144.77 32.5371V17.9707C144.77 17.7881 144.791 17.6592 144.898 17.4766C145.865 15.8652 148.25 14.5654 151.043 14.5654C153.449 14.5654 155.426 15.543 156.5 16.9502C157.574 15.543 159.551 14.5654 161.957 14.5654C164.75 14.5654 167.135 15.8652 168.102 17.4766C168.209 17.6592 168.23 17.7881 168.23 17.9707V32.5371C168.23 33.1816 167.801 33.4502 167.317 33.4502C167.027 33.4502 166.791 33.2998 166.479 33.085C165.33 32.1504 163.708 31.5811 161.989 31.5918C160.303 31.6025 158.648 32.2686 157.413 33.4932C157.08 33.8154 156.801 33.9229 156.5 33.9229C156.199 33.9229 155.931 33.8262 155.587 33.4932C154.362 32.2471 152.687 31.6025 151.011 31.5918C149.292 31.5811 147.67 32.1504 146.521 33.085C146.209 33.2998 145.962 33.4502 145.683 33.4502C145.199 33.4502 144.77 33.1816 144.77 32.5371ZM146.102 31.7529C147.208 30.8721 148.991 30.2598 151.043 30.2598C152.998 30.2598 154.781 31.0762 155.834 31.9678V18.2285C154.985 16.7891 153.181 15.8975 151.043 15.8975C148.97 15.8975 146.982 16.7891 146.102 18.1318V31.7529ZM157.166 31.9678C158.219 31.0762 160.002 30.2598 161.957 30.2598C164.009 30.2598 165.803 30.8721 166.898 31.7529V18.1318C166.007 16.7891 164.03 15.8975 161.957 15.8975C159.819 15.8975 158.004 16.7891 157.166 18.2285V31.9678Z" fill="#007AFF"/>
<g filter="url(#filter1_d_77_4353)">
<rect x="204" y="6.5" width="404" height="35" rx="11.5" fill="white" fill-opacity="0.2" shape-rendering="crispEdges"/>
<path d="M224.391 30.167C224.839 30.167 225.067 29.9736 225.243 29.4814L226.271 26.6426H231.132L232.151 29.4814C232.327 29.9736 232.556 30.167 233.004 30.167C233.496 30.167 233.821 29.877 233.821 29.4199C233.821 29.2617 233.786 29.1211 233.725 28.9277L229.884 18.6797C229.673 18.1084 229.295 17.8359 228.697 17.8359C228.126 17.8359 227.739 18.1084 227.537 18.6709L223.696 28.9453C223.626 29.1387 223.6 29.2793 223.6 29.4287C223.6 29.8857 223.898 30.167 224.391 30.167ZM226.693 25.2891L228.671 19.752H228.724L230.692 25.2891H226.693ZM215.883 30.167C216.252 30.167 216.498 29.9824 216.647 29.5078L217.28 27.6797H220.33L220.963 29.5078C221.121 29.9912 221.367 30.167 221.736 30.167C222.185 30.167 222.501 29.877 222.501 29.4551C222.501 29.2969 222.466 29.1387 222.387 28.9189L219.926 22.3711C219.732 21.8438 219.372 21.5186 218.792 21.5186C218.238 21.5186 217.887 21.8438 217.693 22.3711L215.224 28.9189C215.145 29.1387 215.118 29.3057 215.118 29.4551C215.118 29.877 215.426 30.167 215.883 30.167ZM217.667 26.4756L218.748 23.2236H218.854L219.943 26.4756H217.667Z" fill="white"/>
<path opacity="0.5" d="M362.602 30.0381C361.645 30.0381 361.139 29.5186 361.139 28.4863V23.9883C361.139 23.0791 361.535 22.5664 362.287 22.457V20.8984C362.287 18.4854 363.873 17.2891 365.589 17.2891C367.305 17.2891 368.891 18.4854 368.891 20.8984V22.4639C369.643 22.5664 370.039 23.0791 370.039 23.9883V28.4863C370.039 29.5186 369.533 30.0381 368.569 30.0381H362.602ZM363.374 20.7754V22.4365H367.804V20.7754C367.804 19.1826 366.778 18.3281 365.589 18.3281C364.393 18.3281 363.374 19.1826 363.374 20.7754Z" fill="white"/>
<path d="M377.328 29.5V22.2031H375.93V21.0781H377.328V20.1406C377.328 18.4609 378.172 17.6562 379.773 17.6562C380.102 17.6562 380.398 17.6797 380.68 17.7344V18.8203C380.516 18.7891 380.289 18.7812 380.047 18.7812C379.078 18.7812 378.688 19.2578 378.688 20.1797V21.0781H380.602V22.2031H378.688V29.5H377.328ZM383.281 19.4531C382.766 19.4531 382.344 19.0312 382.344 18.5156C382.344 18 382.766 17.5781 383.281 17.5781C383.797 17.5781 384.219 18 384.219 18.5156C384.219 19.0312 383.797 19.4531 383.281 19.4531ZM382.594 29.5V21.0781H383.953V29.5H382.594ZM389.984 32.4688C387.953 32.4688 386.656 31.5547 386.445 30.1719L386.461 30.1641H387.867L387.875 30.1719C388.023 30.8125 388.773 31.2656 389.984 31.2656C391.492 31.2656 392.391 30.5547 392.391 29.3125V27.6094H392.266C391.734 28.5391 390.781 29.0625 389.625 29.0625C387.445 29.0625 386.094 27.375 386.094 25.0156V25C386.094 22.6406 387.453 20.9297 389.656 20.9297C390.844 20.9297 391.766 21.5156 392.281 22.4688H392.375V21.0781H393.734V29.3828C393.734 31.2656 392.281 32.4688 389.984 32.4688ZM389.922 27.8594C391.484 27.8594 392.422 26.6875 392.422 25.0156V25C392.422 23.3281 391.477 22.1328 389.922 22.1328C388.359 22.1328 387.484 23.3281 387.484 25V25.0156C387.484 26.6875 388.359 27.8594 389.922 27.8594ZM396.266 29.5V21.0781H397.625V22.3594H397.75C398.125 21.4531 398.922 20.9297 400.023 20.9297C401.164 20.9297 401.961 21.5312 402.352 22.4062H402.477C402.93 21.5156 403.891 20.9297 405.055 20.9297C406.773 20.9297 407.734 21.9141 407.734 23.6797V29.5H406.375V23.9922C406.375 22.75 405.805 22.1328 404.617 22.1328C403.445 22.1328 402.672 23.0156 402.672 24.0859V29.5H401.312V23.7812C401.312 22.7812 400.625 22.1328 399.562 22.1328C398.461 22.1328 397.625 23.0938 397.625 24.2812V29.5H396.266ZM412.5 29.6484C410.898 29.6484 409.688 28.6797 409.688 27.1484V27.1328C409.688 25.6328 410.797 24.7656 412.758 24.6484L415.172 24.5V23.7344C415.172 22.6953 414.539 22.1328 413.281 22.1328C412.273 22.1328 411.609 22.5078 411.391 23.1641L411.383 23.1875H410.023L410.031 23.1406C410.25 21.8203 411.531 20.9297 413.328 20.9297C415.383 20.9297 416.531 21.9844 416.531 23.7344V29.5H415.172V28.2578H415.047C414.516 29.1562 413.633 29.6484 412.5 29.6484ZM411.078 27.1172C411.078 27.9688 411.805 28.4688 412.781 28.4688C414.164 28.4688 415.172 27.5625 415.172 26.3594V25.5938L412.922 25.7344C411.641 25.8125 411.078 26.2656 411.078 27.1016V27.1172ZM420.125 29.5781C419.57 29.5781 419.109 29.1172 419.109 28.5625C419.109 28 419.57 27.5469 420.125 27.5469C420.688 27.5469 421.141 28 421.141 28.5625C421.141 29.1172 420.688 29.5781 420.125 29.5781ZM426.898 29.6484C424.539 29.6484 423.031 27.9375 423.031 25.2656V25.25C423.031 22.6328 424.531 20.9297 426.891 20.9297C428.938 20.9297 430.164 22.1094 430.414 23.6094L430.422 23.6562H429.07L429.062 23.6328C428.852 22.8047 428.102 22.1328 426.891 22.1328C425.375 22.1328 424.422 23.3516 424.422 25.25V25.2656C424.422 27.2031 425.391 28.4453 426.891 28.4453C428.023 28.4453 428.742 27.9453 429.055 27.0078L429.07 26.9609L430.414 26.9531L430.398 27.0391C430.055 28.5625 428.922 29.6484 426.898 29.6484ZM435.867 29.6484C433.469 29.6484 431.984 27.9922 431.984 25.2969V25.2812C431.984 22.5781 433.469 20.9297 435.867 20.9297C438.266 20.9297 439.75 22.5781 439.75 25.2812V25.2969C439.75 27.9922 438.266 29.6484 435.867 29.6484ZM435.867 28.4453C437.461 28.4453 438.359 27.2812 438.359 25.2969V25.2812C438.359 23.2891 437.461 22.1328 435.867 22.1328C434.273 22.1328 433.375 23.2891 433.375 25.2812V25.2969C433.375 27.2812 434.273 28.4453 435.867 28.4453ZM441.859 29.5V21.0781H443.219V22.3594H443.344C443.719 21.4531 444.516 20.9297 445.617 20.9297C446.758 20.9297 447.555 21.5312 447.945 22.4062H448.07C448.523 21.5156 449.484 20.9297 450.648 20.9297C452.367 20.9297 453.328 21.9141 453.328 23.6797V29.5H451.969V23.9922C451.969 22.75 451.398 22.1328 450.211 22.1328C449.039 22.1328 448.266 23.0156 448.266 24.0859V29.5H446.906V23.7812C446.906 22.7812 446.219 22.1328 445.156 22.1328C444.055 22.1328 443.219 23.0938 443.219 24.2812V29.5H441.859Z" fill="white"/>
<path d="M590.578 23.1113C590.798 23.1113 590.965 23.041 591.097 22.9092L594.516 19.4639C594.674 19.3057 594.744 19.1299 594.744 18.9277C594.744 18.7344 594.665 18.541 594.516 18.3916L591.097 14.9199C590.965 14.7793 590.798 14.7002 590.578 14.7002C590.183 14.7002 589.875 15.0254 589.875 15.4385C589.875 15.623 589.945 15.7988 590.068 15.9482L592.213 18.04C591.765 17.9609 591.308 17.9258 590.859 17.9258C586.764 17.9258 583.485 21.1953 583.485 25.291C583.485 29.3867 586.772 32.6826 590.868 32.6826C594.955 32.6826 598.242 29.3867 598.242 25.291C598.242 24.8604 597.935 24.5439 597.495 24.5439C597.073 24.5439 596.792 24.8604 596.792 25.291C596.792 28.5869 594.155 31.2324 590.868 31.2324C587.572 31.2324 584.936 28.5869 584.936 25.291C584.936 21.9863 587.563 19.3584 590.859 19.3584C591.466 19.3584 592.011 19.4023 592.494 19.499L590.077 21.8984C589.945 22.0391 589.875 22.2061 589.875 22.3906C589.875 22.8037 590.183 23.1113 590.578 23.1113Z" fill="white"/>
</g>
<path d="M638.585 27.1445C638.23 27.1445 637.93 26.8545 637.93 26.5V14.9307L637.983 13.373L637.017 14.3613L635.19 16.2627C635.072 16.3916 634.89 16.4561 634.729 16.4561C634.385 16.4561 634.138 16.209 634.138 15.876C634.138 15.6934 634.202 15.5645 634.331 15.4355L638.112 11.7402C638.273 11.5791 638.424 11.5254 638.585 11.5254C638.757 11.5254 638.907 11.5791 639.068 11.7402L642.839 15.4355C642.968 15.5645 643.032 15.6934 643.032 15.876C643.032 16.209 642.774 16.4561 642.431 16.4561C642.27 16.4561 642.098 16.3916 641.979 16.2627L640.153 14.3613L639.197 13.373L639.24 14.9307V26.5C639.24 26.8545 638.95 27.1445 638.585 27.1445ZM632.408 35.416C630.313 35.416 629.239 34.3525 629.239 32.2793V21.3008C629.239 19.2168 630.313 18.1533 632.408 18.1533H635.48V19.4854H632.43C631.227 19.4854 630.571 20.1299 630.571 21.3652V32.2041C630.571 33.4502 631.227 34.084 632.43 34.084H644.74C645.933 34.084 646.609 33.4502 646.609 32.2041V21.3652C646.609 20.1299 645.933 19.4854 644.74 19.4854H641.711V18.1533H644.772C646.867 18.1533 647.941 19.2275 647.941 21.3008V32.2793C647.941 34.3418 646.867 35.416 644.772 35.416H632.408Z" fill="#007AFF"/>
<path d="M670.739 24.2441C670.739 23.8467 671.072 23.5137 671.47 23.5137H678.71V16.2627C678.71 15.876 679.043 15.543 679.44 15.543C679.838 15.543 680.171 15.876 680.171 16.2627V23.5137H687.422C687.809 23.5137 688.142 23.8467 688.142 24.2441C688.142 24.6416 687.809 24.9746 687.422 24.9746H680.171V32.2148C680.171 32.6123 679.838 32.9453 679.44 32.9453C679.043 32.9453 678.71 32.6123 678.71 32.2148V24.9746H671.47C671.072 24.9746 670.739 24.6416 670.739 24.2441Z" fill="#007AFF"/>
<path d="M715.408 30.4854C713.303 30.4854 712.239 29.4219 712.239 27.3486V16.499C712.239 14.415 713.303 13.3623 715.408 13.3623H726.193C728.288 13.3623 729.362 14.4365 729.362 16.499V18.0459H731.403C733.498 18.0459 734.572 19.1094 734.572 21.1826V32.0215C734.572 34.0947 733.498 35.1689 731.403 35.1689H720.618C718.513 35.1689 717.449 34.1055 717.449 32.0215V30.4854H715.408ZM715.43 29.1533H717.449V21.1826C717.449 19.0986 718.513 18.0459 720.618 18.0459H728.03V16.5742C728.03 15.3281 727.354 14.6943 726.172 14.6943H715.43C714.227 14.6943 713.571 15.3281 713.571 16.5742V27.2734C713.571 28.5195 714.227 29.1533 715.43 29.1533ZM720.64 33.8369H731.382C732.563 33.8369 733.24 33.1924 733.24 31.957V21.2471C733.24 20.0117 732.563 19.3672 731.382 19.3672H720.64C719.437 19.3672 718.781 20.0117 718.781 21.2471V31.957C718.781 33.1924 719.437 33.8369 720.64 33.8369Z" fill="#007AFF"/>
</g>
<defs>
<filter id="filter0_d_77_4353" x="-28" y="-28" width="868" height="104" filterUnits="userSpaceOnUse" color-interpolation-filters="sRGB">
<feFlood flood-opacity="0" result="BackgroundImageFix"/>
<feColorMatrix in="SourceAlpha" type="matrix" values="0 0 0 0 0 0 0 0 0 0 0 0 0 0 0 0 0 0 127 0" result="hardAlpha"/>
<feOffset dy="0.33"/>
<feComposite in2="hardAlpha" operator="out"/>
<feColorMatrix type="matrix" values="0 0 0 0 1 0 0 0 0 1 0 0 0 0 1 0 0 0 0.3 0"/>
<feBlend mode="normal" in2="BackgroundImageFix" result="effect1_dropShadow_77_4353"/>
<feBlend mode="normal" in="SourceGraphic" in2="effect1_dropShadow_77_4353" result="shape"/>
</filter>
<filter id="filter1_d_77_4353" x="187" y="-10.5" width="438" height="69" filterUnits="userSpaceOnUse" color-interpolation-filters="sRGB">
<feFlood flood-opacity="0" result="BackgroundImageFix"/>
<feColorMatrix in="SourceAlpha" type="matrix" values="0 0 0 0 0 0 0 0 0 0 0 0 0 0 0 0 0 0 127 0" result="hardAlpha"/>
<feOffset/>
<feGaussianBlur stdDeviation="8.5"/>
<feComposite in2="hardAlpha" operator="out"/>
<feColorMatrix type="matrix" values="0 0 0 0 0 0 0 0 0 0 0 0 0 0 0 0 0 0 0.13 0"/>
<feBlend mode="normal" in2="BackgroundImageFix" result="effect1_dropShadow_77_4353"/>
<feBlend mode="normal" in="SourceGraphic" in2="effect1_dropShadow_77_4353" result="shape"/>
</filter>
<clipPath id="clip0_77_4353">
<rect width="812" height="48" fill="white"/>
</clipPath>
</defs>
</svg>
